<svg width="80" height="80" viewBox="0 0 21.167 21.167" xmlns="http://www.w3.org/2000/svg"><defs><linearGradient id="a"><stop offset="0%" stop-color="#006db6"/><stop offset="100%" stop-color="#00affc"/></linearGradient></defs><path d="M16.141 9.34l2.058 1.235c-.645.277-1.236.712-1.852 1.055-.631.352-1.722.763-2.09 1.415-.356.632.149 1.433.855 1.435.547.001 1.087-.438 1.544-.698 1.106-.63 2.193-1.293 3.293-1.932.504-.293 1.205-.585 1.217-1.275.013-.686-.709-1.028-1.217-1.312-1.315-.734-2.594-1.532-3.91-2.264-.518-.287-1.241-.583-1.698-.003-.26.33-.198.73-.163 1.11.049.54.008 1.102.008 1.646 0 .297-.048.651.097.923.362.675 1.432.63 1.704-.1.14-.377.047-.837.154-1.235M7.395 12.12c-.003.173.003.346-.049.514-.38 1.243-1.554.726-2.421.515-.116.163-.35.399-.343.614.01.29.428.442.652.532.74.297 1.794.309 2.47-.166.806-.567.823-1.431.823-2.318V8.311c-.509 0-.804.019-1.03.515-.213-.233-.414-.398-.72-.498-2.36-.771-3.599 2.99-1.543 4.02.337.169.655.193 1.029.182.452-.012.75-.195 1.132-.411m-7.1-3.396c.059.244.133.603.42.677.664.174 1.334-.568 1.872.252.08.121.064.273.074.409-.653-.069-1.219-.16-1.852.111-.956.408-1.116 1.783-.203 2.35.796.494 1.559.107 2.26-.3.193.459.671.506 1.133.514.024-.232.113-.488.068-.72-.054-.288-.232-.524-.265-.823-.084-.75.222-1.716-.263-2.364-.668-.893-2.42-.577-3.245-.106m12.555 3.499l-.412-.72c-.745.178-1.419.59-2.047-.107-.137-.152-.223-.333-.32-.511h1.955c.29 0 .675.064.915-.137.5-.418-.06-1.556-.409-1.913-.686-.7-1.996-.716-2.767-.143-1.046.779-1.14 2.736-.097 3.562.947.75 2.22.555 3.182-.031m-6.69-2.959c1.392-.326 1.73 1.932.515 2.293-1.39.412-1.84-1.982-.514-2.293m5.865.798l-1.852.102c.068-1.246 1.497-1.146 1.852-.102m-9.364.72c0 .2.025.43-.074.614-.202.375-.876.575-1.252.34-.412-.256-.15-.77.194-.92.121-.052.284-.033.412-.034z" fill="#fff"/></svg>