<?xml version="1.0" encoding="UTF-8" standalone="no"?>
<svg
   height="116"
   viewBox="0 0 18.56 18.573182"
   width="116"
   version="1.1"
   id="svg8"
   sodipodi:docname="banco-da-amazonia.svg"
   inkscape:version="1.1.2 (b8e25be833, 2022-02-05)"
   xmlns:inkscape="http://www.inkscape.org/namespaces/inkscape"
   xmlns:sodipodi="http://sodipodi.sourceforge.net/DTD/sodipodi-0.dtd"
   xmlns="http://www.w3.org/2000/svg"
   xmlns:svg="http://www.w3.org/2000/svg">
  <defs
     id="defs12" />
  <sodipodi:namedview
     id="namedview10"
     pagecolor="#ffffff"
     bordercolor="#666666"
     borderopacity="1.0"
     inkscape:pageshadow="2"
     inkscape:pageopacity="0.0"
     inkscape:pagecheckerboard="0"
     showgrid="true"
     inkscape:zoom="4.1835965"
     inkscape:cx="69.796406"
     inkscape:cy="52.944877"
     inkscape:window-width="1852"
     inkscape:window-height="1016"
     inkscape:window-x="68"
     inkscape:window-y="27"
     inkscape:window-maximized="1"
     inkscape:current-layer="svg8">
    <inkscape:grid
       type="xygrid"
       id="grid2013" />
  </sodipodi:namedview>
  <g
     id="g1989"
     transform="matrix(1.2083372,0,0,1.2083372,-2.0217363,-1.0253079)"
     style="stroke-width:0.827584;fill:#ffffff">
    <path
       d="m 2.0180011,12.247809 c -0.0434,0 -0.069,0.0013 -0.0982,-6.22e-4 v -0.305253 l 0.001,-0.143789 -0.001,-0.282509 c 0.0239,0 0.0548,-0.0024 0.11135,-0.0024 0.11563,0 0.1779,0.03702 0.1779,0.119521 0,0.08029 -0.0612,0.145955 -0.17682,0.144823 v 0.151222 c 0.10747,0.0013 0.20351,0.05686 0.20351,0.165597 0,0.114303 -0.10215,0.153438 -0.21773,0.153438 z m 0.26164,-0.410497 v -0.0032 c 0.12513,-0.04662 0.18356,-0.135273 0.18356,-0.230477 0,-0.09973 -0.0548,-0.173719 -0.13375,-0.213789 -0.0819,-0.04657 -0.16259,-0.04529 -0.32908,-0.04529 -0.12916,0 -0.26463,0.0044 -0.33267,0.0079 v 1.064318 h 0.27611 c 0.22448,0 0.36074,-0.01949 0.44255,-0.08226 0.0704,-0.05316 0.11701,-0.130399 0.11701,-0.229984 -3.5e-4,-0.140245 -0.0955,-0.235695 -0.22398,-0.26715 z m 1.3867,0.584019 v -1.084944 h 0.27423 l 0.21487,0.3976 c 0.0623,0.114008 0.12204,0.249921 0.16969,0.372248 h 0.003 c -0.003,-0.143741 -0.009,-0.287087 -0.009,-0.452487 l -0.0103,-0.317312 h 0.21522 v 1.084944 h -0.24619 l -0.22161,-0.418372 c -0.0615,-0.117749 -0.1306,-0.256469 -0.17968,-0.383374 h -0.006 c 0.007,0.14507 0.011,0.297572 0.011,0.474836 v 0.32696 h -0.21625 l 1.9e-4,-1.02e-4 z m 10.9439499,0 v -1.084944 h 0.27384 l 0.21522,0.3976 c 0.0615,0.114008 0.12134,0.249921 0.16894,0.372248 h 0.003 c -0.003,-0.143741 -0.009,-0.287087 -0.009,-0.452487 l -0.0101,-0.317312 h 0.21488 v 1.084944 h -0.2454 l -0.22201,-0.418372 c -0.0612,-0.117749 -0.13025,-0.256469 -0.17997,-0.383374 h -0.006 c 0.008,0.14507 0.0113,0.297572 0.0113,0.474836 v 0.32696 h -0.21615 l 5e-5,-1.02e-4 z m -9.1220899,-0.02845 c -0.0417,0.02038 -0.14015,0.04598 -0.26499,0.04598 -0.35827,0 -0.54292,-0.234809 -0.54292,-0.545278 0,-0.370476 0.25258,-0.575109 0.5663,-0.575109 0.12169,0 0.21379,0.02604 0.25544,0.04859 l -0.002,0.185582 c -0.0459,-0.02102 -0.15939,-0.0324 -0.24475,-0.0324 -0.1843,0 -0.32908,0.11706 -0.32908,0.360384 0,0.217285 0.12341,0.354035 0.3308,0.354035 0.0722,0 0.18105,-0.01467 0.2291,-0.03569 l 0.002,0.193902 z m 1.75539,-0.156884 c 0.0203,0.005 0.0542,0.005 0.0815,0.005 0.21423,0.0018 0.35393,-0.120555 0.35393,-0.379878 0,-0.23348 -0.12597,-0.344435 -0.32902,-0.344435 -0.0509,0 -0.0862,0.0051 -0.10643,0.01009 v 0.709201 h -3.5e-4 z m -0.23333,-0.883609 c 0.0886,-0.0079 0.20459,-0.0125 0.32165,-0.0125 0.19843,0 0.32091,0.02235 0.41906,0.101111 0.10811,0.08403 0.17569,0.218613 0.17569,0.412711 0,0.206996 -0.0722,0.350343 -0.17037,0.438999 -0.10918,0.09451 -0.27853,0.125822 -0.48306,0.12976 -0.10997,0.0024 -0.20389,-0.0057 -0.26297,-0.0057 z m 1.39064,0.183614 -0.14669,0.606761 -0.0724,0.278571 h -0.24318 l 0.31702,-1.084944 h 0.30618 l 0.32342,1.084944 h -0.25253 l -0.0802,-0.278571 z m -5.31051,0 -0.14767,0.606761 -0.0719,0.278571 h -0.24219 l 0.31554,-1.084944 h 0.30668 l 0.32341,1.084944 h -0.25203 l -0.0802,-0.278571 z m 6.71789,0 -0.14768,0.606761 -0.0724,0.278571 h -0.24268 l 0.31701,-1.084944 h 0.30618 l 0.3224399,1.084944 h -0.25204 l -0.0802,-0.278571 z m 2.3303599,0 -0.14719,0.606761 -0.0719,0.278571 h -0.24367 l 0.31751,-1.084944 h 0.30569 l 0.32292,1.084944 h -0.25253 l -0.0793,-0.278571 z m 4.41608,0 -0.14719,0.606761 -0.0729,0.278571 h -0.24269 l 0.31702,-1.084944 h 0.30668 l 0.32292,1.084944 h -0.25253 l -0.0797,-0.278571 z m -3.89822,0.752963 0.49325,-0.745087 v -0.0044 h -0.44846 v -0.203107 h 0.75218 v 0.141623 l -0.4834,0.733912 v 0.0064 h 0.49079 v 0.203058 h -0.80436 z m 1.41427,-1.213031 0.14724,0.202713 h -0.15187 l -0.0715,-0.106377 h -0.003 l -0.0719,0.106377 h -0.15048 l 0.1463,-0.202713 h 0.1556 -4e-5 z m -0.0778,1.168136 c 0.14807,0 0.2323,-0.156047 0.2323,-0.368507 0,-0.194492 -0.0814,-0.361714 -0.2323,-0.361714 -0.15078,0 -0.23545,0.163678 -0.23545,0.366735 0,0.204584 0.0875,0.363486 0.23407,0.363486 h 0.002 z m -0.01,0.194788 c -0.28601,0 -0.45535,-0.243079 -0.45535,-0.551874 0,-0.324991 0.18677,-0.568513 0.471,-0.568513 0.29703,0 0.46007,0.250118 0.46007,0.549462 0,0.357136 -0.19149,0.570925 -0.4743,0.570925 h -0.002 1.8e-4 z M 6.0521511,12.24407 h -0.002 c -0.14693,0 -0.23407,-0.158902 -0.23407,-0.363486 0,-0.203057 0.0847,-0.366735 0.23589,-0.366735 0.15043,0 0.23191,0.167173 0.23191,0.361714 3.4e-4,0.21251 -0.0842,0.368507 -0.23137,0.368507 z m 0.005,-0.925599 c -0.28462,0 -0.47134,0.243522 -0.47134,0.568513 0,0.308746 0.16969,0.551874 0.45535,0.551874 h 0.002 c 0.28212,0 0.4739,-0.213789 0.4739,-0.570925 -3.4e-4,-0.299344 -0.16342,-0.549462 -0.46026,-0.549462 z m 9.8841199,1.102863 h -0.23335 V 11.33639 h 0.23333 z m -5.51579,0.0035 v -1.082089 h 0.35393 l 0.1915,0.659974 0.19739,-0.66283 h 0.35394 v 1.082581 h -0.223 v -0.827835 l -0.26779,0.815972 h -0.1462 l -0.23874,-0.80593 10e-4,0.817793 z"
       fill="#45403e"
       id="path6"
       style="fill:#ffffff;stroke-width:0.827583" />
    <path
       id="path2"
       style="fill:#ffffff;stroke-width:0.827583"
       d="m 9.4204511,4.6290542 -1.35366,2.038446 -0.76612,1.155418 -1.6047,2.4158868 h 2.22119 l 1.0523,-1.5973208 0.85081,-1.294148 1.5523399,-2.357868 -1.0005,2.678066 c -10e-6,-4e-6 -2e-5,4e-6 -3e-5,0 -0.25958,-0.131783 -0.4531799,-0.257785 -0.5517199,-0.320292 l -0.85081,1.294149 c 0.0308,0.03006 0.0467,0.04996 0.0467,0.04996 0.28626,0.184538 0.55667,0.326965 0.81278,0.430979 0.7344599,0.301688 1.3516999,0.296529 1.8581299,0.137673 1.26289,-0.397242 1.84048,-1.758091 1.84048,-1.758091 -0.62567,0.484235 -1.26739,0.604172 -1.84061,0.557291 v -3.430146 z m -1.80269,2.00486 c -1.87764,0.0087 -2.43908,1.990232 -2.43908,1.990232 0.79488,-0.680515 1.51988,-0.852986 2.12187,-0.801228 l 0.76611,-1.155418 c -0.15738,-0.02362 -0.3069,-0.03424 -0.4489,-0.03359 z m 2.21116,2.488506 -0.40847,1.0941918 H 11.687021 V 9.2600932 c -0.50653,0.158857 -1.12363,0.164015 -1.8580999,-0.137673 z" />
  </g>
</svg>
