<svg width="116" height="116" xmlns="http://www.w3.org/2000/svg"><path d="M39.393 11.5v36.602l9.187 15.746 23.031-8.01c1.98-.71 3.462-1.571 4.686-2.69 2.554-2.402 3.853-5.394 3.853-8.855 0-3.49-1.286-6.468-3.84-8.871-2.055-1.844-4.73-2.977-7.994-3.385 2.01-2.16 3.13-5.031 3.13-8.144 0-3.522-1.3-6.498-3.854-8.856-2.57-2.388-6.135-3.537-10.91-3.537h-17.29zm1.738 1.723h15.535c4.322 0 7.496 1.013 9.732 3.084 2.192 2.025 3.293 4.578 3.293 7.586 0 3.234-1.328 6.059-3.761 7.978H48.113V42.3l-6.982 4.049V13.223zm8.719 20.386h13.343L49.85 41.301v-7.692zm16.638 0c3.703.167 6.53 1.163 8.645 3.067 2.221 2.1 3.295 4.58 3.295 7.588 0 3.022-1.089 5.514-3.295 7.6-1.043.966-2.312 1.678-4.08 2.327L49.85 61.566V43.295l15.61-9.006h.017c.317-.196.604-.378.86-.574.046-.03.106-.075.151-.106zM48.113 44.293v15.293l-6.666-11.424 6.666-3.869zm19.07 27.006c-2.357 0-4.699 1.436-4.925 4.096-.046 1.193.27 2.387 1.238 3.263.831.831 1.98 1.39 3.219 1.934.922.408 2.524 1.104 2.433 2.388-.09 1.058-.922 1.663-2.252 1.663-.86 0-1.92-.183-2.66-.832l-.316-.317-1.889 1.979.317.318c1.239 1.058 2.841 1.525 4.504 1.57 2.614 0 4.957-1.465 5.199-4.351.09-1.149-.228-2.342-1.196-3.264-.74-.74-1.751-1.286-3.126-1.935-.922-.408-2.617-1.103-2.526-2.387.09-.907.832-1.512 1.98-1.512h.046c.74 0 1.526.183 2.765.787v-2.857c-.876-.408-1.798-.543-2.81-.543zm33.76 0c-2.448 0-4.744 1.481-4.925 4.096-.046 1.193.27 2.341 1.238 3.308.876.831 2.07 1.39 3.219 1.889.921.408 2.207.922 2.343 2.07.091.831-.409 1.39-1.013 1.707-.922.469-2.221.786-3.778.922-.136 0-1.104.046-1.92.031v2.766c1.874 0 3.31-.137 4.55-.363 2.432-.514 5.109-1.843 5.335-4.745.09-1.375-.544-2.48-1.33-3.265-.786-.695-1.799-1.239-3.174-1.889-.906-.408-2.614-1.102-2.523-2.387.045-.906.83-1.511 1.978-1.511 1.33 0 2.434 1.011 2.434 1.011l1.889-1.933c-1.149-1.164-2.615-1.707-4.323-1.707zm-15.822.271v15.098c3.038.876 5.894 1.33 9.385 1.42v-2.72a29.206 29.206 0 01-6.498-.952v-3.914h4.64v-2.63h-4.64v-3.628h6.03V71.57H85.12zM10 71.586V87.09h4.775c1.708 0 3.173-.407 4.186-1.238.967-.786 1.512-1.936 1.512-3.266 0-.877-.227-1.798-.922-2.523-.363-.378-.816-.756-1.375-.983 1.148-.56 1.888-1.979 1.888-3.309 0-.604-.09-1.148-.316-1.662-.876-1.934-3.174-2.478-5.244-2.523H10zm16.23 0L20.896 87.09h2.993l1.51-4.594h5.017l1.467 4.594h3.174l-5.471-15.504H26.23zm10.08 0V87.09h2.84v-9.854l7.27 9.946h2.025V71.586h-2.857v9.43l-6.89-9.43H36.31zm15.217 0V87.09h8.932v-2.674h-5.984v-3.914h4.638v-2.615h-4.638v-3.643h5.984v-2.658h-8.932zm20.75 0v2.658h3.854v12.938h2.945V74.244h3.87v-2.658H72.276zm-59.375 2.523h1.557c1.194 0 2.674.363 2.674 1.889 0 1.511-1.33 2.025-2.705 2.07h-1.526V74.11zm14.975.604l1.709 5.289h-3.4l1.691-5.29zm-14.99 5.652h1.662c1.33 0 2.992.362 2.992 2.115 0 1.527-1.345 2.025-2.72 2.07h-1.934v-4.185zm11.91 12.336c-1.244 0-2.223.288-2.934.867-.706.58-1.058 1.372-1.058 2.377 0 .869.256 1.548.77 2.035.512.488 1.342.844 2.49 1.073l.937.183c.782.158 1.343.394 1.684.71.345.314.517.751.517 1.31 0 .64-.237 1.131-.715 1.476-.477.346-1.156.518-2.035.518a6.182 6.182 0 01-1.765-.266 8.999 8.999 0 01-1.836-.793v1.584c.65.24 1.276.42 1.88.541.61.122 1.183.184 1.721.184 1.427 0 2.51-.285 3.246-.854.742-.568 1.112-1.403 1.112-2.505 0-.925-.274-1.66-.823-2.21-.543-.553-1.39-.94-2.537-1.158l-.928-.189c-.843-.157-1.418-.363-1.722-.617-.3-.26-.45-.64-.45-1.143 0-.599.226-1.061.678-1.386.457-.326 1.106-.489 1.944-.489.482 0 .982.07 1.5.207a9.488 9.488 0 011.652.625V93.28a11.742 11.742 0 00-1.697-.433 9.49 9.49 0 00-1.631-.145zm21.289 0c-1.777 0-3.168.52-4.174 1.56-1 1.037-1.5 2.484-1.5 4.343 0 1.853.5 3.3 1.5 4.341 1.006 1.036 2.397 1.555 4.174 1.555.812 0 1.577-.107 2.293-.32a6.796 6.796 0 001.965-.96v-4.882h-4.037v1.264h2.513v3.054c-.34.198-.722.345-1.148.442a6.975 6.975 0 01-1.455.138c-1.392 0-2.438-.389-3.139-1.166-.696-.777-1.043-1.933-1.043-3.466 0-1.54.347-2.696 1.043-3.473.7-.777 1.747-1.166 3.139-1.166.706 0 1.378.121 2.017.365.64.244 1.244.608 1.813 1.09v-1.637a6.797 6.797 0 00-1.85-.808 7.94 7.94 0 00-2.111-.274zm33.943 0c-1.6 0-2.88.536-3.84 1.608-.954 1.066-1.431 2.497-1.431 4.295 0 1.797.477 3.23 1.431 4.296.96 1.067 2.24 1.6 3.84 1.6 1.595 0 2.87-.533 3.825-1.6.954-1.071 1.431-2.504 1.431-4.296 0-1.798-.477-3.229-1.431-4.295-.955-1.072-2.23-1.608-3.825-1.608zm11.15 0c-1.243 0-2.22.288-2.931.867-.706.58-1.059 1.372-1.059 2.377 0 .869.257 1.548.77 2.035.513.488 1.343.844 2.49 1.073l.938.183c.782.158 1.343.394 1.683.71.346.314.518.751.518 1.31 0 .64-.24 1.131-.717 1.476-.477.346-1.155.518-2.033.518a6.195 6.195 0 01-1.768-.266 8.999 8.999 0 01-1.836-.793v1.584c.65.24 1.279.42 1.883.541.61.122 1.183.184 1.72.184 1.428 0 2.509-.285 3.245-.854.741-.568 1.113-1.403 1.113-2.505 0-.925-.275-1.66-.824-2.21-.543-.553-1.387-.94-2.535-1.158l-.93-.189c-.843-.157-1.416-.363-1.72-.617-.3-.26-.452-.64-.452-1.143 0-.599.228-1.061.68-1.386.457-.326 1.104-.489 1.941-.489.483 0 .983.07 1.5.207.518.137 1.07.346 1.655.625V93.28a11.766 11.766 0 00-1.7-.433 9.49 9.49 0 00-1.63-.145zm-59.968.205v11.373h7.328v-1.295h-5.791v-4.12h5.416v-1.296h-5.416v-3.367H38.4v-1.295h-7.19zm21.77 0v7.1c0 1.483.366 2.603 1.097 3.36.736.756 1.823 1.134 3.26 1.134 1.432 0 2.513-.378 3.244-1.135.736-.756 1.105-1.876 1.105-3.36v-7.099h-1.546v6.908c0 1.22-.22 2.099-.662 2.637-.442.533-1.156.799-2.141.799-.99 0-1.707-.266-2.149-.799-.441-.538-.662-1.418-.662-2.637v-6.908H52.98zm11.593 0v11.373h1.537v-4.806h1.678c.61 0 1.09.124 1.44.373.355.249.72.754 1.095 1.515l1.455 2.918h1.653l-1.56-3.107c-.316-.64-.631-1.144-.946-1.51-.31-.366-.63-.603-.96-.715.636-.183 1.118-.51 1.448-.982.335-.472.502-1.067.502-1.783 0-1.097-.32-1.918-.959-2.461-.64-.544-1.61-.815-2.91-.815h-3.473zM80.03 93.95c1.117 0 2 .417 2.65 1.25.656.833.983 1.967.983 3.405 0 1.432-.327 2.565-.982 3.398-.65.833-1.534 1.248-2.65 1.248-1.118 0-2.007-.415-2.667-1.248-.655-.833-.982-1.966-.982-3.398 0-1.438.327-2.572.982-3.405.66-.833 1.55-1.25 2.666-1.25zm-13.918.223h1.936c.741 0 1.3.17 1.676.51.38.335.572.834.572 1.5 0 .665-.191 1.17-.572 1.515-.376.34-.935.512-1.676.512H66.11v-4.037z" fill="#fff"/></svg>