<svg width="116" height="116" xmlns="http://www.w3.org/2000/svg"><path d="M39.393 11.5v36.602l9.189 15.746 23.03-8.01c1.979-.71 3.46-1.571 4.685-2.69 2.554-2.402 3.853-5.394 3.853-8.855 0-3.49-1.284-6.468-3.838-8.871-2.055-1.844-4.73-2.977-7.994-3.385 2.01-2.16 3.127-5.031 3.127-8.144 0-3.522-1.3-6.498-3.853-8.856-2.57-2.388-6.135-3.537-10.91-3.537h-17.29zm1.738 1.723h15.535c4.322 0 7.496 1.013 9.732 3.084 2.192 2.025 3.295 4.578 3.295 7.586 0 3.234-1.33 6.059-3.763 7.978H48.113V42.3l-6.982 4.049V13.223zm8.72 20.386h13.344l-13.343 7.692v-7.692zm16.637 0c3.703.167 6.53 1.165 8.645 3.069 2.221 2.1 3.295 4.578 3.295 7.586 0 3.022-1.089 5.516-3.295 7.601-1.043.967-2.312 1.677-4.08 2.326l-21.201 7.375V43.295l15.609-9.006h.016c.317-.196.604-.378.86-.574.046-.03.106-.075.151-.106zM48.113 44.293v15.293L41.45 48.162l6.664-3.869zm19.07 27.006c-2.357 0-4.699 1.436-4.925 4.096-.046 1.193.27 2.387 1.238 3.263.831.831 1.98 1.39 3.219 1.934.922.408 2.524 1.104 2.433 2.388-.09 1.058-.922 1.663-2.252 1.663-.86 0-1.92-.183-2.66-.832l-.316-.317-1.889 1.979.317.318c1.239 1.058 2.841 1.527 4.504 1.572 2.614 0 4.957-1.467 5.199-4.353.09-1.149-.228-2.342-1.196-3.264-.74-.74-1.751-1.284-3.126-1.933-.922-.409-2.615-1.105-2.524-2.39.09-.906.83-1.51 1.979-1.51h.045c.74 0 1.526.182 2.765.786v-2.857c-.876-.408-1.798-.543-2.81-.543zm33.76 0c-2.448 0-4.744 1.481-4.925 4.096-.046 1.193.273 2.341 1.24 3.308.876.831 2.07 1.39 3.219 1.889.921.408 2.205.922 2.341 2.07.091.831-.407 1.392-1.011 1.71-.922.468-2.223.785-3.78.921-.136 0-1.102.044-1.918.03v2.765c1.874 0 3.308-.137 4.547-.363 2.433-.514 5.11-1.843 5.336-4.745.09-1.375-.544-2.48-1.33-3.265-.786-.695-1.799-1.239-3.174-1.889-.906-.408-2.614-1.102-2.523-2.387.045-.906.83-1.511 1.978-1.511 1.33 0 2.434 1.011 2.434 1.011l1.889-1.933c-1.149-1.164-2.615-1.707-4.323-1.707zm-15.822.271v15.098c3.038.876 5.894 1.33 9.385 1.42v-2.72a29.206 29.206 0 01-6.498-.952v-3.914h4.64v-2.629h-4.64v-3.627h6.031V71.57h-8.918zM10 71.586V87.09h4.775c1.708 0 3.173-.407 4.186-1.238.967-.786 1.512-1.934 1.512-3.264 0-.877-.227-1.8-.922-2.525-.363-.378-.816-.754-1.375-.981 1.148-.56 1.888-1.98 1.888-3.31 0-.605-.09-1.149-.316-1.663-.876-1.934-3.174-2.478-5.244-2.523H10zm16.23 0L20.896 87.09h2.993l1.511-4.594h5.016l1.467 4.594h3.174l-5.471-15.504H26.23zm10.08 0V87.09h2.84v-9.852l7.27 9.944h2.025V71.586H45.59v9.43l-6.893-9.43h-2.386zm15.217 0V87.09h8.932v-2.674h-5.984v-3.914h4.64v-2.615h-4.64v-3.64h5.984v-2.661h-8.932zm20.75 0v2.66h3.854v12.936h2.947V74.246h3.867v-2.66H72.277zm-59.375 2.523h1.557c1.194 0 2.674.363 2.674 1.889 0 1.511-1.33 2.025-2.705 2.07h-1.526V74.11zm14.975.604l1.709 5.289h-3.4l1.691-5.29zm-14.99 5.652h1.662c1.33 0 2.992.362 2.992 2.115 0 1.527-1.345 2.025-2.72 2.07h-1.934v-4.185zM36.69 92.906v11.373h3.16c2.194 0 3.81-.46 4.846-1.379s1.553-2.358 1.553-4.318c0-1.95-.514-3.383-1.545-4.297-1.03-.919-2.65-1.379-4.853-1.379h-3.16zm10.436 0v1.295h4.037v10.078h1.547V94.201h4.037v-1.295h-9.621zm9.697 0l4.342 11.373h1.744l4.334-11.373h-1.6l-3.61 9.574-3.604-9.574h-1.606zm12.08 0v11.373h1.492v-9.986l2.934 7.8h1.547l2.932-7.8v9.986h1.5V92.906h-2.293l-2.916 7.74-2.903-7.74h-2.293zM38.23 94.172h1.858c1.569 0 2.717.355 3.443 1.066.731.706 1.098 1.82 1.098 3.344 0 1.534-.367 2.654-1.098 3.365-.726.711-1.874 1.067-3.443 1.067H38.23v-8.842z" fill="#fff"/></svg>