<svg width="116" height="116" xmlns="http://www.w3.org/2000/svg"><path d="M39.393 19.707v36.6l9.187 15.748 23.031-8.01c1.98-.71 3.462-1.571 4.686-2.69 2.554-2.402 3.853-5.394 3.853-8.855 0-3.49-1.286-6.468-3.84-8.871-2.055-1.844-4.73-2.977-7.994-3.385 2.01-2.16 3.13-5.033 3.13-8.146 0-3.521-1.3-6.498-3.854-8.856-2.57-2.388-6.135-3.535-10.91-3.535h-17.29zm1.738 1.723h15.535c4.322 0 7.496 1.011 9.732 3.082 2.192 2.025 3.293 4.578 3.293 7.586 0 3.234-1.328 6.06-3.761 7.98H48.113v10.426l-6.982 4.05V21.43zm8.719 20.384h13.343L49.85 49.508v-7.694zm16.638 0c3.703.167 6.53 1.165 8.645 3.069 2.221 2.1 3.295 4.578 3.295 7.586 0 3.022-1.089 5.516-3.295 7.601-1.043.967-2.312 1.679-4.08 2.328L49.85 69.771V51.502l15.61-9.008h.017c.317-.196.604-.378.86-.574.046-.03.106-.075.151-.106zM48.113 52.5v15.293l-6.666-11.426 6.666-3.867zm19.07 27.004c-2.357 0-4.699 1.436-4.925 4.096-.046 1.193.27 2.387 1.238 3.263.831.831 1.98 1.392 3.219 1.936.922.408 2.524 1.102 2.433 2.387-.09 1.057-.922 1.662-2.252 1.662-.86 0-1.92-.18-2.66-.83l-.316-.319-1.889 1.98.317.317c1.239 1.058 2.841 1.527 4.504 1.572 2.614 0 4.957-1.465 5.199-4.351.09-1.149-.228-2.344-1.196-3.266-.74-.74-1.751-1.284-3.126-1.933-.922-.408-2.617-1.103-2.526-2.387.09-.907.832-1.512 1.98-1.512h.046c.74 0 1.526.18 2.765.785V80.05c-.876-.408-1.798-.545-2.81-.545zm33.76 0c-2.448 0-4.744 1.481-4.925 4.096-.046 1.193.27 2.343 1.238 3.31.876.831 2.07 1.39 3.219 1.889.921.408 2.207.922 2.343 2.07.091.831-.409 1.39-1.013 1.707-.922.469-2.221.786-3.778.922-.136 0-1.104.044-1.92.03v2.765c1.874 0 3.31-.135 4.55-.361 2.432-.514 5.109-1.845 5.335-4.746.09-1.376-.544-2.478-1.33-3.264-.786-.695-1.799-1.239-3.174-1.889-.906-.408-2.614-1.104-2.523-2.388.045-.907.83-1.51 1.978-1.51 1.33 0 2.434 1.011 2.434 1.011l1.889-1.933c-1.149-1.164-2.615-1.71-4.323-1.71zm-15.822.273v15.096c3.038.877 5.894 1.33 9.385 1.42v-2.719a29.208 29.208 0 01-6.498-.953v-3.914h4.64v-2.629h-4.64v-3.627h6.03v-2.674H85.12zM10 79.791v15.506h4.775c1.708 0 3.173-.41 4.186-1.24.967-.786 1.512-1.934 1.512-3.264 0-.877-.227-1.798-.922-2.523-.363-.378-.816-.756-1.375-.983 1.148-.559 1.888-1.98 1.888-3.31 0-.605-.09-1.149-.316-1.663-.876-1.934-3.174-2.478-5.244-2.523H10zm16.23 0l-5.334 15.506h2.993l1.51-4.594h5.017l1.467 4.594h3.174L29.586 79.79H26.23zm10.08 0v15.506h2.84v-9.854l7.27 9.944h2.025V79.79h-2.857v9.43l-6.89-9.43H36.31zm15.217 0v15.506h8.932V92.62h-5.984v-3.914h4.638v-2.613h-4.638V82.45h5.984v-2.66h-8.932zm20.75 0v2.66h3.854v12.936h2.945V82.45h3.87v-2.66H72.276zm-59.375 2.523h1.557c1.194 0 2.674.365 2.674 1.891 0 1.511-1.33 2.025-2.705 2.07h-1.526v-3.96zm14.975.606l1.709 5.289h-3.4l1.691-5.29zm-14.99 5.652h1.662c1.33 0 2.992.363 2.992 2.115 0 1.527-1.345 2.025-2.72 2.07h-1.934v-4.185z" fill="#fff"/></svg>