<?xml version="1.0" encoding="UTF-8" standalone="no"?>
<!-- Generator: Adobe Illustrator 24.1.2, SVG Export Plug-In . SVG Version: 6.00 Build 0)  -->

<svg
   version="1.1"
   id="Camada_1"
   x="0px"
   y="0px"
   viewBox="0 0 116 116"
   xml:space="preserve"
   sodipodi:docname="banese.svg"
   inkscape:version="1.1.1 (26b7af14f2, 2022-01-19)"
   width="116"
   height="116"
   xmlns:inkscape="http://www.inkscape.org/namespaces/inkscape"
   xmlns:sodipodi="http://sodipodi.sourceforge.net/DTD/sodipodi-0.dtd"
   xmlns="http://www.w3.org/2000/svg"
   xmlns:svg="http://www.w3.org/2000/svg"><defs
   id="defs23" /><sodipodi:namedview
   id="namedview21"
   pagecolor="#ffffff"
   bordercolor="#666666"
   borderopacity="1.0"
   inkscape:pageshadow="2"
   inkscape:pageopacity="0.0"
   inkscape:pagecheckerboard="0"
   showgrid="false"
   inkscape:zoom="1"
   inkscape:cx="249"
   inkscape:cy="255.5"
   inkscape:window-width="1852"
   inkscape:window-height="1016"
   inkscape:window-x="68"
   inkscape:window-y="27"
   inkscape:window-maximized="1"
   inkscape:current-layer="Camada_1" />
<style
   type="text/css"
   id="style2">
	.st0{fill-rule:evenodd;clip-rule:evenodd;fill:#256236;}
	.st1{fill:#256236;}
</style>

<g
   id="g18"
   style="fill:#ffffff;stroke-width:3.48261"
   transform="matrix(0.28714075,0,0,0.28714075,-15.506479,-15.509468)">
	<path
   class="st0"
   d="m 215.85,184.47 c 0,0 5.23,-26.19 33.08,-21.24 27.85,4.96 49.71,16.39 77.9,-7.58 0,0 -5.96,23.32 -36.57,27.82 -30.61,4.5 -44.55,-12.01 -74.41,1 M 180.77,131.78 H 331.23 V 282.23 H 180.77 v -32.16 c 19.07,3.44 38.5,8.36 64.89,4.47 54.36,-8 64.95,-49.41 64.95,-49.41 -47.16,40.08 -84.34,24.41 -129.85,15.1 v -9.6 c 31.16,-6.02 51.29,10.01 88.45,4.54 44.12,-6.5 52.71,-40.11 52.71,-40.11 -40.64,34.54 -72.15,18.07 -112.3,10.92 -12.55,-2.23 -21.92,-0.07 -28.86,3.95 v -58.15 z"
   id="path4"
   style="fill:#ffffff;stroke-width:3.48261" />
	<path
   class="st1"
   d="m 105.76,345.61 h 5.82 c 2.15,0 4.15,0.19 6,0.58 1.85,0.41 3.47,1.03 4.87,1.87 1.4,0.84 2.5,1.94 3.28,3.27 0.79,1.35 1.18,2.95 1.19,4.81 -0.01,1.98 -0.41,3.68 -1.19,5.08 -0.76,1.38 -1.83,2.52 -3.19,3.4 -1.35,0.86 -2.89,1.49 -4.64,1.91 -1.75,0.41 -3.6,0.59 -5.54,0.59 -1.44,0 -2.71,0 -3.77,-0.01 -1.07,-0.04 -2.02,-0.09 -2.84,-0.2 v -21.3 z m 0,-29.8 c 0.65,-0.12 1.55,-0.23 2.71,-0.32 1.18,-0.08 2.69,-0.13 4.58,-0.13 3.88,0 6.87,0.75 8.94,2.22 2.1,1.47 3.13,3.66 3.16,6.51 0,1.89 -0.52,3.51 -1.55,4.89 -1.05,1.4 -2.58,2.46 -4.63,3.25 -2.03,0.77 -4.58,1.14 -7.6,1.16 h -5.6 v -17.58 z m -16.03,62.97 c 1.85,0.26 3.76,0.43 6.63,0.63 3.1,0.23 6.76,0.34 10.96,0.36 4.98,0 9.37,-0.28 13.14,-0.81 3.77,-0.52 7.02,-1.3 9.75,-2.31 2.71,-1.02 4.98,-2.26 6.8,-3.72 1.59,-1.27 2.95,-2.7 4.13,-4.33 1.18,-1.62 2.07,-3.41 2.72,-5.38 0.65,-1.96 0.99,-4.1 0.99,-6.42 -0.01,-3.23 -0.69,-6.08 -1.98,-8.56 -1.29,-2.5 -3.06,-4.6 -5.3,-6.28 -2.26,-1.68 -4.84,-2.89 -7.73,-3.64 v -0.23 c 2.84,-1.1 5.17,-2.48 7,-4.13 1.85,-1.67 3.21,-3.49 4.1,-5.52 0.88,-2.04 1.32,-4.15 1.32,-6.37 -0.01,-2.31 -0.39,-4.43 -1.15,-6.33 -0.75,-1.9 -1.8,-3.56 -3.14,-5 -1.35,-1.43 -2.89,-2.63 -4.67,-3.56 -1.85,-1.08 -3.85,-1.93 -5.97,-2.55 -2.15,-0.62 -4.56,-1.07 -7.23,-1.33 -2.69,-0.26 -5.74,-0.37 -9.2,-0.37 -2.91,0 -5.75,0.07 -8.54,0.22 -2.8,0.15 -5.38,0.35 -7.74,0.58 -2.13,0.22 -3.49,0.4 -4.95,0.64 -0.51,0.07 -0.86,0.57 -0.84,1 v 72.48 c 0.01,0.4 0.36,0.86 0.9,0.93"
   id="path6"
   style="fill:#ffffff;stroke-width:3.48261" />
	<path
   class="st1"
   d="m 181.99,359.05 c 0,0.5 -0.02,1.01 -0.08,1.5 -0.05,0.5 -0.14,0.97 -0.25,1.42 -0.39,1.17 -1.01,2.22 -1.87,3.18 -0.86,0.93 -1.9,1.68 -3.1,2.24 -1.19,0.56 -2.48,0.84 -3.88,0.86 -1.29,0 -2.43,-0.25 -3.43,-0.71 -1,-0.49 -1.82,-1.19 -2.39,-2.17 -0.58,-0.95 -0.88,-2.17 -0.9,-3.62 0.04,-2.15 0.75,-3.86 2.13,-5.14 1.4,-1.25 3.28,-2.16 5.68,-2.7 2.39,-0.54 5.08,-0.8 8.1,-0.79 v 5.93 z m 16.47,-12.43 c 0.02,-3.27 -0.37,-6.33 -1.18,-9.19 -0.81,-2.87 -2.12,-5.37 -3.96,-7.56 -1.85,-2.18 -4.29,-3.88 -7.39,-5.11 -3.08,-1.24 -6.88,-1.87 -11.45,-1.89 -3.32,0.02 -6.36,0.28 -9.11,0.8 -2.72,0.52 -5.11,1.15 -7.17,1.91 -1.68,0.61 -3.14,1.2 -4.29,1.83 -0.61,0.36 -0.54,0.98 -0.48,1.17 l 2.55,8.94 c 0.18,0.63 0.9,0.93 1.45,0.64 0.95,-0.52 2.02,-1 3.19,-1.44 1.62,-0.61 3.38,-1.12 5.23,-1.49 1.87,-0.37 3.73,-0.58 5.62,-0.58 2.09,0.02 3.78,0.24 5.09,0.69 1.33,0.44 2.34,1.04 3.05,1.75 0.7,0.73 1.19,1.49 1.46,2.34 0.26,0.82 0.39,1.62 0.37,2.39 v 0.67 c -4.85,0 -9.26,0.43 -13.2,1.27 -3.93,0.86 -7.32,2.15 -10.14,3.86 -2.82,1.74 -5,3.9 -6.52,6.53 -1.51,2.63 -2.28,5.74 -2.29,9.28 0,2.21 0.41,4.31 1.21,6.31 0.79,2 1.96,3.79 3.48,5.36 1.53,1.58 3.38,2.82 5.57,3.73 2.18,0.92 4.66,1.38 7.45,1.4 3.27,0 6.25,-0.58 8.94,-1.72 2.67,-1.14 4.93,-2.82 6.74,-5 H 183 v 4.47 c 0,0.47 0.38,1.01 1.01,1.01 h 15.35 c -0.23,-1.03 -0.39,-2.22 -0.52,-3.62 -0.13,-1.4 -0.22,-2.91 -0.3,-4.56 -0.06,-1.63 -0.07,-3.3 -0.07,-5.04 v -19.15 z"
   id="path8"
   style="fill:#ffffff;stroke-width:3.48261" />
	<path
   class="st1"
   d="m 208.52,378.99 h 14.97 c 0.7,0 1.03,-0.61 1.03,-1 V 347.4 c 0,-0.8 0.04,-1.57 0.11,-2.3 0.07,-0.74 0.22,-1.4 0.45,-1.96 0.41,-1.06 0.99,-2.09 1.77,-3.04 0.76,-0.97 1.72,-1.77 2.87,-2.39 1.16,-0.61 2.53,-0.93 4.1,-0.95 2.05,0.02 3.71,0.52 4.99,1.51 1.27,0.99 2.18,2.37 2.77,4.14 0.59,1.78 0.88,3.84 0.87,6.21 v 29.36 c 0,0.57 0.47,1 1.01,1 h 14.99 c 0.71,0 1.03,-0.6 1.03,-1 v -31.37 c -0.02,-4.04 -0.51,-7.53 -1.5,-10.5 -0.97,-2.97 -2.33,-5.43 -4.1,-7.38 -1.75,-1.94 -3.82,-3.39 -6.22,-4.34 -2.37,-0.95 -4.96,-1.42 -7.78,-1.42 -2.29,0.01 -4.37,0.31 -6.2,0.87 -1.85,0.56 -3.47,1.31 -4.85,2.21 -1.41,0.89 -2.6,1.84 -3.57,2.87 -0.97,1.01 -1.73,1.98 -2.3,2.89 h -0.33 v -6.57 c 0,-0.8 -0.68,-1.04 -1.03,-1.04 h -14.55 l 0.32,4.83 c 0.19,2.89 0.13,4.88 0.13,8.29 v 40.64 c -0.01,0.64 0.49,1.03 1.02,1.03"
   id="path10"
   style="fill:#ffffff;stroke-width:3.48261" />
	<path
   class="st1"
   d="m 281.6,345.38 c 0.11,-1.14 0.37,-2.35 0.82,-3.62 0.45,-1.27 1.08,-2.48 1.93,-3.61 0.84,-1.14 1.91,-2.05 3.17,-2.76 1.29,-0.71 2.82,-1.08 4.61,-1.1 1.94,0.02 3.55,0.41 4.82,1.14 1.24,0.75 2.24,1.7 2.95,2.86 0.69,1.14 1.2,2.35 1.48,3.61 0.28,1.26 0.41,2.42 0.39,3.49 H 281.6 Z m 35.55,10.79 c 0.07,-0.52 0.15,-1.14 0.23,-1.86 0.12,-1.19 0.19,-2.53 0.19,-4 0,-2.72 -0.28,-5.41 -0.84,-8.04 -0.57,-2.63 -1.46,-5.12 -2.65,-7.43 -1.22,-2.31 -2.77,-4.37 -4.69,-6.14 -1.92,-1.77 -4.22,-3.16 -6.91,-4.16 -2.69,-1.02 -5.81,-1.53 -9.34,-1.55 -3.81,0.01 -7.2,0.6 -10.19,1.7 -2.99,1.12 -5.58,2.66 -7.77,4.59 -2.21,1.94 -4.02,4.16 -5.45,6.65 -1.44,2.5 -2.51,5.13 -3.21,7.91 -0.69,2.79 -1.05,5.58 -1.05,8.39 0.02,5.73 1.17,10.7 3.46,14.84 2.28,4.16 5.58,7.38 9.93,9.64 4.36,2.24 9.64,3.38 15.86,3.42 3.71,0 7.23,-0.31 10.58,-0.87 3.02,-0.5 5.86,-1.27 8.43,-2.29 0.52,-0.2 0.75,-0.77 0.65,-1.14 -0.61,-3.19 -1.24,-6.39 -1.86,-9.58 -0.15,-0.8 -0.87,-0.91 -1.3,-0.79 -1.94,0.62 -3.95,1.09 -6.01,1.43 -2.46,0.39 -5.14,0.57 -8.03,0.57 -2,0 -3.9,-0.2 -5.71,-0.63 -1.79,-0.43 -3.41,-1.07 -4.83,-1.93 -1.42,-0.86 -2.56,-1.94 -3.41,-3.25 -0.88,-1.3 -1.36,-2.86 -1.49,-4.61 h 34.44 c 0.45,-0.01 0.9,-0.37 0.97,-0.87"
   id="path12"
   style="fill:#ffffff;stroke-width:3.48261" />
	<path
   class="st1"
   d="m 324.14,376.65 c 1.96,0.98 4.3,1.79 7.02,2.45 3.05,0.73 6.37,1.1 9.99,1.12 5.22,-0.04 9.59,-0.8 13.11,-2.34 3.49,-1.51 6.12,-3.6 7.87,-6.27 1.78,-2.67 2.65,-5.73 2.65,-9.21 -0.01,-2.65 -0.54,-5.02 -1.56,-7.13 -1.03,-2.09 -2.62,-3.96 -4.78,-5.58 -2.17,-1.61 -4.99,-3.01 -8.44,-4.2 -2.22,-0.76 -3.98,-1.48 -5.28,-2.11 -1.29,-0.63 -2.23,-1.29 -2.77,-1.94 -0.55,-0.67 -0.82,-1.45 -0.8,-2.33 0.02,-1.36 0.57,-2.42 1.7,-3.19 1.12,-0.76 2.71,-1.15 4.8,-1.18 1.55,0.02 3.08,0.19 4.57,0.5 1.49,0.34 2.88,0.74 4.15,1.21 0.76,0.29 1.43,0.57 2.04,0.85 0.37,0.22 1.2,0.16 1.43,-0.7 l 2.51,-10.11 c 0.08,-0.31 -0.15,-0.51 -0.28,-0.57 -1.65,-0.79 -3.69,-1.48 -6.15,-2.07 -2.65,-0.64 -5.58,-0.95 -8.81,-0.99 -3.4,0.02 -6.46,0.47 -9.21,1.36 -2.73,0.9 -5.08,2.17 -7.02,3.79 -1.96,1.62 -3.46,3.53 -4.48,5.71 -1.05,2.18 -1.57,4.57 -1.59,7.17 -0.06,2.18 0.45,4.27 1.48,6.31 1.04,2.04 2.73,3.89 5.04,5.64 2.31,1.74 5.38,3.23 9.17,4.52 2.07,0.69 3.7,1.35 4.85,1.96 1.16,0.6 1.96,1.25 2.43,1.94 0.46,0.71 0.68,1.53 0.67,2.48 0.01,1.42 -0.54,2.5 -1.7,3.28 -1.16,0.79 -3.02,1.18 -5.58,1.2 -1.72,-0.02 -3.49,-0.23 -5.34,-0.62 -1.86,-0.41 -3.6,-0.91 -5.26,-1.53 -1.12,-0.41 -2.13,-0.79 -2.97,-1.28 -0.47,-0.26 -1.24,-0.01 -1.42,0.65 l -2.51,10.05 c -0.09,0.31 -0.06,0.86 0.47,1.16"
   id="path14"
   style="fill:#ffffff;stroke-width:3.48261" />
	<path
   class="st1"
   d="m 387.2,345.38 c 0.11,-1.14 0.37,-2.35 0.82,-3.62 0.44,-1.27 1.08,-2.48 1.92,-3.61 0.84,-1.14 1.91,-2.05 3.17,-2.76 1.29,-0.71 2.82,-1.08 4.61,-1.1 1.93,0.02 3.54,0.41 4.82,1.14 1.24,0.75 2.24,1.7 2.95,2.86 0.69,1.14 1.19,2.35 1.47,3.61 0.28,1.26 0.41,2.42 0.39,3.49 H 387.2 Z m 35.54,10.79 c 0.08,-0.52 0.15,-1.14 0.23,-1.86 0.12,-1.19 0.19,-2.53 0.19,-4 0,-2.72 -0.28,-5.41 -0.84,-8.04 -0.56,-2.63 -1.46,-5.12 -2.65,-7.43 -1.22,-2.31 -2.77,-4.37 -4.69,-6.14 -1.92,-1.77 -4.22,-3.16 -6.91,-4.16 -2.68,-1.02 -5.8,-1.53 -9.34,-1.55 -3.81,0.01 -7.2,0.6 -10.19,1.7 -2.99,1.12 -5.59,2.66 -7.77,4.59 -2.2,1.94 -4.01,4.16 -5.45,6.65 -1.44,2.5 -2.5,5.13 -3.21,7.91 -0.69,2.79 -1.05,5.58 -1.05,8.39 0.02,5.73 1.17,10.7 3.46,14.84 2.28,4.16 5.58,7.38 9.93,9.64 4.35,2.24 9.63,3.38 15.85,3.42 3.72,0 7.24,-0.31 10.58,-0.87 3.03,-0.5 5.86,-1.27 8.44,-2.29 0.52,-0.2 0.75,-0.77 0.65,-1.14 -0.62,-3.19 -1.24,-6.39 -1.86,-9.58 -0.15,-0.8 -0.87,-0.91 -1.3,-0.79 -1.95,0.62 -3.96,1.09 -6.02,1.43 -2.46,0.39 -5.13,0.57 -8.02,0.57 -2,0 -3.91,-0.2 -5.72,-0.63 -1.79,-0.43 -3.41,-1.07 -4.83,-1.93 -1.41,-0.86 -2.55,-1.94 -3.41,-3.25 -0.88,-1.3 -1.36,-2.86 -1.49,-4.61 h 34.44 c 0.47,-0.01 0.91,-0.37 0.98,-0.87"
   id="path16"
   style="fill:#ffffff;stroke-width:3.48261" />
</g></svg>
