<?xml version="1.0" encoding="UTF-8" standalone="no"?>
<!-- Creator: CorelDRAW 2019 (64-Bit Evaluation Version) -->

<svg
   xml:space="preserve"
   width="116"
   height="116"
   version="1.1"
   style="clip-rule:evenodd;fill-rule:evenodd;image-rendering:optimizeQuality;shape-rendering:geometricPrecision;text-rendering:geometricPrecision"
   viewBox="0 0 116 116.1043"
   id="svg15"
   sodipodi:docname="banpara.svg"
   inkscape:version="1.1.2 (76b9e6a115, 2022-02-25)"
   xmlns:inkscape="http://www.inkscape.org/namespaces/inkscape"
   xmlns:sodipodi="http://sodipodi.sourceforge.net/DTD/sodipodi-0.dtd"
   xmlns="http://www.w3.org/2000/svg"
   xmlns:svg="http://www.w3.org/2000/svg"><sodipodi:namedview
   id="namedview17"
   pagecolor="#ffffff"
   bordercolor="#666666"
   borderopacity="1.0"
   inkscape:pageshadow="2"
   inkscape:pageopacity="0.0"
   inkscape:pagecheckerboard="0"
   showgrid="true"
   inkscape:zoom="3.1977163"
   inkscape:cx="68.486375"
   inkscape:cy="77.398985"
   inkscape:window-width="1852"
   inkscape:window-height="1016"
   inkscape:window-x="68"
   inkscape:window-y="27"
   inkscape:window-maximized="1"
   inkscape:current-layer="Layer_x0020_1"><inkscape:grid
     type="xygrid"
     id="grid970" /></sodipodi:namedview>
 <defs
   id="defs4">
  <style
   type="text/css"
   id="style2">
   <![CDATA[
    .fil0 {fill:#081E60}
    .fil1 {fill:#EA1C24}
    .fil2 {fill:white}
   ]]>
  </style>
 
   
   
   
  </defs>
 <g
   id="Layer_x0020_1"
   inkscape:label="Layer 1"
   inkscape:groupmode="layer">
  <metadata
   id="CorelCorpID_0Corel-Layer" />
  <path
   id="path7"
   style="fill:#ffffff;stroke-width:0.0639471"
   class="fil0"
   d="M 0.052734375 43.40625 L 0.052734375 72.59375 L 29.238281 72.59375 L 29.238281 43.40625 L 0.052734375 43.40625 z M 16.412109 47.898438 C 18.650201 47.911095 21.044882 48.183202 22.099609 49.443359 C 23.80252 51.478795 23.597943 55.924201 21.203125 56.988281 C 20.649343 55.779681 18.911002 54.967126 17.734375 54.517578 C 17.729899 54.340444 17.828287 54.09244 17.873047 53.912109 C 18.580302 51.070941 16.502457 49.167785 14.011719 48.330078 C 13.828191 48.268688 12.946011 48.047283 12.876953 47.998047 C 13.783883 47.975506 15.069254 47.890843 16.412109 47.898438 z M 9.8261719 50.287109 C 11.93119 50.306016 14.26157 50.767113 14.970703 52.470703 C 15.172134 52.953504 15.096028 53.417263 15.005859 53.917969 C 14.853026 53.977443 14.06917 53.867777 13.826172 53.863281 C 11.171728 53.811484 9.4442896 54.057621 6.8691406 54.6875 C 6.5647525 54.762318 6.1297323 54.922037 5.8515625 54.966797 C 5.8406923 54.26146 5.8482958 53.547772 5.8476562 52.841797 C 5.8476562 52.504796 5.8076474 50.911974 5.8632812 50.724609 C 6.1318591 50.612702 6.9434012 50.507615 7.2695312 50.460938 C 7.9601597 50.36182 8.8693456 50.278516 9.8261719 50.287109 z M 42.259766 50.300781 C 40.110984 50.256498 37.759157 50.461027 35.980469 50.501953 L 36.148438 66.429688 C 42.217016 66.390043 44.917561 67.428016 48.708984 64.277344 C 49.230792 65.86451 50.372817 66.411551 52.375 66.560547 C 55.136875 66.766457 55.386523 66.65831 55.771484 64.361328 C 54.185596 64.521835 53.106597 64.996033 52.017578 63.949219 C 50.502032 61.473827 54.897237 60.559958 57.097656 59.84375 L 56.925781 66.296875 L 60.474609 66.296875 C 60.29108 52.857757 61.568042 52.351257 49.964844 54.025391 L 49.701172 56.400391 C 51.283222 55.950842 53.943331 54.8957 55.632812 55.5 C 56.678987 55.87473 57.307467 56.738228 56.345703 57.634766 C 54.820565 59.057588 50.67641 58.801677 48.912109 60.830078 C 48.239386 59.452018 48.056676 58.69294 45.755859 58.166016 C 48.202476 57.026478 49.794529 54.007683 47.326172 51.589844 C 46.355135 50.638311 44.408548 50.345065 42.259766 50.300781 z M 114.02539 50.386719 L 111.25586 50.419922 L 110.1582 52.371094 C 111.4608 52.476607 112.22763 52.670168 113.33008 51.568359 C 113.98618 50.912903 113.71845 51.177745 114.02539 50.386719 z M 41.214844 52.634766 C 43.180737 52.574485 45.267758 52.792844 45.007812 55.052734 C 44.737955 57.40343 41.585275 57.183549 39.425781 57.037109 L 39.380859 52.722656 C 39.918335 52.705549 40.559546 52.654859 41.214844 52.634766 z M 93.251953 53.345703 C 92.737725 53.361683 92.177815 53.401291 91.568359 53.466797 C 88.60633 53.785253 88.073976 53.429754 88.060547 56.347656 C 89.065156 56.068847 96.939842 54.157273 94.982422 57.416016 C 94.366612 58.441088 89.409807 59.080341 87.519531 60.498047 C 87.091085 52.368454 81.169201 54.029121 74.544922 54.451172 L 74.566406 69.541016 L 77.955078 69.533203 L 77.857422 64.828125 C 78.93493 65.660716 79.873021 66.831619 82.75 66.628906 C 85.043782 66.459447 85.907108 65.324806 86.746094 64.169922 C 88.073635 66.229018 90.239105 67.131565 92.695312 66.630859 C 93.536857 66.459481 93.769504 65.833766 94.091797 64.310547 C 92.571775 64.58488 88.509256 64.785297 90.244141 62.058594 C 90.813909 61.163335 94.233946 60.236731 95.433594 59.863281 L 95.226562 66.291016 L 98.808594 66.308594 C 98.405727 58.346583 100.96538 53.106009 93.251953 53.345703 z M 110.65234 53.371094 C 110.30247 53.364939 109.96191 53.37273 109.64258 53.386719 C 105.41888 53.572804 105.04247 54.055086 102.82031 55.912109 C 102.81632 53.400268 102.29132 53.964424 99.429688 54.121094 L 99.441406 66.382812 L 103.04297 66.388672 C 102.79869 62.943203 102.25211 58.639667 104.59961 56.931641 C 106.05824 55.870759 109.90383 54.601516 111.64062 55.822266 C 112.28138 56.272453 112.48612 56.740095 112.04297 57.416016 C 110.76531 59.367041 105.72089 58.314557 104.14844 61.306641 C 102.04906 65.358967 106.86334 67.232668 110.89648 66.382812 L 111.36328 64.320312 C 109.48388 64.708471 108.29111 65.003748 107.28906 63.591797 C 106.83504 60.910496 110.41387 60.892824 112.5625 59.791016 L 112.53516 66.320312 L 116.05273 66.332031 L 116.05273 57.111328 C 116.05273 54.07584 113.10148 53.414178 110.65234 53.371094 z M 69.304688 53.769531 C 67.423735 53.831836 65.462513 54.679122 64.503906 56.003906 L 64.099609 54.134766 L 61.103516 54.111328 L 60.935547 66.34375 L 64.457031 66.398438 C 64.409074 62.901171 63.494291 56.802718 67.568359 56.585938 C 71.907808 56.353809 70.504505 63.2315 70.429688 66.382812 L 73.931641 66.328125 C 73.785202 63.538753 74.480431 56.949986 73.039062 55.193359 C 72.181293 54.147865 70.76765 53.721072 69.304688 53.769531 z M 80.894531 56.310547 C 81.775482 56.354031 82.552545 56.655621 83.261719 57.484375 C 84.515081 58.949403 84.376878 61.724232 83.365234 63.142578 C 82.308828 64.624872 79.907407 64.376048 78.748047 63.066406 C 77.488929 61.644223 77.743789 58.745353 77.904297 56.689453 C 79.029446 56.482904 80.01358 56.267063 80.894531 56.310547 z M 12.869141 56.488281 C 13.006044 56.487376 13.122211 56.493745 13.210938 56.507812 C 12.866903 57.048166 10.541571 58.518655 9.8886719 58.830078 C 8.9863786 59.259802 6.7454385 60.345213 5.8457031 60.498047 L 5.8457031 58.042969 C 6.396927 57.865836 6.9269647 57.634943 7.4960938 57.464844 C 8.0786516 57.290268 8.6507117 57.119977 9.2441406 56.986328 C 9.9374069 56.831336 11.91082 56.49462 12.869141 56.488281 z M 16.376953 56.867188 C 17.003635 56.938168 18.033043 57.574827 18.419922 58.076172 C 19.012712 58.844816 18.971142 59.760262 18.599609 60.615234 C 18.306092 61.291795 17.73693 61.986922 17.230469 62.523438 C 15.362575 64.182863 13.471024 65.316041 11.078125 66.195312 C 9.2767354 66.857165 7.7468847 67.24672 5.8476562 67.533203 L 5.8476562 63.443359 C 6.1475681 63.266865 7.0322637 63.018311 7.4121094 62.878906 C 8.6725062 62.416569 10.647517 61.477807 11.748047 60.791016 C 12.66185 60.220608 13.428884 59.725438 14.248047 59.015625 C 14.922688 58.431149 15.898629 57.607694 16.376953 56.867188 z M 21.78125 58.720703 C 22.187953 58.929171 22.749169 59.728132 22.955078 60.138672 C 23.867604 61.952851 23.497409 64.653959 22.130859 66.146484 C 20.256571 68.19279 16.179908 68.197687 13.601562 68.041016 C 13.740327 67.936143 14.122939 67.752953 14.296875 67.664062 C 15.476699 67.0636 16.603507 66.355028 17.646484 65.539062 C 18.00267 65.260894 18.534177 64.847788 18.839844 64.53125 C 20.501828 62.805318 21.785746 61.2626 21.78125 58.720703 z M 41.351562 59.328125 C 43.3965 59.277227 45.521831 59.53577 45.541016 61.728516 C 45.564674 64.487193 41.827877 64.448255 39.439453 64.035156 L 39.414062 59.421875 C 39.99678 59.396296 40.669917 59.345091 41.351562 59.328125 z "
   transform="matrix(1.0008991,0,0,1.0008991,-0.05215,0)" />
 </g>
</svg>
