<?xml version="1.0" encoding="UTF-8" standalone="no"?>
<svg
   height="116"
   width="116"
   version="1.1"
   id="svg66"
   sodipodi:docname="bombeiros.svg"
   inkscape:version="1.1.2 (76b9e6a115, 2022-02-25)"
   xmlns:inkscape="http://www.inkscape.org/namespaces/inkscape"
   xmlns:sodipodi="http://sodipodi.sourceforge.net/DTD/sodipodi-0.dtd"
   xmlns="http://www.w3.org/2000/svg"
   xmlns:svg="http://www.w3.org/2000/svg">
  <defs
     id="defs70" />
  <sodipodi:namedview
     id="namedview68"
     pagecolor="#ffffff"
     bordercolor="#666666"
     borderopacity="1.0"
     inkscape:pageshadow="2"
     inkscape:pageopacity="0.0"
     inkscape:pagecheckerboard="0"
     showgrid="false"
     inkscape:zoom="1"
     inkscape:cx="19"
     inkscape:cy="24.5"
     inkscape:window-width="1852"
     inkscape:window-height="1016"
     inkscape:window-x="68"
     inkscape:window-y="27"
     inkscape:window-maximized="1"
     inkscape:current-layer="svg66" />
  <path
     id="path2"
     style="fill:#ffffff;stroke:none;stroke-width:1.47369"
     d="M 58,23 C 38.672631,23 23,38.674105 23,58 23,77.327369 38.674105,93 58,93 77.327369,93 93,77.325895 93,58 93,38.672631 77.325895,23 58,23 Z m -2.768914,2.063733 0.880756,4.990954 -1.085115,0.192846 -0.667763,-3.805099 -0.172698,3.951891 -0.978618,0.172698 -1.508224,-3.658306 0.670643,3.805099 -1.085117,0.192845 -0.880756,-4.990953 1.744244,-0.307978 1.208881,2.915707 0.135284,-3.151726 z m 1.850739,0.0086 2.518504,0.04318 c 0.419999,0.0059 0.740296,0.133828 0.961348,0.379934 a 1.2673684,1.2673684 0 0 1 0.31949,0.903783 1.2526316,1.2526316 0 0 1 -0.253289,0.768503 1.0698947,1.0698947 0 0 1 -0.474917,0.331004 1.1995789,1.1995789 0 0 1 0.685031,0.460526 1.3823158,1.3823158 0 0 1 0.207238,0.8088 1.568,1.568 0 0 1 -0.172697,0.708059 1.2732631,1.2732631 0 0 1 -0.4375,0.489309 1.2762105,1.2762105 0 0 1 -0.515214,0.155427 c -0.30358,0.03978 -0.502757,0.05756 -0.604441,0.05756 l -2.32278,-0.0403 z m 5.511926,0.28783 3.551808,0.624589 -0.187087,1.064967 -2.224919,-0.391448 -0.138158,0.794408 2.063734,0.362665 -0.178454,1.018914 -2.063734,-0.362664 -0.172697,0.981497 2.288239,0.402959 -0.198602,1.131169 -3.61801,-0.638981 z m -4.173521,0.762747 -0.01727,0.961348 0.584293,0.0086 c 0.210736,0.0044 0.357781,-0.03548 0.443256,-0.11801 0.084,-0.084 0.126574,-0.203506 0.129522,-0.362664 A 0.46863158,0.46863158 0 0 0 59.442023,26.26398 c -0.08105,-0.084 -0.225497,-0.12798 -0.428865,-0.132402 z m 9.236431,0.405839 1.283717,0.417351 -1.568667,4.818257 -1.283719,-0.417352 z m -19.88898,0.302221 c 0.301184,0.01622 0.58397,0.1001 0.843338,0.250411 0.518737,0.299158 0.909079,0.835349 1.174342,1.606086 0.193053,0.56 0.26858,1.046592 0.230264,1.46217 -0.03979,0.414107 -0.175737,0.772833 -0.414474,1.07936 -0.23579,0.305053 -0.585098,0.535983 -1.04194,0.693667 -0.464211,0.162106 -0.876544,0.205948 -1.240544,0.138158 a 2.0012631,2.0012631 0 0 1 -1.02467,-0.561266 c -0.316842,-0.308 -0.5711,-0.740987 -0.765626,-1.300987 -0.26821,-0.781052 -0.290204,-1.457612 -0.0662,-2.02056 0.225471,-0.565894 0.67223,-0.964595 1.341283,-1.194489 0.342631,-0.117895 0.663043,-0.168761 0.964228,-0.15255 z m 22.58018,0.630345 2.049342,0.912419 c 0.381685,0.168 0.653787,0.335769 0.820314,0.500822 a 1.040421,1.040421 0 0 1 0.299342,0.641858 1.5768421,1.5768421 0 0 1 -0.146795,0.828948 1.6018947,1.6018947 0 0 1 -0.440379,0.601563 1.3425263,1.3425263 0 0 1 -0.590049,0.28495 1.4913684,1.4913684 0 0 1 -0.512335,-0.0144 1.2806316,1.2806316 0 0 1 0.244654,0.313733 c 0.02653,0.05895 0.05976,0.168898 0.08923,0.331004 0.02947,0.162105 0.04318,0.28449 0.04318,0.365543 v 1.606091 l -1.3931,-0.618831 -0.0259,-1.706826 c -0.0015,-0.219579 -0.02206,-0.372174 -0.06333,-0.457649 A 0.51136842,0.51136842 0 0 0 70.465871,30.8088 l -0.106505,-0.04605 -0.837583,1.879524 -1.234786,-0.552632 z m -11.96217,0.587172 -0.01727,1.024671 0.687912,0.01155 c 0.232842,0.0044 0.396397,-0.03956 0.492186,-0.132402 a 0.52168421,0.52168421 0 0 0 0.14679,-0.382813 0.47894737,0.47894737 0 0 0 -0.132401,-0.365544 c -0.09284,-0.09284 -0.254925,-0.140897 -0.492188,-0.146792 z m -10.813735,0.01155 a 0.79873684,0.79873684 0 0 0 -0.38569,0.04893 0.77221053,0.77221053 0 0 0 -0.509457,0.526727 c -0.084,0.265262 -0.03988,0.643378 0.126648,1.131167 0.166526,0.481895 0.364506,0.802191 0.592928,0.961349 0.226946,0.157684 0.474457,0.192109 0.73972,0.100741 a 0.78105263,0.78105263 0 0 0 0.526726,-0.52961 c 0.07958,-0.257896 0.02878,-0.655191 -0.155426,-1.191613 -0.154737,-0.450914 -0.348711,-0.75189 -0.575658,-0.906628 A 0.79873684,0.79873684 0 0 0 47.57196,28.060028 Z m 23.593341,0.886507 -0.417352,0.941201 0.520969,0.230263 c 0.05453,0.02505 0.168414,0.05399 0.351153,0.08347 a 0.36842105,0.36842105 0 0 0 0.264802,-0.05756 0.52315789,0.52315789 0 0 0 0.195724,-0.236021 c 0.06631,-0.147367 0.07594,-0.279308 0.02878,-0.397203 -0.04422,-0.117895 -0.176014,-0.226509 -0.402961,-0.325247 z m -28.382814,0.05468 c 0.08195,0.005 0.162935,0.01885 0.241778,0.04318 a 1.2688421,1.2688421 0 0 1 0.73972,0.610197 1.2762105,1.2762105 0 0 1 0.178454,0.788652 1.0698947,1.0698947 0 0 1 -0.236021,0.526727 1.2084211,1.2084211 0 0 1 0.820313,0.04318 1.3808421,1.3808421 0 0 1 0.595806,0.59005 c 0.129684,0.226947 0.204012,0.455 0.21875,0.690789 a 1.2762105,1.2762105 0 0 1 -0.126649,0.644736 1.2776842,1.2776842 0 0 1 -0.359782,0.402964 5.1534737,5.1534737 0 0 1 -0.486432,0.359786 l -2.014803,1.16283 -2.535772,-4.389392 2.184622,-1.260691 c 0.273,-0.155842 0.534164,-0.228122 0.780016,-0.212994 z m -0.322368,1.280839 c -0.11347,-0.03242 -0.25778,0.0034 -0.434623,0.103623 l -0.515212,0.299342 0.480674,0.831825 0.506579,-0.293586 c 0.182737,-0.103156 0.285666,-0.213176 0.316611,-0.328125 0.02947,-0.114951 0.0033,-0.240003 -0.07483,-0.377055 a 0.46863158,0.46863158 0 0 0 -0.279195,-0.236016 z m 33.319079,0.316616 c 0.440033,-0.0085 0.877026,0.139309 1.3125,0.443256 0.593895,0.415579 0.921007,0.920017 0.984375,1.516859 0.06042,0.593895 -0.140162,1.229214 -0.607318,1.896792 -0.340423,0.486316 -0.689593,0.832608 -1.047698,1.044819 a 2.0292631,2.0292631 0 0 1 -1.116777,0.299342 c -0.386106,-0.01474 -0.777921,-0.157568 -1.174343,-0.434621 -0.40084,-0.282947 -0.682706,-0.590879 -0.843338,-0.923932 a 2.0027369,2.0027369 0 0 1 -0.146793,-1.157072 c 0.06337,-0.437684 0.264019,-0.90102 0.60444,-1.387335 0.474527,-0.677894 1.006572,-1.088822 1.594572,-1.237665 0.147369,-0.03795 0.293701,-0.05759 0.440379,-0.06045 z m 0.279194,1.269326 a 0.77221053,0.77221053 0 0 0 -0.377055,0.04318 c -0.260843,0.08842 -0.542848,0.344152 -0.837582,0.765625 -0.293264,0.421474 -0.437639,0.767766 -0.431743,1.044819 a 0.78547369,0.78547369 0 0 0 0.354028,0.65625 0.78105263,0.78105263 0 0 0 0.73972,0.11801 c 0.254947,-0.08989 0.546438,-0.364738 0.872122,-0.828949 0.272632,-0.390526 0.403168,-0.724592 0.394325,-1.001645 A 0.79726316,0.79726316 0 0 0 76.40954,32.011925 0.77221053,0.77221053 0 0 0 76.058388,31.868011 Z M 43.5625,31.879519 c -0.126737,-0.02947 -0.293103,0.01167 -0.497945,0.129524 l -0.592926,0.342519 0.515213,0.889392 0.592928,-0.342517 c 0.201895,-0.117895 0.320135,-0.24021 0.354029,-0.36842 A 0.52315789,0.52315789 0 0 0 43.86472,32.1213 0.47894737,0.47894737 0 0 0 43.5625,31.879523 Z M 58,32.210526 C 72.241684,32.210526 83.789473,43.758316 83.789473,58 83.789473,72.241684 72.241684,83.789473 58,83.789473 43.758316,83.789473 32.210526,72.241684 32.210526,58 32.210526,43.758316 43.758316,32.210526 58,32.210526 Z m 0.290708,0.132402 -0.57278,0.636102 c -0.792926,0.878815 -1.172354,1.987343 -1.32977,3.194901 -0.0892,-0.247143 -0.175274,-0.479886 -0.279194,-0.820312 l -0.224508,-0.733964 -0.541117,0.546875 c -0.327538,0.330981 -0.483011,0.756103 -0.512336,1.171464 -0.02933,0.41536 0.04845,0.828101 0.164064,1.229029 0.08237,0.285622 0.176704,0.491008 0.282072,0.762747 -0.315186,-0.06249 -0.63201,-0.08041 -0.860611,0.0662 l -0.61883,0.397203 0.630345,0.382811 c 0.08658,0.05243 0.122596,0.104312 0.16694,0.244656 0.04434,0.140339 0.06942,0.355662 0.100742,0.604441 0.05385,0.427656 0.158509,1.012749 0.60732,1.433389 -0.513721,0.267561 -0.875,0.755478 -0.875,1.344161 0,0.573064 0.341655,1.052072 0.834703,1.324014 l 0.2389,4.74342 -0.791531,1.393092 -5.497534,-5.169407 0.129522,-2.175988 0.650493,-0.995887 a 0.22697007,0.22697007 0 0 0 -0.103611,-0.333883 0.22697007,0.22697007 0 0 0 -0.192847,0.0087 l -1.148436,0.595806 -2.127056,0.08634 a 0.22697007,0.22697007 0 0 0 -0.141032,0.06046 l -1.321134,-1.243422 -1.580181,1.640625 1.52837,1.43051 c -0.916333,0.589365 -1.798534,0.857518 -2.466693,0.696546 -0.676619,-0.163027 -1.212564,-0.734492 -1.467928,-2.017681 a 0.22697007,0.22697007 0 0 0 -0.01155,-0.02015 0.22697007,0.22697007 0 0 0 -0.04605,-0.08347 0.22697007,0.22697007 0 0 0 -0.02303,-0.02591 0.22697007,0.22697007 0 0 0 -0.109375,-0.05181 0.22697007,0.22697007 0 0 0 -0.0057,0.0029 0.22697007,0.22697007 0 0 0 -0.164063,0.05181 0.22697007,0.22697007 0 0 0 -0.01727,0.0057 c -3.216846,3.050549 -3.134145,6.747653 -1.17722,8.914063 1.956924,2.16641 5.74675,2.766918 9.70847,-0.141031 a 0.22697007,0.22697007 0 0 0 0.09211,-0.172699 0.22697007,0.22697007 0 0 0 -0.0029,-0.02015 0.22697007,0.22697007 0 0 0 -0.07771,-0.161184 0.22697007,0.22697007 0 0 0 -0.01727,-0.01155 0.22697007,0.22697007 0 0 0 -0.03165,-0.02303 c -1.000456,-0.470516 -1.56847,-1.211133 -1.758634,-2.000412 -0.181779,-0.754466 -0.01625,-1.555687 0.486431,-2.21916 l 5.750822,5.385277 -5.693258,10.010692 -0.685033,-0.685034 c 0.01547,-0.07735 0.01881,-0.155639 0.01155,-0.227385 -0.01757,-0.172881 -0.07457,-0.328494 -0.187089,-0.454769 v -0.0029 c -0.124467,-0.138305 -0.287487,-0.201067 -0.466282,-0.233143 -0.04648,-0.0084 -0.09424,-0.01548 -0.14392,-0.01727 l -0.03455,-0.03455 C 45.914926,60.175313 43.04701,57.314113 42.483187,56.747898 v -0.0029 c 0.01108,-0.07012 0.0096,-0.139838 0.0029,-0.204358 -0.01807,-0.172074 -0.07409,-0.326759 -0.18421,-0.451892 h -0.0029 c -0.124011,-0.139175 -0.287358,-0.203205 -0.466283,-0.23602 -0.05011,-0.0091 -0.101815,-0.01572 -0.155428,-0.01727 l -1.465049,-1.46505 -0.120886,0.290708 -0.04028,-0.356907 H 39.49842 l 0.259047,0.259046 c -0.407526,0.201222 -0.804785,0.43594 -0.883635,0.903782 l -0.02015,0.112245 1.401728,1.493833 c -0.0061,0.069 -0.0021,0.1367 0.0087,0.198602 0.02953,0.171948 0.09519,0.321096 0.20148,0.440379 0.11813,0.132734 0.276182,0.201042 0.449014,0.233141 0.06481,0.01209 0.134031,0.01855 0.204358,0.01444 0.235642,0.251648 1.077489,1.103414 1.934211,1.97163 0.849821,0.861221 1.691441,1.716391 1.916941,1.954358 -0.0085,0.07479 -0.0032,0.149032 0.0087,0.215871 0.02985,0.170204 0.09627,0.322331 0.201479,0.440379 h 0.0029 v 0.0029 c 0.117276,0.132898 0.271894,0.197904 0.443258,0.230263 0.05668,0.01073 0.116744,0.01546 0.178452,0.01444 l 0.02878,0.03165 c 0.264273,0.280399 0.417179,0.449765 0.581415,0.630346 -0.773902,-0.399318 -1.695401,-0.638981 -2.768915,-0.638981 H 43.46206 v 0.03742 c -1.772024,0.05046 -3.154672,0.712092 -4.067023,1.738487 -0.947689,1.066151 -1.418998,2.479618 -1.418998,3.891447 0,0.920175 0.202621,1.839489 0.604442,2.665296 l -1.254934,1.180099 0.236019,0.236019 1.300987,1.3125 1.062089,-0.99301 c 0.921697,0.775249 2.166204,1.266447 3.721629,1.266447 1.874155,0 3.300542,-0.706736 4.248354,-1.773026 0.947813,-1.066288 1.418998,-2.482312 1.418998,-3.894325 0,-0.157708 -0.0153,-0.314876 -0.02878,-0.47204 h 0.103612 l 0.01444,0.02303 3.410774,5.509047 c -0.02637,0.235073 -0.04605,0.47141 -0.04605,0.708059 0,1.412012 0.468306,2.828035 1.416118,3.894326 0.69803,0.785283 1.65821,1.375414 2.863899,1.63199 l 0.08635,1.712582 v 0.01155 c 0.03758,0.384661 0.227317,0.714981 0.489311,0.921051 0.261992,0.206077 0.581539,0.296894 0.892268,0.293586 0.62146,-0.0066 1.291636,-0.456978 1.367188,-1.214637 l 0.0029,-0.01444 v -0.01727 l 0.05181,-1.718341 c 1.151794,-0.268902 2.073083,-0.84594 2.748768,-1.606084 0.947813,-1.066289 1.416117,-2.482313 1.416117,-3.894325 0,-0.309327 -0.02689,-0.618158 -0.07196,-0.92393 l 3.117187,-5.031252 c -0.0033,0.08171 -0.01444,0.162861 -0.01444,0.244655 0,1.411828 0.471307,2.825296 1.418996,3.891448 0.94769,1.06615 2.377324,1.775904 4.251234,1.775904 1.294035,0 2.3695,-0.34323 3.226563,-0.903784 l 0.998766,0.935445 1.537007,-1.548519 -0.244656,-0.227386 -0.762745,-0.716694 c 0.605007,-0.95247 0.912417,-2.077756 0.912417,-3.206414 0,-1.411829 -0.471308,-2.828174 -1.418997,-3.894326 -0.947688,-1.066149 -2.374446,-1.773026 -4.248355,-1.773026 -1.170142,0 -2.167404,0.275979 -2.981908,0.742599 0.237157,-0.258427 0.398989,-0.442716 0.728208,-0.794409 l 0.0257,-0.02886 c 0.06229,0.0013 0.12376,-0.0035 0.181332,-0.01444 0.17137,-0.03236 0.328858,-0.09735 0.446134,-0.230262 l 0.0029,-0.0029 c 0.106704,-0.11844 0.171838,-0.269933 0.201479,-0.440377 0.01167,-0.06662 0.01748,-0.141548 0.0087,-0.215872 0.225495,-0.237966 1.066948,-1.093148 1.916941,-1.954359 0.856892,-0.868203 1.698448,-1.720636 1.934209,-1.971628 0.07029,0.0041 0.139485,-0.0023 0.20436,-0.01444 0.172122,-0.03192 0.328274,-0.100333 0.446134,-0.23314 0.106003,-0.118971 0.174553,-0.268251 0.204358,-0.440381 0.01062,-0.06111 0.01415,-0.130082 0.0087,-0.1986 l 1.401727,-1.493833 -0.01727,-0.112257 c -0.1023,-0.597776 -0.519925,-1.018284 -1.131036,-1.157023 l -0.120886,-0.02878 -0.09211,0.08923 -1.462171,1.46505 c -0.05391,0.0015 -0.108185,0.008 -0.158306,0.01727 -0.178997,0.03283 -0.339723,0.09566 -0.463405,0.23602 -0.111976,0.12541 -0.169575,0.28315 -0.18709,0.45477 -0.0065,0.06383 -0.0049,0.132778 0.0057,0.20148 l -3.928866,3.923108 c -0.04741,0.0019 -0.09368,0.0065 -0.138157,0.01444 -0.178796,0.03207 -0.341809,0.09483 -0.466283,0.233144 v 0.0029 c -0.112514,0.12628 -0.172403,0.281888 -0.189966,0.454769 -0.0072,0.07168 -0.0046,0.150099 0.01155,0.227385 l -0.512335,0.515215 -6.133635,-10.413653 5.526316,-5.175163 c 0.502717,0.663513 0.668359,1.464898 0.486431,2.219161 -0.190325,0.789066 -0.757338,1.52913 -1.758635,2.000411 a 0.22697007,0.22697007 0 0 0 -0.103612,0.103612 0.22697007,0.22697007 0 0 0 -0.0088,0.04893 0.22697007,0.22697007 0 0 0 -0.0087,0.09211 0.22697007,0.22697007 0 0 0 0.01727,0.04893 0.22697007,0.22697007 0 0 0 0.05469,0.07771 0.22697007,0.22697007 0 0 0 0.01155,0.01727 c 3.962445,2.907942 7.751524,2.307283 9.70847,0.141032 1.956948,-2.166242 2.04034,-5.862798 -1.17722,-8.914063 a 0.22697007,0.22697007 0 0 0 -0.02015,-0.0088 0.22697007,0.22697007 0 0 0 -0.07771,-0.03454 0.22697007,0.22697007 0 0 0 -0.06045,-0.01444 0.22697007,0.22697007 0 0 0 -0.09211,0.02591 0.22697007,0.22697007 0 0 0 -0.03455,0.0087 0.22697007,0.22697007 0 0 0 -0.0057,0.0087 0.22697007,0.22697007 0 0 0 -0.06045,0.08059 0.22697007,0.22697007 0 0 0 -0.02303,0.04028 0.22697007,0.22697007 0 0 0 -0.0057,0.01155 c -0.255371,1.283949 -0.791335,1.857382 -1.467928,2.020559 -0.667011,0.160865 -1.546271,-0.112128 -2.460937,-0.699426 l 1.525492,-1.427631 -1.58018,-1.640625 -1.324014,1.243422 a 0.22697007,0.22697007 0 0 0 -0.138157,-0.06043 l -2.127055,-0.08635 -1.151316,-0.595806 a 0.22697007,0.22697007 0 0 0 -0.293586,0.325247 l 0.650493,0.998766 0.129522,2.17311 -5.29893,4.982318 -0.526728,-0.88939 0.14392,-4.777962 c 0.419306,-0.280055 0.699426,-0.721056 0.699424,-1.240542 2e-6,-0.620309 -0.397927,-1.130106 -0.955591,-1.387336 0.828821,-0.726069 1.051347,-1.758927 1.174342,-2.676808 0.134282,-1.002137 0.211651,-1.894396 0.636103,-2.400495 l 0.382778,-0.454711 -0.535361,-0.256167 c -0.367817,-0.174511 -0.775761,-0.142927 -1.070724,-0.0029 -0.250802,0.119078 -0.416059,0.29575 -0.569901,0.460527 -0.03402,-0.265641 0.04969,-0.541798 -0.0144,-0.791535 C 60.59295,34.71039 60.44008,34.151709 60.481331,33.761998 l 0.07196,-0.679276 -0.656251,0.189967 c -0.432158,0.124864 -0.717736,0.408451 -0.932565,0.710937 -0.0164,-0.02219 -0.02123,-0.08331 -0.03742,-0.103623 -0.21069,-0.264054 -0.334015,-0.359402 -0.423359,-0.708134 z m -21.601563,0.523848 0.736841,0.79153 -1.649259,1.539885 0.549753,0.59005 1.53125,-1.430511 0.705181,0.75699 -1.53125,1.427632 0.679276,0.731086 1.701071,-1.585938 0.782894,0.840461 -2.688323,2.504111 -3.456826,-3.704358 z m 43.102383,1.266447 a 1.3572631,1.3572631 0 0 1 0.800166,0.0403 c 0.277053,0.09578 0.571145,0.308944 0.886514,0.636102 0.386104,0.400842 0.595115,0.788444 0.624589,1.165707 0.02947,0.377263 -0.123053,0.769079 -0.460527,1.174343 l -0.946958,-0.851974 c 0.14,-0.182737 0.212994,-0.350507 0.212994,-0.500823 a 0.63073684,0.63073684 0 0 0 -0.201481,-0.428866 c -0.11053,-0.11347 -0.216124,-0.16975 -0.328124,-0.172697 a 0.37873684,0.37873684 0 0 0 -0.28783,0.109375 0.30063158,0.30063158 0 0 0 -0.08635,0.21875 c -0.0029,0.09284 0.05607,0.246911 0.181332,0.457649 0.302104,0.526105 0.486247,0.933026 0.55551,1.220395 a 1.4117895,1.4117895 0 0 1 -0.01727,0.791528 1.6210526,1.6210526 0 0 1 -0.42023,0.647616 1.8008421,1.8008421 0 0 1 -0.805921,0.45477 1.5178947,1.5178947 0 0 1 -0.900906,-0.03455 c -0.294736,-0.100217 -0.588966,-0.30374 -0.880757,-0.60732 -0.515789,-0.533473 -0.753604,-1.014447 -0.713815,-1.450657 0.04121,-0.435548 0.233278,-0.844963 0.575658,-1.226151 l 0.955593,0.851973 a 1.2570527,1.2570527 0 0 0 -0.279194,0.509458 0.67347369,0.67347369 0 0 0 0.189966,0.641858 c 0.134106,0.135579 0.274266,0.205694 0.423108,0.210115 0.147369,0 0.269684,-0.04812 0.368422,-0.14392 a 0.49663158,0.49663158 0 0 0 0.15255,-0.351151 c 0.0059,-0.14295 -0.08348,-0.375214 -0.267682,-0.699425 -0.297684,-0.530526 -0.444938,-0.978825 -0.434621,-1.338404 a 1.3307369,1.3307369 0 0 1 0.440379,-0.949836 1.4854737,1.4854737 0 0 1 0.664883,-0.374177 z m -21.739719,0.04318 c 0.05535,0.06991 0.112642,0.222644 0.155428,0.276316 0.163142,0.204653 0.260737,0.323279 0.290708,0.828947 l 0.912416,0.03741 c 0.04719,-0.322641 0.112327,-0.593179 0.218751,-0.777137 0.01342,-0.02322 0.05196,-0.02774 0.0662,-0.04893 0.06183,0.348215 0.07908,0.721674 0.158305,1.030428 0.142962,0.557104 0.197518,1.006503 0.08635,1.252055 l -0.103612,0.230264 0.138158,0.212993 c 0.04895,0.07398 0.125426,0.15896 0.241777,0.212994 0.116351,0.05404 0.261144,0.05884 0.362664,0.03455 0.203039,-0.04857 0.282856,-0.142604 0.359787,-0.21875 0.153861,-0.152294 0.269349,-0.31882 0.40296,-0.469162 0.09619,-0.108232 0.183389,-0.170802 0.270559,-0.233141 -0.27589,0.680498 -0.51793,1.383804 -0.610198,2.072369 -0.122934,0.917409 -0.334041,1.653704 -0.990132,2.161595 l -3.41365,0.02015 c 0.0065,-0.02974 0.01155,-0.05929 0.01155,-0.09211 0,-0.176842 -0.10339,-0.322369 -0.23602,-0.322369 -0.129684,0 -0.23602,0.145527 -0.23602,0.322369 0,0.03377 0.0072,0.06435 0.01444,0.09498 h -0.146793 c -0.265726,-0.202443 -0.345559,-0.459026 -0.400107,-0.892269 -0.0112,-0.08888 -0.03891,-0.195216 -0.05181,-0.290706 0.130583,0.09804 0.119618,-0.05914 0.282072,0.198602 l 0.820312,-0.377057 c 0.01371,0.183452 0.08511,0.325247 0.175576,0.325247 0.100216,0 0.18421,-0.174954 0.18421,-0.385691 0,-0.213684 -0.084,-0.38569 -0.18421,-0.38569 -0.100205,0 -0.178456,0.17348 -0.178454,0.38569 0,0.0089 -2.76e-4,0.01723 0,0.02591 -0.210787,-0.673093 -0.580058,-1.421946 -0.774259,-2.095394 -0.01415,-0.04892 -0.008,-0.08177 -0.02015,-0.129523 0.06642,0.09913 0.11452,0.206359 0.21875,0.287828 0.186057,0.145424 0.484387,0.219104 0.733964,0.15255 l 0.348274,-0.09498 -0.0087,-0.356909 c -0.02151,-1.192092 0.329781,-2.148394 0.900904,-2.993421 z m -0.417353,2.144325 c -0.341894,0.730948 -0.159226,1.772795 -0.181331,2.642269 0.583578,0.336 0.234867,1.033031 0.713816,1.229031 0.08842,-0.84 0.12482,-1.691583 -0.04318,-2.587583 -0.598315,-0.170948 -0.0059,-1.037611 -0.489308,-1.283717 z m 1.182979,0.161184 c -0.170948,1.441263 0.03193,2.620418 0.02015,4.043997 h 0.0029 c 0.922528,0.191578 1.415657,-0.524102 1.312502,-1.741364 -0.70737,-0.07958 -0.301805,-0.538033 -0.503701,-1.283717 -0.655789,0.02947 -0.227615,-1.005652 -0.831825,-1.018916 z M 33.327303,37.24178 c 0.281473,0.01916 0.564605,0.09616 0.851973,0.230263 0.288843,0.132631 0.564951,0.308759 0.837583,0.52097 0.427368,0.333053 0.727078,0.631289 0.898025,0.898026 0.168,0.268211 0.275349,0.539046 0.316613,0.811677 a 1.4044211,1.4044211 0 0 1 -0.05468,0.725331 2.688,2.688 0 0 1 -0.385691,0.716694 l -1.231913,1.577302 -3.992188,-3.117188 1.231908,-1.580181 c 0.24021,-0.309471 0.486385,-0.522558 0.733964,-0.63898 0.247578,-0.11347 0.512933,-0.163072 0.794408,-0.143914 z m -0.123766,1.332647 c -0.250526,-0.0015 -0.482793,0.133133 -0.699425,0.408717 l -0.204358,0.264804 2.181743,1.703948 0.201481,-0.259047 c 0.173894,-0.222527 0.267266,-0.401119 0.28495,-0.541119 a 0.71915789,0.71915789 0 0 0 -0.126645,-0.45477 c -0.101687,-0.163578 -0.31203,-0.371183 -0.630346,-0.62171 -0.42442,-0.330106 -0.758348,-0.496401 -1.0074,-0.500823 z m 51.944489,0.716695 0.915297,1.516858 -2.293998,2.173109 2.9963,-1.001645 0.90954,1.511103 -4.346218,2.610608 -0.564144,-0.941201 3.310032,-1.988897 -3.750411,1.254933 -0.512335,-0.851973 2.872533,-2.719985 -3.312911,1.991778 -0.567023,-0.946958 z m -14.238897,2.354441 0.679276,0.70518 -0.995888,0.932567 -0.587172,-0.788652 z m -25.927632,0.365543 0.900904,0.846216 -0.584293,0.788653 -0.995888,-0.932567 z m 11.22245,0.0029 h 0.0029 3.710114 c 0.587092,0 1.001645,0.392572 1.001645,0.79153 0,0.291762 -0.228511,0.58261 -0.584293,0.713815 H 55.795267 C 55.43618,43.388534 55.20522,43.096482 55.20522,42.802675 c 0,-0.398837 0.412833,-0.787274 0.998765,-0.788652 z m 10.543175,0.01727 0.431743,0.224507 a 0.22697007,0.22697007 0 0 0 0.09498,0.02591 l 1.928452,0.07772 -2.092515,1.965871 -0.112256,-1.856496 a 0.22697007,0.22697007 0 0 0 -0.03741,-0.109375 z m -17.609375,0.365543 -0.210116,0.322369 a 0.22697007,0.22697007 0 0 0 -0.03741,0.112245 l -0.109375,1.856498 -2.092517,-1.965873 1.928454,-0.07771 a 0.22697007,0.22697007 0 0 0 0.09498,-0.02591 z m 20.533717,0.411595 0.58717,0.788652 -0.607318,0.567023 V 43.50496 h -0.719572 z m -23.455181,0.362666 0.73972,0.696545 h -0.719572 v 0.65625 L 45.63199,43.956866 Z m 28.840461,0.126647 c 0.665442,2.023228 0.662743,3.968412 -0.135285,5.402549 -0.232983,0.362425 -0.513615,0.685013 -0.837582,0.967106 -0.839681,0.73115 -1.979382,1.190756 -3.289884,1.355674 -0.955297,0.07723 -2.047611,-2.33e-4 -3.272615,-0.259046 0.75246,-0.516871 1.29976,-1.166247 1.47944,-1.911184 0.217385,-0.901261 0.0095,-1.863054 -0.592928,-2.636514 l 2.239309,-2.098272 a 0.22697007,0.22697007 0 0 0 0.05469,0.05181 c 0.986947,0.643036 1.98456,0.980681 2.852386,0.771383 0.673559,-0.162446 1.161273,-0.778383 1.502466,-1.643503 z M 40.833881,43.66327 c 0.341299,0.862855 0.826825,1.478531 1.49959,1.640626 0.867801,0.209083 1.865434,-0.128344 2.852385,-0.771383 a 0.22697007,0.22697007 0 0 0 0.05469,-0.05181 l 2.242185,2.098203 c -0.602306,0.773477 -0.810108,1.735103 -0.592926,2.636513 0.179511,0.745064 0.727409,1.394656 1.47944,1.911185 -1.222945,0.258921 -2.312956,0.335032 -3.266859,0.259046 -1.312709,-0.164183 -2.454572,-0.62311 -3.295645,-1.355646 -0.336391,-0.29298 -0.625351,-0.630699 -0.863488,-1.01028 -0.772187,-1.429455 -0.766227,-3.35572 -0.109377,-5.356498 z m 34.939556,0.02591 c 2.131042,2.667507 1.954746,5.519718 0.362666,7.282073 -1.585007,1.75452 -4.513636,2.324914 -7.817436,0.503702 3.072368,0.460893 5.283633,-0.339772 6.542352,-1.876645 1.226696,-1.497773 1.523239,-3.650572 0.912418,-5.90913 z m -7.187089,0.141032 h 0.739721 v 0.639006 l -0.20148,0.187088 h -0.613076 v -0.756988 z m -38.865542,0.09498 c 0.330658,0.02745 0.684089,0.11729 1.062089,0.270558 0.549684,0.221057 0.967566,0.482266 1.254934,0.782894 0.287369,0.300634 0.468839,0.640179 0.543997,1.018915 0.07369,0.380211 0.02008,0.793949 -0.161184,1.243422 -0.184211,0.456842 -0.420622,0.797586 -0.710938,1.030428 a 2.0130527,2.0130527 0 0 1 -1.096628,0.400113 c -0.439158,0.03979 -0.935582,-0.05238 -1.482319,-0.273437 v -0.0029 c -0.766315,-0.309475 -1.288668,-0.735715 -1.568668,-1.275083 -0.28,-0.540843 -0.286816,-1.137384 -0.02303,-1.793173 0.272632,-0.673474 0.694797,-1.103584 1.260691,-1.298111 0.282948,-0.09653 0.590395,-0.131069 0.921053,-0.103611 z m 10.393503,0.132396 c -0.608932,2.25762 -0.310914,4.409233 0.915296,5.90625 1.256363,1.533828 3.462018,2.332834 6.525082,1.876644 -3.296069,1.809727 -6.217897,1.245073 -7.800164,-0.506579 -1.590834,-1.761129 -1.765177,-4.611043 0.359786,-7.276315 z m 6.447368,0.135284 h 0.73972 l 0.07771,0.07196 v 0.756988 l -0.613077,-0.0029 -0.204359,-0.189967 z m 21.624589,0.01155 v 0.777139 h 0.161184 0.431744 l -0.808799,0.75699 -0.662007,-0.708059 z m -11.990954,0.233142 h 1.824836 l -0.07196,0.126647 -1.603207,2.823603 z m 2.075247,0 h 1.793175 l -0.08634,2.898437 z m -10.5662,0.132396 0.877878,0.826068 -0.662007,0.70518 -0.805921,-0.754112 h 0.59005 z m 40.58676,0.483551 0.506579,1.249178 -4.703126,1.896793 -0.503701,-1.252098 z m -30.141449,0.08059 13.159541,22.344162 -25.904606,0.08348 z m -28.736841,0.109328 c -0.07764,0.0022 -0.149556,0.01108 -0.215871,0.02878 a 0.79726316,0.79726316 0 0 0 -0.558389,0.500823 0.77221053,0.77221053 0 0 0 0.0662,0.733964 c 0.147369,0.235789 0.456497,0.448806 0.935444,0.641858 0.476,0.193053 0.847162,0.254878 1.113899,0.187089 a 0.78547369,0.78547369 0 0 0 0.561265,-0.49221 0.78105263,0.78105263 0 0 0 -0.05181,-0.745478 C 31.119141,45.86838 30.786549,45.647004 30.261918,45.436268 29.930339,45.301426 29.645757,45.23693 29.412822,45.243423 Z m 37.564555,0.100742 0.662008,0.705181 -5.428455,5.077304 -0.495066,-0.837584 z m -18.064145,0.362665 5.465873,5.137746 -0.483553,0.849095 -5.644325,-5.284538 z m 40.393916,2.003289 0.371299,1.298109 -3.66982,1.053454 0.578538,2.017681 -1.200248,0.342517 -0.949835,-3.312912 z m -62.050165,1.27218 c 0.20079,-0.01223 0.421796,0.01444 0.662007,0.07483 0.498105,0.122316 0.852687,0.346361 1.067845,0.673519 0.215158,0.327158 0.257803,0.753262 0.126644,1.280838 l -0.178453,0.713821 1.824836,0.454769 -0.328125,1.3125 -4.916119,-1.226152 0.541119,-2.173108 c 0.117895,-0.471578 0.337865,-0.796227 0.659128,-0.964227 0.159158,-0.08547 0.340329,-0.134635 0.541118,-0.146793 z m 30.950247,0.866366 -9.15584,15.252055 18.605264,-0.06044 z m -30.561678,0.489308 a 0.61305263,0.61305263 0 0 0 -0.425987,0.03455 c -0.129684,0.05895 -0.22453,0.215964 -0.28495,0.457648 l -0.09211,0.371299 1.096629,0.273437 0.08059,-0.316612 c 0.06189,-0.253473 0.05501,-0.443164 -0.02015,-0.569901 a 0.54526316,0.54526316 0 0 0 -0.354029,-0.250416 z m 62.833058,2.095395 0.189969,1.338405 -5.019738,0.702303 -0.187087,-1.335527 z m -60.092926,1.493833 -0.132402,1.516859 -1.606086,0.581413 a 1.223158,1.223158 0 0 0 -0.411595,0.210115 0.51136842,0.51136842 0 0 0 -0.143913,0.319491 l -0.0086,0.118013 2.049342,0.178453 -0.118011,1.347041 -5.051397,-0.440379 0.198602,-2.236432 c 0.03684,-0.414105 0.102608,-0.727583 0.207236,-0.938321 a 1.040421,1.040421 0 0 1 0.503701,-0.492188 c 0.235789,-0.114952 0.516319,-0.157523 0.837583,-0.129522 0.281473,0.02505 0.514936,0.09792 0.710937,0.21875 a 1.3425263,1.3425263 0 0 1 0.457647,0.466281 1.4854737,1.4854737 0 0 1 0.158307,0.489311 1.2821053,1.2821053 0 0 1 0.215871,-0.336761 c 0.04421,-0.04421 0.140599,-0.10892 0.282072,-0.189966 0.147369,-0.08253 0.254372,-0.134724 0.331004,-0.158306 z m 9.64227,0.906661 1.122531,1.122533 c -0.03873,0.07945 -0.07803,0.153813 -0.118011,0.224506 l -0.480675,0.425988 c -0.02912,0.0065 -0.05926,0.01311 -0.08923,0.01727 l -1.073602,-1.14268 c 0.08237,-0.341641 0.284475,-0.538147 0.638981,-0.647616 z m 36.329769,0 c 0.352165,0.10899 0.555095,0.305431 0.638981,0.644736 l -1.073603,1.145559 c -0.03011,-0.004 -0.0601,-0.01085 -0.08923,-0.01727 l -0.480673,-0.425988 c -0.04003,-0.07075 -0.07906,-0.145305 -0.118012,-0.224507 z m 14.463404,0.112245 0.141032,4.087171 -1.252058,0.04605 -0.04605,-1.372945 -3.813733,0.132397 -0.04605,-1.347041 3.813733,-0.132395 -0.04893,-1.372945 z m -64.105262,0.374186 c -0.16358,-0.01474 -0.291375,0.01969 -0.385691,0.100742 -0.09579,0.08105 -0.156348,0.244676 -0.178454,0.489309 l -0.05181,0.59005 1.02755,0.08923 0.04893,-0.567023 a 1.7477895,1.7477895 0 0 0 -0.03455,-0.359788 0.35957895,0.35957895 0 0 0 -0.141036,-0.233141 0.52463158,0.52463158 0 0 0 -0.28495,-0.109375 z m 14.969984,0.97574 c 0.0206,7.4e-5 0.04213,0.0013 0.0662,0.0057 0.0963,0.01765 0.195742,0.08244 0.204359,0.09211 0.01997,0.02375 0.06648,0.116084 0.07483,0.195725 0.0016,0.01485 2.94e-4,0.02789 0,0.04028 -0.448571,0.142653 -0.773574,0.448454 -0.921053,0.869244 -0.02742,0.0052 -0.06613,0.0056 -0.112257,-0.0029 -0.08506,-0.0158 -0.176949,-0.0746 -0.189967,-0.08924 -0.02633,-0.02956 -0.08067,-0.129625 -0.09498,-0.212993 -0.01429,-0.08337 0.0063,-0.12208 0.01155,-0.126648 l 0.02591,-0.02303 c 0.139765,-0.05245 0.270291,-0.132765 0.385691,-0.238897 0.10927,-0.100497 0.205161,-0.222203 0.293585,-0.362666 l 0.146793,-0.129522 c 0.0035,-0.0031 0.04755,-0.01749 0.109375,-0.01727 z m 33.013979,0 c 0.06158,3.73e-4 0.105093,0.01629 0.109375,0.02015 v -0.0029 l 0.146793,0.132396 c 0.08799,0.13966 0.185106,0.2598 0.293586,0.359786 0.11347,0.104591 0.242346,0.183497 0.379935,0.23602 l 0.03165,0.02878 c 0.0056,0.0049 0.02297,0.04059 0.0088,0.12376 -0.01444,0.0832 -0.06547,0.183118 -0.09211,0.212993 l -0.0029,0.0029 c -0.01167,0.01326 -0.101815,0.07054 -0.187088,0.08635 -0.04625,0.0085 -0.08485,0.008 -0.112256,0.0029 -0.147756,-0.420935 -0.473279,-0.726618 -0.921053,-0.869244 -2.83e-4,-0.01238 -0.0015,-0.02553 0,-0.04028 0.0083,-0.08019 0.05538,-0.174111 0.07483,-0.195725 v -0.0029 c 0.0075,-0.0085 0.108138,-0.07157 0.204358,-0.08923 0.02405,-0.0044 0.04568,-0.0059 0.0662,-0.0057 z M 42.229852,57.14227 c 0.619791,0.621557 3.11518,3.108737 3.689967,3.684211 -0.0112,0.02264 -0.02325,0.04402 -0.03454,0.0662 l -0.667763,0.592925 c -0.277997,-0.290766 -1.023356,-1.049827 -1.839228,-1.876644 -0.809721,-0.820583 -1.548691,-1.569732 -1.8162,-1.850739 0.0029,-0.01223 0.0083,-0.02273 0.01155,-0.03455 z m 31.928865,0 0.653372,0.581414 c 0.0033,0.01178 0.0085,0.02241 0.01155,0.03455 -0.268611,0.281523 -1.006296,1.030145 -1.8162,1.850741 -0.815444,0.826207 -1.563482,1.58245 -1.842106,1.873766 L 70.49757,60.889809 c -0.01073,-0.02119 -0.02103,-0.04171 -0.03165,-0.06333 z m 11.800986,1.807565 4.82977,2.245066 -0.175576,1.456415 -5.23273,1.010279 0.169819,-1.398848 0.857731,-0.112245 0.187089,-1.522616 -0.803043,-0.310853 z m -57.660772,0.259046 c 0.246474,0.0134 0.469552,0.05324 0.667763,0.115139 0.396421,0.123789 0.716579,0.332729 0.967105,0.627467 0.250526,0.297684 0.403053,0.682406 0.460526,1.162828 0.06189,0.487789 0.01911,0.90293 -0.120888,1.246299 a 2.0042105,2.0042105 0 0 1 -0.762746,0.883635 c -0.368421,0.246106 -0.845388,0.40706 -1.433388,0.477796 -0.820842,0.101687 -1.484898,-0.01802 -1.988898,-0.35403 -0.505474,-0.338947 -0.802513,-0.858559 -0.886513,-1.560033 -0.08842,-0.720631 0.06832,-1.30207 0.469161,-1.74712 0.400842,-0.443579 1.007148,-0.717225 1.8162,-0.817435 0.294,-0.03611 0.565205,-0.04798 0.811678,-0.03454 z m 0.05468,1.347039 c -0.1995,-0.01567 -0.440977,-0.0059 -0.722452,0.02878 -0.476,0.05895 -0.811331,0.184072 -1.010279,0.374177 a 0.79726316,0.79726316 0 0 0 -0.241776,0.705182 0.77073684,0.77073684 0 0 0 0.411596,0.610198 c 0.240209,0.134105 0.619798,0.174216 1.131167,0.109375 0.509895,-0.06337 0.8616,-0.186951 1.064967,-0.377056 a 0.78547369,0.78547369 0 0 0 0.250412,-0.702303 0.78252631,0.78252631 0 0 0 -0.408717,-0.627467 c -0.118632,-0.06484 -0.275418,-0.105233 -0.474918,-0.120888 z m 59.295642,0.495066 -0.118013,0.952715 1.868012,-0.25329 z m -41.248768,0.07771 c 0.02059,7.9e-5 0.0421,0.0014 0.0662,0.0057 0.09642,0.0173 0.1962,0.08016 0.204358,0.08923 0.02049,0.02407 0.06671,0.115792 0.07483,0.195722 0.004,0.03907 -1.41e-4,0.06922 -0.0057,0.09211 v 0.0029 c -0.415046,0.138747 -0.72346,0.416787 -0.877879,0.800163 -0.01712,0.01003 -0.0719,0.02616 -0.149671,0.01155 -0.08483,-0.01602 -0.17499,-0.07246 -0.187089,-0.08634 v -0.0029 h -0.0029 c -0.02599,-0.02889 -0.07761,-0.130332 -0.09211,-0.212993 -0.006,-0.03338 -0.0069,-0.05845 -0.0057,-0.07771 0.175022,-0.048 0.336894,-0.140692 0.477797,-0.270558 0.149062,-0.137392 0.276455,-0.316706 0.388569,-0.529605 0.0037,-0.0034 0.04761,-0.01751 0.109375,-0.01727 z m 23.584704,0 c 0.06177,-2.36e-4 0.105677,0.014 0.109375,0.01727 0.112899,0.212853 0.239455,0.392311 0.388571,0.529606 0.139632,0.12855 0.301856,0.219261 0.474918,0.26768 0.0021,0.01951 0.0033,0.04569 -0.0029,0.08059 -0.01429,0.08243 -0.06617,0.184496 -0.09211,0.212992 h -0.0029 v 0.0029 c -0.01209,0.01385 -0.102258,0.07033 -0.187088,0.08635 -0.07492,0.01415 -0.12992,-0.0014 -0.14967,-0.01155 -0.154398,-0.384175 -0.464595,-0.664864 -0.880757,-0.803044 -0.0049,-0.02287 -0.0068,-0.05304 -0.0029,-0.09211 0.0081,-0.07992 0.05147,-0.171639 0.07196,-0.195723 0.008,-0.0091 0.110821,-0.07194 0.207236,-0.08923 0.02411,-0.0043 0.0456,-0.0057 0.0662,-0.0057 z m -23.055098,0.860608 0.673519,0.67352 -0.690789,0.650494 c -0.214722,-0.233079 -0.389087,-0.423563 -0.62171,-0.673519 0.0105,-0.04282 0.02318,-0.0825 0.03741,-0.120887 l 0.592928,-0.526727 c 0.0029,-9.43e-4 0.0056,-0.0019 0.0087,-0.0029 z m 22.522614,0 c 0.0051,0.0016 0.0095,0.0041 0.01444,0.0057 l 0.590051,0.523848 c 0.01385,0.03751 0.02733,0.07626 0.03741,0.118012 -0.253585,0.2736 -0.429285,0.469612 -0.673519,0.733964 L 68.92028,62.521777 Z m -25.806741,1.191612 c 1.073328,0 1.973398,0.243152 2.714225,0.650494 l -1.134044,1.067845 c -0.461315,-0.185243 -0.987022,-0.29359 -1.580175,-0.29359 -1.276579,0 -2.258051,0.484487 -2.907075,1.214639 -0.649022,0.73015 -0.969983,1.695709 -0.969983,2.659539 0,0.455816 0.07443,0.911976 0.218751,1.344162 l -1.125412,1.05633 c -0.343237,-0.746001 -0.518092,-1.572323 -0.518092,-2.400492 0,-1.329958 0.446724,-2.656604 1.326892,-3.646793 0.880168,-0.990189 2.193113,-1.652138 3.974918,-1.652138 z m 29.157073,0.05756 c 1.781802,0 3.094749,0.661948 3.974917,1.652137 0.880167,0.990189 1.324012,2.316834 1.324012,3.646794 0,1.040238 -0.27509,2.076348 -0.814554,2.953124 l -1.082239,-1.018915 c 0.31368,-0.592775 0.47204,-1.263035 0.47204,-1.934209 0,-0.96383 -0.320962,-1.929389 -0.969983,-2.659541 -0.649023,-0.730151 -1.627617,-1.217517 -2.904194,-1.217517 -0.8554,0 -1.5738,0.223104 -2.152962,0.587172 L 70.37088,64.982718 69.824006,64.055909 c 0.78861,-0.504236 1.771587,-0.817433 2.979031,-0.817433 z m 12.408305,0.898025 4.872944,1.39597 -0.618833,2.158717 c -0.117895,0.400843 -0.242811,0.693599 -0.382811,0.880757 a 1.040421,1.040421 0 0 1 -0.592928,0.385692 1.5709474,1.5709474 0 0 1 -0.843338,-0.03165 1.6033684,1.6033684 0 0 1 -0.656251,-0.348272 1.3410526,1.3410526 0 0 1 -0.362664,-0.546874 1.4854737,1.4854737 0 0 1 -0.06046,-0.50658 1.2865263,1.2865263 0 0 1 -0.279195,0.282072 1.5591579,1.5591579 0 0 1 -0.313733,0.132396 2.0189474,2.0189474 0 0 1 -0.354031,0.09787 l -1.591695,0.221629 0.420231,-1.462172 1.689556,-0.267681 c 0.216631,-0.03389 0.360799,-0.07359 0.440378,-0.126648 a 0.51136842,0.51136842 0 0 0 0.20148,-0.284952 l 0.03455,-0.112256 -1.974505,-0.567024 z m -56.066203,0.138152 c 0.392,-0.02358 0.73576,0.01209 1.02755,0.109375 0.294736,0.09727 0.538102,0.252668 0.728207,0.463405 0.193053,0.209263 0.340168,0.504968 0.440378,0.880757 0.122317,0.456842 0.145711,0.852872 0.06908,1.182977 -0.07811,0.33158 -0.2829,0.654616 -0.615953,0.969984 -0.333052,0.313895 -0.80173,0.554589 -1.410361,0.716694 -0.810527,0.218106 -1.484208,0.198787 -2.017681,-0.05468 -0.534947,-0.252 -0.890866,-0.71955 -1.073602,-1.395971 -0.141474,-0.530527 -0.127703,-0.981424 0.0403,-1.352797 0.168,-0.371366 0.488156,-0.698479 0.967104,-0.984374 l 0.604441,1.070724 a 1.2968421,1.2968421 0 0 0 -0.293586,0.212994 0.8296842,0.8296842 0 0 0 -0.198601,0.339637 0.70442105,0.70442105 0 0 0 0.0029,0.377057 c 0.07958,0.294736 0.277491,0.483022 0.595806,0.567022 0.23579,0.06337 0.575474,0.0373 1.013158,-0.08059 0.543789,-0.14442 0.897036,-0.31493 1.062089,-0.509456 a 0.71326316,0.71326316 0 0 0 0.138162,-0.679282 c -0.06631,-0.250525 -0.196852,-0.416822 -0.394327,-0.500822 -0.196,-0.084 -0.455805,-0.109923 -0.780016,-0.08635 z m 17.497123,0.181333 -0.543996,0.961348 c -0.08583,-0.06957 -0.167269,-0.143227 -0.261925,-0.204359 z m -2.996298,0.518092 c 0.480369,0 0.90608,0.07533 1.283716,0.204359 L 40.287,69.541923 c -0.09753,-0.343686 -0.149673,-0.702957 -0.149673,-1.062089 0,-0.881959 0.296378,-1.760695 0.877878,-2.414884 0.581503,-0.65419 1.446286,-1.090872 2.630759,-1.090872 z m 29.157072,0.05469 c 1.184471,0 2.049254,0.43956 2.630755,1.093751 0.581502,0.654189 0.875,1.532926 0.875,2.414885 0,0.580737 -0.129876,1.157527 -0.382813,1.672285 l -5.002467,-4.706002 c 0.50445,-0.296795 1.127519,-0.474919 1.879525,-0.474919 z m -27.240127,0.443256 c 0.127975,0.07778 0.24328,0.168382 0.35403,0.261925 l -0.782896,1.378702 -4.084292,3.822368 c -0.01155,-0.01253 -0.02331,-0.02479 -0.03455,-0.03741 -0.189156,-0.212801 -0.34361,-0.452066 -0.472039,-0.70518 z m 42.172697,0.794408 -0.158306,0.546876 a 1.7684211,1.7684211 0 0 0 -0.03165,0.362663 0.35957895,0.35957895 0 0 0 0.09498,0.253292 0.52463158,0.52463158 0 0 0 0.256167,0.164061 c 0.157684,0.04421 0.291031,0.03311 0.400084,-0.02878 0.109048,-0.05895 0.197011,-0.208871 0.264802,-0.446135 l 0.164061,-0.567023 z m -16.1875,0.713817 4.029605,3.790708 c -0.04684,0.06111 -0.09256,0.123567 -0.14392,0.18133 -0.144494,0.162558 -0.306398,0.310924 -0.48643,0.443258 l -3.698603,-3.456826 0.860609,-0.0029 z m -1.243421,0.961348 4.05551,3.796464 c -0.440069,0.194856 -0.958412,0.305099 -1.557154,0.305099 -1.184472,0 -2.052134,-0.436682 -2.633636,-1.090873 -0.581501,-0.654187 -0.874997,-1.532927 -0.875,-2.414883 0,-0.199759 0.02431,-0.397367 0.05756,-0.592928 z m -1.332648,0.0029 c -0.02798,0.196414 -0.04605,0.393633 -0.04605,0.592928 0,0.96383 0.32096,1.929388 0.969985,2.659539 0.649022,0.730152 1.630494,1.214639 2.907072,1.214639 0.707349,0 1.320228,-0.151847 1.839227,-0.408718 l 1.111019,1.04194 c -0.782766,0.49174 -1.759391,0.791531 -2.950246,0.791531 -1.781805,0 -3.097628,-0.661949 -3.977796,-1.652139 -0.880169,-0.990188 -1.324013,-2.316834 -1.324013,-3.646792 0,-0.196664 0.01709,-0.39268 0.04028,-0.587172 z m -2.049341,0.0087 -2.996301,4.835527 C 63.773666,72.1489 63.517469,71.53887 63.157893,70.986795 l 1.86801,-3.027961 z m -2.331415,0.0057 -1.663652,2.696959 c -0.07783,-0.101769 -0.156122,-0.202979 -0.241775,-0.299343 -0.611595,-0.688045 -1.4237,-1.226415 -2.4264,-1.522616 l 0.02591,-0.860608 z m -5.224096,0.01727 -0.02015,0.664885 c -0.291541,-0.03896 -0.595209,-0.06045 -0.912416,-0.06045 -0.357844,0 -0.699522,0.02555 -1.024673,0.07483 l -0.03455,-0.673519 z m -2.90995,0.0087 0.04318,0.883635 c -0.952749,0.302375 -1.72772,0.82511 -2.317024,1.488076 -0.117983,0.13272 -0.230741,0.268793 -0.333881,0.411594 l -1.706825,-2.768963 z m -4.7463,0.01444 1.919819,3.111431 c -0.352738,0.575149 -0.59264,1.210121 -0.728206,1.870889 l -3.025083,-4.887337 1.234786,-0.09211 z m -2.800576,0.0088 c 0.01564,0.157052 0.03455,0.313882 0.03455,0.472038 0,1.330142 -0.443724,2.659344 -1.324014,3.649671 -0.880291,0.990327 -2.192868,1.64926 -3.974917,1.64926 -1.461149,0 -2.600605,-0.448639 -3.451069,-1.154194 l 1.070722,-1.001644 c 0.612776,0.454419 1.410657,0.733964 2.380347,0.733964 1.276576,0 2.25517,-0.484487 2.904194,-1.214639 0.649022,-0.730151 0.969983,-1.698588 0.969983,-2.662418 0,-0.156411 -0.02427,-0.311158 -0.04318,-0.466282 z m -1.796052,0.0057 c 0.02071,0.154601 0.03742,0.309581 0.03742,0.466283 0,0.881958 -0.293498,1.763574 -0.875,2.417763 -0.5815,0.65419 -1.446285,1.090873 -2.630756,1.090873 -0.870325,0 -1.56734,-0.237131 -2.106908,-0.621712 l 3.577713,-3.34745 z m 11.320313,0.935445 c 0.315225,0 0.614852,0.02087 0.900904,0.06045 l -0.04318,1.462173 c -0.214976,-0.03506 -0.439022,-0.05812 -0.673519,-0.06333 v -0.03741 h -0.184211 c -0.332483,0 -0.643656,0.03319 -0.935444,0.09498 l -0.07196,-1.442091 c 0.317731,-0.04978 0.65278,-0.07483 1.007402,-0.07483 z m 1.813323,0.264802 c 0.894126,0.281244 1.612668,0.769793 2.161595,1.387335 0.110927,0.124791 0.216688,0.253774 0.313733,0.38857 l -0.132397,0.212992 1.018917,2.797699 0.106505,-0.172699 c 0.0099,0.139853 0.01727,0.279909 0.01727,0.420231 0,1.330143 -0.44372,2.659344 -1.324012,3.649671 -0.609138,0.685278 -1.425504,1.211412 -2.460939,1.470806 l 0.04318,-1.490954 c 0.567913,-0.207374 1.037996,-0.535094 1.404607,-0.941201 0.662157,-0.733497 0.987252,-1.711869 0.987252,-2.688322 0,-0.976452 -0.325095,-1.954825 -0.987252,-2.688322 -0.316786,-0.350917 -0.718186,-0.633679 -1.191612,-0.831826 z m -3.727386,0.03165 0.07771,1.531251 c -0.421416,0.207727 -0.779662,0.484233 -1.070724,0.811677 -0.649023,0.730152 -0.969981,1.695711 -0.969985,2.65954 4e-6,0.96383 0.320962,1.929388 0.969985,2.659539 0.369238,0.415393 0.847187,0.748956 1.424752,0.961349 l 0.07771,1.522615 c -1.086832,-0.249137 -1.94016,-0.784911 -2.570312,-1.493832 -0.880291,-0.990328 -1.324013,-2.319528 -1.324013,-3.649671 0,-0.05764 0.0041,-0.115091 0.0057,-0.172698 l 0.08924,0.141033 1.018914,-2.800576 -0.184211,-0.299342 c 0.120872,-0.179067 0.249925,-0.352762 0.394325,-0.515215 0.52814,-0.594156 1.213481,-1.069994 2.060856,-1.355674 z m -16.259456,1.211688 c 0.132705,0.24413 0.290796,0.474657 0.477794,0.685034 0.01342,0.01512 0.02945,0.02827 0.04318,0.04318 l -1.062089,0.993009 c -0.01553,-0.01698 -0.03366,-0.03176 -0.04893,-0.04893 -0.18283,-0.205683 -0.344004,-0.427199 -0.489309,-0.659128 z m 18.164883,0.28495 h 0.01155 c 0.301138,-0.0061 0.582017,0.01626 0.843339,0.06333 l -0.204359,6.91653 c -0.202348,0.02538 -0.414414,0.03616 -0.63898,0.03165 h -0.0029 c -0.199205,0 -0.388608,-0.01371 -0.569902,-0.03742 l -0.345395,-6.876233 c 0.27868,-0.06256 0.580376,-0.0971 0.906661,-0.09787 z m 17.419409,0.282074 1.062088,0.998765 c -0.04355,0.05344 -0.0836,0.109527 -0.129522,0.161185 -0.149041,0.167668 -0.315278,0.321936 -0.48931,0.469161 L 75.21505,71.649116 c 0.179973,-0.137156 0.345513,-0.286884 0.492187,-0.451892 0.04922,-0.05537 0.0927,-0.11473 0.138158,-0.172697 z m -15.652139,0.07771 c 0.365898,0.181049 0.674358,0.422341 0.929689,0.705181 0.592952,0.656837 0.892268,1.546741 0.892268,2.44079 0,0.894048 -0.299316,1.786829 -0.892268,2.443667 -0.298299,0.330437 -0.669816,0.602122 -1.119656,0.788651 z m -3.574836,0.08059 0.313735,6.286185 c -0.454314,-0.191585 -0.82901,-0.469231 -1.12829,-0.805923 -0.581502,-0.654187 -0.877876,-1.532926 -0.877879,-2.414883 3e-6,-0.881959 0.296377,-1.760696 0.877879,-2.414885 0.226748,-0.255092 0.499005,-0.47454 0.814555,-0.650494 z m -2.791939,0.325248 -0.564146,1.542762 c 0.111731,-0.540816 0.299465,-1.062289 0.564146,-1.542762 z m -14.915297,0.218748 c 0.145836,0.225714 0.303275,0.444804 0.483553,0.647616 0.01796,0.0202 0.03927,0.03764 0.05756,0.05756 l -0.572779,0.535361 -0.621711,-0.627467 z m 24.307155,0.118013 c 0.118411,0.257341 0.213026,0.526614 0.290706,0.800165 z m 13.956826,0.428866 0.460526,0.431744 -0.624588,0.624589 -0.451892,-0.42311 c 0.174974,-0.150206 0.341355,-0.308109 0.492186,-0.477795 0.04423,-0.04975 0.08161,-0.104207 0.12376,-0.155428 z m -39.029606,5.103208 1.378702,1.197368 -1.260692,2.524259 2.319902,-1.603206 1.372943,1.194488 -2.94449,3.387747 -0.854852,-0.742867 2.245067,-2.584703 -2.907072,2.006167 -0.774261,-0.67064 1.583059,-3.160362 -2.245065,2.584704 -0.857731,-0.745477 z m 39.446958,0.538239 c 0.36842,-0.04421 0.728552,0.0892 1.082236,0.397204 l -0.921052,0.929687 C 77.593069,79.115307 77.439,79.056223 77.296053,79.063591 a 0.70442105,0.70442105 0 0 0 -0.434622,0.204358 c -0.119369,0.109049 -0.188218,0.216264 -0.201481,0.322369 a 0.32421053,0.32421053 0 0 0 0.07483,0.264802 c 0.05011,0.05158 0.115932,0.07925 0.204357,0.07483 0.08842,0.0029 0.239543,-0.06042 0.457648,-0.184211 0.536422,-0.309473 0.948962,-0.503378 1.231909,-0.578536 a 1.3646316,1.3646316 0 0 1 0.759869,-0.01444 1.2629474,1.2629474 0 0 1 0.578536,0.374178 c 0.191578,0.215158 0.309819,0.465337 0.354028,0.751234 0.0442,0.287369 0.0031,0.574783 -0.126647,0.85773 -0.128211,0.282947 -0.355067,0.571697 -0.679278,0.863486 -0.565895,0.509894 -1.056631,0.754664 -1.473684,0.731086 a 1.7315789,1.7315789 0 0 1 -1.116775,-0.497945 l 0.923931,-0.944078 c 0.162105,0.141473 0.316173,0.222479 0.457647,0.247532 a 0.73094737,0.73094737 0 0 0 0.636103,-0.207237 0.67789473,0.67789473 0 0 0 0.247531,-0.408717 0.41852631,0.41852631 0 0 0 -0.09787,-0.348272 0.41263158,0.41263158 0 0 0 -0.322369,-0.129522 c -0.137052,0 -0.372199,0.09345 -0.702302,0.282072 -0.545262,0.305051 -0.986401,0.460387 -1.32977,0.466281 A 1.096421,1.096421 0 0 1 75.865529,80.80778 1.176,1.176 0 0 1 75.5777,80.188949 1.335158,1.335158 0 0 1 75.70146,79.423323 c 0.120842,-0.26821 0.354513,-0.555348 0.702302,-0.869242 0.427368,-0.383158 0.823261,-0.596245 1.188734,-0.638981 z M 57.88199,78.087851 c 0.177947,0.02095 0.361301,0.03454 0.552632,0.03454 0.219095,0.0043 0.428463,-0.0085 0.630345,-0.03165 l -0.04028,1.427632 c -0.190624,0.01658 -0.387329,0.02878 -0.590049,0.02878 -0.164572,0 -0.32408,-0.0091 -0.480674,-0.02015 z m 1.131168,1.80181 -0.04605,1.522615 c -0.03104,0.287014 -0.221077,0.380233 -0.463403,0.382812 -0.121977,0.0013 -0.23784,-0.03528 -0.313734,-0.09498 -0.07499,-0.05899 -0.12488,-0.133354 -0.141033,-0.287828 l -0.07483,-1.51398 c 0.150918,0.0097 0.303328,0.01727 0.460527,0.01727 0.19826,0 0.390277,-0.0105 0.578536,-0.02591 z m 15.643503,0.224506 2.639392,3.629523 -1.125412,0.814556 -2.639392,-3.629522 z m -32.375,0.636102 1.162829,0.756991 -2.440789,3.764802 -1.165709,-0.75699 z m 29.752879,1.064968 3.704357,3.045229 -1.254933,0.72533 -0.561266,-0.532484 -1.370067,0.791529 0.181333,0.748356 -1.223273,0.708059 -0.785772,-4.72903 z m -28.106497,0.05468 1.14268,0.610197 0.328125,2.984787 1.165707,-2.193256 1.154196,0.615952 -2.106909,3.963405 L 44.457648,87.23505 44.129523,84.270411 42.97245,86.446397 41.821134,85.8362 Z m 28.020148,1.338405 0.379934,1.646381 0.857731,-0.495065 z m -3.154605,0.379933 a 1.0448421,1.0448421 0 0 1 0.664886,0.175576 1.2364211,1.2364211 0 0 1 0.463403,0.595807 1.2526316,1.2526316 0 0 1 0.09498,0.65625 1.26,1.26 0 0 1 -0.241777,0.572779 1.6741053,1.6741053 0 0 1 -0.38569,0.345394 1.4,1.4 0 0 1 0.397203,0.02015 1.4,1.4 0 0 1 0.296465,0.132395 c 0.132632,0.07663 0.22895,0.139927 0.28495,0.187088 l 1.108142,0.952714 -1.453536,0.59005 -1.200247,-0.995888 a 1.0463158,1.0463158 0 0 0 -0.362665,-0.224507 0.58357895,0.58357895 0 0 0 -0.354029,0.02878 l -0.115138,0.04605 0.685034,1.689556 -1.292352,0.52097 -1.683801,-4.159128 2.144327,-0.866364 c 0.397892,-0.159158 0.714046,-0.251472 0.949835,-0.267681 z m -19.664474,0.59005 1.43051,0.495066 0.132395,4.792351 -1.370066,-0.472039 0.03165,-0.771381 -1.49383,-0.518092 -0.446137,0.630345 -1.341282,-0.460527 z m 16.400493,0.449013 0.215872,0.935445 -2.265214,0.52097 0.158306,0.696547 2.10403,-0.486432 0.207236,0.892271 -2.104029,0.486431 0.198601,0.860608 2.334294,-0.538241 0.227385,0.990133 -3.687089,0.851973 -1.01028,-4.372122 z m 2.794819,0.08348 c -0.108384,-0.0034 -0.250249,0.0289 -0.425987,0.100741 l -0.567023,0.227385 0.342517,0.846218 0.541119,-0.21875 a 2.2105263,2.2105263 0 0 0 0.31949,-0.192846 0.37136842,0.37136842 0 0 0 0.155427,-0.215871 0.41557895,0.41557895 0 0 0 -0.01728,-0.273438 c -0.056,-0.134104 -0.139823,-0.222203 -0.253291,-0.259045 -0.02873,-0.0096 -0.05886,-0.01327 -0.09498,-0.01444 z m -15.203125,0.503701 c 0.185868,0.0029 0.391817,0.02567 0.621711,0.0662 0.564421,0.100205 0.978296,0.278801 1.237665,0.541117 0.259369,0.262316 0.377608,0.627998 0.354028,1.096629 l -1.300986,-0.152549 c 0,-0.206316 -0.04524,-0.362987 -0.141031,-0.47204 a 0.70589473,0.70589473 0 0 0 -0.428866,-0.21588 c -0.159157,-0.028 -0.282809,-0.01415 -0.374176,0.03741 a 0.31536842,0.31536842 0 0 0 -0.164063,0.227386 c -0.01474,0.06927 0.0089,0.135092 0.06333,0.204358 0.056,0.06927 0.197428,0.151811 0.431743,0.244654 0.574737,0.232842 0.977444,0.439043 1.21176,0.618832 a 1.3661053,1.3661053 0 0 1 0.477795,0.587172 c 0.08105,0.216631 0.103192,0.444822 0.06045,0.685032 a 1.4235789,1.4235789 0 0 1 -0.374178,0.742599 1.4854737,1.4854737 0 0 1 -0.751234,0.428865 2.6821053,2.6821053 0 0 1 -1.096627,-0.0029 C 52.197034,89.718741 51.702151,89.48226 51.463414,89.143313 A 1.7330527,1.7330527 0 0 1 51.16695,87.951701 l 1.315378,0.149671 a 1.0065263,1.0065263 0 0 0 0.08347,0.512337 0.73684211,0.73684211 0 0 0 0.555511,0.374177 c 0.194525,0.03389 0.35548,0.01326 0.477795,-0.06045 a 0.41852631,0.41852631 0 0 0 0.212994,-0.287829 0.41263158,0.41263158 0 0 0 -0.09787,-0.333881 c -0.084,-0.107578 -0.301159,-0.235513 -0.65337,-0.379934 -0.576212,-0.24021 -0.972103,-0.494536 -1.188734,-0.762748 a 1.096421,1.096421 0 0 1 -0.233141,-0.921052 1.1789473,1.1789473 0 0 1 0.310853,-0.607319 1.3366316,1.3366316 0 0 1 0.679278,-0.374177 c 0.142211,-0.03464 0.306319,-0.049 0.492186,-0.04605 z m 7.077715,0.296464 c 0.186972,0.0065 0.343161,0.02654 0.469161,0.06045 a 1.4648421,1.4648421 0 0 1 0.650492,0.362664 c 0.176843,0.172422 0.31553,0.403561 0.423108,0.685034 l -1.30962,0.35115 a 0.728,0.728 0 0 0 -0.316611,-0.362664 0.86947369,0.86947369 0 0 0 -0.509458,-0.08635 0.90926316,0.90926316 0 0 0 -0.699425,0.377056 c -0.162106,0.226947 -0.221122,0.566424 -0.181332,1.021792 0.04127,0.484842 0.16077,0.821579 0.362663,1.013159 0.198949,0.191578 0.462968,0.272654 0.788653,0.244654 a 1.447158,1.447158 0 0 0 0.434621,-0.106505 c 0.137053,-0.056 0.29246,-0.148242 0.463404,-0.270558 l -0.03741,-0.42311 -0.921052,0.08348 -0.08347,-0.929689 2.135691,-0.187089 0.164063,1.905428 a 4.2589474,4.2589474 0 0 1 -1.033306,0.662008 3.6886316,3.6886316 0 0 1 -1.105264,0.250411 c -0.530527,0.04421 -0.971871,-0.0065 -1.321135,-0.158307 a 1.8494737,1.8494737 0 0 1 -0.846217,-0.73972 2.6644211,2.6644211 0 0 1 -0.38569,-1.208882 2.6054737,2.6054737 0 0 1 0.189968,-1.298108 c 0.169473,-0.377263 0.443186,-0.679852 0.814555,-0.900905 0.288842,-0.170947 0.69323,-0.278158 1.203125,-0.322368 0.247578,-0.02137 0.463519,-0.02947 0.650494,-0.02303 z m -10.747533,0.0088 -0.993009,1.367186 0.935442,0.319491 z" />
  <path
     d="m 55.720631,55.559578 c 0.972631,1.700212 3.001263,4.597896 2.844631,4.889685 m -0.938526,-5.029894 c 0.852632,1.563789 2.652632,3.425684 2.652632,5.161263"
     fill="none"
     stroke="#000200"
     stroke-width="0.200842"
     id="path58"
     style="stroke:none" />
</svg>
