<?xml version="1.0" encoding="UTF-8" standalone="no"?>
<svg
   width="240"
   height="240"
   version="1.1"
   id="svg182"
   sodipodi:docname="brasil.svg"
   inkscape:version="1.2.1 (ef4d3fba62, 2022-07-19, custom)"
   xmlns:inkscape="http://www.inkscape.org/namespaces/inkscape"
   xmlns:sodipodi="http://sodipodi.sourceforge.net/DTD/sodipodi-0.dtd"
   xmlns="http://www.w3.org/2000/svg"
   xmlns:svg="http://www.w3.org/2000/svg"
   xmlns:rdf="http://www.w3.org/1999/02/22-rdf-syntax-ns#"
   xmlns:cc="http://creativecommons.org/ns#"
   xmlns:dc="http://purl.org/dc/elements/1.1/">
  <defs
     id="defs186" />
  <sodipodi:namedview
     id="namedview184"
     pagecolor="#ffffff"
     bordercolor="#666666"
     borderopacity="1.0"
     inkscape:showpageshadow="2"
     inkscape:pageopacity="0.0"
     inkscape:pagecheckerboard="0"
     inkscape:deskcolor="#d1d1d1"
     showgrid="false"
     inkscape:zoom="8"
     inkscape:cx="193.25"
     inkscape:cy="139.9375"
     inkscape:window-width="1846"
     inkscape:window-height="1016"
     inkscape:window-x="74"
     inkscape:window-y="27"
     inkscape:window-maximized="1"
     inkscape:current-layer="svg182" />
  <title
     id="title148">mapa do brasil</title>
  <path
     fill="#fff4f4"
     fill-rule="evenodd"
     stroke="#00007f"
     stroke-width="3"
     stroke-linejoin="round"
     stroke-miterlimit="4"
     id="path1360"
     d="m 125.39008,239.08448 -3.02988,0.41553 0.55288,-2.33861 1.32472,-0.84666 -0.66296,-4.60098 -1.43592,-0.2945 -1.54629,-2.83422 -0.22127,-2.61339 -2.31931,-0.95703 -3.64438,-0.0739 -3.53395,-2.06128 -0.77333,-1.95085 -3.20269,-1.95087 -5.07992,-0.73617 5.74167,-6.36773 0.44129,-2.83422 3.2019,-4.38014 3.25748,-1.94161 0.0554,-2.49371 5.79725,-1.05823 11.31842,0.2669 12.9748,7.33384 0.82811,6.11921 -2.4846,5.78795 -2.08427,1.61263 -1.8634,3.26894 -1.31132,2.71684 -6.40115,3.77103 -1.21121,2.33552 -0.87991,3.77103 -2.23523,0.85999 z"
     style="fill:#a3c4bc;stroke:#243650;stroke-width:1;stroke-dasharray:none" />
  <path
     fill="#fff4f4"
     fill-rule="evenodd"
     stroke="#00007f"
     stroke-width="3"
     stroke-linejoin="round"
     stroke-miterlimit="4"
     id="path2120"
     d="m 147.3989,211.94557 -1.83925,0.66427 -0.84196,-5.95589 -13.43034,-7.50179 -11.55313,0.11734 -1.83578,0.22771 3.79581,-2.20154 1.14566,-1.9807 -0.0687,-2.31194 8.54407,-0.1035 3.13328,1.66323 3.02286,0.44856 2.24989,-1.09731 1.69778,-1.75986 6.446,-0.21397 5.23135,-0.98687 -1.72537,2.87788 -0.29327,13.25234 -2.61223,2.43103 -1.06628,2.43101 z"
     style="fill:#a3c4bc;stroke:#243650;stroke-width:1;stroke-dasharray:none" />
  <path
     fill="#fff4f4"
     fill-rule="evenodd"
     stroke="#00007f"
     stroke-width="3"
     stroke-linejoin="round"
     stroke-miterlimit="4"
     id="path2880"
     d="m 153.43068,190.58075 1.1326,-0.68347 1.57523,-0.98287 -1.96579,-1.39945 -3.42383,-0.4621 -5.7151,-12.1264 -11.75565,-5.357 -4.46532,-0.25387 -9.56855,8.49435 0.11714,11.09799 0.22126,1.20417 3.34575,-0.14975 -0.0913,2.97467 8.55311,-0.0451 2.51254,1.41248 3.65818,0.68346 2.66228,-1.42874 1.41251,-1.63704 6.1577,-0.0451 z"
     style="fill:none;stroke:#243650;stroke-width:1;stroke-dasharray:none" />
  <path
     fill="#fff4f4"
     fill-rule="evenodd"
     stroke="#00007f"
     stroke-width="3"
     stroke-linejoin="round"
     stroke-miterlimit="4"
     id="path3640"
     d="m 154.49168,187.58982 1.75099,1.11631 3.49543,-3.29686 0.78759,-2.88026 3.39131,-1.3181 5.1618,-0.79731 1.30837,-0.58909 0.47514,-1.63054 2.55809,0.0359 2.66229,-3.71344 0.26691,-1.52638 -2.85756,-1.94296 -3.89901,1.70213 -2.7534,1.28554 -2.33681,-0.27665 -0.25387,-8.1917 -3.69073,-8.50411 -9.52298,-0.0687 -5.66952,-3.81757 -5.77368,-0.48497 0.16278,2.95187 -1.3995,0.13992 -3.37827,3.99331 -0.46211,5.76381 -5.35711,3.68089 4.32865,0.24412 11.61894,5.45137 5.68256,12.32496 z"
     style="fill:none;stroke:#243650;stroke-width:1;stroke-dasharray:none" />
  <path
     fill="#fff4f4"
     fill-rule="evenodd"
     stroke="#00007f"
     stroke-width="3"
     stroke-linejoin="round"
     stroke-miterlimit="4"
     id="path4400"
     d="m 173.63527,178.18743 2.36083,-3.77159 0.23305,-1.38685 -2.68302,-2.11585 2.73267,-0.24125 5.12803,-0.34538 3.46166,-0.97025 2.52438,-1.38686 2.10775,-2.53242 2.10778,-3.05318 5.33633,5.27846 0.18874,3.32614 -1.08054,1.44501 -4.62152,1.13258 -0.7681,2.0699 -0.87221,0.71597 -12.53676,0.0913 -0.55977,1.54917 -3.05933,0.1953 z"
     style="fill:#a3c4bc;stroke:#243650;stroke-width:1;stroke-dasharray:none" />
  <path
     fill="#fff4f4"
     fill-rule="evenodd"
     stroke="#00007f"
     stroke-width="3"
     stroke-linejoin="round"
     stroke-miterlimit="4"
     id="path5160"
     d="m 196.92581,167.4886 0.50868,-0.73475 1.08802,-0.42383 1.65319,0.14134 0.63588,-1.55428 0.24024,-2.23247 1.18692,-1.526 2.14775,-2.59987 0.79128,-3.89979 -0.11304,-2.99549 0.79129,-2.65637 -0.45216,-1.97815 -2.26079,-0.50867 -2.99555,-1.01734 h -2.31732 l -0.22607,6.89528 -1.07387,2.82595 -1.58256,3.33459 -3.39118,0.39563 0.11304,3.33462 z"
     style="fill:#a3c4bc;stroke:#243650;stroke-width:1;stroke-dasharray:none" />
  <path
     fill="#fff4f4"
     fill-rule="evenodd"
     stroke="#00007f"
     stroke-width="3"
     stroke-linejoin="round"
     stroke-miterlimit="4"
     id="path5920"
     d="m 207.26739,146.88045 -1.87476,-0.14422 -3.97482,-3.75843 -0.94637,-2.89319 4.82208,-4.47949 -0.80216,-2.02791 -6.138,-5.20054 -3.97484,0.1352 -5.12852,-3.32583 -7.2917,-0.29747 -0.65793,-3.3258 -7.2917,5.18249 -4.84012,0.27941 0.35153,-24.23608 -3.68642,-0.009 5.2547,-6.354209 3.23576,-0.009 2.71975,4.540319 5.31555,-2.958528 2.71974,-2.814328 -2.85071,-3.650568 14.31045,-0.04533 3.20616,-2.929519 1.47565,0.243062 3.06197,4.136714 6.81145,-5.525278 6.37884,4.136703 0.16638,5.420191 3.19487,0.228671 -0.12197,2.247589 -3.43887,0.37288 0.0226,3.833911 2.76223,2.536 2.4738,0.80552 -0.51996,1.95737 -1.81792,1.09211 -0.23151,2.53424 -1.24106,1.09211 -1.38525,1.66896 -2.53895,1.38054 -2.25054,0.22689 0.81826,2.3357 -0.19121,13.43976 -1.6333,1.61466 -0.62387,1.90308 -0.47955,3.48937 -0.91222,2.04728 -0.19121,4.64305 -2.06593,0.46097 z"
     style="fill:none;stroke:#243650;stroke-width:1;stroke-dasharray:none" />
  <path
     fill="#fff4f4"
     fill-rule="evenodd"
     stroke="#00007f"
     stroke-width="3"
     stroke-linejoin="round"
     stroke-miterlimit="4"
     id="path6682"
     d="m 165.45225,124.12166 3.50426,-0.04 0.33543,2.79295 4.85039,-0.27049 7.28521,-5.1981 0.65701,3.34303 7.28523,0.28988 5.14026,3.32371 3.9808,-0.13529 6.12578,5.19812 0.81159,2.02899 -4.83104,4.48314 0.94689,2.89859 3.98079,3.89376 -2.26094,-0.35748 -2.99525,-1.02421 h -2.31891 l -0.21254,6.89861 -1.08215,2.82129 -1.58459,3.34303 -3.38174,0.3865 0.0872,3.39133 -2.15465,3.10147 -2.10635,2.53142 -2.51215,1.39133 -3.45902,0.96615 -5.14026,0.34783 -2.72472,0.23193 1.60391,1.27538 -1.66188,-1.14013 -3.9035,1.70052 -2.74403,1.29471 -2.33824,-0.2706 -0.25121,-8.19332 -3.69092,-8.50249 -9.52684,-0.0769 -5.66199,-3.82612 -5.77796,-0.48313 7.11926,-6.47925 12.31332,-0.31408 0.43759,-5.8851 3.35555,-5.47457 0.2345,-6.49115 2.25645,0.0236 0.01,-3.79518 z"
     style="fill:#a3c4bc;stroke:#243650;stroke-width:1;stroke-dasharray:none" />
  <path
     fill="#fff4f4"
     fill-rule="evenodd"
     stroke="#00007f"
     stroke-width="3"
     stroke-linejoin="round"
     stroke-miterlimit="4"
     id="path8207"
     d="m 225.46166,104.38741 -3.08538,2.66873 -2.14804,-0.8722 -2.87706,-2.33026 -0.37758,-3.996579 3.78835,-0.351525 3.26763,0.169248 4.41325,0.689926 z"
     style="fill:#a3c4bc;stroke:#243650;stroke-width:1;stroke-dasharray:none" />
  <path
     fill="#fff4f4"
     fill-rule="evenodd"
     stroke="#00007f"
     stroke-width="3"
     stroke-linejoin="round"
     stroke-miterlimit="4"
     id="path9725"
     d="m 224.23348,99.705176 4.28231,0.551134 2.58663,-0.526413 0.29758,-2.54081 2.58661,-0.709584 1.85414,-3.822636 0.29758,-1.71675 -4.8299,1.48784 -4.55521,0.480697 -1.91994,-0.729617 -1.46214,-1.278975 -1.09587,-1.095867 -1.27901,0.09447 -1.82838,1.101581 -1.55369,0.73534 0.003,5.221796 3.2737,0.183476 -0.11407,2.380933 z"
     style="fill:#a3c4bc;stroke:#243650;stroke-width:1;stroke-dasharray:none;fill-opacity:1" />
  <path
     fill="#fff4f4"
     fill-rule="evenodd"
     stroke="#00007f"
     stroke-width="3"
     stroke-linejoin="round"
     stroke-miterlimit="4"
     id="path10485"
     d="m 236.11543,90.917174 1.64813,-1.007154 1.27112,-3.314048 0.081,-5.603054 -2.9407,2.454235 -5.04665,0.256796 -3.9479,2.912042 -2.75758,-6.701776 -4.49729,3.55296 -2.9407,-3.03936 -3.01583,3.610892 -4.023,-4.263266 -5.39645,0.131614 -0.0862,4.34339 -3.56521,3.061548 0.37196,1.505021 3.02727,4.068701 6.87286,-5.545118 6.3235,4.43495 3.66821,-1.882713 1.56229,0.314752 2.29476,1.962825 2.20322,0.680965 4.4007,-0.600853 z"
     style="fill:#a3c4bc;stroke:#243650;stroke-width:1;stroke-dasharray:none" />
  <path
     fill="#fff4f4"
     fill-rule="evenodd"
     stroke="#00007f"
     stroke-width="3"
     stroke-linejoin="round"
     stroke-miterlimit="4"
     id="path12003"
     d="m 228.9965,77.129373 0.0492,-3.187698 10.13886,2.06462 -0.0646,5.154294 -2.94072,2.454247 -5.04664,0.256797 -3.94789,2.912046 -2.75758,-6.70178 -4.4973,3.552959 -2.94069,-3.039359 -2.50962,-5.508044 1.85302,-2.447272 3.60313,2.253559 5.54677,-1.64494 0.3303,3.760223 3.18391,0.120351 z"
     style="fill:none;stroke:#243650;stroke-width:1;stroke-dasharray:none" />
  <path
     fill="#fff4f4"
     fill-rule="evenodd"
     stroke="#00007f"
     stroke-width="3"
     stroke-linejoin="round"
     stroke-miterlimit="4"
     id="path12007"
     d="m 239.12666,75.947045 0.19828,-3.049914 -1.27717,-1.795834 -0.78379,-4.845736 -9.7839,-0.124495 -4.6937,-3.296584 -6.52873,9.829809 3.87298,2.231538 5.27463,-1.530724 0.40569,3.633149 3.20904,0.165976 0.11069,-3.301189 9.99597,2.083993 z"
     style="fill:none;stroke:#243650;stroke-width:1;stroke-dasharray:none" />
  <path
     fill="#fff4f4"
     fill-rule="evenodd"
     stroke="#00007f"
     stroke-width="3"
     stroke-linejoin="round"
     stroke-miterlimit="4"
     id="path12009"
     d="m 204.67556,79.930611 -4.29717,-27.728173 c 10.00212,-0.759209 17.12721,4.825766 22.48176,10.558281 l -8.35459,12.328743 2.48978,5.541952 -2.82174,3.255084 -4.29719,-4.121884 z"
     style="fill:#a3c4bc;stroke:#243650;stroke-width:1;stroke-dasharray:none" />
  <path
     fill="#fff4f4"
     fill-rule="evenodd"
     stroke="#00007f"
     stroke-width="3"
     stroke-linejoin="round"
     stroke-miterlimit="4"
     id="path12011"
     d="m 174.39299,96.418594 -3.20953,0.148477 0.11068,-8.093015 c 2.12705,-7.553715 7.42628,-12.156625 14.56977,-14.69399 l 3.72546,-0.0876 0.25818,-11.005506 6.93447,-11.415854 3.6148,0.903676 4.27872,27.460755 -0.0738,4.592165 -3.76233,2.821683 0.44262,1.862688 -1.47541,-0.456448 -3.24594,3.010724 -14.09028,0.207478 2.74797,3.55593 -2.85865,2.744469 -5.44061,3.039544 z"
     style="fill:none;stroke:#243650;stroke-width:1;stroke-dasharray:none" />
  <path
     fill="#fff4f4"
     fill-rule="evenodd"
     stroke="#00007f"
     stroke-width="3"
     stroke-linejoin="round"
     stroke-miterlimit="4"
     id="path12013"
     d="m 161.60948,66.767909 0.19387,13.0016 3.11809,2.489092 3.22819,0.103149 -0.0687,3.138628 -3.17162,0.136322 0.29746,5.543359 3.10073,5.413351 2.74399,-0.1781 0.11068,-7.759649 c 2.12677,-7.553698 7.42601,-12.156616 14.5695,-14.693981 l 3.72545,-0.0876 0.25819,-11.005516 6.93449,-11.415854 -10.26087,-3.165042 -1.14635,1.587902 -2.05597,-0.51982 -3.2407,-4.168149 -2.08025,-0.52543 -3.43648,-2.194644 -1.66292,-0.942726 -2.94568,-0.366091 -4.61494,14.969833 -8.26642,7.562681 4.67026,3.076679 z"
     style="fill:#a3c4bc;stroke:#243650;stroke-width:1;stroke-dasharray:none" />
  <path
     fill="#fff4f4"
     fill-rule="evenodd"
     stroke="#00007f"
     stroke-width="3"
     stroke-linejoin="round"
     stroke-miterlimit="4"
     id="path12773"
     d="m 158.03844,66.848776 h -4.57892 l 3.67775,-3.263641 4.35971,3.166221 0.36538,12.908429 3.28806,2.67911 2.99578,-0.04872 -0.0246,3.263638 -3.23934,-0.04872 0.25265,5.32778 2.98058,5.717461 3.11909,-0.225286 -5.34157,6.399422 3.56509,-0.0308 -0.0401,7.76334 -7.15153,3.86644 -6.26445,0.0574 -2.65974,-2.37847 -1.88037,-0.04 -1.9778,2.7849 -3.92625,-1.89136 -0.22413,-5.78824 -3.04946,3.07716 -1.15206,-0.15622 0.0175,-5.70927 2.55006,-10.580391 6.94572,-9.513352 3.82816,-10.390155 2.26937,-4.544826 z"
     style="fill:none;stroke:#243650;stroke-width:1;stroke-dasharray:none" />
  <path
     fill="#fff4f4"
     fill-rule="evenodd"
     stroke="#00007f"
     stroke-width="3"
     stroke-linejoin="round"
     stroke-miterlimit="4"
     id="path12777"
     d="m 163.04236,132.24549 0.11633,-4.38955 -7.28789,-1.2164 -0.17982,5.80693 z"
     style="fill:#a3c4bc;stroke:#243650;stroke-width:1;stroke-dasharray:none;fill-opacity:1" />
  <path
     fill="#fff4f4"
     fill-rule="evenodd"
     stroke="#00007f"
     stroke-width="3"
     stroke-linejoin="round"
     stroke-miterlimit="4"
     id="path12785"
     d="m 141.41794,113.29544 -0.2391,-3.39946 1.15943,0.15458 3.05325,-3.07248 0.21254,5.77782 3.94214,1.89374 1.97108,-2.78264 1.87445,0.0389 2.66674,2.37682 6.26105,-0.0584 7.13065,-3.86477 -0.21255,15.45908 -0.23191,-1.83577 -3.4977,0.0389 -0.0195,3.8068 -2.24163,-0.0389 -0.1159,3.20776 0.0769,-3.24641 -7.28522,-1.2174 -0.17387,5.81648 7.32389,-0.19325 -0.0769,2.12563 -3.34309,5.48795 -0.44447,5.87446 -12.30954,0.30915 -7.11131,6.49282 -12.02155,-9.29544 -0.0605,-10.1522 12.77678,-17.07704 z"
     style="fill:none;stroke:#243650;stroke-width:1;stroke-dasharray:none" />
  <path
     fill="#fff4f4"
     fill-rule="evenodd"
     stroke="#00007f"
     stroke-width="3"
     stroke-linejoin="round"
     stroke-miterlimit="4"
     id="path12794"
     d="m 139.84839,152.46637 -0.039,3.18843 -1.39134,0.1353 -3.38173,4.00005 -0.46375,5.75849 -5.3528,3.69085 -9.91333,8.5798 -5.13486,1.60909 0.26803,-7.38788 -2.29824,-0.0318 -0.41625,-1.82773 -2.38378,-0.0318 0.0913,-1.17652 -9.660491,0.0216 -0.935186,-1.86085 0.946757,-4.08491 -0.191101,-15.68656 1.730701,-4.38196 2.50058,-3.52653 1.47407,-1.55912 6.43554,0.15171 4.19482,2.99213 4.62253,-0.002 2.05628,-1.96924 0.9632,-0.68479 0.0226,4.70428 4.23598,0.0852 z"
     style="fill:none;stroke:#243650;stroke-width:1;stroke-dasharray:none" />
  <path
     fill="#fff4f4"
     fill-rule="evenodd"
     stroke="#00007f"
     stroke-width="3"
     stroke-linejoin="round"
     stroke-miterlimit="4"
     id="path12803"
     d="m 82.524704,119.21989 -0.742618,-2.36682 5.931681,-11.0398 -2.984528,-0.1948 -2.167593,-3.00651 2.875111,-0.0903 -0.05385,-2.34373 -9.291442,0.0216 -0.166534,-12.932911 17.97066,0.134599 3.325715,-9.778701 4.452244,10.385854 42.01408,5.67011 -2.55079,10.589469 -0.0195,5.70053 h 0.0389 l 0.23193,3.32372 -0.9275,2.60873 -12.77332,17.08227 0.0584,10.16435 0.0195,0.0195 -4.19336,-0.0964 -0.0195,-4.69569 -0.96618,0.67628 -2.04836,1.97103 h -4.6378 l -4.19337,-2.9952 -6.43497,-0.15457 -1.46864,1.56523 -2.49283,3.53626 -0.72071,1.77925 -1.27765,-1.15005 -1.318187,-5.06274 -2.433785,-1.9932 -0.743981,-1.42997 -0.29337,-2.78178 -9.75626,0.0348 -0.757358,-4.48719 -1.846707,-3.02452 1.398225,-1.18119 1.201697,-0.2077 -0.23519,-3.55831 z"
     style="fill:none;stroke:#243650;stroke-width:1;stroke-dasharray:none" />
  <path
     fill="#fff4f4"
     fill-rule="evenodd"
     stroke="#00007f"
     stroke-width="3"
     stroke-linejoin="round"
     stroke-miterlimit="4"
     id="path13568"
     d="m 110.02308,18.699232 4.78682,0.24539 2.65566,-0.762389 0.18546,5.340437 4.25407,0.254746 12.24601,16.819578 3.09159,0.109438 0.18546,-4.540334 7.74147,-7.301148 0.91201,4.46861 3.1574,0.02861 0.79517,1.234932 7.03055,0.463526 -2.5932,3.473535 -0.15941,3.401497 1.69401,1.202366 1.83633,-1.248267 1.21014,-3.927269 8.36439,-0.07509 2.43914,3.41079 -4.61849,14.956668 -8.27077,7.574949 0.0389,0.03867 -3.51702,3.111141 h 4.57985 l -1.29515,2.415515 -2.26091,4.541106 -3.82621,10.376904 -7.13064,9.45903 -41.8563,-5.6329 -4.444562,-10.376914 -2.742543,-3.590246 14.577575,-28.469864 -13.077201,-5.152477 -4.092754,-9.028271 1.830839,-6.571755 5.172953,-0.323615 1.830843,-1.631358 9.09629,-0.46892 z"
     style="fill:#a3c4bc;stroke:#243650;stroke-width:1;stroke-dasharray:none" />
  <path
     fill="#fff4f4"
     fill-rule="evenodd"
     stroke="#00007f"
     stroke-width="3"
     stroke-linejoin="round"
     stroke-miterlimit="4"
     id="path13575"
     d="m 117.48881,18.307769 0.18547,5.340445 4.25405,0.254745 12.24603,16.819584 3.0916,0.109437 0.18545,-4.540335 7.74147,-7.301155 1.6295,-2.856935 0.41852,-2.247376 -2.14922,-3.268124 -3.79019,-0.314169 -3.57138,-13.1146315 -1.35782,-0.160597 -6.39057,12.6398695 z"
     style="fill:none;stroke:#243650;stroke-width:1;stroke-dasharray:none" />
  <path
     fill="#fff4f4"
     fill-rule="evenodd"
     stroke="#00007f"
     stroke-width="3"
     stroke-linejoin="round"
     stroke-miterlimit="4"
     id="path14335"
     d="M 84.427208,0.51118457 82.153729,0.49999987 78.59713,5.8170933 75.221881,6.2925116 73.974226,7.8483456 69.820408,8.0810783 68.93526,10.269516 67.47155,9.2758985 63.959666,9.2806085 62.038845,7.4050159 58.526962,6.2526251 55.081611,5.2774915 l 4.509924,4.3764913 0.749245,8.5710192 4.345754,-0.06299 3.043981,2.68515 0.151154,2.974432 2.568199,3.083782 -0.179989,1.637383 -2.638894,3.806969 3.291405,3.517697 0.109299,3.228415 3.146763,2.360584 1.700348,-0.387545 1.907664,-5.014609 3.932635,-0.241523 3.209444,-4.58068 6.952813,0.355879 1.918793,-6.617537 L 89.011554,24.603337 88.453522,22.492319 85.09725,19.719294 86.443677,4.8690014 85.085846,4.4191287 85.204143,1.5826563 84.427208,0.51118119 Z"
     style="fill:#a3c4bc;stroke:#243650;stroke-width:1;stroke-dasharray:none" />
  <path
     fill="#fff4f4"
     fill-rule="evenodd"
     stroke="#00007f"
     stroke-width="3"
     stroke-linejoin="round"
     stroke-miterlimit="4"
     id="path14337"
     d="m 71.719329,114.03888 10.147675,2.96478 5.931686,-11.26205 -2.984532,-0.19479 -2.167592,-3.00651 2.87511,-0.0903 -0.05385,-2.34373 -9.291444,0.24423 -0.166568,-12.933421 -2.501332,-0.272278 -4.422013,-5.236289 -3.96825,-0.01813 -16.446707,10.871957 2.497867,0.09529 1.937156,0.721575 0.916207,1.288765 -0.898862,3.217212 0.195235,3.781809 2.532635,3.69665 2.562972,2.40139 5.550281,3.02113 7.754325,3.05266 z"
     style="fill:none;stroke:#243650;stroke-width:1;stroke-dasharray:none" />
  <path
     fill="#fff4f4"
     fill-rule="evenodd"
     stroke="#00007f"
     stroke-width="3"
     stroke-linejoin="round"
     stroke-miterlimit="4"
     id="path14339"
     d="m 64.439297,21.028296 0.24348,-2.906778 3.053228,2.666688 0.154592,2.975872 2.550799,3.091818 -0.173917,1.642527 -2.628097,3.806797 3.28512,3.516943 0.115944,3.227084 3.130531,2.357506 1.700528,-0.386473 1.913102,-5.024207 3.942135,-0.231879 3.207834,-4.579759 6.956719,0.347833 0.502439,-1.739146 -0.463794,1.681173 4.077424,9.024241 13.082516,5.159465 -14.570489,28.464033 2.686063,3.516948 -3.304442,9.719893 -17.971533,-0.135268 v 0.135267 L 73.513949,87.088336 69.0887,81.851575 65.127232,81.832235 48.662979,92.711571 45.520022,94.43485 2.7850229,76.89752 l 0.6786666,-1.181099 0.3729299,-7.601298 1.9282,-0.07152 0.3995581,-4.198804 2.9982526,-0.07153 1.6667509,-2.616533 3.501136,0.287843 2.671451,-3.291 6.034472,0.224821 3.435776,-10.169789 -1.051868,-6.249357 -0.134685,-6.402202 -2.580514,-3.039254 0.171048,-3.6507 5.029789,0.134979 0.06955,-2.120442 -3.140606,-0.133235 0.83389,-5.024823 8.871195,-0.236856 0.157897,-1.154026 1.075079,-0.08401 0.92222,1.444628 0.941402,-0.208741 2.909016,-2.428086 0.273687,4.630613 2.211918,3.087556 10.24806,-0.305725 6.880034,-2.805419 0.41995,-2.637295 z"
     style="fill:none;stroke:#243650;stroke-width:1;stroke-dasharray:none" />
  <path
     fill="#fff4f4"
     fill-rule="evenodd"
     stroke="#00007f"
     stroke-width="3"
     stroke-linejoin="round"
     stroke-miterlimit="4"
     id="path14348"
     d="m 2.027846,76.409873 0.9970703,0.362562 41.6049967,17.380392 -1.903499,1.60888 -0.453217,2.062084 -2.379368,0.17845 -0.02267,1.809983 -1.744865,0.631656 -0.475875,-0.99988 -0.566513,0.90358 0.068,2.35383 -16.066416,0.0882 -0.119009,-9.178525 -3.019538,0.883043 -1.4786,1.880089 -5.219039,0.130119 -0.233691,-2.951666 -3.3155389,-0.05118 -4.8171675,-5.315277 -0.013095,-2.777335 -2.36981205,-1.689646 0.1294144,-7.370977 1.39841315,0.06154 z"
     style="fill:none;stroke:#243650;stroke-width:1;stroke-dasharray:none" />
  <metadata
     id="metadata292">
    <rdf:RDF>
      <cc:Work
         rdf:about="">
        <dc:title>mapa do brasil</dc:title>
      </cc:Work>
    </rdf:RDF>
  </metadata>
</svg>
