<?xml version="1.0" encoding="UTF-8" standalone="no"?>
<!-- Created with Inkscape (http://www.inkscape.org/) -->

<svg
   width="116"
   height="116"
   viewBox="0 0 30.691666 30.691666"
   version="1.1"
   id="svg1015"
   inkscape:version="1.1.2 (b8e25be833, 2022-02-05)"
   sodipodi:docname="brb-logo.svg"
   inkscape:export-filename="C:\Users\suitedoalex\sites\brb-logo-0.png"
   inkscape:export-xdpi="148.6263"
   inkscape:export-ydpi="148.6263"
   xmlns:inkscape="http://www.inkscape.org/namespaces/inkscape"
   xmlns:sodipodi="http://sodipodi.sourceforge.net/DTD/sodipodi-0.dtd"
   xmlns="http://www.w3.org/2000/svg"
   xmlns:svg="http://www.w3.org/2000/svg"
   xmlns:rdf="http://www.w3.org/1999/02/22-rdf-syntax-ns#"
   xmlns:cc="http://creativecommons.org/ns#"
   xmlns:dc="http://purl.org/dc/elements/1.1/">
  <defs
     id="defs1009">
    <clipPath
       clipPathUnits="userSpaceOnUse"
       id="clipPath46">
      <path
         d="M 253.542,456.772 H 398.427 V 521.18 H 253.542 Z"
         id="path44"
         inkscape:connector-curvature="0" />
    </clipPath>
    <clipPath
       clipPathUnits="userSpaceOnUse"
       id="clipPath46-4">
      <path
         d="M 253.542,456.772 H 398.427 V 521.18 H 253.542 Z"
         id="path44-6"
         inkscape:connector-curvature="0" />
    </clipPath>
  </defs>
  <sodipodi:namedview
     id="base"
     pagecolor="#ffffff"
     bordercolor="#666666"
     borderopacity="1.0"
     inkscape:pageopacity="0.0"
     inkscape:pageshadow="2"
     inkscape:zoom="3.3046305"
     inkscape:cx="92.294735"
     inkscape:cy="97.892941"
     inkscape:document-units="mm"
     inkscape:current-layer="layer1"
     showgrid="true"
     inkscape:window-width="1852"
     inkscape:window-height="1016"
     inkscape:window-x="68"
     inkscape:window-y="27"
     inkscape:window-maximized="1"
     inkscape:pagecheckerboard="0"
     units="px">
    <inkscape:grid
       type="xygrid"
       id="grid1110" />
  </sodipodi:namedview>
  <metadata
     id="metadata1012">
    <rdf:RDF>
      <cc:Work
         rdf:about="">
        <dc:format>image/svg+xml</dc:format>
        <dc:type
           rdf:resource="http://purl.org/dc/dcmitype/StillImage" />
      </cc:Work>
    </rdf:RDF>
  </metadata>
  <g
     inkscape:label="Layer 1"
     inkscape:groupmode="layer"
     id="layer1"
     transform="translate(0,403)">
    <g
       id="g42"
       clip-path="url(#clipPath46)"
       style="stroke-width:16.5602"
       transform="matrix(0.20398907,0,0,-0.20398907,-51.151442,-293.43517)" />
    <path
       id="path50"
       style="fill:#ffffff;fill-opacity:1;fill-rule:evenodd;stroke:none;stroke-width:3.57353"
       d="m 10.682456,-392.18151 -9.5198776,5.3e-4 -0.130742,0.83665 c 1.8568844,0.37721 3.5130457,1.31312 4.7831936,2.62621 l 1.9104868,-1.2542 c 0,0 0.2204783,-0.14837 0.3229792,-0.0243 0,0 0.099553,0.0966 -0.092501,0.30335 l -1.5683872,1.62678 c 1.1048519,1.3789 1.8215473,3.08065 1.9849013,4.93925 h 0.8934897 z m 1.492939,0.002 -0.02946,0.18552 -1.162209,7.37322 c -0.08567,0.53927 -0.01374,1.48776 1.172027,1.49294 l -5.29e-4,0.001 h 2.047947 c 1.742946,0 2.96004,-1.21245 2.96004,-2.94763 0,-0.84289 -0.408972,-1.50319 -1.081593,-1.81954 0.862302,-0.45963 1.407673,-1.32349 1.407673,-2.30426 0,-0.57184 -0.18497,-1.05861 -0.534337,-1.40819 -0.402882,-0.41734 -0.891201,-0.5731 -1.799899,-0.5731 z m 6.653373,0 -0.02946,0.18552 -1.192181,7.66003 c -0.05352,0.39188 -0.349603,1.20699 1.073325,1.20613 l 0.137977,0.001 h 0.09922 l 0.02946,-0.18603 0.545189,-3.50781 h 0.822692 l 1.740988,3.56982 0.05994,0.12402 h 1.720316 l -0.159681,-0.31832 -1.792664,-3.57345 c 1.293238,-0.24816 2.298579,-1.49501 2.298579,-2.9311 0,-1.43781 -0.898407,-2.22985 -2.529573,-2.22985 H 19.01635 Z m 6.548469,0 -0.02894,0.18552 -1.159625,7.35772 c -0.07639,0.53429 -0.02725,1.50326 1.16996,1.50844 v 0.001 h 2.046395 c 1.743163,0 2.960559,-1.21245 2.960559,-2.94763 0,-0.84289 -0.408971,-1.50319 -1.081592,-1.81954 0.862302,-0.45963 1.407672,-1.32348 1.407672,-2.30426 0,-0.57184 -0.184755,-1.05839 -0.534337,-1.40819 -0.402666,-0.41734 -0.890901,-0.57309 -1.799382,-0.57309 z m -11.900623,1.33997 h 1.287783 c 0.741891,0 0.869555,0.0682 0.983924,0.22376 0.09883,0.13853 0.140044,0.2904 0.140044,0.52194 0,0.96156 -0.661763,1.60766 -1.646419,1.60766 h -1.138954 z m 6.653889,0 h 1.209235 c 1.116288,0 1.320339,0.2999 1.320339,0.88987 0,1.07054 -0.729926,1.78957 -1.816435,1.78957 h -1.138954 z m 6.548987,0 h 1.286749 c 0.742321,0 0.870155,0.0682 0.984958,0.22376 0.09883,0.13853 0.139526,0.2904 0.139526,0.52194 0,0.96156 -0.661548,1.60766 -1.64642,1.60766 H 26.30535 Z m -25.80733456,0.51263 -0.83199454,5.32167 c -0.14544337,0.99781 0.03602538,1.87793 1.6991293,1.87793 h 5.5996849 c -0.1553697,-1.57052 -0.7553144,-3.01201 -1.673291,-4.19563 l -2.6742679,1.59113 -0.087334,-0.10594 2.0427793,-2.29496 c -1.0998885,-1.08759 -2.5052558,-1.86597 -4.07470626,-2.19419 z m 12.00552656,3.25874 h 1.286232 c 1.243389,0 1.410773,0.54853 1.410773,1.08521 0,0.53732 -0.20266,0.98516 -0.556557,1.22835 -0.323256,0.22291 -0.535887,0.28784 -1.323957,0.28784 h -1.218536 z m 13.201841,0 h 1.286749 c 1.244037,0 1.411289,0.54853 1.411289,1.08521 0,0.53732 -0.203174,0.98494 -0.557072,1.22835 -0.322825,0.22269 -0.535673,0.28784 -1.323958,0.28784 h -1.218536 z" />
  </g>
</svg>
