<svg width="80" height="80" viewBox="0 0 21.167 21.167" xmlns="http://www.w3.org/2000/svg"><path d="M15.495 14.99c-.023-.025-.03-.216-.03-.777v-.743l-.807-.808c-.633-.631-.808-.82-.808-.867 0-.047.243-.302 1.146-1.205.748-.748 1.163-1.146 1.194-1.146.031 0 .47.421 1.265 1.217.958.958 1.217 1.23 1.217 1.277 0 .047-.314.374-1.49 1.55-1.064 1.063-1.506 1.49-1.543 1.49-.029 0-.059.011-.067.024-.02.032-.042.03-.077-.011zm1.995-4.34c-.884-.886-1.217-1.233-1.217-1.272v-.053h3.22l.343-.345c.217-.216.362-.344.392-.344.03 0 .197.149.458.41.31.311.41.424.41.47 0 .046-.247.305-1.147 1.205-.748.748-1.163 1.146-1.194 1.146-.03 0-.469-.422-1.265-1.218zM.03 11.807c-.023-.027-.03-.39-.03-1.64 0-1.361.005-1.612.034-1.64.052-.053 2.128-.05 2.33.002.293.076.496.22.618.442.065.117.07.146.07.365 0 .27-.04.389-.184.549l-.083.092.115.08c.24.165.342.413.327.796-.008.198-.021.265-.073.378a1.099 1.099 0 01-.686.566c-.072.02-.463.031-1.256.037-.99.007-1.157.003-1.182-.027zm2.162-.745a.452.452 0 00.14-.153c.042-.083.045-.11.022-.185a.512.512 0 00-.256-.262c-.032-.012-.346-.022-.698-.022H.76v.692l.671-.007c.657-.007.673-.009.761-.063zm-.187-1.32c.102-.042.19-.167.19-.269 0-.059-.021-.1-.082-.161-.112-.113-.23-.13-.845-.13H.76v.593h.583c.443 0 .602-.008.662-.033zm1.368.424V8.49l1.147.007 1.146.008.161.062c.286.11.478.283.605.54.061.126.065.152.065.454 0 .308-.003.327-.07.459-.08.158-.253.345-.394.424-.062.034-.093.067-.087.09.005.02.16.297.346.615.185.318.336.604.336.635v.058h-.47l-.468-.002-.321-.592-.32-.592-.422-.001h-.422V11.842h-.832zm2.09-.295c.148-.076.238-.238.205-.37a.514.514 0 00-.272-.272 5.434 5.434 0 00-.639-.024h-.552v.713h.583c.534 0 .59-.004.675-.047zm1.284.298V8.493h.963c.786 0 .997.007 1.146.038.56.115.95.457 1.136.996.058.168.067.232.076.561.011.432-.028.643-.177.947-.116.234-.381.503-.606.613-.347.17-.418.178-1.535.19l-1.003.01zm1.81.904c.386-.091.66-.473.66-.92a.978.978 0 00-.375-.774c-.168-.128-.287-.15-.805-.15h-.459v1.876H8c.268 0 .47-.012.557-.032zm1.73-.906V8.493h2.803v.737h-1.972v.499h1.188v.736h-1.188v.641h2.09v.737H10.286zm10.381-1.187l-.44-.44-.368.368-.369.368h-3.373l-.326-.327c-.245-.245-.327-.342-.327-.386 0-.046.25-.309 1.158-1.217.774-.774 1.175-1.158 1.207-1.158a.126.126 0 00.078-.03c.023-.022.039-.022.076 0 .025.017.065.03.088.03.024 0 .473.43 1.028.986l.986.986h.506c.408 0 .513.006.54.034.028.027.035.142.035.607 0 .345-.01.568-.022.56-.012-.008-.026.002-.03.022-.005.024-.166-.122-.447-.403z" fill="#fff"/></svg>