<svg width="80" height="80" viewBox="0 0 21.167 21.167" xmlns="http://www.w3.org/2000/svg"><defs><linearGradient id="a"><stop offset="0%" stop-color="#006db6"/><stop offset="100%" stop-color="#00affc"/></linearGradient></defs><path d="M16.114 7.575a1.27 1.27 0 00-.827.318c-.168.15-.308.337-.427.538a.99.99 0 00-.292-.63c-.338-.33-.987-.295-1.432.105-.07.062-.134.13-.194.202.087-.298-.196-.42-.552-.382-.024.003-.047.008-.07.01-.25.026-.41.15-.418.34-.012.147.007.297-.023.449-.155.9-.313 1.918-.503 2.703-.01.047-.02.083-.017.133.02.37.667.413.927.13a.36.36 0 00.096-.229c.085-.795.218-1.39.341-1.982.33-1.013 1.103-1.283 1.168-.937.062.323-.031.833-.15 1.494-.076.424-.156.945-.262 1.371-.228.533.918.684 1 .046.015-.267.048-.535.096-.798.043-.234.084-.459.122-.68l.007.008c.215-1.354 1.207-1.838 1.282-1.441.07.31-.02.834-.15 1.494-.084.423-.167.99-.273 1.417-.228.532.93.638 1.01 0 .016-.267.05-.535.097-.798.105-.576.246-1.192.32-1.735.05-.36.113-.675-.21-.937a1.036 1.036 0 00-.666-.21zm-13.3.001c-.934-.012-1.72.411-2.186 1.107-.316.472-.516 1.163-.443 1.73.14 1.07 1.201 1.527 2.292 1.333a.772.772 0 00.194-.055c.458-.198.316-.538.033-.505a.431.431 0 00-.086.02c-.662.216-1.311-.036-1.358-.93-.026-.484.091-1.09.347-1.503.282-.456.716-.72 1.242-.655.104.013.173.065.266.081.28.05.435-.079.458-.228.026-.173-.086-.37-.571-.386a3.093 3.093 0 00-.189-.009zm2.901.006C4.42 7.59 3.35 8.835 3.195 10.45c-.056.951.732 1.475 1.518 1.272.14-.036.255-.1.375-.187.201-.146.393-.36.589-.626-.028.146-.06.33-.058.477.003.371.725.387.908.108.042-.064.04-.116.045-.189.065-.917.286-1.93.51-3.074.027-.143.09-.236.014-.377-.101-.187-.336-.227-.55-.11a2.195 2.195 0 00-.83-.162zm4.728.016c-.997-.009-2.047.3-2.748 1.24-.34.454-.5 1.023-.411 1.588.187 1.188 1.652 1.508 2.786 1.335a.757.757 0 00.194-.055c.563-.23.335-.536.027-.506-.031.004-.057.013-.086.021-.683.185-1.584.033-1.64-.914a2.56 2.56 0 01.004-.36c.493.34 1.07.46 1.613.337a.887.887 0 00.486-.314.488.488 0 00-.103-.692c-.15-.114-.341-.099-.528-.056a2.847 2.847 0 00-.275.079c-.258.087-.662.244-1.115.185a1.99 1.99 0 01.295-.652c.429-.598 1.017-.759 1.53-.704.105.01.172.063.266.076.41.058.573-.06.596-.209.026-.173-.099-.37-.583-.386a4.893 4.893 0 00-.308-.013zm9.306.007c-1.296.008-2.365 1.254-2.52 2.869-.056.951.732 1.475 1.518 1.272.14-.036.256-.1.375-.187.201-.147.393-.36.589-.626-.027.146-.059.33-.058.477.003.37.725.386.908.108.042-.065.04-.116.045-.189.065-.918.286-1.93.51-3.074.027-.143.09-.236.015-.377-.102-.187-.337-.227-.551-.11a2.195 2.195 0 00-.83-.163zm-14.12.477c.145.001.304.029.476.089-.136.611-.224 1.37-.385 1.908-.063.21-.14.391-.265.574-.252.367-.564.519-.83.466-.283-.056-.467-.387-.407-1.057.035-.397.137-.84.315-1.197.223-.445.576-.785 1.096-.783zm14.034.024c.145 0 .304.029.476.089-.136.61-.224 1.37-.385 1.907-.063.212-.14.392-.265.575-.251.367-.564.518-.83.466-.283-.056-.467-.388-.407-1.057.036-.397.137-.84.315-1.197.223-.445.576-.786 1.096-.783zm1.34 3.934l-.02.001c-.206.015-.431.05-.638.075l-.834.092c-2.02.21-4.195.313-6.24.272-1.02-.02-2.031-.09-3.049-.162-1.407-.1-2.795-.16-4.207-.172a62.875 62.875 0 00-3.783.08c-.22.01-2.04.114-2.11.151-.045.032-.122.156-.117.232.157-.023 1.081-.08 1.707-.116a62.64 62.64 0 018.502.074c.31.024.619.052.929.074 2.889.21 5.933.08 8.832-.247.188-.022.376-.046.564-.066.117-.013.337-.035.371-.053.036-.019.11-.152.105-.226-.001-.01 0-.01-.012-.01zm-.992.868a.102.102 0 00-.08.037l.023.038a.172.172 0 01.033-.022.062.062 0 01.042-.002.244.244 0 01.03.014c.018.01.036.014.053.014a.104.104 0 00.037-.007.184.184 0 00.043-.026l-.025-.036a.117.117 0 01-.054.02.12.12 0 01-.047-.015.13.13 0 00-.055-.015zm-19.728.114a.274.274 0 00-.202.082.273.273 0 00-.081.2c0 .076.022.14.067.193a.269.269 0 00.217.095c.048 0 .092-.01.131-.028a.266.266 0 00.098-.08l-.041-.032a.23.23 0 01-.185.089.226.226 0 01-.232-.232c0-.044.01-.084.03-.119a.227.227 0 01.2-.115.228.228 0 01.188.094l.04-.033a.26.26 0 00-.097-.084.29.29 0 00-.133-.03zm.586 0a.27.27 0 00-.236.142.297.297 0 00.043.346c.053.055.12.082.197.082a.28.28 0 00.275-.285.279.279 0 00-.28-.285zm5.222 0a.13.13 0 00-.065.017.119.119 0 00-.046.046.138.138 0 00.011.148c.011.015.038.04.082.074a.432.432 0 01.09.087.09.09 0 01-.03.133.103.103 0 01-.049.012c-.041 0-.077-.03-.109-.09l-.044.028a.24.24 0 00.071.089.151.151 0 00.087.026.143.143 0 00.106-.043.14.14 0 00.043-.103.153.153 0 00-.025-.082.392.392 0 00-.094-.092 1.032 1.032 0 01-.068-.054.127.127 0 01-.026-.036.086.086 0 01-.008-.035c0-.02.007-.035.02-.049a.072.072 0 01.053-.02c.017 0 .032.005.046.013a.21.21 0 01.05.054l.043-.034a.242.242 0 00-.068-.07.135.135 0 00-.07-.019zm4.437 0a.27.27 0 00-.236.142.297.297 0 00.043.346c.054.055.12.082.197.082a.28.28 0 00.275-.285.279.279 0 00-.279-.285zm5.503 0a.27.27 0 00-.236.142.297.297 0 00.043.346c.054.055.12.082.197.082a.28.28 0 00.275-.285.279.279 0 00-.28-.285zm4.615 0a.27.27 0 00-.236.142.297.297 0 00.043.346c.053.055.119.082.197.082a.28.28 0 00.275-.285.279.279 0 00-.28-.285zm-19.342.014l-.073.543h.052l.05-.392.188.392h.013l.186-.389.053.389h.05l-.075-.543H1.74l-.212.445-.213-.445zm.621 0v.543h.053v-.253h.037a.66.66 0 00.134-.009.137.137 0 00.077-.047.14.14 0 00.027-.09.134.134 0 00-.102-.137.585.585 0 00-.121-.007zm.635 0l-.248.543h.058l.082-.179h.227l.082.179h.057l-.245-.543zm.34 0v.543h.053v-.412l.347.412h.012v-.543H3.26v.415l-.35-.415zm.538 0v.543h.053v-.263h.268v.263h.052v-.543H3.76v.228H3.49v-.228zm.493 0v.543h.053v-.543zm.374 0l-.247.543h.058l.082-.179h.227l.082.179h.056l-.245-.543zm.542 0v.543h.167c.065 0 .116-.01.152-.03a.222.222 0 00.089-.091.292.292 0 00.034-.144.299.299 0 00-.043-.163.23.23 0 00-.12-.095.54.54 0 00-.17-.02zm.544 0v.543h.298v-.053h-.245v-.214h.245v-.053h-.245v-.17h.248v-.053zm1.16 0l-.248.543h.058l.082-.179h.227l.082.179h.056l-.244-.543zm.339 0v.543h.054v-.412l.347.412h.012v-.543H7.25v.415l-.349-.415zm.54 0v.543h.299v-.053h-.246v-.214h.246v-.053h-.246v-.17h.248v-.053zm.593 0l-.247.543h.058l.082-.179h.227l.082.179h.056l-.244-.543zm.39 0l-.073.543h.051l.05-.392.188.392h.014l.186-.389.053.389h.05l-.075-.543h-.008l-.212.445-.214-.445zm.622 0v.543h.298v-.053h-.246v-.214h.246v-.053h-.246v-.17h.248v-.053zm.392 0v.543h.054v-.412l.347.412h.012v-.543h-.053v.415l-.35-.415zm.488 0v.053h.117v.49h.053v-.49h.117v-.053zm1.402 0l-.248.543h.059l.081-.179h.228l.082.179h.056l-.245-.543zm.389 0l-.073.543h.052l.05-.392.188.392h.014l.186-.389.052.389h.051l-.075-.543h-.008l-.213.445-.213-.445zm.623 0v.543h.144a.17.17 0 00.124-.046.149.149 0 00.046-.11.145.145 0 00-.012-.06.133.133 0 00-.034-.047.188.188 0 00-.063-.033.129.129 0 00.05-.048.13.13 0 00.017-.066.13.13 0 00-.02-.07.118.118 0 00-.053-.048.238.238 0 00-.095-.015zm.411 0v.543h.053v-.543zm.173 0v.543h.298v-.053h-.245v-.214h.245v-.053h-.245v-.17h.248v-.053zm.392 0v.543h.054v-.412l.347.412h.012v-.543h-.053v.415l-.349-.415zm.488 0v.053h.117v.49h.053v-.49h.117v-.053zm.565 0l-.248.543h.059l.081-.179h.228l.082.179h.056l-.245-.543zm.339 0v.543h.255v-.053h-.203v-.49zm.54 0v.543h.167c.065 0 .116-.01.152-.03a.222.222 0 00.089-.091.292.292 0 00.034-.144.299.299 0 00-.043-.163.23.23 0 00-.12-.095.541.541 0 00-.17-.02zm1.431 0l-.072.543h.051l.05-.392.188.392h.014l.186-.389.052.389h.051l-.075-.543h-.008l-.212.445-.214-.445zm.824 0l-.248.543h.058l.082-.179h.227l.082.179h.057l-.245-.543zm.341 0v.543h.053v-.253h.03l.19.253h.064l-.19-.253a.257.257 0 00.104-.017.127.127 0 00.058-.051.147.147 0 00.02-.078.133.133 0 00-.105-.137.617.617 0 00-.119-.007zm.643 0l-.248.543h.059l.081-.179h.227l.082.179h.057l-.245-.543zm.34 0v.543h.054v-.412l.346.412h.012v-.543h-.052v.415l-.35-.415zm.539 0v.543h.052v-.263h.268v.263h.052v-.543h-.052v.228h-.268v-.228zm.701 0l-.247.543h.058l.082-.179h.227l.082.179h.056l-.244-.543zm-19.185.04a.221.221 0 01.194.115c.02.034.03.073.03.116 0 .043-.01.083-.03.118a.218.218 0 01-.35.048.225.225 0 01-.065-.163c0-.044.01-.083.029-.119a.223.223 0 01.192-.116zm9.66 0a.221.221 0 01.194.115c.019.034.029.073.029.116 0 .043-.01.083-.03.118a.218.218 0 01-.35.048.225.225 0 01-.065-.163c0-.044.01-.083.03-.119a.223.223 0 01.191-.116zm5.502 0a.221.221 0 01.194.115c.02.034.03.073.03.116 0 .043-.01.083-.03.118a.219.219 0 01-.35.048.225.225 0 01-.065-.163c0-.044.01-.083.03-.119a.223.223 0 01.191-.116zm4.615 0a.221.221 0 01.194.115c.02.034.03.073.03.116 0 .043-.01.083-.03.118a.218.218 0 01-.35.048.225.225 0 01-.065-.163c0-.044.01-.083.029-.119a.223.223 0 01.192-.116zm-18.67.013h.093a.22.22 0 01.076.01.08.08 0 01.038.032c.01.015.014.032.014.05a.094.094 0 01-.014.05.081.081 0 01-.04.033.224.224 0 01-.078.01h-.09zm2.919 0h.037c.075 0 .13.005.162.015.043.014.078.04.102.077a.238.238 0 01.037.134c0 .05-.012.092-.034.127a.175.175 0 01-.093.071.545.545 0 01-.15.014h-.061zm7.483 0h.061c.037 0 .064.007.08.021a.073.073 0 01.026.059.089.089 0 01-.056.083.231.231 0 01-.08.01h-.03zm2.907 0h.037c.075 0 .13.005.162.015.044.014.078.04.102.077a.238.238 0 01.037.134c0 .05-.011.092-.034.127a.175.175 0 01-.093.071.546.546 0 01-.15.014h-.06zm2.599 0h.093c.036 0 .062.003.077.01a.08.08 0 01.038.031.09.09 0 01.014.05.094.094 0 01-.014.05.083.083 0 01-.04.034.218.218 0 01-.077.01h-.091zm-15.32.06l.09.198h-.18zm1.746 0l.09.198h-.18zm2.245 0l.09.198h-.18zm1.473 0l.09.198h-.18zm3.294 0l.09.198h-.18zm3.04 0l.09.198h-.18zm3.134 0l.09.198h-.18zm.984 0l.09.198h-.18zm1.581 0l.09.198h-.18zm-7.683.168h.03c.044 0 .076.002.094.007a.117.117 0 01.062.037c.016.018.023.039.023.063a.097.097 0 01-.06.09.228.228 0 01-.084.012h-.065z" fill="#fff" fill-rule="evenodd"/></svg>