<?xml version="1.0" encoding="UTF-8" standalone="no"?>
<svg
   height="116"
   viewBox="0 0 18.56 18.573182"
   width="116"
   version="1.1"
   id="svg8"
   sodipodi:docname="cdtn.svg"
   inkscape:version="1.1.2 (b8e25be833, 2022-02-05)"
   xmlns:inkscape="http://www.inkscape.org/namespaces/inkscape"
   xmlns:sodipodi="http://sodipodi.sourceforge.net/DTD/sodipodi-0.dtd"
   xmlns="http://www.w3.org/2000/svg"
   xmlns:svg="http://www.w3.org/2000/svg">
  <defs
     id="defs12" />
  <sodipodi:namedview
     id="namedview10"
     pagecolor="#ffffff"
     bordercolor="#666666"
     borderopacity="1.0"
     inkscape:pageshadow="2"
     inkscape:pageopacity="0.0"
     inkscape:pagecheckerboard="0"
     showgrid="true"
     inkscape:zoom="4.2379135"
     inkscape:cx="58.283398"
     inkscape:cy="80.110177"
     inkscape:window-width="1852"
     inkscape:window-height="1016"
     inkscape:window-x="68"
     inkscape:window-y="27"
     inkscape:window-maximized="1"
     inkscape:current-layer="svg8">
    <inkscape:grid
       type="xygrid"
       id="grid2013" />
  </sodipodi:namedview>
  <path
     id="path2527"
     style="fill:#ffffff;stroke-width:1"
     d="m -0.006591,5.2097802 v 2.376363 2.3763631 H 6.3887594 12.78411 l 0.745311,-2.3594739 c 0.409929,-1.2977158 0.74729,-2.3670719 0.74969,-2.3763632 l 0.0044,-0.016889 H 7.1384491 Z m 14.48931,0 -0.01908,0.058174 c -0.01047,0.032004 -0.345528,1.0920739 -0.744372,2.3557207 -0.398845,1.2636473 -0.728062,2.306833 -0.731863,2.3181895 l -0.0069,0.020642 h 2.694442 2.886477 V 7.5861432 5.2097802 H 16.425907 Z M 4.2357082,6.4858478 v 0.051293 c 0,0.1141743 -0.050038,0.2002496 -0.1457469,0.2514603 l -0.030651,0.016577 -1.2050705,0.00407 -1.2050708,0.00375 -0.070059,0.020642 C 1.3576687,6.8984961 1.1905008,7.033642 1.089638,7.2299093 0.96433405,7.4737368 0.97588711,7.7506042 1.120914,7.9877308 c 0.051995,0.085015 0.1683761,0.2008618 0.2523987,0.2508348 0.033967,0.020202 0.092923,0.04835 0.1307343,0.062552 0.1393672,0.052348 0.052871,0.048682 1.3464389,0.054421 0.7657173,0.0034 1.1789464,0.0078 1.1938113,0.012823 0.1196297,0.040459 0.1836993,0.1257369 0.1898463,0.252086 l 0.00344,0.06568 -1.271689,-9.448e-4 C 2.2664607,8.6846374 1.6688809,8.6812362 1.6379091,8.6776764 1.5653332,8.6693342 1.4467605,8.6395416 1.3736262,8.611376 1.0188523,8.4747442 0.75796256,8.1592119 0.68711436,7.7813065 0.66647314,7.6712041 0.6681478,7.4642748 0.69055474,7.3593911 0.7794815,6.9431382 1.0777549,6.6273417 1.4918501,6.5108687 l 0.074437,-0.020955 1.3348667,-0.00188 z m 1.3949169,3.203e-4 h 1.3064056 c 1.435663,0 1.3459685,-0.00267 1.4990666,0.046289 0.3232083,0.103362 0.597147,0.3777729 0.7027755,0.7043394 0.040567,0.1254202 0.054476,0.2323476 0.049729,0.3793797 -0.0028,0.086658 -0.00888,0.1492856 -0.019078,0.1951633 -0.096491,0.433886 -0.4161311,0.7530344 -0.8554036,0.8538389 l -0.072873,0.016576 -1.304529,0.0025 -1.3045288,0.00218 V 8.0055566 7.3249873 l 0.070059,0.00375 c 0.1173197,0.00614 0.1929509,0.052623 0.2395755,0.1473108 l 0.024395,0.049729 0.00219,0.4169114 0.00219,0.4165984 1.060262,-0.00157 c 0.6958458,-0.0012 1.0859509,-0.00468 1.134697,-0.010004 C 8.5079044,8.3103344 8.7730592,8.0665888 8.8470656,7.7212511 8.8627027,7.6482917 8.8588307,7.4854109 8.8398724,7.4088022 8.8210466,7.3327246 8.7771944,7.2273672 8.7397887,7.1692269 8.6355861,7.0072608 8.4679933,6.8852773 8.278778,6.8333207 L 8.2037152,6.8126785 7.0023977,6.808925 5.8010802,6.8051714 5.7607338,6.7829653 C 5.7170568,6.75878 5.6774616,6.7173834 5.6525185,6.6700643 5.6402919,6.6468636 5.6361731,6.6225534 5.6337528,6.5630998 Z m 4.2191549,0 h 1.777738 1.777737 l -0.0038,0.066618 c -0.0063,0.1112524 -0.05601,0.1924099 -0.146059,0.2380116 l -0.04347,0.021893 -0.70778,0.00219 -0.707779,0.00188 v 0.9345317 l 3.2e-4,0.9348447 -0.06568,-6.245e-4 c -0.11578,-7.018e-4 -0.194923,-0.048434 -0.243919,-0.1479483 l -0.02471,-0.050042 -0.0019,-0.8353864 -0.0022,-0.8353864 -0.704027,-0.00188 -0.703714,-0.00219 -0.04973,-0.024395 C 9.907561,6.7423603 9.860014,6.6664682 9.8535332,6.5527788 Z m 4.550995,0 c 0.09282,2.562e-4 0.259147,0.00865 0.320268,0.01814 0.314301,0.048806 0.610605,0.1795933 0.856029,0.3775034 0.143944,0.1160766 0.298001,0.289674 0.392828,0.4425577 0.04196,0.067655 0.105905,0.1926354 0.08976,0.1754593 -0.0058,-0.00619 -0.03957,-0.045238 -0.07506,-0.086635 C 15.843813,7.2490085 15.64388,7.0961541 15.43758,6.9950237 15.210156,6.8835378 15.003771,6.8305522 14.726673,6.8123709 l -0.07694,-0.005 v 0.8375758 0.8378885 l -0.01626,0.043161 c -0.01999,0.053428 -0.07597,0.114701 -0.128858,0.1410554 -0.03303,0.016464 -0.04794,0.019078 -0.111656,0.019078 h -0.07381 V 7.5898964 6.4939796 l 0.02002,-0.005 c 0.008,-0.00201 0.03067,-0.0029 0.06161,-0.00282 z m 3.414732,0 h 0.07037 V 7.5861507 8.6861335 L 17.726057,8.685509 C 17.503691,8.6845802 17.343967,8.6576098 17.146196,8.5882401 17.058185,8.557369 16.885431,8.4739932 16.804661,8.4234147 16.557917,8.2689006 16.340036,8.0426038 16.19415,7.7888212 16.16058,7.7304102 16.1187,7.6424489 16.1244,7.6424489 c 0.0016,0 0.02252,0.024482 0.0466,0.05442 0.228287,0.2837731 0.556522,0.5011877 0.903255,0.5983131 0.137265,0.038449 0.330667,0.067847 0.445374,0.067869 h 0.03534 l 0.0022,-0.846333 0.0019,-0.8466459 0.01626,-0.035029 c 0.02331,-0.050445 0.07235,-0.099837 0.124793,-0.1260429 0.04088,-0.020426 0.05237,-0.022832 0.115408,-0.022832 z M 0.35277215,10.961154 c -0.0632858,5.77e-4 -0.13263463,0.0085 -0.16607645,0.02158 -0.0816247,0.03189 -0.14501361,0.106741 -0.17577205,0.207361 -0.02031184,0.06644 -0.02031184,0.368919 0,0.435365 0.03589012,0.117407 0.10596957,0.188553 0.21518003,0.218619 0.0479299,0.0132 0.18309215,0.01295 0.23519677,-6.24e-4 0.12998689,-0.03386 0.22366864,-0.134686 0.22581391,-0.242703 l 9.3829e-4,-0.04285 h -0.0519184 c -0.0580343,0 -0.0556421,-0.0018 -0.0803797,0.06662 -0.0315874,0.08741 -0.0991125,0.127781 -0.21330344,0.127607 -0.13011633,-1.92e-4 -0.20132204,-0.06538 -0.2211225,-0.202357 -0.009614,-0.06651 -0.009614,-0.217162 0,-0.283675 0.0197681,-0.136757 0.0909714,-0.202466 0.2211225,-0.203295 0.11281926,-7.2e-4 0.18201384,0.04073 0.21299068,0.127294 0.0248865,0.06954 0.0225351,0.06756 0.0806925,0.06756 h 0.0519184 l -9.3843e-4,-0.04191 c -0.002117,-0.111944 -0.10267279,-0.217458 -0.23582219,-0.247081 -0.0245025,-0.0055 -0.0605485,-0.0079 -0.0985199,-0.0075 z m 11.93185785,0 c -0.133463,0 -0.216627,0.03632 -0.280235,0.12229 -0.05043,0.06816 -0.06019,0.113755 -0.06349,0.301815 -0.0022,0.126135 -3.69e-4,0.177808 0.0081,0.218308 0.02715,0.129557 0.09715,0.207826 0.214555,0.2402 0.04753,0.01311 0.190386,0.01301 0.239262,0 0.12205,-0.03249 0.195819,-0.114892 0.219872,-0.245517 0.01342,-0.07297 0.01145,-0.329328 -0.0031,-0.391578 -0.03893,-0.166351 -0.147273,-0.245518 -0.334964,-0.245518 z m -7.9250683,3.21e-4 c -0.044431,0 -0.088958,0.0034 -0.1138451,0.01001 -0.1134942,0.03022 -0.1857317,0.10431 -0.2186205,0.22425 -0.016746,0.06106 -0.018641,0.344758 -0.00282,0.414722 0.02822,0.124752 0.097661,0.200635 0.2133036,0.233007 0.061636,0.01726 0.2215692,0.01116 0.2777323,-0.01063 0.08844,-0.03431 0.1488783,-0.10437 0.1760848,-0.203608 0.019929,-0.07268 0.019732,-0.373851 -3.155e-4,-0.438808 -0.036792,-0.119253 -0.1061821,-0.189246 -0.2176821,-0.218933 -0.024887,-0.0066 -0.069414,-0.01001 -0.1138453,-0.01001 z m 4.6739103,0.0034 c -0.1262136,0 -0.168461,0.01198 -0.2276905,0.06412 -0.049605,0.04366 -0.072635,0.09488 -0.072561,0.160759 5.7e-5,0.07242 0.010769,0.104641 0.04754,0.144809 0.038054,0.04157 0.1161839,0.08036 0.2326946,0.114783 0.1944987,0.05746 0.2379979,0.08769 0.2376989,0.16639 -2.722e-4,0.07145 -0.053204,0.118462 -0.1504383,0.134174 -0.1262311,0.0204 -0.223124,-0.01999 -0.2714771,-0.113219 l -0.017515,-0.03378 -0.046289,-0.0022 c -0.055912,-0.0027 -0.066752,0.0089 -0.055672,0.05817 0.01938,0.08625 0.09553,0.154295 0.2054844,0.183903 0.052699,0.01419 0.1920756,0.01439 0.2517732,3.2e-4 0.089486,-0.0211 0.1559718,-0.06923 0.1867186,-0.135112 0.025984,-0.05568 0.024962,-0.143494 -0.00219,-0.197978 -0.034121,-0.06848 -0.085561,-0.09625 -0.3080681,-0.166077 -0.1517206,-0.04761 -0.1902329,-0.07916 -0.1901591,-0.155442 3.91e-5,-0.05044 0.020944,-0.0815 0.069746,-0.103837 0.078502,-0.03594 0.1733254,-0.03132 0.2414521,0.01189 0.02693,0.01708 0.03927,0.03183 0.052857,0.06255 0.019891,0.04498 0.027237,0.04973 0.078503,0.04973 0.044864,0 0.056617,-0.01199 0.049416,-0.05035 -0.00839,-0.04473 -0.030384,-0.07989 -0.075063,-0.120725 -0.066433,-0.06072 -0.1057166,-0.07287 -0.2367606,-0.07287 z m 9.182682,3.2e-4 c -0.133491,2.88e-4 -0.171422,0.01233 -0.240201,0.076 -0.08365,0.07744 -0.104877,0.15072 -0.105088,0.364055 -1.39e-4,0.157285 0.01018,0.230401 0.04097,0.291181 0.03829,0.07555 0.104239,0.12726 0.18797,0.147622 0.02064,0.0051 0.07233,0.0093 0.115096,0.0097 0.126351,0.001 0.200237,-0.02484 0.262095,-0.09195 0.06029,-0.0654 0.08019,-0.129635 0.08789,-0.282736 0.0062,-0.122973 -0.0049,-0.26155 -0.02533,-0.316202 -0.03352,-0.08948 -0.0884,-0.147016 -0.172019,-0.180777 -0.03754,-0.01516 -0.05509,-0.0171 -0.151378,-0.01689 z m -16.5347703,0.0022 c -0.023101,3.04e-4 -0.045602,0.0056 -0.05098,0.01564 -0.010711,0.02001 -0.010711,0.829448 0,0.849461 0.00632,0.01182 0.016233,0.01439 0.051918,0.01439 0.02749,0 0.046688,-0.0037 0.051918,-0.01001 0.00576,-0.0069 0.00897,-0.107585 0.010321,-0.324334 l 0.00219,-0.314013 0.2011058,0.307445 c 0.1107038,0.16907 0.2078145,0.31472 0.2158055,0.324021 0.011677,0.01359 0.022413,0.01689 0.054421,0.01689 0.021915,0 0.04384,-0.0038 0.048791,-0.0088 0.00679,-0.0068 0.00907,-0.112931 0.00907,-0.430985 0,-0.354599 -0.0017,-0.423262 -0.010634,-0.430673 -0.00627,-0.0052 -0.028584,-0.0076 -0.05442,-0.0063 l -0.043787,0.0022 -0.00375,0.326523 -0.00375,0.326523 -0.030651,-0.04504 C 2.1120816,11.555659 2.0195384,11.413837 1.9231463,11.265172 1.8267551,11.116508 1.7428511,10.989041 1.7367402,10.98181 c -0.00835,-0.0099 -0.032258,-0.01469 -0.055359,-0.01439 z m 1.0677683,3.2e-4 c -0.1574397,0 -0.3150427,0.0035 -0.321519,0.01001 -0.00496,0.005 -0.00907,0.02674 -0.00907,0.04848 0,0.0314 0.00316,0.04106 0.0147,0.04723 0.00828,0.0044 0.066321,0.0078 0.135113,0.0078 h 0.1204132 v 0.37375 c 0,0.280811 0.0023,0.376333 0.00907,0.383134 0.00496,0.0049 0.028167,0.0088 0.051293,0.0088 0.023126,0 0.04603,-0.0038 0.05098,-0.0088 0.00677,-0.0068 0.00907,-0.102323 0.00907,-0.383134 v -0.373751 h 0.1204132 c 0.068792,0 0.126832,-0.0034 0.1351131,-0.0078 0.011533,-0.0062 0.0147,-0.01583 0.0147,-0.04723 0,-0.02174 -0.00412,-0.04353 -0.00907,-0.04848 -0.00648,-0.0065 -0.1637666,-0.01001 -0.3212062,-0.01001 z m 14.701049,0 c -0.157439,0 -0.31473,0.0035 -0.321206,0.01001 -0.0049,0.005 -0.0091,0.02674 -0.0091,0.04848 0,0.0314 0.0029,0.04106 0.01438,0.04723 0.0083,0.0044 0.06633,0.0078 0.135115,0.0078 h 0.120725 v 0.37375 c 0,0.280811 0.0023,0.376333 0.0091,0.383134 0.0049,0.0049 0.02786,0.0088 0.05098,0.0088 0.02312,0 0.04598,-0.0038 0.05098,-0.0088 0.0068,-0.0068 0.0091,-0.102323 0.0091,-0.383134 v -0.373751 h 0.120726 c 0.06879,0 0.126812,-0.0034 0.135113,-0.0078 0.01153,-0.0062 0.01438,-0.01583 0.01438,-0.04723 0,-0.02174 -0.0038,-0.04353 -0.0088,-0.04848 -0.0065,-0.0065 -0.164078,-0.01001 -0.321519,-0.01001 z m -14.0286115,3.19e-4 c -0.095091,-4e-4 -0.1836894,0.0029 -0.1904718,0.0097 -0.013003,0.013 -0.013003,0.847405 0,0.860407 0.00495,0.0049 0.027855,0.0088 0.05098,0.0088 0.023125,0 0.04603,-0.0038 0.05098,-0.0088 0.00647,-0.0065 0.00907,-0.05618 0.00907,-0.176397 V 11.49413 h 0.1116558 0.1119687 l 0.091014,0.160134 c 0.05012,0.08811 0.098008,0.167496 0.106339,0.176397 0.030232,0.03244 0.1279685,0.01672 0.1144708,-0.01845 -0.00252,-0.0066 -0.045039,-0.08182 -0.094454,-0.167014 -0.049415,-0.0852 -0.09118,-0.158276 -0.09289,-0.162637 -0.00171,-0.0044 0.013088,-0.01544 0.03284,-0.0244 0.051581,-0.02337 0.0856,-0.05408 0.1107176,-0.100083 0.018628,-0.03411 0.022441,-0.05084 0.025021,-0.108841 0.00395,-0.0888 -0.00974,-0.137867 -0.051918,-0.185781 -0.037076,-0.04212 -0.088143,-0.06973 -0.156068,-0.08413 -0.0328,-0.0069 -0.134163,-0.01085 -0.2292544,-0.01126 z m 11.8643015,3.2e-4 c -0.02282,8.97e-4 -0.04558,0.0056 -0.05254,0.01345 -0.0065,0.0072 -0.05954,0.104308 -0.118224,0.215806 -0.05869,0.111498 -0.118532,0.223995 -0.132924,0.250209 l -0.02627,0.04785 -0.135426,-0.258028 c -0.07443,-0.141842 -0.138957,-0.260315 -0.143557,-0.263345 -0.01377,-0.009 -0.09091,-0.0066 -0.100709,0.0031 -0.01298,0.01298 -0.01294,0.844846 0,0.860406 v 3.21e-4 c 0.01324,0.01229 0.09178,0.0114 0.102273,-0.0012 0.0057,-0.0069 0.0089,-0.106436 0.01032,-0.320581 l 0.0022,-0.310885 0.101022,0.198917 c 0.05567,0.10932 0.10871,0.206201 0.117912,0.215492 0.02081,0.02104 0.06879,0.02302 0.09101,0.0038 0.0083,-0.0072 0.062,-0.104307 0.119162,-0.215805 l 0.103837,-0.20267 0.0019,0.310885 c 0.0013,0.214294 0.0045,0.313992 0.01032,0.320893 0.0052,0.0062 0.02475,0.01001 0.05223,0.01001 0.03568,0 0.0453,-0.0026 0.05161,-0.01439 0.01187,-0.02211 0.01094,-0.843209 -9.45e-4,-0.85509 -0.0072,-0.0072 -0.03035,-0.01 -0.05317,-0.0091 z m -7.9682294,3.21e-4 c -0.088625,3.2e-4 -0.1692316,0.0035 -0.1748338,0.0091 -0.013331,0.01333 -0.013032,0.84732 3.203e-4,0.861032 0.011871,0.01222 0.3975688,0.0071 0.4472492,-0.0059 0.1126919,-0.02952 0.1757438,-0.09449 0.2051717,-0.211114 0.014567,-0.05773 0.014564,-0.370097 0,-0.427858 -0.032079,-0.127251 -0.1142591,-0.197381 -0.2549008,-0.217724 -0.037629,-0.0054 -0.1343743,-0.0078 -0.222999,-0.0075 z m 0.9673717,0 c -0.2615183,0 -0.2724607,4.32e-4 -0.2799217,0.01439 -0.00508,0.0095 -0.00782,0.156334 -0.00782,0.42473 0,0.268396 0.00273,0.415229 0.00782,0.42473 0.00747,0.01395 0.018495,0.0147 0.2843004,0.0147 0.2296938,0 0.2782106,-0.0018 0.2855514,-0.01064 0.00509,-0.0061 0.00789,-0.02792 0.00657,-0.05098 l -0.00219,-0.04003 -0.2311308,-0.0019 -0.2308182,-0.0019 v -0.142571 -0.142619 h 0.2014185 c 0.1517265,0 0.2043305,-0.0024 0.2142417,-0.0097 0.010333,-0.0076 0.012777,-0.01839 0.010947,-0.05067 l -0.00219,-0.04097 -0.2123652,-0.0019 -0.2120524,-0.0022 v -0.138546 -0.138866 h 0.2201842 c 0.1610956,0 0.2223407,-0.0025 0.2289416,-0.0091 0.00496,-0.005 0.00907,-0.02448 0.00907,-0.04347 0,-0.019 -0.00412,-0.03852 -0.00907,-0.04347 -0.00668,-0.0067 -0.079718,-0.0091 -0.2814856,-0.0091 z m 2.6096837,0 c -0.02277,2.4e-4 -0.04539,0.0036 -0.05067,0.01001 -0.0058,0.0069 -0.0089,0.108005 -0.01032,0.32621 l -0.0019,0.316202 -0.211427,-0.324334 -0.211114,-0.324334 -0.04285,-0.0025 c -0.02507,-0.0013 -0.04728,0.0014 -0.05348,0.0066 -0.0089,0.0074 -0.01063,0.07607 -0.01063,0.430673 0,0.318055 0.0023,0.424185 0.0091,0.430986 0.0094,0.0094 0.07099,0.01228 0.09164,0.0044 0.01058,-0.0041 0.01189,-0.03945 0.01189,-0.32277 0,-0.175065 0.0025,-0.318451 0.0056,-0.318391 0.0031,5.6e-5 0.09679,0.139658 0.207986,0.309946 0.111192,0.170288 0.207203,0.315257 0.213304,0.322458 0.0132,0.01559 0.09024,0.01891 0.104775,0.0044 0.013,-0.013 0.013,-0.847716 0,-0.86072 -0.0062,-0.0062 -0.02915,-0.009 -0.05192,-0.0088 z m 2.501155,0 c -0.03583,0 -0.04623,0.0025 -0.05223,0.01376 -0.01018,0.01901 0.269797,0.831454 0.29337,0.851336 0.01899,0.01606 0.116412,0.01869 0.136364,0.0038 0.01311,-0.0098 0.298062,-0.81714 0.298062,-0.844456 0,-0.0084 -0.0054,-0.01751 -0.01188,-0.02002 -0.02153,-0.0083 -0.09113,-0.0047 -0.09883,0.005 -0.0041,0.0052 -0.06248,0.169139 -0.129796,0.364367 -0.06732,0.195228 -0.124919,0.352243 -0.127919,0.349042 -0.003,-0.0032 -0.05822,-0.159583 -0.122916,-0.347478 -0.0647,-0.187895 -0.122544,-0.349134 -0.128545,-0.358425 -0.0094,-0.01439 -0.01767,-0.01689 -0.05567,-0.01689 z m -2.206846,6.24e-4 c -0.0065,-1.11e-4 -0.01449,4.49e-4 -0.02471,9.45e-4 -0.03094,0.0015 -0.04796,0.0057 -0.05286,0.01345 -0.0086,0.0137 0.269758,0.824849 0.291181,0.848522 0.011,0.01218 0.0232,0.01479 0.07037,0.0147 0.06098,-1.2e-4 0.06928,-0.0029 0.08132,-0.02627 0.0043,-0.0083 0.07104,-0.197158 0.148562,-0.419725 0.106326,-0.305267 0.13925,-0.407518 0.133549,-0.416599 -0.0053,-0.0084 -0.02146,-0.01251 -0.05348,-0.01407 -0.04084,-0.002 -0.0467,-3.85e-4 -0.0563,0.01501 -0.0059,0.0095 -0.06455,0.173423 -0.130109,0.364367 -0.06555,0.190944 -0.120815,0.347151 -0.122915,0.347166 -0.0021,1.7e-5 -0.05732,-0.156205 -0.122915,-0.347166 -0.06559,-0.190961 -0.124209,-0.354886 -0.130109,-0.364367 -0.0071,-0.01155 -0.01221,-0.01562 -0.03159,-0.01595 z m 1.671711,3.2e-4 c -0.02009,3.05e-4 -0.02769,0.0033 -0.03347,0.01126 -0.01238,0.01694 -0.01418,0.828667 -0.0019,0.85165 0.0075,0.01394 0.01872,0.0147 0.277106,0.0147 0.22321,0 0.270432,-0.0018 0.277733,-0.01063 0.0051,-0.0061 0.0079,-0.0276 0.0066,-0.05067 l -0.0022,-0.04003 -0.221435,-0.0041 -0.221435,-0.0038 -0.0041,-0.38282 -0.0038,-0.382821 -0.04848,-0.0025 c -0.0098,-4.64e-4 -0.01801,-4.16e-4 -0.02471,-3.2e-4 z m 1.419625,3.21e-4 -0.04754,0.0025 -0.0019,0.430985 c -0.0015,0.340021 1.06e-4,0.43254 0.0075,0.437241 v 3.2e-4 c 0.01475,0.0093 0.09192,0.0072 0.10196,-0.0028 0.0068,-0.0068 0.0088,-0.112931 0.0088,-0.430985 0,-0.354186 -0.0017,-0.423282 -0.01064,-0.430673 -0.0064,-0.0053 -0.02956,-0.0079 -0.05817,-0.0066 z m 2.108639,0 c -0.02579,-0.0014 -0.04812,0.0014 -0.05442,0.0066 -0.0089,0.0074 -0.01063,0.07551 -0.01063,0.425356 0,0.272597 0.0027,0.421171 0.0078,0.430672 0.0063,0.01182 0.01592,0.01439 0.0516,0.01439 0.02749,0 0.04703,-0.0037 0.05223,-0.01001 0.0058,-0.0069 0.0089,-0.107343 0.01033,-0.324021 l 0.0019,-0.314325 0.205797,0.314951 c 0.113059,0.173147 0.210555,0.31882 0.217056,0.32402 0.01497,0.01197 0.08571,0.0125 0.09758,6.25e-4 0.0068,-0.0068 0.0091,-0.112931 0.0091,-0.430985 0,-0.354599 -0.0017,-0.423262 -0.01063,-0.430673 -0.0063,-0.0052 -0.02859,-0.0079 -0.05442,-0.0066 l -0.04379,0.0025 -0.0022,0.324646 c -0.0011,0.178604 -0.0044,0.324583 -0.0075,0.324334 -0.0031,-2.56e-4 -0.100144,-0.146604 -0.215804,-0.324959 l -0.210226,-0.32402 z m -15.2308676,3.2e-4 c -0.19537215,-0.0014 -0.27601811,4.8e-4 -0.28336205,0.0066 -0.0141486,0.01174 -0.0153617,0.847233 -0.001251,0.861345 0.00668,0.0067 0.0799498,0.0088 0.28367475,0.0088 0.2037258,0 0.2773068,-0.0021 0.2839876,-0.0088 0.011682,-0.01169 0.011682,-0.07558 0,-0.08726 -0.0066,-0.0066 -0.068993,-0.0091 -0.2330074,-0.0091 H 0.9845507 v -0.14259 -0.14262 h 0.202044 c 0.228566,0 0.225814,6.73e-4 0.225814,-0.05536 0,-0.01746 -0.00381,-0.03571 -0.00876,-0.04066 -0.00657,-0.0066 -0.064826,-0.0091 -0.2142417,-0.0091 H 0.9845507 v -0.138866 -0.138553 l 0.2233118,-0.0022 0.2233119,-0.0019 v -0.04879 -0.04879 z m 5.2031029,0 c -0.195372,-0.0014 -0.276021,4.8e-4 -0.283362,0.0066 -0.014149,0.01174 -0.015362,0.847233 -0.00125,0.861345 0.00668,0.0067 0.080551,0.0088 0.2852386,0.0088 0.2652294,0 0.2762039,-4.33e-4 0.2836748,-0.01439 0.010586,-0.01978 0.00981,-0.07058 -0.00125,-0.08163 -0.0066,-0.0066 -0.06868,-0.0091 -0.2326945,-0.0091 H 6.1876537 v -0.142629 -0.14262 h 0.2023568 c 0.2285656,0 0.2258139,6.73e-4 0.2258139,-0.05536 0,-0.01746 -0.00412,-0.03571 -0.00907,-0.04066 -0.00657,-0.0066 -0.064514,-0.0091 -0.2139291,-0.0091 H 6.1876537 v -0.138865 -0.138554 l 0.2236245,-0.0022 0.223312,-0.0019 v -0.04879 -0.04879 z m 3.4597696,0 -0.2733537,0.0022 -0.00188,0.431298 c -0.00154,0.340021 5.54e-5,0.43254 0.00751,0.437241 0.012553,0.008 0.5472618,0.0077 0.5598438,-3.2e-4 0.0067,-0.0043 0.0091,-0.01995 0.0075,-0.05036 l -0.0022,-0.04441 -0.2289414,-0.0038 -0.2289416,-0.0041 -0.00219,-0.140742 -0.00188,-0.140743 h 0.2045462 c 0.1126224,-7e-5 0.2091538,-0.0028 0.2145548,-0.0062 0.0067,-0.0043 0.0091,-0.02027 0.0075,-0.05067 l -0.0022,-0.04441 -0.2120523,-0.0019 -0.2120524,-0.0022 v -0.138472 -0.138554 l 0.227065,-0.0022 0.2270647,-0.0019 0.0022,-0.04191 c 0.0015,-0.02921 -10e-4,-0.04485 -0.0084,-0.05098 -0.0078,-0.0065 -0.08326,-0.0083 -0.2836755,-0.0069 z m 6.0384901,0 c -0.195377,-0.0014 -0.276062,4.8e-4 -0.283363,0.0066 -0.01419,0.01174 -0.01567,0.847233 -0.0016,0.861345 0.0067,0.0067 0.08055,0.0088 0.285239,0.0088 0.265231,0 0.276173,-4.33e-4 0.283674,-0.01439 0.01063,-0.01978 0.0098,-0.07057 -0.0013,-0.08163 -0.0066,-0.0066 -0.06868,-0.0091 -0.232695,-0.0091 h -0.223574 v -0.142629 -0.14262 h 0.202044 c 0.228586,0 0.225814,6.73e-4 0.225814,-0.05536 0,-0.01746 -0.0041,-0.03571 -0.0091,-0.04066 -0.0066,-0.0066 -0.06451,-0.0091 -0.213929,-0.0091 h -0.204823 v -0.138865 -0.138867 l 0.223312,-0.0019 0.223313,-0.0019 v -0.04879 -0.04879 z m -10.6514119,0.0022 -0.00219,0.426919 c -0.00139,0.309213 4.163e-4,0.430153 0.00657,0.437554 0.00671,0.0081 0.043548,0.01019 0.1748337,0.01001 0.2654906,-3.68e-4 0.3298698,-0.01473 0.4040882,-0.09008 0.035846,-0.0364 0.045514,-0.05225 0.06005,-0.09852 0.016324,-0.05196 0.017297,-0.06706 0.017202,-0.258028 -9.83e-5,-0.193144 -9.771e-4,-0.204823 -0.017202,-0.245203 -0.035891,-0.0893 -0.097444,-0.144274 -0.1892208,-0.169204 -0.040926,-0.01112 -0.081461,-0.01333 -0.2514603,-0.01345 z m -0.8491479,0.09007 c 0.052285,1.1e-5 0.066844,0.0031 0.1057134,0.02252 0.052782,0.02638 0.08786,0.06846 0.1047752,0.125418 0.015837,0.05332 0.022729,0.225968 0.012511,0.317453 -0.013318,0.119239 -0.061164,0.191251 -0.1419937,0.213928 -0.1052058,0.02952 -0.213509,-0.0015 -0.2611561,-0.07475 -0.034867,-0.05359 -0.043474,-0.105052 -0.043474,-0.259279 0,-0.160718 0.00774,-0.201114 0.049729,-0.263658 0.036899,-0.05496 0.093881,-0.08165 0.1738952,-0.08163 z m 13.8609718,6.25e-4 c 0.06939,-8.9e-5 0.112719,0.01576 0.152314,0.05536 0.0589,0.05886 0.07166,0.118371 0.06756,0.316202 -0.0026,0.128168 -0.0049,0.15097 -0.01939,0.187657 -0.02029,0.0514 -0.05365,0.0865 -0.102899,0.10884 -0.112574,0.05108 -0.24236,0.01249 -0.292746,-0.08695 -0.02804,-0.05542 -0.03591,-0.120342 -0.03221,-0.268662 0.0029,-0.11568 0.0057,-0.138598 0.02064,-0.177023 0.03572,-0.09185 0.101882,-0.135292 0.206735,-0.135426 z m -5.931525,3.2e-4 c 0.09999,9.29e-4 0.165748,0.04388 0.200793,0.130422 0.01566,0.03856 0.01688,0.05277 0.01689,0.210176 10e-6,0.146199 -0.0018,0.174324 -0.01407,0.20955 -0.0177,0.05085 -0.06188,0.09935 -0.108216,0.119162 -0.126954,0.05427 -0.264213,1.92e-4 -0.305568,-0.120413 -0.01731,-0.05058 -0.02507,-0.279597 -0.01188,-0.355297 0.0226,-0.129754 0.09707,-0.19475 0.222061,-0.1936 z m -6.9639515,0.0088 0.1369897,0.0028 c 0.1232584,0.0025 0.1407515,0.0046 0.174521,0.02002 0.080415,0.03669 0.1056929,0.08408 0.1172855,0.219872 0.010167,0.119073 -6.245e-4,0.267188 -0.023457,0.320268 -0.019579,0.04551 -0.037244,0.06327 -0.086322,0.0857 -0.033837,0.01544 -0.051067,0.0172 -0.1782741,0.0197 l -0.1407427,0.0028 v -0.335586 z m 1.9294267,0 0.1410554,0.0028 c 0.1370654,0.0025 0.1418103,0.003 0.1842167,0.02377 0.046469,0.02282 0.069591,0.05031 0.09289,0.110092 0.011161,0.02865 0.013136,0.05945 0.013136,0.20267 -2.5e-5,0.156641 -0.0012,0.172152 -0.016576,0.210801 -0.019883,0.04997 -0.053381,0.08448 -0.099145,0.10196 -0.02617,0.01004 -0.065389,0.01355 -0.174521,0.01595 l -0.1410555,0.0031 V 11.40785 Z m -3.9117101,0.0016 h 0.1294833 c 0.071235,2e-5 0.1429905,0.0036 0.1595084,0.0081 0.068388,0.01868 0.1085284,0.07406 0.1085284,0.1495 0,0.07728 -0.034683,0.124908 -0.1069645,0.146373 -0.027084,0.0081 -0.073892,0.01126 -0.1641999,0.01126 H 3.3421481 v -0.157633 z m 3.6990321,1.3896 c -0.079829,0.0023 -0.1595574,0.02609 -0.2201842,0.07225 -0.034756,0.02646 -0.076203,0.09037 -0.094141,0.145434 -0.013065,0.04011 -0.016098,0.0731 -0.019079,0.197353 -0.00382,0.159578 0.00354,0.234945 0.0294,0.300564 0.034745,0.08815 0.099215,0.144481 0.1939121,0.169204 0.1037106,0.02707 0.2378344,0.01559 0.3158893,-0.0269 0.043513,-0.02368 0.089269,-0.07058 0.1116559,-0.114471 0.032864,-0.06442 0.040942,-0.121738 0.040972,-0.293683 3.41e-5,-0.214301 -0.015218,-0.272676 -0.091326,-0.354046 -0.061821,-0.06609 -0.1644612,-0.09864 -0.2670985,-0.09571 z m 1.5469192,0 c -0.099346,0.0011 -0.1907772,0.03518 -0.2473945,0.09571 -0.074998,0.08018 -0.090316,0.14184 -0.090075,0.357799 1.001e-4,0.08957 0.00367,0.172992 0.00844,0.192974 0.033153,0.138916 0.1053882,0.215757 0.2280032,0.242391 0.1137552,0.02471 0.251959,0.0053 0.3262104,-0.04566 0.047576,-0.03268 0.088199,-0.08987 0.1091538,-0.153878 0.021915,-0.06694 0.028509,-0.340829 0.010321,-0.42692 C 8.9028673,12.584359 8.8235239,12.50193 8.689117,12.473446 8.655156,12.466246 8.62121,12.463076 8.5880949,12.463436 Z m -3.2392724,6.24e-4 c -0.067056,-8e-4 -0.1329913,0.0111 -0.1823401,0.03628 -0.07671,0.03913 -0.1371621,0.122456 -0.1566937,0.216118 -0.00457,0.02192 -0.00819,0.111538 -0.00813,0.199229 1.531e-4,0.219077 0.014093,0.273342 0.091014,0.354672 0.038454,0.04067 0.098382,0.07329 0.1582575,0.08601 0.055421,0.01177 0.1913358,0.0032 0.2445795,-0.01533 0.1036815,-0.03609 0.1774088,-0.117966 0.1954762,-0.217369 0.010675,-0.05873 0.00848,-0.0614 -0.05317,-0.0588 -0.057566,0.0024 -0.055965,0.0012 -0.076627,0.06005 -0.030696,0.08737 -0.088535,0.126798 -0.1945378,0.132298 -0.111242,0.0058 -0.1760257,-0.02707 -0.2167439,-0.109779 l -0.024395,-0.04981 v -0.184217 c 0,-0.177471 4.163e-4,-0.185487 0.017514,-0.223312 0.038818,-0.08586 0.1162313,-0.127126 0.2267522,-0.120726 0.1092172,0.0063 0.1701212,0.05329 0.199542,0.154192 l 0.011259,0.03941 h 0.055359 c 0.030435,0 0.057164,-0.0029 0.059425,-0.0066 0.0068,-0.01101 -0.011004,-0.09209 -0.02721,-0.123853 -0.023271,-0.04562 -0.083835,-0.104794 -0.1304216,-0.127607 -0.053902,-0.0264 -0.1218517,-0.04018 -0.188908,-0.04097 z m 8.157763,0 c -0.06898,1.38e-4 -0.136386,0.01389 -0.186719,0.04129 -0.04521,0.0246 -0.09621,0.07887 -0.118537,0.126356 -0.03102,0.06596 -0.03805,0.118274 -0.03816,0.282111 -1.57e-4,0.217493 0.01994,0.291726 0.09977,0.365305 0.04057,0.0374 0.08108,0.05891 0.138554,0.0735 0.05801,0.0147 0.193406,0.0099 0.249584,-0.0088 0.100245,-0.03328 0.176861,-0.112464 0.199854,-0.206736 0.01698,-0.06964 0.01444,-0.07381 -0.04848,-0.07381 -0.05859,0 -0.06214,0.0027 -0.07631,0.05505 -0.02367,0.08745 -0.08925,0.133066 -0.199854,0.138867 -0.110227,0.0058 -0.186849,-0.03723 -0.222374,-0.125105 -0.0162,-0.04006 -0.01689,-0.05249 -0.01689,-0.218933 0,-0.166938 7.85e-4,-0.178631 0.0172,-0.219246 0.03512,-0.08694 0.114969,-0.13088 0.226127,-0.124479 0.106572,0.0062 0.172525,0.05293 0.195788,0.138866 0.01453,0.05372 0.01761,0.05567 0.07819,0.05317 l 0.05317,-0.0022 -0.0019,-0.03753 c -0.0043,-0.08101 -0.07295,-0.177624 -0.154191,-0.217369 -0.05556,-0.02718 -0.125873,-0.04049 -0.194851,-0.04035 z m -4.038692,3.21e-4 c -0.014489,-4.01e-4 -0.029207,0 -0.044099,9.44e-4 -0.1545297,0.0097 -0.2550224,0.07801 -0.3024405,0.205485 -0.014465,0.0389 -0.016295,0.06197 -0.018766,0.216118 -0.00384,0.239203 0.01136,0.303111 0.092265,0.384071 0.045556,0.04559 0.086753,0.06798 0.1495001,0.08163 0.097145,0.02113 0.2073216,0.01069 0.2864896,-0.0269 0.055441,-0.02632 0.1168806,-0.08843 0.1419938,-0.14387 0.030282,-0.06686 0.046886,-0.26335 0.024708,-0.293684 -0.00844,-0.01155 -0.025728,-0.01243 -0.1673275,-0.01063 l -0.1576319,0.0019 v 0.04504 0.04504 l 0.1079028,0.0022 0.1079027,0.0022 -0.005,0.05786 c -0.00278,0.03189 -0.00893,0.06968 -0.013448,0.08413 -0.028241,0.09033 -0.1086655,0.142932 -0.2195587,0.142932 -0.097637,0 -0.1724513,-0.04403 -0.2076738,-0.121977 -0.017347,-0.03839 -0.017827,-0.04576 -0.017827,-0.223625 0,-0.177859 4.804e-4,-0.185239 0.017827,-0.223624 0.045205,-0.100038 0.1686472,-0.14679 0.2911811,-0.110405 0.047594,0.01413 0.1036766,0.06242 0.1254175,0.108215 l 0.016263,0.03431 h 0.056297 0.056297 l -6.245e-4,-0.03003 c -7.847e-4,-0.04195 -0.022717,-0.0835 -0.066931,-0.127919 -0.0611,-0.06137 -0.1512924,-0.09668 -0.2527115,-0.09946 z m 2.532431,0.01251 c -0.0096,2.08e-4 -0.01638,0.0012 -0.01783,0.0028 -8.97e-4,10e-4 -0.0034,0.147162 -0.0056,0.324959 l -0.0041,0.323396 -0.210489,-0.323396 -0.210488,-0.323082 h -0.05223 -0.05223 l -0.0019,0.424104 c -9.93e-4,0.233043 -4.33e-4,0.427957 0.0016,0.433801 0.0027,0.007 0.01809,0.0091 0.05442,0.0075 l 0.05098,-0.0022 0.0019,-0.317765 c 0.0012,-0.200747 0.0048,-0.316864 0.0094,-0.315264 0.004,0.0014 0.08686,0.124063 0.184216,0.272728 0.09735,0.148664 0.190997,0.291327 0.208299,0.31714 l 0.03159,0.04691 h 0.04535 c 0.02536,0 0.04973,-0.0038 0.05473,-0.0088 0.013,-0.013 0.013,-0.840212 0,-0.853214 -0.0056,-0.0055 -0.05888,-0.01034 -0.08757,-0.0097 z m -9.2896467,9.45e-4 -0.011573,0.02815 c -0.0417,0.0998 -0.3105723,0.80968 -0.3105723,0.820061 0,0.007 0.00225,0.01503 0.005,0.01783 0.00922,0.0092 0.09901,0.0055 0.1054007,-0.0044 0.00334,-0.0052 0.02136,-0.04821 0.040033,-0.09571 l 0.033778,-0.08663 0.2076737,-0.0019 0.2076738,-0.0019 0.02377,0.06193 c 0.013104,0.03413 0.030714,0.07797 0.039095,0.09758 l 0.015325,0.03597 h 0.050667 c 0.039392,0 0.051828,-0.0027 0.055359,-0.01189 0.00448,-0.01168 -0.3030947,-0.829586 -0.3193298,-0.849148 -0.00571,-0.0068 -0.028944,-0.01001 -0.075376,-0.01001 z m 3.2164409,0 c -0.038452,0 -0.04802,0.0024 -0.05442,0.01439 -0.00847,0.01582 -0.011459,0.823057 -0.00313,0.844769 v 3.21e-4 c 0.00383,0.01 0.014398,0.01181 0.058174,0.01001 l 0.053482,-0.0022 0.00375,-0.31933 0.00375,-0.319016 0.1201005,0.18234 c 0.066073,0.10024 0.1609106,0.243751 0.2104887,0.319016 l 0.090075,0.136677 h 0.052544 0.052544 V 12.913241 12.48163 h -0.052544 -0.052544 l -0.00219,0.320894 c -0.00107,0.176538 -0.00446,0.320893 -0.00751,0.320893 -0.00305,-3.6e-5 -0.1001778,-0.145236 -0.2158057,-0.32277 l -0.2101758,-0.32277 z m 4.7136318,0 c -0.04401,0 -0.06871,0.0032 -0.07381,0.0094 -0.0042,0.0052 -0.06932,0.169777 -0.144496,0.365931 -0.179146,0.467401 -0.180347,0.470916 -0.175147,0.484468 0.0036,0.0092 0.0149,0.01108 0.05724,0.0094 l 0.05317,-0.0022 0.03722,-0.09571 0.03722,-0.0957 h 0.207361 0.207361 l 0.03284,0.0882 c 0.01822,0.04853 0.03656,0.09259 0.04066,0.09789 0.0051,0.0066 0.02309,0.009 0.05692,0.0075 0.04292,-0.0019 0.04981,-0.0042 0.05161,-0.0172 0.0018,-0.01251 -0.292896,-0.798072 -0.314639,-0.838827 -0.0059,-0.01104 -0.01794,-0.01314 -0.0735,-0.01314 z m 5.164633,0 c -0.05559,0 -0.0677,0.0021 -0.0735,0.01314 -0.01619,0.03071 -0.316515,0.822477 -0.316515,0.834449 0,0.0072 0.0022,0.01534 0.005,0.01814 v 3.2e-4 c 0.0091,0.0091 0.09791,0.0051 0.105714,-0.0047 0.0041,-0.0052 0.02223,-0.04879 0.04035,-0.09727 l 0.03315,-0.0882 h 0.207673 l 0.207674,-3.2e-4 0.01626,0.04316 c 0.0089,0.02375 0.02633,0.06764 0.03878,0.09758 l 0.02252,0.05442 h 0.05129 c 0.03916,0 0.05196,-0.0027 0.05536,-0.01157 0.0044,-0.01134 -0.303881,-0.830781 -0.319643,-0.849773 -0.0054,-0.0065 -0.02943,-0.0094 -0.07412,-0.0094 z m -8.141812,9.44e-4 c -0.0063,-1.39e-4 -0.013176,-3.7e-5 -0.02033,3.21e-4 l -0.04754,0.0025 -0.00219,0.424104 c -0.00107,0.23332 -1.137e-4,0.4286 0.00188,0.433801 0.00285,0.0074 0.062731,0.009 0.2796088,0.0075 l 0.2761686,-0.0019 0.00219,-0.04003 c 0.00131,-0.02305 -0.00117,-0.04457 -0.00625,-0.05067 -0.00725,-0.0088 -0.047246,-0.01095 -0.2220608,-0.01095 h -0.212998 v -0.374376 c 0,-0.313439 -0.00175,-0.375732 -0.010634,-0.383133 -0.00478,-0.004 -0.018949,-0.0068 -0.037844,-0.0072 z m -3.7027853,3.21e-4 c -0.042272,-5.4e-5 -0.094092,-6.3e-5 -0.1573192,3.2e-4 l -0.3224573,0.0022 v 0.04879 0.04879 l 0.1332366,0.0019 0.1332365,0.0022 v 0.377816 c 0,0.207252 0.00241,0.379102 0.00532,0.38282 0.00292,0.0029 0.029086,0.0043 0.058174,0.0031 l 0.053169,-0.0022 0.00188,-0.380944 0.00188,-0.381256 h 0.1304216 c 0.1120936,0 0.1312026,-0.0014 0.135113,-0.01157 0.00653,-0.01702 0.00553,-0.07296 -0.00157,-0.08413 -0.00354,-0.0056 -0.044265,-0.0077 -0.1710805,-0.0078 z m -2.1502364,3.2e-4 -0.1839039,0.0022 -0.00219,0.424105 c -0.00107,0.23332 -1.036e-4,0.4286 0.00188,0.4338 0.00573,0.01495 0.3788443,0.01284 0.4463108,-0.0025 0.099643,-0.02266 0.1626943,-0.07723 0.1961016,-0.169829 0.015556,-0.04312 0.017439,-0.06379 0.020329,-0.22425 0.00347,-0.192465 -0.00138,-0.238978 -0.032214,-0.306507 -0.037246,-0.08157 -0.1106808,-0.133829 -0.2123652,-0.150751 -0.029887,-0.005 -0.1238784,-0.0076 -0.2339457,-0.0063 z m 2.4739446,0.0022 -0.00188,0.424105 c -0.00107,0.233043 -4.164e-4,0.427842 0.00157,0.433487 0.00279,0.0073 0.067489,0.0097 0.2883662,0.0097 0.3147273,0 0.2936833,0.0032 0.2936833,-0.0491 0,-0.05181 0.014952,-0.04879 -0.2370734,-0.04879 H 4.400849 V 13.10469 12.958317 h 0.2061099 c 0.1961934,0 0.2065381,-5.76e-4 0.2139291,-0.01439 0.0086,-0.01608 0.010492,-0.05294 0.00344,-0.07131 -0.004,-0.01048 -0.029883,-0.01188 -0.2139289,-0.01188 H 4.400851 v -0.138866 -0.138866 h 0.2126779 c 0.1608784,0 0.2155499,-0.0024 0.2255012,-0.0097 0.010332,-0.0076 0.012777,-0.01839 0.010947,-0.05067 l -0.0025,-0.04097 H 4.5659885 Z m 5.7063366,0 -0.00188,0.424105 c -0.00107,0.23332 -4.804e-4,0.428812 0.00157,0.434113 0.00268,0.007 0.018814,0.0091 0.058172,0.0075 l 0.05473,-0.0022 v -0.431924 -0.431611 h -0.0563 z m 2.3200665,0 -0.0022,0.285239 c -0.0012,0.175854 9.44e-4,0.305388 0.0059,0.337782 0.02003,0.131059 0.09742,0.216881 0.223312,0.247395 h 3.2e-4 c 0.09218,0.02234 0.216071,0.01009 0.293371,-0.02909 0.04743,-0.02403 0.101461,-0.08476 0.120413,-0.135426 0.02794,-0.07464 0.03129,-0.124346 0.02909,-0.420664 l -0.0019,-0.285239 h -0.05661 -0.0563 l -0.0038,0.307758 c -0.0035,0.268792 -0.0058,0.312169 -0.0172,0.341222 -0.01928,0.04904 -0.04363,0.07693 -0.08882,0.101961 -0.0368,0.02039 -0.04655,0.02221 -0.111656,0.02221 -0.06336,-4e-5 -0.07564,-0.0022 -0.110717,-0.02064 -0.04224,-0.02222 -0.07833,-0.06452 -0.09352,-0.109779 -0.0062,-0.0186 -0.01033,-0.12391 -0.01314,-0.334967 l -0.0041,-0.307758 h -0.0563 z m 1.726757,0 -0.0019,0.424105 c -9.93e-4,0.23332 -4.32e-4,0.4286 0.0016,0.4338 0.0028,0.0074 0.06273,0.009 0.279609,0.0075 l 0.276169,-0.0022 0.0025,-0.04003 c 0.0013,-0.02306 -0.0015,-0.04457 -0.0066,-0.05067 -0.0073,-0.0088 -0.04782,-0.01064 -0.225814,-0.01064 h -0.216744 l -0.0019,-0.380943 -0.0019,-0.380944 h -0.05254 z m 0.705903,0 -0.0019,0.424105 c -0.0011,0.23332 -4.32e-4,0.4286 0.0016,0.4338 l -3.21e-4,3.21e-4 c 0.0028,0.0074 0.06454,0.009 0.287428,0.0075 l 0.283675,-0.0022 V 13.3001 13.25506 l -0.228941,-0.0038 -0.229255,-0.0038 v -0.14262 -0.142619 l 0.210489,-0.0041 0.210176,-0.0038 v -0.04504 -0.04504 l -0.210176,-0.0038 -0.210489,-0.0038 -0.0019,-0.136989 -0.0019,-0.13699 h 0.216431 c 0.164063,0 0.219565,-0.0024 0.229567,-0.0097 0.01033,-0.0076 0.01243,-0.01839 0.01063,-0.05067 l -0.0022,-0.04097 h -0.281429 z m 1.599151,0 -0.0019,0.424105 c -9.6e-4,0.23332 -1.24e-4,0.428812 0.0019,0.434113 0.0031,0.0067 0.01948,0.0088 0.05817,0.0072 l 0.05442,-0.0022 0.0022,-0.174521 0.0019,-0.174834 0.110718,0.0019 0.110404,0.0022 0.08757,0.153879 c 0.117175,0.205964 0.108767,0.1963 0.170455,0.193599 0.04398,-0.0019 0.05023,-0.004 0.05223,-0.01783 0.0013,-0.0094 -0.0356,-0.08061 -0.09195,-0.177649 -0.05182,-0.08925 -0.09445,-0.165616 -0.09445,-0.169516 0,-0.0039 0.0087,-0.0092 0.01939,-0.01189 0.05736,-0.01439 0.122024,-0.08002 0.142306,-0.144496 0.018,-0.05725 0.0126,-0.159643 -0.01095,-0.208299 -0.02181,-0.04505 -0.08086,-0.09714 -0.134174,-0.118536 -0.04114,-0.01651 -0.0513,-0.01709 -0.26053,-0.0172 z m -9.2924626,0.08632 c 0.1073203,0 0.1811913,0.05159 0.211114,0.147311 0.014007,0.0448 0.016215,0.07028 0.016577,0.191723 4.323e-4,0.144516 -0.00623,0.195971 -0.032215,0.247707 -0.018233,0.0363 -0.068054,0.07783 -0.1104048,0.09227 -0.041937,0.01429 -0.1228657,0.01458 -0.1620106,6.24e-4 -0.065188,-0.02324 -0.1093896,-0.0704 -0.1307344,-0.139179 -0.010428,-0.0336 -0.012817,-0.07063 -0.012511,-0.198916 3.523e-4,-0.147028 0.00149,-0.160609 0.017827,-0.202044 0.035172,-0.08917 0.1083468,-0.139492 0.2023568,-0.139492 z m 1.5406638,6.25e-4 c 0.060304,-9.93e-4 0.1210922,0.01835 0.1591958,0.05536 0.059575,0.05786 0.076828,0.137846 0.070997,0.326836 -0.00551,0.178796 -0.027994,0.235977 -0.1110303,0.281172 -0.034548,0.01884 -0.050312,0.02259 -0.1044625,0.0244 -0.080714,0.0026 -0.1189667,-0.01044 -0.1657636,-0.05724 -0.057456,-0.05746 -0.063491,-0.08492 -0.063491,-0.289617 0,-0.163903 9.608e-4,-0.174629 0.017202,-0.209863 0.025958,-0.0563 0.051244,-0.08475 0.094141,-0.106652 0.031012,-0.01583 0.067029,-0.0238 0.1032113,-0.0244 z m 7.8681458,0.005 0.13699,0.0034 c 0.109053,0.0026 0.143568,0.0059 0.16889,0.01658 0.05563,0.02336 0.09195,0.08002 0.09195,0.143245 0,0.06329 -0.03643,0.119879 -0.09195,0.142932 -0.02503,0.01041 -0.06111,0.01409 -0.16889,0.01689 l -0.13699,0.0034 V 12.73679 Z m -14.7160622,0.0094 h 0.1260429 c 0.1463589,0 0.189364,0.0091 0.2339458,0.04942 0.01578,0.01426 0.036587,0.04341 0.046289,0.06505 0.016373,0.03652 0.017859,0.05096 0.020329,0.198291 0.00215,0.128358 1.457e-4,0.167848 -0.0097,0.206423 -0.021541,0.08441 -0.072447,0.127836 -0.1660764,0.141368 v -3.2e-4 c -0.028588,0.0042 -0.09666,0.0077 -0.1513767,0.0078 l -0.099458,3.2e-4 v -0.334342 z m 1.0355539,0.02784 c 0.00305,-0.0033 0.041365,0.08789 0.085071,0.202669 0.043706,0.114777 0.081948,0.214548 0.084758,0.221749 0.00477,0.01228 -0.00633,0.01314 -0.1657636,0.01314 -0.1588516,0 -0.1703451,-8.96e-4 -0.1670148,-0.01314 0.00758,-0.02778 0.1576883,-0.418717 0.1629494,-0.424418 z m 7.8625153,0 c 0.0065,0.0067 0.1642,0.420391 0.1642,0.430673 0,0.004 -0.07093,0.0069 -0.168578,0.0069 h -0.168892 l 0.01783,-0.04785 c 0.112448,-0.298756 0.150742,-0.394601 0.155442,-0.389701 z m 5.164321,0 c 0.0031,-0.0032 0.04138,0.08793 0.08507,0.202669 0.0437,0.114741 0.08155,0.214548 0.08445,0.221749 0.0048,0.01228 -0.0059,0.01314 -0.164513,0.01314 -0.09336,0 -0.169517,-0.0029 -0.169517,-0.0063 0,-0.0098 0.158312,-0.424798 0.164513,-0.431299 z" />
</svg>
