<svg version="1.1" id="Camada_1" x="0" y="0" xml:space="preserve" width="80" height="80" xmlns="http://www.w3.org/2000/svg"><style type="text/css" id="style1408"></style><path id="path1410" d="M58.002 23.184a8.277 8.277 0 00-1.867.191c-2.367.53-4.444 2.236-4.676 4.785-.497 5.364 5.95 5.031 5.9 7.787-.008.447-1.248 3.76-6.04.117l-2.071 3.418c2.433 1.946 4.47 1.962 6.209 1.946 4.105-.033 6.505-3.121 6.522-5.563.024-5.463-6.374-5.404-6.2-7.531.083-1.093 1.763-3.087 5.223-.348l1.764-2.972c-.987-1.18-2.87-1.814-4.764-1.83zm-44.35.017c-5.48.13-9.598 4.748-9.38 9.801.314 6.953 6.745 10.131 12.49 7.516l.752-4.413c-4.619 3.088-9.536-.38-8.559-4.8.795-3.584 4.959-5.92 9.867-2.733l.655-3.855c-2.02-1.103-3.998-1.56-5.825-1.516zm60.522 0c-5.48.13-9.598 4.748-9.381 9.801.314 6.953 6.746 10.131 12.49 7.516l.752-4.413c-4.618 3.088-9.535-.38-8.558-4.8.794-3.584 4.958-5.92 9.867-2.733l.654-3.855c-2.02-1.103-3.997-1.56-5.824-1.516zm-45.403.555l-.001.008h.001v-.008zm-.001.008h-4.543l-.166.943c1.117.637 2.525 1.49 4.123 2.5l.586-3.443zm9.263-.008l-3.799 7.441c1.085.753 2.2 1.539 3.327 2.35l2.558-5.33 1.473 8.344a112.11 112.11 0 015.57 4.609l-3.476-17.414s-3.567.008-5.653 0zm-14.469 3.85L21.238 41.17h4.56l1.88-11.016c-1.35-.869-2.723-1.72-4.114-2.549zm9.38 6.124l-3.801 7.44h4.777l2.375-4.965a125.8 125.8 0 00-3.352-2.475zm43.908 9.592l-.002.008h.002v-.008zm-.002.008H49.488c5.182 5.016 8.518 9.934 6.838 13.303-.025.058-.068.116-.11.174h18.32L76.85 43.33zm-74.541 0L0 56.814h40.26c-3.46-1.191-7.21-3.096-10.985-5.976l2.079-4.328c4.982 4.18 16.935 10.312 20.486 8.06 1.887-1.2-1.226-5.727-7.086-11.24H2.309z" fill="#fff" fill-rule="evenodd" clip-rule="evenodd"/></svg>