<svg width="80" height="80" viewBox="0 0 21.167 21.167" xmlns="http://www.w3.org/2000/svg"><path d="M15.708 7.782v.968h1.749v1.786h.893v.894h1.787v1.786h.968v-1.265l-.039-.596-.78-.819h.819c0-.51.153-1.309-.023-1.786-.112-.306-.577-.673-.823-.882-.275-.233-1.074-.086-1.425-.086-.117 0-.362-.045-.445.06-.122.154-.039.605-.039.796l-.819-.781v.856h-.037l.037-.93h-1.823m4.429.967v1.712h-1.712V8.75h1.712m-10.162 1.6v1.936h.335V10.35h-.335m10.236.112l-.037.037.037-.037M0 10.499v1.787c.422 0 .905.062 1.264-.21.451-.343.367-1.173-.11-1.445-.34-.194-.779-.132-1.154-.132m13.92 0v1.787h.336v-.596h.558v.596h.335c0-.38.021-.609-.26-.893h.26c0-.182.041-.423-.022-.596-.163-.44-.84-.298-1.206-.298m1.489 0v1.787h.335v-.596h.558v.596h.335c0-.38.021-.609-.26-.893h.26c0-.182.041-.423-.022-.596-.163-.44-.84-.298-1.206-.298M.372 11.99v-1.192c.204 0 .425-.005.594.128.284.223.303.73-.005.946-.167.117-.394.117-.589.117m14.442-1.191v.558h-.558v-.558h.558m1.489 0v.558h-.558v-.558h.558m-13.4 1.154c-.346.097-.62.12-.819-.223h.857c0-.232-.006-.487-.195-.655-.433-.386-.986.06-.996.543-.005.252.06.497.297.627.334.185.855.14.856-.292m.224.037c.007.58 1.015.378.958-.149-.04-.369-.478-.28-.623-.558l.558.037c.15-.51-.722-.475-.866-.111-.088.224.02.434.234.517.075.03.331.074.305.199-.038.18-.451.074-.566.065m2.27-.037c-.31.087-.654.147-.782-.223h.82c0-.222.012-.455-.158-.625-.423-.423-1.015.01-1.032.513-.009.265.082.515.333.636.338.161.818.129.82-.301m.595-.819v-.149h-.298v1.303h.335c0-.24-.077-.64.038-.855.064-.12.234-.228.36-.127.192.154.086.756.086.982h.372c0-.44.139-1.62-.67-1.303-.086.034-.153.091-.223.149m2.903-.166c-.84.194-.504 1.55.372 1.337.827-.2.485-1.535-.372-1.337m4.132.985c-.31.087-.655.147-.782-.223h.819c0-.223.011-.454-.158-.625-.434-.441-1.03.04-1.03.55 0 .658 1.148 1.004 1.15.298m-6.03-.968l.485 1.303c.566 0 .742-.81.856-1.303-.516 0-.49.41-.67.819-.14-.429-.158-.819-.67-.819m3.461 0c.117.302.266 1.085.537 1.265.1.066.275.049.348-.048.211-.28.396-.874.455-1.217h-.372l-.26.819c-.217-.41-.165-.819-.708-.819m-7.89.484h-.447c.094-.268.383-.305.446 0m2.494 0h-.447c.092-.262.397-.313.447 0m7.668 0h-.484c.126-.271.367-.288.484 0m-3.722-.206c.42-.1.508.675.111.75-.394.077-.462-.666-.11-.75M.222 12.546L0 13.254l.447-.224.037.224c.114.034.187.142.301.168.372.084.294-.48.294-.69-.126.008-.296-.021-.387.087-.186.223.05.439.276.397-.372.32-.445-.618-.745-.67m1.043.224c-.343.235.12.722.335.297l-.335-.037H1.6c-.01-.127-.04-.304-.136-.4-.132-.133-.218.012-.2.14m1.34-.224v.15h.112v-.15h-.111m1.265 0v.187c-.229.007-.482.243-.241.456.092.081.239.064.353.065v-.708H3.87m.968 0v.708c.305 0 .895-.31.44-.643-.12-.089-.298-.065-.44-.065m3.573 0v.708h.112v-.708h-.112m.633 0v.15h.112v-.15h-.112m3.275 0v.187c-.225.007-.478.246-.241.456.092.081.239.064.353.065v-.708h-.112m.968 0v.708c.15-.05.147-.152.149-.298l.447.298-.186-.335c.44-.244-.217-.373-.41-.373m1.973 0v.15h.112v-.15h-.112m-4.02.708l-.074-.67c-.285.092-.208.624.074.67m-6.29-.112v-.484c.414.023.414.461 0 .484m8.784-.41v.038l-.298.074v-.186l.298.074m-12.358-.024c.029 0 .006.018-.012.012l.012-.012m-1.042.024l.037.224H.223l.112-.224m1.34 0v.521h.112c0-.403.185-.403.186 0h.111c0-.364-.008-.52-.409-.52m.893.297c-.344.094-.318-.182 0-.112-.087-.288-.44-.18-.403.112.036.28.361.259.403 0m.038-.298v.521h.111v-.52h-.111m.186.185l.335-.074v.074c-.12.011-.48.141-.249.297.099.067.283.034.398.038-.057-.237-.2-.842-.484-.335m1.712.15l-.335-.038h.335c-.016-.295-.4-.422-.44-.074-.034.294.35.394.44.111m1.414 0l-.335-.037h.335c-.021-.284-.4-.42-.44-.074-.035.304.335.387.44.111m.335.075l-.298-.075c.094.246.331.207.447 0 .144.201.36.247.484 0l-.335-.037h.335c-.045-.403-.45-.334-.484.037h-.037l-.112-.111v-.037l.112-.038c-.078-.141-.435-.215-.373.03.026.103.189.16.261.23m.707-.409v.522h.112c0-.404.186-.404.186 0h.112c0-.364-.008-.521-.41-.522m.447 0c.034.198.09.456.298.522l.149-.522-.224.298-.223-.298m.601.028c-.239.103-.095.568.179.47.284-.101.124-.6-.179-.47m.553-.028c.045.194.09.455.298.522l.149-.522-.224.298-.223-.298m.484 0v.522h.112v-.522h-.112m.223 0v.522h.112c0-.174-.017-.319.149-.41v.41h.111l.038-.41c.165.091.148.236.149.41h.111c0-.534-.179-.521-.67-.522m1.191.335l-.335-.037h.335c-.032-.285-.424-.428-.467-.074-.04.324.34.363.467.111m.075-.335v.522h.111c0-.404.186-.404.187 0h.111c0-.382-.02-.493-.41-.522m.828.039c-.257.155-.035.604.244.439.257-.154.033-.606-.244-.44m1.592.297l-.335-.037h.335c-.01-.301-.407-.417-.44-.074-.027.291.35.395.44.111m1.088-.307c-.237.107-.1.569.175.47.282-.1.138-.61-.175-.47m.401-.028v.522h.112c0-.206 0-.332.186-.447.034.165.169.046.298.037v.074c-.118.011-.464.136-.244.291.099.07.277.039.392.044-.042-.227-.048-.72-.409-.446l-.335-.075m.819 0v.521h.112v-.52h-.112m.186 0v.52h.112c0-.173-.017-.318.149-.409 0 .168-.037.348.148.41v-.41h.15v.41h.111c0-.553-.184-.495-.67-.522m.744.186l.298-.074v.074c-.117.011-.441.132-.238.291.092.072.277.04.387.044-.01-.121.002-.363-.075-.46-.126-.158-.33-.012-.372.125M.827 12.872c.124-.042.167.178.057.22-.12.046-.173-.18-.057-.22m.625-.028v.074h-.186l.186-.074m2.31.034c.118-.02.135.21.027.23-.126.023-.149-.207-.026-.23m.63.003v.038h-.187v-.075l.186.037m1.415 0v.038h-.224l.224-.038m.446-.037v.075h-.149v-.075h.15m.483 0v.075h-.186l.186-.075m1.35.028c.136-.044.177.203.055.242-.137.044-.178-.202-.055-.242m2.223-.028v.075h-.186l.186-.075m1.132.028c.14-.045.198.212.053.236-.127.02-.172-.197-.053-.236m.773.006c.114-.022.13.208.025.23-.114.022-.13-.209-.025-.23m.626.003v.037h-.186v-.074l.186.037m1.276-.009c.136-.044.177.203.055.242-.137.044-.178-.202-.055-.242m-10.99.158l-.224.075.224-.075m11.91 0l-.186.112.187-.112m1.451 0l-.186.112z" fill="#fdfdfd"/></svg>