<svg version="1.1" id="Camada_1" x="0" y="0" xml:space="preserve" width="80" height="80" xmlns="http://www.w3.org/2000/svg"><style type="text/css" id="style1408"></style><path id="path1678" d="M4 27a4 4 0 00-3.902 3.17l-.008.039a4 4 0 00-.055.314C.015 30.68 0 30.838 0 31c0 .162.014.32.035.477a4 4 0 00.055.314l.008.04A4 4 0 004 35a4 4 0 00.186-.014c.104.007.208.014.314.014h14.6c2.45 0 4.5-1.754 4.5-4s-2.05-4-4.5-4H4.5c-.078 0-.154.006-.23.01A4 4 0 004 27zm2.643 1H19.1c1.98 0 3.5 1.368 3.5 3s-1.52 3-3.5 3H6.643A4 4 0 008 31a4 4 0 00-1.357-3zm43.88 4.848c-.138-.001-.266.063-.396.193-.195.195-.205.34-.205 3.182 0 2.627.02 2.999.17 3.164.223.246.698.237.953-.018.195-.195.205-.34.205-3.156V33.26l-.27-.211c-.169-.133-.318-.2-.457-.201zm21.26 1.312a2.185 2.185 0 00-1.404.535l-.36.315-.326-.315c-.18-.173-.457-.364-.615-.424-.56-.21-1.517-.077-1.916.266-.139.12-.188.11-.348-.066-.236-.262-.606-.261-.867 0-.192.192-.205.34-.205 2.5s.013 2.308.205 2.5c.245.244.639.266.86.045.127-.128.16-.405.16-1.334 0-1.46.12-1.956.572-2.395.61-.591 1.346-.4 1.57.408.056.202.104.983.104 1.737 0 1.13.028 1.402.168 1.556.21.233.622.24.869.018.163-.147.188-.339.188-1.508 0-1.187.027-1.394.23-1.797.424-.841 1.267-1.017 1.754-.365.187.25.213.457.244 1.883.027 1.274.068 1.635.195 1.777.212.236.666.227.887-.017.157-.174.173-.398.143-1.965-.038-1.939-.122-2.253-.764-2.86-.357-.338-.846-.501-1.344-.494zm-41.244.006c-.792-.005-1.6.283-2.07.78-.681.717-.944 2.219-.551 3.148.288.682.945 1.259 1.691 1.486.427.13 1.369.103 1.887-.053.608-.182 1.074-.608 1.074-.98 0-.526-.45-.676-1.06-.352-.607.323-1.09.404-1.531.258-.34-.112-.88-.618-.88-.826 0-.054.775-.095 1.813-.096.997 0 1.873-.04 1.947-.088.226-.143.259-.853.07-1.504-.222-.769-.898-1.466-1.617-1.668a2.933 2.933 0 00-.773-.105zm10.361.006c-.943.038-1.887.514-2.34 1.36-.325.609-.322 2.168.004 2.78.29.542.872 1.024 1.457 1.206.968.3 2.088.113 2.788-.465.337-.279.384-.37.357-.69-.025-.294-.087-.387-.303-.463-.224-.078-.352-.04-.754.227-.656.435-1.078.5-1.654.26-.588-.246-.842-.686-.842-1.467 0-.696.248-1.193.721-1.447.578-.31 1.164-.218 1.75.275.337.284.568.316.84.117.258-.189.231-.642-.057-.95-.5-.537-1.233-.772-1.967-.743zm13.71.017a2.749 2.749 0 00-.993.122c-1.077.357-1.679 1.336-1.666 2.714.011 1.207.596 2.176 1.506 2.5.563.201 1.279.181 1.889-.05.467-.178.55-.183.738-.051.296.207.64.186.88-.055.193-.192.206-.34.206-2.45 0-2.108-.013-2.258-.205-2.45-.244-.244-.586-.262-.893-.047-.202.142-.255.142-.545-.008a2.324 2.324 0 00-.918-.225zm-18.86.018c-.428.006-.836.1-1.145.281-.592.349-.86.887-.783 1.573.076.67.441 1 1.555 1.402.96.346 1.203.553.977.826-.213.256-.998.206-1.616-.102-.626-.312-.932-.292-1.136.073-.136.242-.134.296.029.545.197.301.84.626 1.52.767.603.126 1.38.028 1.86-.236.797-.436 1.035-1.592.464-2.242-.305-.347-.606-.51-1.655-.89-.598-.219-.786-.434-.586-.675.154-.185.823-.18 1.282.012.706.295 1.159.157 1.156-.352-.002-.374-.097-.48-.664-.734a3.03 3.03 0 00-1.258-.248zm10.701.008c-.975 0-1.436.168-1.986.719-.71.709-.964 1.96-.613 3.015.226.682.9 1.36 1.562 1.572.625.2 1.775.148 2.309-.105.93-.442 1.484-1.375 1.484-2.502 0-1.1-.452-1.904-1.352-2.402-.474-.263-.636-.298-1.404-.297zm15.82.002c-1.009 0-1.467.19-2.06.846-.476.526-.638 1.024-.64 1.962-.003.625.044.863.255 1.276.272.532.947 1.079 1.565 1.27.176.054.665.085 1.086.068 1.206-.049 2.056-.606 1.896-1.243-.106-.422-.512-.507-1.016-.214-.83.483-1.467.466-2.062-.057-.637-.56-.555-.594 1.475-.594 2.123 0 2.12.004 2.08-.89-.027-.609-.318-1.37-.668-1.746-.463-.497-.976-.678-1.91-.678zm-31.792 1.07c.62 0 1.142.393 1.322.994l.068.23h-1.385c-1.52 0-1.534-.007-1.177-.593.216-.355.73-.63 1.172-.63zm15.878.035a1.365 1.365 0 01.971.297c.755.594.72 2.088-.06 2.64-.14.1-.415.204-.612.231-1.053.149-1.763-.694-1.601-1.9a1.446 1.446 0 011.302-1.268zm15.83.006a1.74 1.74 0 01.584.057c.44.118.828.561.829.947 0 .161-.134.18-1.373.18h-1.373l.107-.305c.177-.508.662-.837 1.227-.879zm-7.644.018c.36-.003.734.123 1.031.357.256.201.268.255.268 1.21 0 1.05-.04 1.15-.56 1.407-.65.32-1.397.168-1.75-.357-.622-.924-.263-2.322.66-2.57.112-.03.231-.046.351-.047zM4.5 36C2.05 36 0 37.754 0 40s2.05 4 4.5 4h6.6c.111 0 .222-.005.332-.012A4 4 0 0011.6 44a4 4 0 003.906-3.184c.015-.065.03-.132.04-.199a4 4 0 00.017-.113c.023-.165.037-.333.037-.504a4 4 0 00-4-4 4 4 0 00-.168.012A5.103 5.103 0 0011.1 36H4.5zm0 1h4.457A4 4 0 007.6 40a4 4 0 001.357 3H4.5C2.519 43 1 41.632 1 40s1.519-3 3.5-3zm44.639 3.318a.59.59 0 00-.405.932c.324.495 1.086.24 1.086-.363 0-.197-.084-.343-.263-.461a.622.622 0 00-.418-.108zm23.043.073c-.447.003-.563.152-.62.785-.051.58-.058.593-.386.625a.644.644 0 00-.494.275c-.247.376-.1.646.427.787l.452.121.001 1.485c.004 1.97.168 2.36 1.116 2.668.387.125 1.18.044 1.478-.15.535-.351.228-1.166-.394-1.048-.173.033-.403.073-.512.088-.351.049-.461-.375-.463-1.771l-.002-1.29.508-.048c.603-.058.818-.21.818-.58 0-.4-.179-.52-.785-.52h-.54v-.527c0-.608-.196-.903-.602-.9h-.002zM30.55 41.639a2.25 2.25 0 00-.928.263l-.393.205-.216-.216c-.178-.178-.265-.197-.496-.116-.504.178-.545.403-.516 2.809.02 1.687.059 2.244.166 2.373.079.095.29.17.48.17.566 0 .657-.248.657-1.77 0-1.432.107-1.836.588-2.214.374-.295.949-.266 1.257.062.236.25.249.341.297 1.924.037 1.196.09 1.707.192 1.828.164.198.759.225.908.041.057-.07.124-.77.146-1.557.032-1.08.084-1.506.213-1.75.404-.759 1.234-.995 1.713-.486.236.25.25.341.299 1.924.056 1.833.111 1.998.656 1.998.544 0 .569-.088.569-1.941 0-1.946-.107-2.42-.674-2.987-.765-.765-2.105-.739-2.977.059l-.23.21-.33-.312a1.845 1.845 0 00-1.381-.517zm22.75.007a1.894 1.894 0 00-.887.264c-.3.182-.316.181-.545-.004-.304-.246-.569-.241-.824.014-.192.192-.205.342-.205 2.52 0 2.01.023 2.337.17 2.5.207.228.678.241.894.025.128-.128.162-.405.162-1.352.001-1.425.112-1.887.567-2.342.296-.296.401-.337.771-.31.329.024.477.098.639.316.188.253.218.474.266 1.97.057 1.803.08 1.875.607 1.878.136 0 .33-.075.434-.168.162-.147.185-.34.185-1.498 0-1.467.16-2.024.674-2.361.398-.26 1.044-.172 1.305.18.187.252.218.473.265 1.968.058 1.804.08 1.876.606 1.879a.749.749 0 00.435-.168c.166-.15.186-.347.186-1.717 0-1.861-.14-2.464-.703-3.027-.724-.724-1.949-.76-2.791-.082l-.39.314-.354-.308a2.085 2.085 0 00-1.467-.49zm23.86.065a2.873 2.873 0 00-1.161.246c-1.048.488-1.535 1.39-1.459 2.703.074 1.28.58 1.967 1.764 2.39 1.032.37 2.333.053 3.052-.743.973-1.076.817-3.189-.298-4.04-.488-.372-1.207-.566-1.899-.556zm-37.462.02c-.442-.016-.889.03-1.183.142-.64.244-1.302.876-1.522 1.451-.372.974-.14 2.378.506 3.07.253.272.889.623 1.348.745.488.13 1.523.016 2.03-.223.937-.44 1.41-1.251 1.423-2.443.013-1.181-.487-2.049-1.451-2.518-.272-.132-.709-.21-1.15-.225zm23.096.005a4.83 4.83 0 00-.676.002c-.797.051-1.197.22-1.69.713-.988.99-1.048 2.847-.124 3.87.409.452.744.656 1.326.802.935.235 2.388-.12 2.75-.672.21-.321.102-.727-.235-.88-.224-.103-.324-.085-.681.12-.563.324-1.025.414-1.47.291-.371-.102-.948-.582-.948-.789 0-.074.574-.109 1.767-.109 2.093 0 2.17-.028 2.153-.783-.019-.847-.223-1.368-.74-1.885-.43-.43-.832-.633-1.432-.68zm5.437.026c-.369.003-.731.083-.994.238l-.388.229-.262-.206c-.33-.26-.587-.259-.846 0-.192.192-.203.34-.203 2.477 0 1.893.026 2.311.158 2.5.111.158.263.229.504.229.573 0 .664-.243.664-1.77 0-1.016.038-1.394.17-1.672.345-.727 1.302-.986 1.778-.48.235.25.25.34.298 1.923.058 1.884.11 2.027.703 1.977.526-.044.62-.306.622-1.715.002-2.113-.316-3.064-1.172-3.512-.287-.15-.662-.222-1.032-.218zm-18.972.056c-.65 0-.664.058-.664 2.655 0 2.296.003 2.337.226 2.494.125.087.288.158.364.158.177 0 .561-.201.658-.346.041-.062.075-1.102.076-2.31.002-2.49-.038-2.65-.66-2.65zm-2.008.018c-.33.032-.367.084-1.158 1.64-.45.885-.84 1.608-.867 1.608-.029 0-.419-.723-.868-1.607-.724-1.427-.847-1.61-1.091-1.64a.974.974 0 00-.485.079c-.447.24-.376.49.801 2.842.62 1.239 1.209 2.3 1.309 2.357.232.135.4.138.64.01.181-.097 2.45-4.584 2.45-4.846 0-.244-.383-.476-.731-.443zm30.09 1.01c.984.063 1.69 1.25 1.164 2.41-.116.256-.317.492-.502.588-.491.254-1.265.209-1.625-.094-.42-.353-.564-.763-.514-1.46.049-.675.275-1.056.764-1.294.245-.12.486-.165.713-.15zm-14.854.011c.666.036 1.213.449 1.213.965v.242h-1.326c-1.262 0-1.328-.011-1.328-.207 0-.113.151-.369.336-.57.268-.292.43-.377.814-.42.099-.01.196-.014.291-.01zm-22.873.004c1.232.042 1.956 1.719.916 2.758-.352.352-.43.383-.959.383-.506 0-.617-.04-.935-.332-.85-.78-.603-2.361.424-2.719.193-.067.378-.096.554-.09zM4.5 45C2.05 45 0 46.754 0 49s2.05 4 4.5 4h14.6c.105 0 .21-.007.314-.014A4 4 0 0019.6 53a4 4 0 003.906-3.184l.004-.025a4 4 0 00.054-.314c.021-.157.036-.315.036-.477a4 4 0 00-4-4 4 4 0 00-.186.014c-.104-.007-.209-.014-.314-.014H4.5zm0 1h12.457a4 4 0 00-1.357 3 4 4 0 001.357 3H4.5C2.519 52 1 50.632 1 49s1.519-3 3.5-3z" fill="#fff" stroke-width="1"/></svg>