<svg width="116" height="116" fill="#fff" xmlns="http://www.w3.org/2000/svg"><path d="M23.015 23v19.015c0 10.458.021 18.992.047 18.963.027-.03.29-.768.586-1.641 2.755-8.131 8.97-19.574 12.964-23.868l.617-.663 1.624.39C49.232 37.682 60.195 42.8 70.82 50.113c7.639 5.258 15.206 11.903 21.177 18.598l.94 1.056.038-15.537c.028-11.283-.002-15.796-.109-16.483-.205-1.318-.698-3.152-1.157-4.305-2.24-5.625-6.225-8.933-12.22-10.142-1.002-.202-3.193-.221-28.778-.26zm17.332 19.538c-.043.052.655 11.356 1.55 25.12.895 13.763 1.63 25.096 1.635 25.184.005.126 5.042.158 24.738.158H93V73.606l-1.702-1.768c-2.718-2.821-7.13-6.812-10.536-9.53-12.63-10.08-26.2-16.986-38.159-19.42-1.198-.244-2.213-.401-2.256-.35zm-5.005 1.85c-.043-.007-.11.05-.241.167-2.27 2.007-8.595 10.891-11.626 16.331L23 61.74l.049 9.31c.044 8.294.074 9.416.272 10.264 1.438 6.167 5.067 10.024 10.579 11.243 1.487.33 2.6.406 6.17.426l3.226.018-.073-.413c-.04-.227-.27-1.785-.51-3.461-.388-2.702-7.097-43.75-7.274-44.507-.035-.147-.054-.222-.097-.23zM59.729 77.37V78.893l-2.072.036-2.072.034-.037 1.048-.036 1.049h3.58v1.65H55.52v2.16h4.208v1.525h-5.995l.033-4.478.034-4.478 2.963-.034zm8.273.004h1.67v9.02H68.02l-.034-2.573-.036-2.572-.861 1.683-.861 1.684h-1.214l-.85-1.684-.852-1.683-.007 2.572-.007 2.572h-1.784l-.001-4.508v-4.51l.86.002h.861l1.194 2.444 1.194 2.444 1.19-2.445zm6.188.001h.66c.51 0 .678.05.745.222.048.122.738 1.995 1.533 4.161a943.004 943.004 0 001.581 4.287l.135.35h-1.866l-.233-.766-.232-.766-1.658.036-1.656.034-.245.731-.245.73h-.894c-.66 0-.881-.04-.84-.158.03-.087.765-2.117 1.634-4.51zm5.807 0l1.88.003c1.035.002 2.127.06 2.427.129 2.535.583 2.973 3.996.663 5.172-.475.241-.764.286-1.873.286h-1.312V86.395H79.997v-4.51zm1.785 1.524v2.54h1.073c.97 0 1.113-.031 1.467-.328.324-.272.392-.421.39-.857-.006-.98-.6-1.345-2.197-1.351zm-6.881 1.27c-.038 0-.297.668-.577 1.483-.28.815-.528 1.53-.551 1.587-.024.059.472.106 1.103.106h1.148l-.529-1.587c-.29-.873-.557-1.588-.594-1.588z"/></svg>