<?xml version="1.0" encoding="UTF-8" standalone="no"?>
<svg
   height="384"
   width="24"
   fill="#fff"
   version="1.1"
   id="svg10"
   sodipodi:docname="icones.svg"
   inkscape:version="1.1.1 (26b7af14f2, 2022-01-19)"
   xmlns:inkscape="http://www.inkscape.org/namespaces/inkscape"
   xmlns:sodipodi="http://sodipodi.sourceforge.net/DTD/sodipodi-0.dtd"
   xmlns="http://www.w3.org/2000/svg"
   xmlns:svg="http://www.w3.org/2000/svg">
  <defs
     id="defs14" />
  <sodipodi:namedview
     id="namedview12"
     pagecolor="#ffffff"
     bordercolor="#666666"
     borderopacity="1.0"
     inkscape:pageshadow="2"
     inkscape:pageopacity="0.0"
     inkscape:pagecheckerboard="0"
     showgrid="true"
     inkscape:zoom="15.231239"
     inkscape:cx="15.166199"
     inkscape:cy="22.289716"
     inkscape:window-width="1852"
     inkscape:window-height="1016"
     inkscape:window-x="68"
     inkscape:window-y="27"
     inkscape:window-maximized="1"
     inkscape:current-layer="svg10">
    <inkscape:grid
       type="xygrid"
       id="grid1033" />
  </sodipodi:namedview>
  <path
     d="M15.5 254h-.79l-.28-.27A6.471 6.471 0 0016 249.5c0-5.791-7.001-8.69-11.096-4.596C.809 248.999 3.709 256 9.5 256c1.61 0 3.09-.59 4.23-1.57l.27.28v.79l5 4.99 1.49-1.49zm-6 0c-2.49 0-4.5-2.01-4.5-4.5s2.01-4.5 4.5-4.5 4.5 2.01 4.5 4.5-2.01 4.5-4.5 4.5z"
     fill="#ff5f11"
     id="path4" />
  <path
     d="M15 293l-1.41 1.41 4.58 4.59H2v2h16.17l-4.59 4.59L15 307l7-7zm3 34v3H6v-3H4v3c0 1.1.9 2 2 2h12c1.1 0 2-.9 2-2v-3zm-1-4l-1.41-1.41-2.59 2.58V316h-2v8.17l-2.59-2.58L7 323l5 5z"
     fill="#000"
     id="path6" />
  <path
     d="M19.052 100.918C17.217 99.028 14.675 98 12.081 98c-5.512 0-9.944 4.487-9.89 9.946 0 1.73.486 3.406 1.297 4.919L2.083 118l5.242-1.352c1.46.811 3.08 1.19 4.702 1.19 5.458 0 9.89-4.486 9.89-9.946 0-2.649-1.027-5.135-2.865-6.973zm-6.971 15.244c-1.459 0-2.918-.379-4.161-1.135l-.325-.163-3.133.812.81-3.081-.217-.325c-2.378-3.838-1.242-8.92 2.65-11.297 3.89-2.379 8.916-1.244 11.293 2.649 2.38 3.891 1.244 8.918-2.647 11.296-1.244.811-2.757 1.244-4.27 1.244zm4.756-6l-.595-.27s-.865-.379-1.405-.649c-.055 0-.109-.054-.163-.054a.773.773 0 00-.377.108s-.055.055-.811.92a.298.298 0 01-.271.161h-.053a.411.411 0 01-.217-.108l-.27-.108c-.595-.27-1.135-.595-1.567-1.027-.108-.108-.271-.217-.379-.325-.378-.377-.756-.81-1.027-1.297l-.054-.108c-.054-.054-.054-.108-.108-.217 0-.108 0-.216.054-.27 0 0 .217-.27.38-.432.107-.108.161-.27.268-.378.109-.162.162-.379.109-.54-.054-.27-.703-1.73-.865-2.055-.109-.162-.217-.216-.379-.27h-.594c-.108 0-.216.055-.325.055l-.053.054c-.108.054-.217.161-.325.215-.107.109-.162.217-.27.325a2.754 2.754 0 00-.594 1.675c0 .433.108.865.27 1.244l.054.162a9.003 9.003 0 002 2.756l.217.217c.161.162.323.27.431.432a9.662 9.662 0 003.891 2.054c.163.055.38.055.542.109h.54c.27 0 .594-.109.81-.217.163-.108.27-.108.378-.217l.108-.107c.109-.108.217-.163.325-.27.109-.108.217-.217.27-.325.108-.217.162-.487.216-.757v-.378s-.054-.054-.162-.108zM22 36c0-5.523-4.477-10-10-10-5.522 0-10 4.477-10 10 0 4.992 3.657 9.128 8.438 9.878v-6.987h-2.54v-2.892h2.54v-2.202c0-2.505 1.493-3.89 3.777-3.89 1.093 0 2.238.195 2.238.195v2.461h-1.261c-1.243 0-1.63.771-1.63 1.562V36h2.773l-.443 2.892h-2.33v6.987C18.343 45.13 22 40.991 22 36zm0 17.64a8.425 8.425 0 01-2.362.663 4.164 4.164 0 001.803-2.323 8.06 8.06 0 01-2.6 1.017 4.06 4.06 0 00-2.997-1.33c-2.27 0-4.097 1.889-4.097 4.206 0 .334.026.654.093.959-3.408-.171-6.425-1.846-8.45-4.399a4.317 4.317 0 00-.563 2.125 4.24 4.24 0 001.822 3.495 3.972 3.972 0 01-1.852-.516v.045c0 2.042 1.422 3.738 3.283 4.13-.35.094-.71.14-1.073.138a3.568 3.568 0 01-.778-.07c.531 1.666 2.04 2.888 3.833 2.928A8.108 8.108 0 012 66.448a11.333 11.333 0 006.29 1.885c7.544 0 11.67-6.41 11.67-11.966 0-.186-.007-.367-.014-.545A8.3 8.3 0 0022 53.642zM4.54 73.901c-1.38 0-2.54.96-2.54 2.233 0 1.27 1.16 2.22 2.54 2.22 1.38 0 2.44-.95 2.54-2.22 0-1.172-1.17-2.232-2.54-2.232zm12.6 5.934c-1.8 0-2.86.64-4.03 2.12v-1.7H8.67V93.99h4.44v-7.913c0-1.37.74-2.85 2.44-2.85 1.69 0 2.11 1.48 2.11 2.85V94H22v-8.233c0-5.081-2.96-5.932-4.87-5.932zm-14.93.42V93.99h4.45V80.256H2.2zM9 160.2L4.8 156l-1.4 1.4L9 163l12-12-1.4-1.4z"
     id="path8" />
  <path
     d="M 12,2 C 9.2799998,2 8.9399998,2.01 7.8800001,2.06 c -1.08,0.05 -1.8,0.22 -2.43,0.47 C 4.7833334,2.78 4.1791667,3.1716667 3.68,3.68 3.1690217,4.1784617 2.773123,4.7825485 2.52,5.4500001 2.2306993,6.2282553 2.0751708,7.049852 2.06,7.8800001 2.01,8.9399998 2,9.2799998 2,12 c 0,2.72 0.01,3.06 0.06,4.12 0.05,1.07 0.22,1.8 0.47,2.43 0.25,0.666667 0.6416667,1.270834 1.15,1.77 0.4984617,0.510979 1.1025485,0.906877 1.7700001,1.16 0.63,0.24 1.36,0.41 2.43,0.46 C 8.9399998,21.99 9.2799998,22 12,22 c 2.72,0 3.06,-0.01 4.12,-0.06 0.830665,-0.01893 1.652186,-0.177825 2.43,-0.47 0.666667,-0.25 1.270834,-0.641666 1.77,-1.15 0.510979,-0.498461 0.906877,-1.102548 1.16,-1.77 0.24,-0.63 0.41,-1.36 0.46,-2.43 C 21.99,15.06 22,14.72 22,12 22,9.2799998 21.99,8.9399998 21.94,7.8800001 21.92105,7.049338 21.762159,6.2278188 21.47,5.4500001 21.219805,4.7834611 20.827369,4.1794489 20.32,3.68 19.821539,3.1690217 19.217452,2.773123 18.55,2.52 17.771745,2.2306993 16.950149,2.0751708 16.12,2.06 15.06,2.01 14.72,2 12,2 Z m 0,1.8 c 2.67,0 2.99,0.01 4.04,0.06 0.98,0.04 1.5,0.2 1.86,0.3400001 0.46,0.19 0.8,0.4 1.15,0.75 0.35,0.35 0.56,0.69 0.74,1.15 0.14,0.35 0.3,0.88 0.35,1.86 C 20.19,9.0099998 20.2,9.3299998 20.2,12 c 0,2.67 -0.01,2.99 -0.06,4.04 -0.04,0.98 -0.2,1.5 -0.34,1.86 -0.160833,0.433334 -0.416666,0.8275 -0.75,1.15 -0.323823,0.328761 -0.71661,0.581511 -1.15,0.74 -0.35,0.14 -0.88,0.3 -1.86,0.35 -1.345833,0.05833 -2.693333,0.07833 -4.04,0.06 -2.6700002,0 -2.9900002,-0.01 -4.0399999,-0.06 -0.6348476,-0.0065 -1.2639122,-0.121475 -1.86,-0.34 -0.4345719,-0.160904 -0.8275419,-0.417188 -1.15,-0.75 -0.3328115,-0.322458 -0.5890963,-0.715428 -0.75,-1.15 C 4.0700001,17.55 3.9,17.02 3.86,16.04 3.801352,14.694185 3.781343,13.346964 3.8,12 3.8,9.3299998 3.81,9.0099998 3.86,7.9600001 c 0.04,-0.98 0.2,-1.5 0.3400001,-1.86 0.19,-0.47 0.4,-0.8 0.75,-1.15 0.35,-0.35 0.68,-0.56 1.15,-0.75 0.35,-0.13 0.88,-0.3000001 1.86,-0.3400001 C 9.3058148,3.801338 10.653037,3.78133 12,3.8 Z m 5.34,1.6600001 c -1.6,0 -1.6,2.4 0,2.4 1.6,0 1.6,-2.4 0,-2.4 z m -5.34,1.4 C 5.1533334,6.8600001 5.1533334,17.13 12,17.13 c 2.835984,0 5.134998,-2.299017 5.134998,-5.135 C 17.134998,9.1590182 14.835984,6.86 12,6.8600001 Z m 0,1.8 c 4.446667,0 4.446667,6.6699999 0,6.6699999 -4.4399999,0 -4.4399999,-6.6599999 0,-6.6599999 z"
     id="path6-3"
     sodipodi:nodetypes="scccccscccccscccccscccccscccsccsccccccccccccccscccssssssscscc"
     style="stroke-width:1" />
</svg>
