<svg version="1.1" id="Camada_1" x="0" y="0" xml:space="preserve" width="80" height="80" xmlns="http://www.w3.org/2000/svg"><style type="text/css" id="style1408"></style><path d="M63.93 60.404c-.055-1.1-3.329-3.2-5.52-3.542-.7-.109-1.46-.342-1.685-.518-.225-.176-1.277-.445-2.336-.598-1.429-.207-1.994-.493-2.19-1.108-.406-1.28-.069-1.363 5.06-1.245 18.438.424 26.295-11.16 19.756-29.13-1.304-3.582-1.304-3.582-2.5-2.385-2.312 2.311-15.535 8.68-15.535 7.482 0-.46 5.643-3.761 10.04-5.874 2.029-.974 4.385-2.4 5.238-3.17 1.891-1.71 1.551-2.11 3.612 4.26 5.449 16.84.263 28.609-13.49 30.613-3.47.506-4.06.892-2.356 1.54 1.071.408 2.499 2.921 2.15 3.788-.146.367-.22.332-.243-.113zM51.35 49.781c-.475-.193-1.26-.851-1.741-1.464-.877-1.114-.877-1.114-.877.17 0 1.286 0 1.286-2.842 1.286s-2.842 0-2.972-6.955c-.146-7.873-.423-8.713-2.553-7.743-1.955.89-2.29 2.168-2.29 8.734 0 5.964 0 5.964-2.616 5.964s-2.616 0-2.808-6.661c-.24-8.374-.584-9.235-3.157-7.904-1.528.79-1.654 1.436-1.66 8.519-.006 6.046-.006 6.046-2.875 6.046-2.87 0-2.87 0-2.87-9.428 0-9.427 0-9.427 2.87-9.427 2.627 0 2.869.07 2.869.847 0 .836.018.835 1.332-.102 2.166-1.545 5.18-1.348 7.046.46 1.455 1.411 1.455 1.411 2.585.358 4.967-4.633 9.488-1.644 9.858 6.52.19 4.189.19 4.189.974 3.191 1.215-1.545 3.071-2.71 5.812-3.65 2.739-.94 3.305-1.795 2.082-3.146-1.224-1.353-3.307-1.02-6.428 1.025-1.127.74-1.127.74-1.127-1.47 0-2.812 2.736-4.434 7.494-4.441 4.666-.007 5.766 1.675 5.97 9.122.154 5.577.176 5.692 1.032 5.477.793-.2.872-.058.843 1.504-.054 2.887-4.128 4.57-6.156 2.543-1.027-1.027-1.027-1.027-3.197 0-2.282 1.079-3.173 1.2-4.597.625zm5.6-4.323c1.896-.98 1.88-5.304-.016-4.643-2.437.85-3.794 3.204-2.605 4.519.824.91 1.078.922 2.622.124zM.366 40.345c0-9.465 0-9.465 2.767-9.344 2.767.121 2.767.121 2.767 9.344 0 9.223 0 9.223-2.767 9.344-2.767.121-2.767.121-2.767-9.344zm9.826 8.59c-6.075-3.612-4.417-16.996 2.26-18.248 5.307-.996 9.229 2.676 9.229 8.64 0 1.428 0 1.428-4.965 1.428-4.964 0-4.964 0-4.696 1.537.606 3.47 4.98 4.931 8.281 2.768 1.017-.666 1.017-.666.89 1.303-.203 3.178-7.22 4.82-11 2.573zm6.352-11.972c-.609-2.864-2.939-3.755-4.075-1.557-1.244 2.405-.931 2.89 1.866 2.89 2.492 0 2.492 0 2.209-1.333zm50.634 4.532c0-.27.45-.962.998-1.537 1.583-1.663 3.898-5.771 4.59-8.149.773-2.65 1.27-2.51.595.168-1.056 4.193-6.183 12.085-6.183 9.518zM.805 26.968C-.182 25.713-.208 25.484.437 23.7c1.056-2.919 6.077-1.93 6.077 1.196 0 2.77-4.014 4.227-5.71 2.072z" id="path2290" fill="#fff" stroke-width="1"/></svg>