<svg id="Camada_1" data-name="Camada 1" version="1.1" width="154" height="152" xmlns:xlink="http://www.w3.org/1999/xlink" xmlns="http://www.w3.org/2000/svg"><defs id="defs9"><linearGradient id="Gradiente_sem_nome_8" x1="500.41" y1="427.16" x2="578.2" y2="478.29" gradientUnits="userSpaceOnUse" gradientTransform="translate(-37.595 -37.5) scale(.13628)"><stop offset="0" stop-color="#f4bc1d" id="stop4"/><stop offset="1" stop-color="#fff" id="stop6"/></linearGradient><filter id="filter2223" x="0" y="0" width="1" height="1" color-interpolation-filters="sRGB"><feColorMatrix values="1 -0 -0 0 -10 -0 1 -0 0 -10 -0 -0 1 0 -10 0 0 0 1 0" id="feColorMatrix2221"/></filter><style id="style2">.cls-2{fill:#fff}.cls-3{fill:#f4bc1d}</style></defs><g id="g1689" transform="translate(0 -.187) scale(.90233)" stroke-width="1.108"><path class="cls-2" d="M0 71.042a9.577 9.577 0 01.534-3.12 8.725 8.725 0 011.55-2.778 8.028 8.028 0 012.496-1.996 7.2 7.2 0 013.374-.77q2.248 0 3.834 1.065a6.629 6.629 0 012.366 2.728l-.992.587a5.838 5.838 0 00-1.057-1.51 5.52 5.52 0 00-2.758-1.542 6.704 6.704 0 00-1.49-.172 5.825 5.825 0 00-2.842.673 6.751 6.751 0 00-2.083 1.75 7.67 7.67 0 00-1.29 2.435 8.866 8.866 0 00-.437 2.73 8.414 8.414 0 001.94 5.396 6.92 6.92 0 002.134 1.695 5.683 5.683 0 002.651.637 6.63 6.63 0 001.562-.196 6.041 6.041 0 001.539-.604 6.292 6.292 0 001.373-1.058 5.676 5.676 0 001.057-1.53l1.042.514a5.878 5.878 0 01-1.16 1.738 7.27 7.27 0 01-1.626 1.254 7.65 7.65 0 01-1.905.772 8.005 8.005 0 01-1.977.256 6.485 6.485 0 01-3.16-.782 8.43 8.43 0 01-2.474-2.045 9.786 9.786 0 01-2.2-6.13z" id="path15" stroke-width="1.108"/><path class="cls-2" d="M56.949 65.364q-1.633-1.885-4.616-1.885-2.46 0-3.586.967-1.125.966-1.123 2.607a2.986 2.986 0 00.284 1.382 2.48 2.48 0 00.886.942 5.809 5.809 0 001.523.662q.924.27 2.224.562 1.35.294 2.45.649a7.01 7.01 0 011.87.893 3.734 3.734 0 011.184 1.323 4.09 4.09 0 01.414 1.933 4.353 4.353 0 01-.438 2.006 3.968 3.968 0 01-1.23 1.431 5.703 5.703 0 01-1.893.87 9.548 9.548 0 01-2.45.293q-3.927 0-6.646-2.594l.64-1.003a7.703 7.703 0 002.603 1.823 8.514 8.514 0 003.456.673q2.202 0 3.443-.832 1.242-.832 1.243-2.52a2.977 2.977 0 00-.33-1.457 3.045 3.045 0 00-.984-1.04 6.424 6.424 0 00-1.644-.755q-.994-.32-2.32-.605-1.326-.283-2.38-.625a6.174 6.174 0 01-1.727-.832 3.297 3.297 0 01-1.057-1.208 3.97 3.97 0 01-.355-1.8 4.71 4.71 0 01.438-2.08 4.347 4.347 0 011.223-1.53 5.395 5.395 0 011.87-.943 8.609 8.609 0 012.417-.319 7.905 7.905 0 012.912.503 6.839 6.839 0 012.316 1.53z" id="path17" stroke-width="1.108"/><path class="cls-2" d="M79.79 78.726v1.127H68.592V62.475h11.196v1.127H69.8v6.828h9.988v1.077H69.8v7.22z" id="path19" stroke-width="1.108"/><path class="cls-3" id="polygon21" transform="translate(-41.664 -41.558) scale(.15104)" stroke-width="7.338" d="M475.52 698.85l3.43-10.05h-6.88l-47.34 115.06h8.63l17.39-44.73z"/><path class="cls-2" id="polygon23" transform="translate(-41.664 -41.558) scale(.15104)" stroke-width="7.338" d="M525.98 803.86L478.95 688.8l-3.43 10.05 26.47 67.1 15.52 37.91z"/></g><path class="cls-3" d="M.002 47.814v.704c.662 0 1.182.04 1.685 0 6.344-.603 11.116-6.024 11.138-10.748q.02-4.338.012-8.674H.003c-.006 5.744 0 12.959 0 18.718z" id="path25" stroke-width="1"/><path class="cls-2" d="M71.996 2.173V.018c-.663 0-1.182-.04-1.685 0-6.344.603-11.117 4.564-11.138 9.29-.013 2.89-.014 7.233-.013 10.125h12.834q.011-8.628.002-17.26z" id="path27" stroke-width="1"/><path id="path33" class="cls-2" d="M31.162.007c-.898-.02-1.813.035-2.737.173L13.533 2.404A15.877 15.877 0 000 18.104V40.32c2.317-4.278 9.2-5.16 9.2-5.16l16.145-2.41.007-.002 1.38-.205 6.385-.953A15.872 15.872 0 0046.59 17.21c.037-.437.058-.88.058-1.325v-.109a15.797 15.797 0 00-1.281-6.145C42.965 4.032 37.452.15 31.162.007zm-5.861 9.912a6.585 6.585 0 016.9 6.58l-.006-.005a6.581 6.581 0 01-5.611 6.512l-2.651.396-7.275 1.09s-2.862.365-3.816 2.14v-9.21a6.59 6.59 0 015.617-6.516l6.179-.922c.22-.033.44-.055.663-.065z" stroke-width="1"/><path id="path31" class="cls-3" d="M71.994 8.202c-2.31 4.28-9.196 5.162-9.196 5.162l-16.15 2.413h-.003l-1.379.206-6.388.953a15.872 15.872 0 00-13.475 14.38c-.037.437-.058.88-.058 1.325v.107h.005c.01 2.114.445 4.205 1.278 6.147 2.744 6.398 9.553 10.554 16.941 9.45l14.892-2.224a15.877 15.877 0 0013.533-15.704zM59.156 21.89l.012 9.22a6.59 6.59 0 01-5.617 6.517l-6.186.92c-3.983.597-7.565-2.49-7.562-6.518a6.581 6.581 0 015.61-6.51l2.652-.396 7.273-1.091s2.864-.367 3.818-2.142z" stroke-width="1"/><path d="M33.116 31.588A15.872 15.872 0 0046.591 17.21c.037-.437.057-.879.057-1.325v-.107l-1.382.206-6.389.953a15.872 15.872 0 00-13.474 14.38c-.037.437-.058.879-.058 1.325v.107l1.386-.206z" id="path29" fill="url(#Gradiente_sem_nome_8)" stroke-width="1"/><use x="0" y="0" xlink:href="#g1689" id="use1691" transform="translate(82 -39.77)"/><path id="path8" d="M69.98 80.01a9.054 9.054 0 00-1.103.017c-6.46.612-11.336 4.745-11.357 9.611-.003.641 0 2.69-.002 4.094l-11.022 1.646a15.917 15.917 0 00-1.273-5.523 16.035 16.035 0 00-17.092-9.533l-14.475 2.16A16.015 16.015 0 00.08 97.892H.006v.412l-.004.022v23.916l.004-.008v6.246h.582c.211 0 .403 0 .592.008.188.008.334.008.496.008.204 0 .403 0 .605-.025 6.46-.613 11.34-4.745 11.36-9.612.003-.544 0-2.697.002-3.974l11.152-1.667c.044 1.902.43 3.78 1.137 5.547a16.044 16.044 0 0017.097 9.534l14.473-2.163a16.015 16.015 0 0013.652-15.845v-2.282h.004v-.59c.002-4.2.002-12.816 0-19.213v-8.189h-.588c-.211 0-.402 0-.59-.008zm-.027 1.171h.03v7.33c-2.132 3.755-8.371 4.612-8.446 4.621l-2.842.424c.002-1.26 0-3.333.002-3.918.02-4.26 4.442-7.89 10.293-8.445.32-.023.642-.027.963-.012zM30.5 81.32a14.863 14.863 0 0113.646 8.99 14.765 14.765 0 011.184 5.244l-7.04 1.051a16.015 16.015 0 00-6.26 2.44c.21-.549.35-1.122.417-1.706a6.95 6.95 0 00-.541-3.338 6.998 6.998 0 00-7.46-4.162l-6.007.897a7.036 7.036 0 00-5.96 6.916v1.418c0 2.796-.003 9.73-.008 14.79l-3.014.45c-.249.03-5.39.726-8.275 3.797v-17.606H1.18v-2.175c0-7.292 5.437-13.603 12.65-14.68l14.483-2.164a14.956 14.956 0 012.187-.162zm39.48 9.18l-.002 19.79c0 7.291-5.436 13.603-12.65 14.68l-14.475 2.161a14.847 14.847 0 01-15.84-8.834 14.756 14.756 0 01-1.074-5.25l6.922-1.035a15.914 15.914 0 006.03-2.199c.076-.064.151-.13.226-.195a7.014 7.014 0 00-.404 1.658 6.943 6.943 0 00.539 3.338 6.998 6.998 0 007.461 4.16l6.008-.898a7.036 7.036 0 005.959-6.918v-4.823l.007-.013c0-2.721.003-7.328.006-11.374l3.01-.449c.25-.03 5.393-.726 8.277-3.799zm-44.494.44a5.813 5.813 0 015.787 6.301 5.813 5.813 0 01-4.935 5.267l-9.635 1.44c-.094.012-1.761.235-3.047 1.164v-7.46a5.849 5.849 0 014.957-5.75l6.012-.9c.285-.042.573-.063.861-.062zm32.032 3.984c-.002 2.587-.005 4.22-.004 6.875-.827 1.362-3.183 1.698-3.22 1.698l-9.646 1.441a6.939 6.939 0 00-1.257.459 16.077 16.077 0 003.066-7.895c.027-.327.033-.628.041-.933zm-12.2 1.82c-.009.216-.01.423-.029.651-.4 4.697-3 8.928-7.01 11.406a14.74 14.74 0 01-5.588 2.037l-6.85 1.024c.01-.216.011-.424.03-.65A14.834 14.834 0 0138.47 97.768zm-17.341 6.393a16.015 16.015 0 00-3.28 7.977c-.027.322-.033.622-.04.926l-11.012 1.644c.003-2.474.003-3.981.003-6.88.832-1.357 3.182-1.692 3.217-1.692l9.647-1.442c.507-.122.998-.3 1.465-.533zm29.525.365v7.457a5.852 5.852 0 01-4.955 5.752l-6.008.897a5.82 5.82 0 01-6.205-3.459v-.004a5.796 5.796 0 01-.447-2.772 5.833 5.833 0 012.746-4.468 5.752 5.752 0 012.187-.797l9.635-1.442c.094-.012 1.762-.236 3.047-1.164zM12.469 115.06c-.002 1.153 0 3.29-.002 3.793-.018 4.258-4.442 7.89-10.293 8.445a8.63 8.63 0 01-.965.012h-.027v-7.219c2.141-3.74 8.357-4.596 8.431-4.605z" fill="#000" stroke="none" stroke-width=".9"/><use x="0" y="0" xlink:href="#g1689" id="use2211" transform="translate(0 80)" filter="url(#filter2223)"/></svg>