<?xml version="1.0" encoding="UTF-8" standalone="no"?>
<svg
   id="Camada_1"
   data-name="Camada 1"
   viewBox="0 0 80 54"
   version="1.1"
   sodipodi:docname="logo-bg2.svg"
   width="80"
   height="54"
   inkscape:version="1.1.2 (76b9e6a115, 2022-02-25)"
   xmlns:inkscape="http://www.inkscape.org/namespaces/inkscape"
   xmlns:sodipodi="http://sodipodi.sourceforge.net/DTD/sodipodi-0.dtd"
   xmlns="http://www.w3.org/2000/svg"
   xmlns:svg="http://www.w3.org/2000/svg"
   xmlns:rdf="http://www.w3.org/1999/02/22-rdf-syntax-ns#"
   xmlns:cc="http://creativecommons.org/ns#"
   xmlns:dc="http://purl.org/dc/elements/1.1/">
  <sodipodi:namedview
     id="namedview35"
     pagecolor="#ffffff"
     bordercolor="#666666"
     borderopacity="1.0"
     inkscape:pageshadow="2"
     inkscape:pageopacity="0.0"
     inkscape:pagecheckerboard="0"
     showgrid="true"
     inkscape:zoom="2.8284271"
     inkscape:cx="56.568543"
     inkscape:cy="85.029591"
     inkscape:window-width="1852"
     inkscape:window-height="1016"
     inkscape:window-x="68"
     inkscape:window-y="27"
     inkscape:window-maximized="1"
     inkscape:current-layer="Camada_1">
    <inkscape:grid
       type="xygrid"
       id="grid1016" />
  </sodipodi:namedview>
  <defs
     id="defs4">
    <style
       id="style2">.cls-1{fill:#243650;}.cls-2{fill:#fff;}</style>
  </defs>
  <title
     id="title6">Logo-Vertical-Linhas-Azulbranco-FundoTransparente  cópia</title>
  <g
     id="g900"
     transform="matrix(0.14953544,0,0,0.14953544,-41.216453,-25.503534)"
     style="stroke-width:6.68738">
    <g
       id="g1207"
       style="opacity:0.03"
       transform="matrix(0.79313704,0.21252043,-0.21252043,0.79313704,186.24592,-42.132513)">
      <path
         class="cls-1"
         d="m 377.09,307.88 v -4.38 h -7.41 c -0.5,2.93 0.23,5.84 -0.33,8.75 h -1 c 0,27.79 0,127.47 -0.09,147 -0.13,31.64 -33,58.62 -76.48,62.75 a 64,64 0 0 1 -7.16,0.09 h -0.21 v -57 c 0,-45.68 0,-106.57 0,-142.2 -2.59,0 -5.47,-2.13 -5.44,-4.89 a 96.45,96.45 0 0 1 1.38,-14.5 h -4.67 v 4.37 c 0,30.74 0,104.22 0,157.22 v 65.69 H 280 c 1.57,0 3,0 4.4,0.06 1.4,0.06 2.48,0.06 3.68,0.06 1.52,0 3,0 4.5,-0.19 48,-4.55 84.25,-35.26 84.4,-71.42 0.12,-20.74 0.13,-130.38 0.11,-151.41 z"
         id="path18"
         style="fill:none;stroke:#ffffff;stroke-width:0.668738" />
      <path
         class="cls-1"
         d="M 275.64,484.43 V 306.72 A 119,119 0 0 1 377.1,189 l 107.55,-16.06 a 119.15,119.15 0 0 1 127,70.84 v 0 a 118.27,118.27 0 0 1 9.61,46.9 c 0,3.2 -0.14,6.45 -0.43,9.93 a 119.46,119.46 0 0 1 -56.22,91.47 118.25,118.25 0 0 1 -44.81,16.35 l -172.74,25.8 c -0.56,0.07 -47.79,6.48 -63.23,35 z M 502.26,180.36 A 111.13,111.13 0 0 0 486,181.57 l -107.6,16.07 c -53.6,8 -94,54.9 -94,109.08 v 147 c 21.43,-22.83 59.65,-28 61.5,-28.22 l 172.64,-25.79 a 109.52,109.52 0 0 0 41.52,-15.14 110.66,110.66 0 0 0 52.09,-84.75 c 0.27,-3.23 0.4,-6.25 0.4,-9.2 a 109.71,109.71 0 0 0 -8.9,-43.45 v 0 A 110.44,110.44 0 0 0 502.26,180.36 Z"
         id="path20"
         style="fill:none;stroke:#ffffff;stroke-width:0.668738" />
      <path
         class="cls-1"
         d="m 368.35,385.58 v -83.86 a 52.28,52.28 0 0 1 44.29,-51.39 l 44.63,-6.67 a 52,52 0 0 1 55.44,30.93 v 0 a 51.64,51.64 0 0 1 4.2,20.47 c 0,1.41 -0.06,2.83 -0.19,4.33 a 52.15,52.15 0 0 1 -24.54,39.93 51.54,51.54 0 0 1 -19.56,7.13 l -71.68,10.71 c -0.27,0 -18.6,2.55 -24.37,13.22 z M 465,251.85 a 43.23,43.23 0 0 0 -6.39,0.47 L 413.93,259 a 43.46,43.46 0 0 0 -36.83,42.73 v 55.43 c 9.55,-6.9 21.94,-8.57 22.64,-8.66 l 71.59,-10.69 A 43.19,43.19 0 0 0 508,298.67 c 0.1,-1.27 0.16,-2.45 0.16,-3.61 A 43.19,43.19 0 0 0 465,251.85 Z"
         id="path22"
         style="fill:none;stroke:#ffffff;stroke-width:0.668738" />
      <path
         class="cls-2"
         d="M 804.36,231.54 V 170.68 H 800 c -1.57,0 -3,0 -4.39,-0.06 a 67.28,67.28 0 0 0 -8.19,0.13 c -48,4.55 -84.24,35.26 -84.4,71.42 -0.09,20.7 -0.08,110.74 -0.06,132.17 v 4.37 h 4.9 c 0.56,-3.69 1.33,-7.35 2.16,-11.06 a 5.51,5.51 0 0 1 1.68,-3 c 0,-29.3 0,-104.21 0.07,-122.48 0.14,-31.65 33,-58.62 76.48,-62.75 a 61.65,61.65 0 0 1 7.16,-0.09 h 0.22 v 52.17 c 0,42.63 0,98.53 0,132.15 a 4.39,4.39 0 0 1 2.52,4.27 c 0,3.58 0,7.17 -0.11,10.75 h 6.33 v -4.37 c 0.01,-31.21 0,-95.23 -0.01,-142.76 z"
         id="path24"
         style="fill:none;stroke:#ffffff;stroke-width:0.668738" />
      <path
         class="cls-2"
         d="M 577.74,530.74 A 119.21,119.21 0 0 1 468.32,458.59 v 0 a 118.28,118.28 0 0 1 -9.61,-46.91 c 0,-3.22 0.14,-6.47 0.43,-9.93 a 119,119 0 0 1 101,-107.81 l 172.74,-25.8 c 0.56,-0.07 47.79,-6.49 63.23,-35 l 8.22,-15.21 V 395.62 A 119,119 0 0 1 702.9,513.36 l -107.55,16.07 a 119.41,119.41 0 0 1 -17.61,1.31 z M 795.61,248.58 c -21.43,22.83 -59.65,28 -61.5,28.23 l -172.64,25.78 a 110.22,110.22 0 0 0 -93.61,99.89 c -0.27,3.21 -0.4,6.22 -0.4,9.2 a 109.64,109.64 0 0 0 8.9,43.45 v 0 a 110.32,110.32 0 0 0 117.69,65.64 L 701.6,504.71 c 53.6,-8 94,-54.91 94,-109.09 z"
         id="path26"
         style="fill:none;stroke:#ffffff;stroke-width:0.668738" />
      <path
         class="cls-2"
         d="m 615.05,459.25 a 52,52 0 0 1 -47.76,-31.49 v 0 a 51.59,51.59 0 0 1 -4.2,-20.48 c 0,-1.39 0.06,-2.81 0.19,-4.33 a 52.12,52.12 0 0 1 24.54,-39.95 51.56,51.56 0 0 1 19.56,-7.14 l 71.68,-10.71 c 0.27,0 18.6,-2.55 24.37,-13.21 l 8.22,-15.21 v 83.86 A 52.28,52.28 0 0 1 667.37,452 l -44.64,6.67 a 52.54,52.54 0 0 1 -7.68,0.58 z M 575.33,424.31 A 43.25,43.25 0 0 0 621.44,450 l 44.63,-6.66 A 43.48,43.48 0 0 0 702.9,400.6 v -55.4 c -9.55,6.89 -21.94,8.56 -22.64,8.65 l -71.59,10.7 a 42.74,42.74 0 0 0 -16.26,5.93 43.34,43.34 0 0 0 -20.41,33.2 c -0.11,1.28 -0.16,2.46 -0.16,3.6 a 43.07,43.07 0 0 0 3.49,17 z"
         id="path28"
         style="fill:none;stroke:#ffffff;stroke-width:0.668738" />
      <path
         class="cls-2"
         d="m 473.81,375 a 110.73,110.73 0 0 1 46.19,-57.27 109.35,109.35 0 0 1 31.43,-13.14 6.46,6.46 0 0 1 1.85,-0.42 v 0 c -0.46,-2.9 -0.82,-5.8 -1.09,-8.73 a 118.07,118.07 0 0 0 -36.8,14.84 119.57,119.57 0 0 0 -50.75,64.52 c 3.04,0.1 6.1,0.2 9.17,0.2 z"
         id="path30"
         style="fill:none;stroke:#ffffff;stroke-width:0.668738" />
      <path
         class="cls-1"
         d="m 603.64,247.21 a 109.71,109.71 0 0 1 8.9,43.45 c 0,2.95 -0.13,6 -0.4,9.2 a 110.11,110.11 0 0 1 -13.58,44.39 q 2.94,3.62 6,7.17 a 118.68,118.68 0 0 0 16.35,-50.83 c 0.29,-3.48 0.43,-6.73 0.43,-9.93 a 118.38,118.38 0 0 0 -9,-45.45 l -9.39,0.29 c 0.17,0.57 0.44,1.13 0.69,1.71 z"
         id="path32"
         style="fill:none;stroke:#ffffff;stroke-width:0.668738" />
    </g>
  </g>
  <metadata
     id="metadata852">
    <rdf:RDF>
      <cc:Work
         rdf:about="">
        <dc:title>Logo-Vertical-Linhas-Azulbranco-FundoTransparente  cópia</dc:title>
      </cc:Work>
    </rdf:RDF>
  </metadata>
</svg>
