<?xml version="1.0" encoding="UTF-8" standalone="no"?>
<!-- Creator: CorelDRAW -->

<svg
   xml:space="preserve"
   width="116"
   height="116"
   style="clip-rule:evenodd;fill-rule:evenodd;image-rendering:optimizeQuality;shape-rendering:geometricPrecision;text-rendering:geometricPrecision"
   viewBox="0 0 30.691668 30.691666"
   version="1.1"
   id="svg26"
   sodipodi:docname="nordeste.svg"
   inkscape:version="1.1.1 (26b7af14f2, 2022-01-19)"
   xmlns:inkscape="http://www.inkscape.org/namespaces/inkscape"
   xmlns:sodipodi="http://sodipodi.sourceforge.net/DTD/sodipodi-0.dtd"
   xmlns="http://www.w3.org/2000/svg"
   xmlns:svg="http://www.w3.org/2000/svg"><sodipodi:namedview
   id="namedview28"
   pagecolor="#ffffff"
   bordercolor="#666666"
   borderopacity="1.0"
   inkscape:pageshadow="2"
   inkscape:pageopacity="0.0"
   inkscape:pagecheckerboard="0"
   inkscape:document-units="mm"
   showgrid="false"
   units="px"
   width="116px"
   inkscape:zoom="4.0492263"
   inkscape:cx="85.201462"
   inkscape:cy="74.70563"
   inkscape:window-width="1852"
   inkscape:window-height="1016"
   inkscape:window-x="68"
   inkscape:window-y="27"
   inkscape:window-maximized="1"
   inkscape:current-layer="Camada_x0020_1" />
 <defs
   id="defs4">
  <style
   type="text/css"
   id="style2">
   <![CDATA[
    .fil1 {fill:#A0384A}
    .fil0 {fill:#E58939}
   ]]>
  </style>
 </defs>
 <g
   id="Camada_x0020_1"
   inkscape:label="Camada 1"
   inkscape:groupmode="layer">
  <metadata
   id="CorelCorpID_0Corel-Layer" />
  <g
   id="_252315200"
   transform="matrix(0.12192804,0,0,0.12192804,-2.5297977,1.9051272)"
   style="fill:#ffffff;stroke-width:8.20156">
   <path
   id="_252174416"
   class="fil0"
   d="m 41.5862,65.0864 h 49.0251 c 7.7841,0 14.1701,6.4157 14.1701,14.2479 v 48.9304 c 0,7.8217 -6.386,14.2241 -14.1701,14.2241 H 46.8548 v -6.4503 h 43.3508 c 4.6387,0 8.1247,-3.5279 8.1247,-8.1097 V 79.7033 c 0,-4.6387 -3.486,-8.1666 -8.1247,-8.1666 H 41.995 c -4.6386,0 -8.1619,3.5279 -8.1619,8.1666 v 28.6513 c -2.1771,1.9264 -4.3597,3.9876 -6.1313,6.2983 -0.0967,0.1238 -0.1878,0.2452 -0.3145,0.3667 V 79.3343 c 0,-7.8322 6.4133,-14.2479 14.1989,-14.2479 z"
   style="fill:#ffffff;stroke-width:8.20156" />
   <path
   id="_252173720"
   class="fil1"
   d="M 38.6713,76.4509 C 52.7354,77.0478 65.9301,89.037 66.0839,103.4732 66.303,87.6874 80.8697,76.8696 93.4999,76.371 v 17.8837 c -9.1263,0.2751 -20.3528,-0.1 -27.416,9.5289 -30.1724,-0.0328 -47.3595,27.4474 -45.1448,51.5995 h 19.3506 c -2.762,-19.4356 4.5984,-45.4684 25.7942,-51.5995 15.663,0 26.6035,14.8029 27.4488,27.3385 H 75.6799 c -0.2514,-9.8713 -0.6553,-20.832 -9.596,-27.3385 -6.8124,-9.3097 -17.129,-9.1928 -27.4126,-9.4464 z"
   style="fill:#ffffff;stroke-width:8.20156" />
   <path
   id="_252174704"
   class="fil1"
   d="m 191.042,119.992 v 0 c -0.2982,-0.0651 -0.8208,-0.1734 -1.2439,-0.1734 -1.9766,0 -3.5454,0.5989 -4.3588,2.4953 -0.2886,0.5854 -0.4598,1.4359 -0.5336,2.0869 -0.1388,1.1371 -0.0913,2.5167 0.2685,3.6016 0.8986,2.1568 3.7171,3.2022 5.8678,2.2628 z m 3.197,-13.243 c 1.0977,0 2.122,0.152 3.2044,0.2668 v 27.6994 c -1.3103,0.4339 -2.6739,0.7332 -4.0458,0.9305 -1.4971,0.2149 -3.0127,0.319 -4.5326,0.319 -2.576,0 -5.4302,-0.6768 -7.3851,-2.4518 -2.879,-2.356 -3.6785,-6.6278 -3.0213,-10.1317 0.2658,-1.4233 0.7064,-2.7122 1.4211,-3.9595 0.6973,-1.1262 1.6692,-2.1741 2.7599,-2.9401 1.1466,-0.7589 2.5111,-1.3885 3.8672,-1.6313 0.7095,-0.1497 1.4688,-0.232 2.2692,-0.232 0.7444,0 1.4862,0.0583 2.2211,0.1733 h 0.0449 v -7.7758 c 1.061,-0.1061 2.1452,-0.2668 3.197,-0.2668 z"
   style="fill:#ffffff;stroke-width:8.20156" />
   <path
   id="_252174560"
   class="fil1"
   d="m 150.269,91.2586 v 0 l -0.1786,-0.0437 c -1.3973,-0.065 -2.8014,-0.31 -4.2148,0.0437 -1.3753,0.3488 -2.3962,1.2409 -2.3962,2.7638 0,1.1545 0.5576,2.2324 1.764,2.5429 1.6273,0.6462 3.3869,0.3079 5.0256,-0.048 z m 0,-4.2048 v 0 c 0,-0.7291 -0.0908,-1.267 -0.2677,-1.7661 -0.1825,-0.4077 -0.4091,-0.7291 -0.6859,-0.9461 -0.3114,-0.2799 -0.7179,-0.4598 -1.2248,-0.5987 -0.4911,-0.1345 -1.1282,-0.1781 -1.8063,-0.1781 -1.1819,0 -2.3752,0.1218 -3.5358,0.4082 -0.3594,0.0887 -0.7226,0.2297 -1.0841,0.3209 l -0.4035,0.1302 -0.2266,-0.3624 c -0.5471,-0.9956 -0.816,-2.1627 -0.816,-3.3062 v -0.4012 c 0.1213,-0.0481 0.2402,-0.0956 0.3637,-0.135 1.4762,-0.451 3.0275,-0.8112 4.5701,-0.8675 1.3982,-0.0415 3.3455,-0.0328 5.0723,0.4078 1.0413,0.3187 1.9487,0.8156 2.6735,1.4535 0.7269,0.6292 1.2688,1.4452 1.6282,2.4906 0.361,0.9959 0.5409,2.1695 0.5409,3.4846 v 12.6831 c -0.6445,0.1218 -1.2898,0.2951 -1.9417,0.3991 -1.2531,0.2061 -2.4918,0.499 -3.762,0.5946 -2.4376,0.1586 -4.7517,0.0673 -7.0575,-0.7723 -0.8654,-0.3428 -1.7063,-0.9807 -2.3172,-1.6749 -0.9374,-1.2561 -1.3998,-2.7359 -1.3998,-4.3043 0,-0.9849 0.2589,-2.2263 0.7685,-3.0764 0.6833,-1.3627 1.9359,-2.4085 3.3074,-3.0311 2.0233,-1.0112 4.6374,-1.0173 6.831,-0.9046 0.2751,0 0.5008,0.03 0.7287,0.0392 h 0.0446 z"
   style="fill:#ffffff;stroke-width:8.20156" />
   <path
   id="_252176768"
   class="fil1"
   d="m 212.717,122.661 v 0 c -0.0436,-0.2996 -0.1044,-0.5793 -0.2235,-0.9374 -0.396,-1.276 -1.5034,-2.0481 -2.8224,-2.0481 -0.8719,0 -1.8202,0.2603 -2.4494,0.8894 -0.6,0.6031 -0.7908,1.3147 -0.9833,2.0961 z m -6.5236,4.8272 v 0 c 0.0895,0.4489 0.1637,0.7595 0.3597,1.1173 0.5642,0.9977 1.3716,1.4969 2.4531,1.7919 0.5846,0.1562 1.384,0.2693 1.9683,0.2693 1.9813,0 3.5728,-0.5164 5.4508,-1.0784 0.3999,0.727 0.7798,1.5188 0.9846,2.3279 0.241,0.9457 0.3537,1.7942 0.3537,2.7684 -2.3342,0.8721 -4.6903,1.3365 -7.1922,1.3365 -1.6103,0 -3.3497,-0.2106 -4.8635,-0.7984 -3.3114,-1.2844 -5.2792,-4.1982 -5.8097,-7.5956 -0.3188,-2.0483 -0.1402,-4.4239 0.489,-6.3939 0.6204,-1.9438 1.7465,-3.558 3.3563,-4.8164 1.7076,-1.3408 3.8868,-1.879 6.0263,-1.879 1.9233,0 3.848,0.4643 5.4063,1.6491 1.4876,1.1433 2.5311,2.5969 3.1275,4.378 0.4969,1.5103 0.5794,3.0222 0.5794,4.6039 0,0.7855 -0.117,1.5534 -0.2693,2.3194 z"
   style="fill:#ffffff;stroke-width:8.20156" />
   <path
   id="_252176192"
   class="fil1"
   d="m 266.304,122.661 v 0 c -0.0454,-0.2996 -0.1149,-0.5793 -0.2253,-0.9374 -0.3974,-1.276 -1.5016,-2.0481 -2.8145,-2.0481 -0.8807,0 -1.8242,0.2603 -2.4556,0.8894 -0.5964,0.6031 -0.792,1.3147 -0.985,2.0961 z m -6.5259,4.8272 v 0 c 0.0909,0.4489 0.1563,0.7595 0.3598,1.1173 0.5598,0.9977 1.3645,1.4969 2.4587,1.7919 0.5789,0.1562 1.3797,0.2693 1.9631,0.2693 1.9809,0 3.5798,-0.5164 5.4499,-1.0784 0.4013,0.727 0.7811,1.5188 0.9854,2.3279 0.2385,0.9457 0.3555,1.7942 0.3555,2.7684 -2.3364,0.8721 -4.6929,1.3365 -7.1903,1.3365 -1.6138,0 -3.3516,-0.2106 -4.8684,-0.7984 -3.311,-1.2844 -5.2784,-4.1982 -5.8098,-7.5956 -0.317,-2.0483 -0.13,-4.4239 0.4899,-6.3939 0.6209,-1.9438 1.7487,-3.558 3.3586,-4.8164 1.7054,-1.3408 3.8859,-1.879 6.021,-1.879 1.9264,0 3.8462,0.4643 5.4085,1.6491 1.4884,1.1433 2.5341,2.5969 3.124,4.378 0.5078,1.5103 0.5838,3.0222 0.5838,4.6039 0,0.7855 -0.1171,1.5534 -0.269,2.3194 z"
   style="fill:#ffffff;stroke-width:8.20156" />
   <path
   id="_252175112"
   class="fil1"
   d="m 150.869,130.819 c 0.6239,0 1.1522,-0.0868 1.5949,-0.3081 1.6597,-0.9222 1.8138,-3.4865 1.8138,-5.1465 0,-0.9199 -0.0371,-1.7703 -0.2131,-2.4711 -0.3663,-1.8463 -1.2753,-3.0134 -3.1956,-3.0134 -1.8723,0 -2.7879,1.2408 -3.1481,3.0134 -0.1275,0.7008 -0.2156,1.5512 -0.2156,2.4711 0,1.6445 0.1532,4.2979 1.8634,5.1465 0.4829,0.2298 1.0837,0.3167 1.5003,0.3081 z m 0,5.1374 v 0 c -1.6378,0 -3.0961,-0.269 -4.3401,-0.8396 -1.1566,-0.54 -2.239,-1.2563 -3.0554,-2.263 -0.8035,-0.9807 -1.4885,-2.1782 -1.8121,-3.4148 -0.475,-1.3147 -0.6248,-2.6684 -0.6248,-4.0746 0,-1.9741 0.3511,-4.2263 1.3754,-5.9771 0.6008,-1.1173 1.4124,-2.1543 2.4368,-2.9226 1.7591,-1.3232 3.8593,-1.8115 6.0202,-1.8115 2.1695,0 4.3002,0.4883 6.0726,1.8115 1.5351,1.1586 2.7381,2.8834 3.2297,4.7343 0.4414,1.332 0.5789,2.7768 0.5789,4.1654 0,1.3887 -0.1375,2.7599 -0.5789,4.0746 -0.3266,1.2366 -1.0134,2.4341 -1.8125,3.4148 -0.8985,0.9894 -1.9233,1.7313 -3.1441,2.263 -1.3644,0.5792 -2.866,0.8396 -4.3457,0.8396 z"
   style="fill:#ffffff;stroke-width:8.20156" />
   <path
   id="_252174392"
   class="fil1"
   d="m 126.993,83.1483 c 0.5859,-0.1302 1.0802,-0.4079 1.4841,-0.7201 0.8658,-0.7592 1.1758,-1.853 1.1758,-2.9703 0,-0.627 -0.0922,-1.2173 -0.3188,-1.6596 -0.475,-0.9545 -1.6464,-1.6404 -2.4734,-1.8509 -0.9654,-0.2405 -1.895,-0.2624 -2.8813,-0.2624 -0.4306,0 -0.8689,0.0804 -1.2994,0.0804 h -0.0956 v 7.6523 c 1.4452,0 3.0049,0.1388 4.4086,-0.2694 z m -4.4086,13.228 v 0 c 0.7706,0.0672 1.6207,0.0977 2.4267,0.0977 0.6108,0 1.8932,-0.1213 2.4801,-0.2279 1.329,-0.2537 2.521,-0.7916 3.2388,-2.0264 0.331,-0.5531 0.4524,-1.3862 0.4524,-2.0241 0,-1.74 -0.8191,-3.2499 -2.4818,-3.9593 -0.9806,-0.4275 -2.3975,-0.5406 -3.4581,-0.5406 h -2.6581 z m -3.2843,-24.5707 c 2.3473,-0.2214 4.8007,-0.3991 7.1541,-0.182 1.2574,0.124 2.5621,0.3711 3.7392,0.8593 1.6028,0.6702 2.842,1.6574 3.6415,3.2021 0.3834,0.7423 0.7627,2.1544 0.7627,3.5515 0,1.5448 -0.4339,3.1136 -1.4377,4.32 -0.4541,0.5488 -0.937,1.0021 -1.5304,1.3972 -0.0891,0.0388 -0.1323,0.0821 -0.2244,0.1301 0.6108,0.2427 1.1933,0.5078 1.7548,0.8549 1.1837,0.744 1.9997,1.8396 2.563,3.1066 0.4496,1.0025 0.6331,2.2346 0.6331,3.3328 0,1.2649 -0.3101,2.8162 -0.9471,3.916 -0.668,1.1519 -1.495,1.9675 -2.6075,2.6949 -2.3302,1.5203 -5.4696,1.8849 -8.1916,1.8849 -2.3704,0 -4.5867,-0.3082 -6.9327,-0.5357 V 72.0833 c 0.5446,-0.1214 1.0628,-0.2188 1.623,-0.2777 z"
   style="fill:#ffffff;stroke-width:8.20156" />
   <path
   id="_251912288"
   class="fil1"
   d="m 161.964,79.6858 c 0.6943,0 1.3348,0.1388 2.0203,0.228 l 0.0454,0.3619 c 0.0935,0.3973 0.1834,0.8942 0.2323,1.5753 l 0.041,0.1782 c 0.0415,-0.0502 0.0847,-0.0978 0.1389,-0.1393 0.2213,-0.2209 0.444,-0.4489 0.6685,-0.6768 0.6422,-0.6379 1.7809,-1.267 2.6555,-1.4797 0.7266,-0.2755 1.567,-0.358 2.3429,-0.358 1.9928,0 4.0423,0.5641 5.3981,2.1154 0.5867,0.7205 0.9959,1.5753 1.3058,2.6058 0.2691,0.9872 0.4005,2.1543 0.4005,3.469 v 12.7315 c -0.8091,0.1625 -1.5933,0.2686 -2.4329,0.2686 -0.8265,0 -1.6099,-0.1061 -2.4224,-0.2686 V 88.5943 c 0,-1.3496 -0.0773,-3.8794 -1.6199,-4.4588 -0.9439,-0.4664 -2.1975,-0.2712 -3.145,0.0502 -2.3102,0.989 -2.9795,3.5838 -2.9795,5.8533 v 10.2581 c -0.7964,0.1538 -1.5688,0.2686 -2.3845,0.2686 -0.8378,0 -1.6486,-0.0974 -2.4668,-0.2686 V 79.9138 c 0.7356,-0.0804 1.446,-0.228 2.2018,-0.228 z"
   style="fill:#ffffff;stroke-width:8.20156" />
   <path
   id="_251912504"
   class="fil1"
   d="m 196.476,97.6346 c 0.2034,0.7095 0.2296,1.4452 0.3144,2.1718 -0.1171,0.0415 -0.2324,0.0825 -0.3559,0.1305 -1.7229,0.6724 -3.5192,0.937 -5.36,0.937 -4.4129,0 -8.2435,-1.9744 -9.762,-6.383 -0.4044,-1.2671 -0.6292,-2.6944 -0.6292,-4.3195 0,-2.0827 0.4449,-4.1807 1.4295,-6.0359 0.9265,-1.716 2.5114,-3.1826 4.3353,-3.9118 0.6247,-0.2689 1.295,-0.4903 2.0175,-0.6292 1.7356,-0.3252 3.528,-0.2755 5.2666,0 0.9427,0.1 1.8758,0.3931 2.7438,0.7598 0,0.6636 0.004,1.3491 -0.1782,1.987 -0.0986,0.7161 -0.3969,1.4278 -0.7235,2.0653 -0.7475,-0.2947 -1.536,-0.5248 -2.3398,-0.6204 -1.4452,-0.1778 -3.169,-0.3188 -4.54,0.2606 -1.4047,0.6615 -2.188,1.9265 -2.6133,3.3799 -0.2256,0.8096 -0.3593,1.7575 -0.3593,2.7447 0,1.1649 0.1337,2.2067 0.4069,3.0135 0.7484,2.4151 2.8673,3.4193 5.219,3.4193 1.4876,0 2.9407,-0.2581 4.3209,-0.8074 0.3344,0.5969 0.5881,1.1912 0.8073,1.8378 z"
   style="fill:#ffffff;stroke-width:8.20156" />
   <path
   id="_251911928"
   class="fil1"
   d="m 208.537,96.7866 c 1.1679,0 2.7205,-0.5252 3.4667,-1.6661 0.7389,-1.1545 1.1728,-2.7861 1.1728,-4.9491 0,-2.1653 -0.4339,-3.8707 -1.1728,-4.9967 -0.7462,-1.1279 -1.9146,-1.6182 -3.4667,-1.6182 -1.5514,0 -2.8735,0.7851 -3.4215,1.6182 -0.9544,1.4753 -1.126,3.2807 -1.126,4.9967 0,1.7294 0.1716,3.4453 1.126,4.9491 0.7528,1.1736 2.0827,1.6661 3.4215,1.6661 z m 0,4.0873 v 0 c -1.444,0 -2.8984,-0.2646 -4.2296,-0.8461 -1.1684,-0.5249 -2.2294,-1.3322 -3.0582,-2.2954 -0.8287,-0.9632 -1.4299,-2.2216 -1.801,-3.4218 -0.4074,-1.3295 -0.5419,-2.7591 -0.5419,-4.1392 0,-1.3885 0.1345,-2.866 0.5419,-4.1894 0.3681,-1.1758 0.964,-2.491 1.801,-3.4149 0.8938,-0.9938 1.8268,-1.794 3.0582,-2.3434 1.3312,-0.5859 2.7856,-0.8571 4.2296,-0.8571 1.4386,0 2.9157,0.2542 4.2304,0.8571 2.4748,1.1435 4.0658,3.2263 4.8675,5.7583 0.4156,1.3622 0.5794,2.7594 0.5794,4.1894 0,0.7418 -0.0489,1.5037 -0.1375,2.2067 -0.1594,1.2557 -0.5817,2.6529 -1.1685,3.7794 -0.5588,1.0758 -1.4504,2.1543 -2.4298,2.8743 -1.0815,0.8007 -2.3726,1.3627 -3.6908,1.6251 -0.6986,0.1301 -1.4417,0.217 -2.2507,0.217 z"
   style="fill:#ffffff;stroke-width:8.20156" />
   <path
   id="_251912096"
   class="fil1"
   d="m 224.531,126.282 c -2.1028,-1.0479 -2.966,-2.8682 -2.9045,-5.0875 0.0869,-3.0788 1.9365,-5.3113 4.868,-6.24 1.56,-0.4075 3.2537,-0.499 4.8658,-0.3602 1.6189,0.1477 3.3327,0.5881 4.8548,1.1587 0,0.8919 -0.1271,1.7749 -0.4004,2.6079 -0.3057,0.8158 -0.5912,1.5662 -0.9794,2.3496 -1.1182,-0.4057 -2.5263,-0.9133 -3.475,-1.0263 -0.8646,-0.1085 -2.0976,-0.1562 -2.8617,0.2606 -0.286,0.1951 -0.4441,0.4556 -0.4441,0.8069 0,0.5793 0.3337,0.7942 0.7999,1.0198 0.269,0.0911 0.4882,0.182 0.8073,0.2712 1.0545,0.3362 2.0745,0.5881 3.2058,0.9872 0.9426,0.3754 1.9145,0.8983 2.5525,1.6489 0.5069,0.5076 0.7828,1.0891 1.0605,1.7313 0.2864,0.7462 0.3602,1.6314 0.3602,2.417 0,0.4901 -0.041,0.9892 -0.13,1.4708 -0.2712,0.998 -0.6615,1.8227 -1.2907,2.6293 -1.9526,2.2306 -4.8103,3.081 -7.6772,3.081 -1.5588,0 -3.2078,-0.1323 -4.6942,-0.625 -0.6287,-0.1865 -1.2409,-0.3901 -1.8678,-0.6247 0.103,-0.8677 0.1899,-1.6836 0.4016,-2.5429 0.193,-0.8546 0.5921,-1.8028 0.9824,-2.5794 0.9244,0.3275 1.8151,0.6466 2.7608,0.8919 1.4256,0.3489 3.3773,0.334 4.2881,-0.1389 0.5716,-0.295 0.9396,-0.6465 0.9396,-1.2107 0,-0.9395 -0.8675,-1.1848 -1.6989,-1.4189 -1.4373,-0.4165 -3.0044,-0.7678 -4.3234,-1.4776 z"
   style="fill:#ffffff;stroke-width:8.20156" />
   <path
   id="_251911880"
   class="fil1"
   d="m 245.569,114.994 h 3.6995 c 0.1711,0.8327 0.3126,1.651 0.3126,2.5077 0,0.8809 -0.1174,1.7641 -0.3126,2.6319 h -3.6995 v 7.1748 c 0,0.5555 0.0261,1.1108 0.1306,1.6596 0.4583,1.1347 0.9111,1.4602 2.1892,1.4602 0.8134,0 1.653,-0.1886 2.4582,-0.3514 0.2729,0.933 0.6156,1.814 0.6156,2.8096 0.152,0.7418 0.009,1.6099 -0.0843,2.3713 l -0.3601,0.0783 c -0.6205,0.1388 -1.1999,0.2688 -1.8291,0.3186 -2.4408,0.3537 -5.584,0.1303 -7.496,-1.6553 -1.3321,-1.154 -2.0006,-3.0308 -2.0006,-5.5715 l -0.0498,-19.5001 c 1.0374,-0.2127 2.1155,-0.2694 3.1691,-0.2694 1.0784,0 2.1918,0.0567 3.2572,0.2694 z"
   style="fill:#ffffff;stroke-width:8.20156" />
   <path
   id="_251912192"
   class="fil1"
   d="m 168.313,114.994 v 0 c 0.3134,0.6206 0.4405,1.3796 0.5881,2.1001 0.0328,-0.0479 0.1799,-0.1779 0.2602,-0.2694 0.7593,-0.7592 1.6012,-1.5206 2.6796,-1.7787 1.3557,-0.4274 2.535,-0.3929 3.8781,0 0.1148,0.7896 0.2245,1.5011 0.2245,2.3169 0,1.1674 -0.0935,2.3043 -0.4039,3.4388 -1.0283,-0.1886 -2.2714,-0.2365 -3.3001,-0.0499 -0.733,0.1478 -1.3709,0.629 -1.8286,1.2018 -0.7758,1.1674 -0.8937,2.53 -0.8937,3.8882 v 9.633 c -1.0458,0.2036 -2.1438,0.3101 -3.2135,0.3101 -1.0943,0 -2.1684,-0.1627 -3.2538,-0.271 V 115.085 c 1.7827,-0.3493 3.9645,-0.3992 5.2631,-0.091 z"
   style="fill:#ffffff;stroke-width:8.20156" />
   <path
   id="_251912624"
   class="fil1"
   d="m 120.444,107.147 c 0.9121,0 1.7946,0.0908 2.6809,0.2624 l 9.6328,15.881 v -15.881 c 1.0698,-0.104 2.0849,-0.2624 3.1677,-0.2624 0.9663,0 1.8727,0.117 2.8106,0.3099 v 27.979 c -0.9103,0.1777 -1.8264,0.3581 -2.7652,0.3581 -0.8972,0 -1.7508,-0.1715 -2.6328,-0.3189 l -9.7241,-15.7905 v 15.7513 c -0.9911,0.1954 -1.9731,0.3581 -2.9908,0.3581 -0.9934,0 -1.9718,-0.1477 -2.9429,-0.3581 v -27.979 c 0.9208,-0.2109 1.8225,-0.3099 2.7638,-0.3099 z"
   style="fill:#ffffff;stroke-width:8.20156" />
   <path
   id="_251912696"
   class="fil1"
   d="m 262.789,96.7866 c 1.1688,0 2.7206,-0.5252 3.4646,-1.6661 0.7505,-1.1545 1.1671,-2.7861 1.1671,-4.9491 0,-2.1653 -0.4166,-3.8707 -1.1671,-4.9967 -0.744,-1.1279 -1.9116,-1.6182 -3.4646,-1.6182 -1.5492,0 -2.8818,0.7851 -3.4109,1.6182 -0.9676,1.4753 -1.1327,3.2807 -1.1327,4.9967 0,1.7294 0.1694,3.4453 1.1327,4.9491 0.7422,1.1736 2.0739,1.6661 3.4109,1.6661 z m 0,4.0873 v 0 c -1.4475,0 -2.9054,-0.2646 -4.2287,-0.8461 -1.165,-0.5249 -2.2281,-1.3322 -3.0617,-2.2954 -0.8239,-0.9632 -1.4251,-2.2216 -1.8006,-3.4218 -0.4122,-1.3295 -0.538,-2.7591 -0.538,-4.1392 0,-1.3885 0.1258,-2.866 0.538,-4.1894 0.3711,-1.1758 0.9676,-2.491 1.8006,-3.4149 0.8986,-0.9938 1.8313,-1.794 3.0617,-2.3434 1.3233,-0.5859 2.7812,-0.8571 4.2287,-0.8571 1.44,0 2.9201,0.2542 4.2326,0.8571 2.473,1.1435 4.0698,3.2263 4.8579,5.7583 0.4253,1.3622 0.579,2.7594 0.579,4.1894 0,0.7418 -0.0389,1.5037 -0.1258,2.2067 -0.1628,1.2557 -0.5838,2.6529 -1.1719,3.7794 -0.5615,1.0758 -1.4487,2.1543 -2.4298,2.8743 -1.0803,0.8007 -2.3709,1.3627 -3.69,1.6251 -0.699,0.1301 -1.4408,0.217 -2.252,0.217 z"
   style="fill:#ffffff;stroke-width:8.20156" />
   <path
   id="_251912768"
   class="fil1"
   d="m 244.533,84.0468 v 0 c -0.6533,-0.2214 -1.3911,-0.3602 -2.0776,-0.4077 -1.6133,-0.1219 -3.0995,0.0475 -4.3727,1.1256 -0.9483,0.792 -1.4496,1.7552 -1.7596,2.931 -0.241,0.9374 -0.3637,1.8792 -0.3637,2.8507 0,1.5841 0.3793,3.5847 1.5788,4.7343 1.116,1.0654 2.6988,1.3972 4.199,1.3972 0.183,0 1.8086,-0.0563 2.7958,-0.2755 z m 2.438,-12.8114 c 0.8366,0 1.5754,0.1061 2.3893,0.2667 v 28.289 c -2.2513,0.6685 -3.6843,0.9046 -5.636,1.0352 -1.4207,0.0908 -2.8302,0.1476 -4.247,-0.048 -1.9544,-0.2515 -3.9021,-0.8894 -5.4129,-2.2041 -1.0326,-0.9008 -1.8203,-2.0264 -2.3434,-3.2935 -0.6243,-1.508 -0.8566,-3.1179 -0.8566,-4.7343 0,-1.5574 0.2279,-3.0524 0.7636,-4.5169 0.4764,-1.3059 1.1868,-2.4883 2.122,-3.5187 0.92,-1.0025 2.0456,-1.7705 3.2957,-2.3002 1.3645,-0.5898 2.7551,-0.7937 4.237,-0.8091 0.3428,-0.0087 2.0901,0.0887 3.2503,0.3581 v -8.2575 c 0.8121,-0.1606 1.6006,-0.2667 2.438,-0.2667 z"
   style="fill:#ffffff;stroke-width:8.20156" />
  </g>
 </g>
</svg>
