<?xml version="1.0" encoding="UTF-8" standalone="no"?>
<svg
   width="116"
   height="116"
   fill="#ffffff"
   version="1.1"
   id="svg4"
   sodipodi:docname="pmmg.svg"
   inkscape:version="1.1.1 (26b7af14f2, 2022-01-19)"
   xmlns:inkscape="http://www.inkscape.org/namespaces/inkscape"
   xmlns:sodipodi="http://sodipodi.sourceforge.net/DTD/sodipodi-0.dtd"
   xmlns="http://www.w3.org/2000/svg"
   xmlns:svg="http://www.w3.org/2000/svg">
  <defs
     id="defs8" />
  <sodipodi:namedview
     id="namedview6"
     pagecolor="#ffffff"
     bordercolor="#666666"
     borderopacity="1.0"
     inkscape:pageshadow="2"
     inkscape:pageopacity="0.0"
     inkscape:pagecheckerboard="0"
     showgrid="false"
     inkscape:zoom="2.430702"
     inkscape:cx="56.773722"
     inkscape:cy="24.889929"
     inkscape:window-width="1852"
     inkscape:window-height="1016"
     inkscape:window-x="68"
     inkscape:window-y="27"
     inkscape:window-maximized="1"
     inkscape:current-layer="svg4" />
  <path
     d="m 64.47,29.99983 -7.47,2.25 0.78,1.75 7.657,-1.78 -0.965,-2.22 z m -64.47,5 v 17 h 6.2 v -6.188 h 3.753 c 9.017,0 9.767,-10.812 0,-10.812 z m 29.006,0 c -12.006,0 -12.008,16.998 0,17 11.992,0 11.992,-17 0,-17 z m 11.994,0 v 17 h 14 v -4.156 h -7.875 v -12.844 z m 17,0 v 17 h 6 v -17 z m 17.723,0 c -11.716,0 -11.717,17 0.527,17 8.385,0 8.686,-6.313 8.686,-6.313 l -5.72,-0.312 c 0,0 -0.114,2.846 -2.81,2.846 -3.994,0 -4.09,-9.532 0.065,-9.532 2.69,0 2.718,3.125 2.718,3.125 L 85,41.59783 c 0,0 0.373,-6.598 -9.278,-6.598 z m 12.277,0 v 17 h 6 v -17 z m 15.313,0 -6.313,17 h 5.063 l 1.156,-3.344 h 5.31 l 1.221,3.344 H 116 l -6.25,-17 h -6.438 z m -74.308,3.72 c 3.847,0 3.795,9.528 0,9.528 -3.805,0 -3.805,-9.53 0,-9.53 z M 6.2,38.87183 v 0.002 h 2.355 c 3.153,0 2.993,3.312 0.123,3.312 h -2.48 v -3.313 z m 99.737,1.252 1.594,4.844 h -3.25 l 1.66,-4.845 z M 0,57.99983 v 17 h 4.656 v -12.125 l 3.844,12.125 h 3.97 l 3.75,-12.22 v 12.22 H 22 v -17 h -8.22 l -2.717,9.156 -2.94,-9.156 z m 25,0 v 17 h 6 v -17 z m 9,0 v 17 h 14 v -4.156 h -7.875 v -12.844 z m 16,0 v 17 h 6 v -17 z m 9,0 v 4.125 h 4.438 v 12.875 h 6.25 v -12.875 H 74 v -4.125 z m 23.313,0 -6.313,17 h 5.03 l 1.157,-3.344 h 5.376 l 1.187,3.344 H 95 l -6.25,-17 H 82.312 Z M 98,58.00183 v 16.998 h 6.25 v -6.53 h 1.813 l 3.062,6.53 H 116 l -3.688,-7.375 c 6.226,-2.19 3.993,-9.623 -3.01,-9.623 z m 6.25,3.623 h 2.906 c 3.12,0 2.982,3.232 0.03,3.252 h -2.936 z m -19.344,1.5 1.625,4.844 h -3.25 l 1.628,-4.847 z M 0,53.99983 v 2 h 116 v -2 z m 0,25.998 v 6.002 h 2.85 c 4.2,0 4.2,-6 0,-6 z m 87,0 v 6.002 h 2 v -2.312 h 0.688 l 1.03,2.312 H 93 l -1.22,-2.594 c 1.75,-0.574 1.8,-3.408 -1.218,-3.408 z m -78,0.002 v 6 h 5 v -1.438 h -3 v -0.968 h 2.438 v -1.344 H 11 v -0.875 h 3 v -1.375 z m 13,0 v 6 h 2 v -4.28 l 1.406,4.28 h 1.188 L 28,81.68683 v 4.313 h 2 v -6 h -3 l -1,3 -1,-3 z m 11,0 v 6 h 2 v -6 z m 5,0 v 6 h 2 v -3.313 l 2.313,3.313 H 44 v -6 h -2 v 2.688 l -2,-2.688 z m 11,0 -2,6 h 1.594 l 0.375,-1.188 h 1.682 l 0.379,1.188 H 53 l -1.97,-6 z m 30,0 v 6 h 5 v -1.438 h -3 v -0.968 h 2.438 v -1.344 H 81 v -0.875 h 3 v -1.375 z m 19,0 -2,6 h 1.594 l 0.375,-1.188 h 1.682 l 0.379,1.188 H 102 l -1.97,-6 z m 7,0 v 6 h 2 v -6 z m -48.625,1.902 c 0.136,2.31 3.37,1.458 3.56,2.38 0.094,0.35 -1.655,0.72 -2.06,-0.374 l -1.875,0.31 c 0.408,2.36 5.784,2.445 6,-0.157 0.01,-2.282 -3.654,-1.645 -3.654,-2.41 0,-0.36 1.365,-0.654 1.78,0.22 l 1.687,-0.438 c -1.02,-2.195 -5.463,-1.724 -5.438,0.472 z m 54,0 c 0.136,2.31 3.37,1.458 3.56,2.38 0.094,0.35 -1.655,0.72 -2.06,-0.374 l -1.875,0.31 c 0.408,2.36 5.784,2.445 6,-0.157 0.01,-2.282 -3.654,-1.645 -3.654,-2.41 0,-0.36 1.365,-0.654 1.78,0.22 l 1.686,-0.438 c -1,-2.215 -5.462,-1.724 -5.437,0.472 z M 70,83.02583 c 0,2.855 3.043,3.76 4.75,2.253 l 0.25,0.654 h 1 v -3.25 h -2.94 v 1.217 h 1.034 c 0,1.084 -2.02,1.25 -1.97,-0.874 0,-2.307 1.81,-1.965 1.903,-0.81 l 1.97,-0.156 c -0.36,-3 -5.997,-2.774 -5.997,0.966 z m 19,-1.746 h 1.063 c 1.074,0 0.935,1.157 0,1.157 H 89 Z m -87,0.07 c 1.336,-0.03 1.836,0.612 1.836,1.68 0,1.39 -0.823,1.618 -1.836,1.618 z m 47.813,0.46 0.5,1.72 h -1 z m 49,0 0.5,1.72 h -1 z"
     id="path2" />
</svg>
