<?xml version="1.0" encoding="UTF-8" standalone="no"?>
<!-- Generator: Adobe Illustrator 25.1.0, SVG Export Plug-In . SVG Version: 6.00 Build 0) -->

<svg
   id="Camada_1"
   x="0px"
   y="0px"
   viewBox="0 0 116 116"
   xml:space="preserve"
   version="1.1"
   sodipodi:docname="sefaz.svg"
   inkscape:version="1.1.2 (b8e25be833, 2022-02-05)"
   width="116"
   height="116"
   xmlns:inkscape="http://www.inkscape.org/namespaces/inkscape"
   xmlns:sodipodi="http://sodipodi.sourceforge.net/DTD/sodipodi-0.dtd"
   xmlns="http://www.w3.org/2000/svg"
   xmlns:svg="http://www.w3.org/2000/svg"><defs
   id="defs13" /><sodipodi:namedview
   id="namedview11"
   pagecolor="#ffffff"
   bordercolor="#666666"
   borderopacity="1.0"
   inkscape:pageshadow="2"
   inkscape:pageopacity="0.0"
   inkscape:pagecheckerboard="0"
   showgrid="true"
   inkscape:zoom="2.8284271"
   inkscape:cx="86.267027"
   inkscape:cy="130.28442"
   inkscape:window-width="1852"
   inkscape:window-height="1016"
   inkscape:window-x="68"
   inkscape:window-y="27"
   inkscape:window-maximized="1"
   inkscape:current-layer="Camada_1"><inkscape:grid
     type="xygrid"
     id="grid1295" /></sodipodi:namedview> <style
   type="text/css"
   id="style2"> .st0{fill:#009EE2;} .st1{fill:#003D7C;} </style>  <g
   id="g1062"
   transform="translate(-27.482354,24.523995)"
   style="fill:#ffffff"><path
     style="fill:#ffffff;stroke-width:1"
     d="M 55.828418,56.539411 C 63.583975,53.88979 69.43012,47.558961 71.458947,39.613005 72.345053,36.142564 72.300313,31.471323 71.349694,28.20472 69.005141,20.148219 62.37545,14.478505 54.609989,13.888922 c -8.333267,-0.632697 -15.555101,5.001627 -16.12397,12.579575 -0.361636,4.81731 2.417376,9.169627 6.573208,10.294565 3.406354,0.922051 7.286635,-1.088675 7.286635,-3.775874 0,-0.648156 -0.298066,-0.642428 -0.728164,0.01398 -0.186633,0.284841 -0.703621,0.754985 -1.148858,1.044764 -0.714476,0.465017 -1.008113,0.526878 -2.501045,0.526878 -1.486598,0 -1.788096,-0.06289 -2.488649,-0.519047 -1.082051,-0.704586 -2.243511,-2.026328 -2.757606,-3.138156 -0.344765,-0.745619 -0.425335,-1.296835 -0.425335,-2.909897 0,-1.762111 0.06365,-2.125904 0.555507,-3.176356 1.254738,-2.679596 3.460658,-4.623607 6.201879,-5.46552 2.041999,-0.62716 4.87008,-0.599359 6.984749,0.06867 8.909793,2.814606 12.337233,13.895589 6.919971,22.372434 -0.855518,1.338712 -3.203094,3.815647 -4.403749,4.646425 -2.483506,1.718418 -5.008607,2.758609 -7.876545,3.244666 -1.904215,0.322722 -5.491695,0.397861 -4.799756,0.100525 0.218908,-0.09407 0.666659,-0.187589 0.995017,-0.207833 0.328358,-0.0202 -0.140928,-0.152162 -1.042857,-0.293151 -3.835282,-0.599548 -7.668962,-2.120821 -10.200816,-4.047878 -1.160883,-0.883577 -1.926145,-1.646621 -5.117625,-5.102789 -0.96442,-1.044407 -2.159523,-3.378151 -2.716269,-5.304212 -0.48352,-1.672744 -0.385517,-2.054441 0.143063,-0.557217 0.771164,2.184332 1.869722,4.278196 3.097965,5.904756 3.887855,5.1487 9.38075,8.010978 15.381078,8.014905 5.251594,0.0038 9.841877,-2.112177 12.895437,-5.943373 1.938587,-2.432279 2.772122,-4.596132 2.922749,-7.587443 0.128213,-2.546028 -0.107809,-3.905955 -1.020873,-5.88215 -0.849677,-1.839012 -2.826699,-3.920061 -4.491202,-4.727511 -3.717142,-1.803189 -7.985926,-0.713724 -9.272977,2.366619 -0.304879,0.729683 -0.378431,2.073947 -0.113469,2.073947 0.09113,0 0.445739,-0.348472 0.788012,-0.774385 1.938648,-2.412393 5.921095,-2.248753 8.220741,0.3378 2.903722,3.265996 2.550699,8.24823 -0.841382,11.874373 -1.421348,1.519427 -3.238217,2.525671 -5.569424,3.084521 -2.998808,0.718896 -5.337467,0.40709 -8.534735,-1.137905 -3.307842,-1.598425 -6.175399,-4.942378 -7.467259,-8.707831 -0.571186,-1.664852 -0.850405,-4.458751 -0.664882,-6.652813 0.363558,-4.299502 2.199942,-8.04933 5.470328,-11.170167 2.773854,-2.647024 5.866867,-4.238157 9.683729,-4.981581 8.968418,-1.7468272 18.221966,2.720629 22.772529,10.994191 1.186755,2.157693 2.298286,5.354459 2.653435,7.631302 0.329095,2.109739 0.278612,6.178225 -0.101231,8.159129 -1.433426,7.475349 -6.213645,14.066096 -12.707657,17.520715 -1.784481,0.949289 -5.302951,2.279661 -6.007279,2.271419 -0.218907,-0.0023 0.139303,-0.188228 0.796011,-0.412582 z M 40.704183,40.189401 C 37.912517,37.949559 36.33653,35.864658 35.348076,33.103733 34.76561,31.4768 34.734095,31.235545 34.734095,28.403726 c 0,-2.574027 0.06426,-3.190553 0.466505,-4.477574 1.133135,-3.625315 3.430342,-6.892807 6.438015,-9.157276 1.584213,-1.192755 3.764351,-2.442822 5.234663,-3.001505 0.829729,-0.315277 0.27192,-0.464219 -0.645026,-0.17223 -4.293417,1.367181 -8.666904,5.092816 -10.676665,9.095126 -1.905636,3.794963 -2.345936,8.440575 -1.141809,12.04734 1.073969,3.216919 2.816695,5.52571 5.535212,7.333161 1.399449,0.930444 1.860873,1.002552 0.759193,0.118633 z m 3.255924,-10.109505 c -0.383232,-1.515477 -0.399593,-1.799262 -0.171152,-2.969412 0.44908,-2.30036 1.516852,-3.793733 3.958147,-5.535805 0.702557,-0.501333 1.181315,-0.943539 1.063912,-0.982674 -0.470668,-0.156886 -2.778214,1.249923 -3.854652,2.350007 -1.79096,1.830315 -2.531884,4.404653 -1.89191,6.573459 0.318347,1.078823 1.06648,2.49294 1.231556,2.327872 0.04831,-0.04831 -0.10285,-0.84186 -0.335901,-1.763447 z m 6.935717,-2.496822 c 1.434238,-0.433516 1.655797,-0.612644 0.970512,-0.784647 -1.206033,-0.302691 -2.524805,0.226291 -3.363011,1.348974 -0.605307,0.810739 -0.219219,1.065796 0.567593,0.374967 0.370356,-0.325176 1.191562,-0.74786 1.824906,-0.939294 z m -7.470868,21.973191 c -0.583157,-0.106161 -1.019005,-0.234297 -0.968553,-0.284749 0.104331,-0.104323 2.725346,0.324567 2.725346,0.445966 0,0.111106 -0.525974,0.06282 -1.756793,-0.161217 z"
     id="path994"
     sodipodi:nodetypes="ssssssssssssssssssssssssssssssssssssssssssssssssssssssssssssssssssssssssssssss" /><path
     style="fill:#ffffff;stroke-width:1"
     d="m 82.747257,42.779926 c -1.31265,-0.361689 -2.38365,-1.128144 -3.111183,-2.226512 -0.655804,-0.990095 -0.999575,-2.193995 -0.705406,-2.470383 0.09581,-0.09001 0.549454,-0.224619 1.008113,-0.299129 l 0.833922,-0.135475 0.230598,0.856388 c 0.290986,1.080639 1.266474,2.018982 2.440657,2.347736 2.291989,0.641714 4.317535,-0.974418 4.317535,-3.444857 0,-1.774076 -0.723568,-2.499185 -3.813649,-3.821798 -2.099865,-0.898777 -3.24055,-1.713363 -3.821063,-2.72869 -0.669607,-1.171149 -0.782673,-2.060179 -0.41812,-3.28774 1.03318,-3.479105 6.104567,-4.559666 8.75975,-1.86644 0.486809,0.493782 0.885103,0.956093 0.885103,1.027357 0,0.07127 -0.365935,0.335239 -0.813185,0.58661 l -0.813193,0.457038 -0.629583,-0.607192 c -1.168236,-1.126691 -2.651422,-1.339904 -4.012633,-0.576825 -1.112641,0.623732 -1.626492,1.698381 -1.312771,2.745475 0.288942,0.964427 1.036392,1.539277 3.103799,2.38708 2.831416,1.161107 3.888994,1.958472 4.601464,3.469301 0.926821,1.965361 0.458112,4.461955 -1.137176,6.057243 -1.36118,1.36118 -3.792995,2.026768 -5.592979,1.530813 z m 9.882789,-0.370584 c -0.05325,-0.138801 -0.07345,-4.192624 -0.04489,-9.008499 l 0.05188,-8.756135 4.825826,-0.05329 4.825828,-0.05329 v 0.998554 0.998553 H 98.507633 94.72657 v 2.58255 2.582551 l 3.63181,0.05424 3.6318,0.05424 v 0.895514 0.895513 l -3.6318,0.05424 -3.63181,0.05424 v 3.473672 3.473671 l 3.731309,0.05416 3.731311,0.05416 v 0.895518 0.89551 l -4.731189,0.0534 c -3.676945,0.04147 -4.752753,-0.003 -4.827984,-0.198999 z m 12.601784,-0.0038 c -0.0465,-0.136811 -0.0735,-4.18901 -0.0601,-9.004885 l 0.0245,-8.756136 4.31732,-0.05363 4.31733,-0.05362 v 0.993967 0.993966 l -3.2338,0.05468 -3.2338,0.05468 v 2.487539 2.487538 l 3.14499,0.05486 3.14499,0.05486 -0.0605,0.940158 -0.0605,0.940156 -3.08454,0.0995 -3.08455,0.0995 -0.0536,4.427818 -0.0536,4.427816 h -0.96992 c -0.59819,0 -1.00231,-0.09534 -1.05443,-0.248752 z m 8.20106,0.07759 c 0,-0.160009 0.66024,-1.633313 2.33118,-5.20191 0.38437,-0.820888 1.30624,-2.835794 2.0486,-4.47757 1.94461,-4.300613 3.98361,-8.728234 4.05016,-8.794779 0.10738,-0.107386 8.48532,18.093823 8.48532,18.434509 0,0.120692 -0.4296,0.210925 -1.00427,0.210925 -0.88795,0 -1.04008,-0.06335 -1.31345,-0.547259 -0.17004,-0.300997 -1.57817,-3.399662 -3.12916,-6.885938 -1.551,-3.486273 -2.89106,-6.351918 -2.97791,-6.368098 -0.0869,-0.01618 -0.47371,0.68699 -0.85968,1.562603 -0.38596,0.875615 -0.88534,1.995007 -1.10971,2.487539 -0.22438,0.492533 -1.14554,2.552214 -2.04703,4.577071 -2.55475,5.738271 -2.18221,5.174082 -3.41639,5.174082 -0.58171,0 -1.05766,-0.07703 -1.05766,-0.171175 z m 17.51227,-0.02408 c 0,-0.107377 1.06279,-2.055117 2.36175,-4.328316 5.57156,-9.750311 6.39438,-11.217445 6.39438,-11.401505 0,-0.119621 -1.49021,-0.194198 -3.88055,-0.194198 h -3.88057 v -0.995015 -0.995015 h 5.67159 c 3.11938,0 5.67051,0.06716 5.66919,0.149252 -0.002,0.08209 -0.21022,0.507458 -0.46423,0.945264 -2.30866,3.979198 -8.48851,14.843695 -8.48851,14.923247 0,0.05583 2.05969,0.101482 4.57707,0.101482 h 4.57707 v 0.995018 0.995017 h -6.26859 c -3.96563,0 -6.2686,-0.07171 -6.2686,-0.195231 z"
     id="path955"
     sodipodi:nodetypes="sssscssssssssscssssssssscccccccccccccccccccccsssscccccccccccccccccssssssssssssssssssssscccscssscccsss" /></g></svg>
