<svg width="72" height="72" xmlns="http://www.w3.org/2000/svg"><g transform="translate(-72) scale(.36)"><circle cx="300" cy="100" r="100" fill="#fff"/><path d="M200.715 110A100 100 0 00300 200a100 100 0 0099.285-90z" fill="#2d8d9d"/><circle cx="300" cy="100" r="99.5" opacity=".15" fill="none" stroke="#000" stroke-linejoin="bevel"/></g><path style="-inkscape-font-specification:'OpenSymbol Bold'" d="M30.887 13.2c-1.05-.002-1.75 1.16-1.186 1.966.116.165.555.446.975.625.952.405 1.27.68 1.27 1.1 0 .712-.932 1.131-1.628.732-.886-.508-1.264-.224-.527.397.803.675 2.192.41 2.668-.512.473-.916-.039-1.803-1.252-2.166-.563-.169-1.139-.598-1.139-.85 0-.476 1.137-.95 1.371-.572.115.186.75.19.864.004.143-.231-.82-.724-1.416-.725zm8.146.007c-.418.034-.69.312-.804.824-.1.444-.208.612-.397.612-.165 0-.262.106-.262.289 0 .192.097.287.29.287h.288v3.174h.722v-3.174h.505c.409 0 .504-.054.504-.287 0-.235-.095-.29-.514-.29h-.515l.046-.396c.039-.33.123-.406.514-.443.573-.056.63-.413.088-.55a1.433 1.433 0 00-.465-.046zm2.094.016c-.24-.01-.377.3-.379.879-.002.444-.054.54-.291.54-.192 0-.289.097-.289.29 0 .192.097.287.289.287h.29v1.267c0 .913.062 1.355.224 1.586.235.336.953.439 1.343.192.3-.19.056-.448-.423-.448h-.424v-2.598h.504c.408 0 .506-.053.506-.286 0-.234-.098-.29-.506-.29h-.504v-.654c0-.466-.066-.679-.23-.742a.346.346 0 00-.11-.023zm3.687 1.35c-.855.004-1.678.602-1.855 1.695-.106.654.293 1.497.877 1.853.538.328 1.39.351 1.967.053.73-.378.377-.765-.44-.48-.532.185-1.064.068-1.447-.315-.596-.596-.402-.717 1.14-.717 1.74 0 1.977-.152 1.526-.976-.417-.762-1.102-1.117-1.768-1.114zm-9.623.001c-.634 0-1.268.327-1.666.979-.517.848-.232 2.034.612 2.549 1.71 1.043 3.745-.865 2.718-2.55-.397-.65-1.03-.978-1.664-.978zm12.172.069l.479.652c.776 1.06.763 1.031.584 1.393-.092.184-.403.644-.692 1.021l-.523.684h.371c.274 0 .522-.19.945-.725.316-.4.6-.74.633-.758.033-.017.331.31.66.727.44.556.696.756.963.756h.365l-.656-.92c-.795-1.115-.794-1.081-.084-2.01l.572-.748-.318-.05c-.233-.038-.476.13-.906.626l-.586.676-.543-.662c-.381-.465-.65-.662-.902-.662h-.362zm-12.185.576c1.345 0 1.828 1.778.648 2.388-.5.26-.815.257-1.3-.007-1.14-.62-.657-2.381.652-2.381zm9.59.006c.323-.016.662.077.935.293.21.164.381.36.381.433 0 .074-.555.135-1.232.135h-1.23l.151-.287c.19-.356.58-.555.995-.574zm-7.198 8.98c-1.278 0-2.257.284-2.94.852-.68.568-1.02 1.38-1.02 2.435 0 .843.242 1.513.73 2.01.492.497 1.27.859 2.33 1.086l1.057.234c.643.142 1.074.305 1.287.485.217.18.326.434.326.765 0 .37-.16.655-.477.854-.317.199-.774.297-1.37.297-.588 0-1.198-.09-1.833-.27a10.475 10.475 0 01-1.959-.816v2.308c.677.251 1.354.44 2.031.569a10.96 10.96 0 002.024.191c1.425 0 2.482-.285 3.174-.853.696-.573 1.045-1.444 1.045-2.614 0-.89-.25-1.575-.746-2.058-.498-.483-1.335-.844-2.514-1.08l-1.164-.235c-.554-.113-.938-.248-1.15-.404a.797.797 0 01-.313-.668c0-.379.154-.658.467-.838.312-.18.796-.27 1.449-.27.492 0 1.016.067 1.57.2a9.7 9.7 0 011.703.59V24.73a15.927 15.927 0 00-1.91-.39 12.422 12.422 0 00-1.797-.135zm-27.802.191v10.602h2.591v-7.754l2.444 7.754h1.732l2.444-7.754v7.754h2.584V24.396H18.09l-2.428 5.674-2.414-5.674h-3.48zm13.972 0v10.602h2.735V31.32h1.804c1.35 0 2.382-.298 3.102-.894.724-.601 1.088-1.458 1.088-2.57 0-1.108-.364-1.96-1.088-2.557-.72-.601-1.752-.903-3.102-.903H23.74zm2.735 1.981h1.511c.53 0 .94.13 1.229.385.289.255.433.62.433 1.093 0 .474-.144.84-.433 1.1-.289.256-.698.383-1.229.383h-1.511v-2.961z" font-weight="700" font-size="14.544" font-family="OpenSymbol" letter-spacing="-.5"/><path d="M47.415 28.5q.646 0 .98-.283.333-.284.333-.838 0-.547-.333-.831-.334-.291-.98-.291h-1.513V28.5zm.092 4.638q.824 0 1.236-.348.419-.348.419-1.05 0-.69-.412-1.03-.412-.349-1.243-.349h-1.605v2.777zm2.542-3.813q.88.255 1.364.944.483.689.483 1.69 0 1.534-1.037 2.287-1.037.753-3.153.753h-4.538V24.396h4.105q2.208 0 3.195.668.994.667.994 2.137 0 .774-.362 1.321-.362.54-1.05.803zm7.589-.228q.859 0 1.228-.32.377-.319.377-1.05 0-.725-.377-1.037-.37-.312-1.228-.312h-1.15v2.72zm-1.15 1.89v4.012h-2.735V24.396h4.176q2.095 0 3.068.703.98.703.98 2.223 0 1.051-.512 1.726-.504.674-1.526.994.56.128 1 .582.448.448.903 1.364l1.484 3.01h-2.912l-1.292-2.634q-.39-.795-.795-1.087-.398-.29-1.066-.29z" aria-label="BR" font-weight="700" font-size="14.544" font-family="OpenSymbol" letter-spacing="-.5" fill="#218f3d"/><path style="-inkscape-font-specification:'OpenSymbol Bold'" d="M25.479 43l-.977 1.3h.967l1.404-1.3zM16.3 45v7.357h1.798v-5.046l2.675 5.046h2.12V45h-1.8v5.047L18.419 45h-2.117zm8.098 0v7.357h1.897V45zm2.532 0l2.724 7.357h2.262L34.641 45h-1.907l-1.947 5.43L28.836 45zm8.34 0v7.357h5.228v-1.433h-3.332v-1.686h3.031v-1.433h-3.031v-1.371h3.223V45h-5.12zm6.546 0v7.357h5.227v-1.433h-3.33V45zM38.03 58c-.558 0-.986.123-1.284.371-.297.248-.445.604-.445 1.065 0 .367.105.66.318.877.215.216.553.373 1.016.472l.463.104c.28.062.467.132.56.21.095.08.143.19.143.335a.413.413 0 01-.207.37c-.139.087-.34.132-.6.132-.256 0-.522-.04-.799-.118a4.55 4.55 0 01-.855-.357v1.008c.295.11.591.192.887.248.295.056.589.084.882.084.622 0 1.084-.125 1.385-.373.304-.25.457-.63.457-1.14 0-.39-.11-.689-.326-.9-.217-.21-.583-.367-1.098-.47l-.507-.102c-.242-.05-.41-.11-.502-.177a.347.347 0 01-.137-.291c0-.166.069-.287.205-.366.136-.078.348-.117.633-.117.215 0 .442.028.683.086.242.058.49.144.744.258v-.98a6.952 6.952 0 00-.834-.17A5.407 5.407 0 0038.03 58zm2.357.084l1.1 4.627h2.022l1.09-4.627h-1.133l-.8 3.361h-.338l-.799-3.361z" font-weight="700" font-size="10.091" font-family="OpenSymbol" letter-spacing="-.347" fill="#fff"/><circle cx="23.5" cy="15.5" r="2.375" fill="none" stroke="#000" stroke-width=".25" stroke-linejoin="bevel"/><circle cx="25.5" cy="14.5" r="2.375" fill="none" stroke="#000" stroke-width=".25" stroke-linejoin="bevel"/><circle cx="25.5" cy="16.5" r="2.375" fill="none" stroke="#000" stroke-width=".25" stroke-linejoin="bevel"/><text style="line-height:1.25;-inkscape-font-specification:'sans-serif Bold'" x="50.222" y="52.357" font-weight="700" font-size="10.092" font-family="sans-serif" fill="#fff"><tspan x="50.222" y="52.357">F</tspan></text><path d="M35 61c0 2.757-2.243 5-5 5a5.016 5.016 0 01-3.333-1.283V66h-.834v-2.083c0-.46.374-.834.834-.834h2.083v.834h-1.718A4.182 4.182 0 0030 65.167 4.171 4.171 0 0034.167 61zm-5-4.167c1.12 0 2.19.462 2.967 1.25H31.25v.834h2.083c.46 0 .834-.374.834-.834V56h-.834v1.283A5.016 5.016 0 0030 56c-2.757 0-5 2.243-5 5h.833A4.171 4.171 0 0130 56.833zm2.374 3.28l-.59.34c.054.175.091.356.091.547 0 .192-.037.373-.09.548l.59.34-.417.722-.588-.34c-.252.272-.58.47-.953.555v.675h-.834v-.675a1.867 1.867 0 01-.953-.554l-.588.339-.416-.723.59-.34a1.844 1.844 0 01-.091-.547c0-.191.037-.373.09-.547l-.59-.34.417-.722.588.339c.252-.272.58-.469.953-.554V58.5h.834v.676c.373.085.702.282.953.554l.588-.339zM30.625 61a.626.626 0 10-1.252.002.626.626 0 001.252-.002z" fill="#fff"/></svg>