<svg width="80" height="80" xmlns="http://www.w3.org/2000/svg"><path d="M0 50.99l.656-1.803a2199.501 2199.501 0 001.766-4.861l1.046-2.885.686-1.891.609-1.684 2.665 2.662a373.152 373.152 0 002.649 2.632 4.875 4.875 0 00-.157-.218c-.752-1.003-1.16-2.071-1.184-3.092-.04-1.793.855-3.482 2.393-4.512a5.392 5.392 0 012.941-.912c.53 0 1.36.153 2.026.375 1.076.358 1.868.869 2.525 1.63l.086.1-.066-.097a7.912 7.912 0 00-.826-.962c-.34-.34-.403-.4-.603-.564-1.688-1.389-3.96-2.031-6.234-1.765-2.188.256-4.118 1.37-5.473 3.16a9.086 9.086 0 00-.247.34.909.909 0 01-.083.114.435.435 0 01.032-.103l2.457-6.773.325-.9 8.47-.004c4.658-.003 8.47 0 8.47.008 0 .015-.04.123-1.12 3.1a5150.785 5150.785 0 00-2.095 5.77 2863.5 2863.5 0 00-1.33 3.665c-.043.114-.333.912-.645 1.774l-.568 1.568-2.668-2.664a329.068 329.068 0 00-2.639-2.622l.208.307c.59.861.896 1.598 1.039 2.496.033.211.033.994 0 1.226a5.835 5.835 0 01-.311 1.268 5.326 5.326 0 01-3.595 3.267c-.576.154-1.193.208-1.7.148-.983-.114-1.836-.36-2.606-.75a5.033 5.033 0 01-1.573-1.228c-.104-.117-.094-.1.096.153.313.42.843.977 1.248 1.313a7.89 7.89 0 002.92 1.547c.392.112.665.17 1.18.25.227.034.776.068 1.12.068 2 0 3.811-.653 5.314-1.916a8.775 8.775 0 001.56-1.765c.012-.014-.207.598-.476 1.33l-.714 1.97-.639 1.764H8.461c-8.063 0-8.474 0-8.46-.034zm25.037-1.37c-1.1-.102-2.051-.379-3.092-.9a9.262 9.262 0 01-.442-.23c-.035-.026-.028-.048.141-.46a756.452 756.452 0 00.981-2.403l.035-.092.28.183c.71.467 1.178.688 1.771.835.183.046.25.052.553.053.32.001.355-.002.465-.046.252-.1.37-.227.396-.43.026-.199-.1-.367-.376-.5-.206-.1-.397-.156-.94-.277-.244-.055-.52-.122-.612-.15-.819-.25-1.43-.694-1.785-1.296-.254-.432-.368-.89-.368-1.48 0-.785.188-1.45.579-2.034.14-.21.231-.32.447-.534a3.7 3.7 0 01.97-.714 4.675 4.675 0 011.481-.458c1.395-.197 2.83.066 4.216.772.16.082.212.117.205.141-.005.018-.202.495-.439 1.06a557.833 557.833 0 00-.655 1.566l-.037.084-.224-.15c-.513-.342-1.047-.564-1.546-.641-.203-.032-.687-.015-.821.028-.274.087-.4.253-.385.509.004.08.162.241.328.333.215.118.655.266 1.058.355.343.076.84.202.97.246.438.147.795.37 1.124.702.326.327.514.628.649 1.034.207.625.187 1.538-.048 2.247-.4 1.203-1.516 2.17-2.887 2.5a6.369 6.369 0 01-.727.13c-.228.028-1.034.039-1.265.017zm48.828 0a5.703 5.703 0 01-2.895-1.072c-.955-.708-1.632-1.668-1.946-2.759a5.48 5.48 0 01-.22-1.493c-.04-1.39.353-2.626 1.15-3.626a6.81 6.81 0 01.902-.88c.965-.743 2.084-1.127 3.395-1.163 1.453-.04 2.788.412 3.875 1.311.167.138.548.528.696.713.473.59.842 1.34 1.02 2.076.273 1.138.189 2.465-.224 3.49-.295.734-.64 1.251-1.216 1.824-.925.922-2.118 1.457-3.519 1.58a7.328 7.328 0 01-1.018-.002zm.836-3.526c.36-.058.63-.188.876-.42.415-.391.62-.983.583-1.684-.05-.95-.51-1.593-1.296-1.812-.174-.048-.65-.057-.853-.017-.654.133-1.155.641-1.321 1.34-.09.38-.088.91.007 1.28.24.942 1.044 1.469 2.004 1.313zM30.936 44.11v-5.257h6.995v2.846h-3.32V42.725H37.634v2.688H34.611v1.106h3.419v2.846h-7.094zm8.022 0v-5.257l2.475.003c2.735.003 2.955.01 3.532.108.612.104 1.176.317 1.623.613.26.172.636.54.793.778.29.44.464.938.53 1.52.036.314.014 1.005-.04 1.257-.118.55-.319.952-.65 1.299-.321.336-.659.52-1.135.62a2.9 2.9 0 00-.168.038c-.003.002.209.332.471.733a4744.872 4744.872 0 011.234 1.884 106.348 106.348 0 011.074 1.643c.004.01-.926.015-2.1.012l-2.107-.005-.913-1.725-.913-1.724-.005 1.73-.005 1.73H38.959v-5.257zm4.633-.524c.415-.088.682-.354.752-.752a1.066 1.066 0 00.001-.468c-.067-.376-.268-.614-.624-.74-.14-.05-.173-.053-.607-.061l-.46-.009v2.06l.4-.001c.276 0 .444-.009.538-.03zm5.722.523v-5.256l2.386.003c1.312.002 2.524.01 2.692.02 2.316.134 3.52.955 3.881 2.646.087.409.101.57.1 1.175 0 .614-.018.8-.12 1.219-.063.266-.11.398-.223.638-.27.568-.632.936-1.207 1.225-.24.12-.386.175-.687.258-.604.166-.998.206-2.154.22l-.914.012v3.097h-3.754v-5.257zm4.841-.631c.372-.108.582-.332.636-.68.059-.378-.113-.724-.44-.885-.24-.118-.35-.135-.849-.135h-.414v1.763l.46-.01c.393-.009.48-.016.607-.053zm5.098.631v-5.256l2.475.003c2.385.003 2.769.01 3.177.057 1.017.12 1.799.444 2.373.984.485.455.785 1.06.91 1.832.036.219.036 1.08 0 1.264-.13.67-.32 1.07-.693 1.46-.3.312-.665.507-1.117.598a1.635 1.635 0 00-.166.038c-.004.004.094.16.218.349.123.188.296.45.382.584l.513.784c.898 1.37 1.164 1.777 1.41 2.15l.262.4-2.1.005a75.659 75.659 0 01-2.113-.01c-.008-.008-.372-.69-.808-1.516l-.91-1.72-.117-.217-.002.089-.003 1.734v1.645h-3.691v-5.257zm4.76-.558c.324-.116.525-.325.607-.631a1.913 1.913 0 000-.646c-.09-.334-.301-.55-.656-.667-.074-.024-.206-.034-.556-.041-.412-.01-.46-.006-.46.022a225.186 225.186 0 000 1.99c0 .041.004.042.46.034.436-.008.467-.011.605-.06z" fill="#fff"/><path d="M-691.25 480.987c6.08-16.898 49.879-137.438 97.333-267.866 47.454-130.429 95.046-261.572 105.76-291.429 10.713-29.857 20.94-58.074 22.727-62.703l3.249-8.418 134.143 134.12c73.779 73.767 134.143 133.212 134.143 132.1 0-1.112-7.085-12.426-15.744-25.144-20.206-29.673-28.034-45.307-38.983-77.849-10.703-31.812-13.987-76.924-8.209-112.788 10.157-63.05 48.603-127.284 99.25-165.822 83.176-63.293 173.086-75.03 276.896-36.148 42.302 15.844 67.459 31.066 95.936 58.05 13.912 13.184 25.981 23.285 26.82 22.447 2.563-2.564-39.763-51.068-60.61-69.456-31.804-28.053-50.177-40.666-84.856-58.255-61.077-30.979-107.72-42.592-180.5-44.942-41.404-1.337-53.819-.671-84.139 4.512-85.649 14.644-155.222 49.928-214.663 108.867-15.056 14.93-32.842 33.572-39.525 41.43-6.682 7.856-11.594 12.356-10.914 10 .68-2.358 31.209-86.894 67.843-187.858l66.607-183.572h426.987c405.495 0 426.889.252 425.03 5-1.076 2.75-15.883 43.572-32.905 90.715-82.206 227.673-252.071 694.434-253.8 697.4-1.207 2.07-52.545-46.484-134.806-127.496C58.748-6.08-1.402-64.598-1.847-64.157c-.446.441 5.876 11.58 14.048 24.754C33.742-4.679 45.103 20.801 53.465 53.145c6.534 25.27 7.222 32.483 5.997 62.833-2.857 70.79-28.988 131.554-77.496 180.207-62.924 63.113-144.357 89.104-231.447 73.87-70.755-12.376-132.4-42.298-172.316-83.641-8.275-8.571-15.661-14.968-16.414-14.215-2.622 2.622 36.304 46.797 60.796 68.992 124.278 112.624 312.935 136.53 466.336 59.094 48.902-24.686 106.805-72.816 138.47-115.1 4.446-5.935 8.493-10.381 8.994-9.88.501.501-18.162 53.572-41.473 117.935l-42.385 117.023-427.415.724-427.415.724z" fill="none"/></svg>