<svg width="80" height="80" xmlns="http://www.w3.org/2000/svg"><path d="M-691.25 480.987c6.08-16.898 49.879-137.438 97.333-267.866 47.454-130.429 95.046-261.572 105.76-291.429 10.713-29.857 20.94-58.074 22.727-62.703l3.249-8.418 134.143 134.12c73.779 73.767 134.143 133.212 134.143 132.1 0-1.112-7.085-12.426-15.744-25.144-20.206-29.673-28.034-45.307-38.983-77.849-10.703-31.812-13.987-76.924-8.209-112.788 10.157-63.05 48.603-127.284 99.25-165.822 83.176-63.293 173.086-75.03 276.896-36.148 42.302 15.844 67.459 31.066 95.936 58.05 13.912 13.184 25.981 23.285 26.82 22.447 2.563-2.564-39.763-51.068-60.61-69.456-31.804-28.053-50.177-40.666-84.856-58.255-61.077-30.979-107.72-42.592-180.5-44.942-41.404-1.337-53.819-.671-84.139 4.512-85.649 14.644-155.222 49.928-214.663 108.867-15.056 14.93-32.842 33.572-39.525 41.43-6.682 7.856-11.594 12.356-10.914 10 .68-2.358 31.209-86.894 67.843-187.858l66.607-183.572h426.987c405.495 0 426.889.252 425.03 5-1.076 2.75-15.883 43.572-32.905 90.715-82.206 227.673-252.071 694.434-253.8 697.4-1.207 2.07-52.545-46.484-134.806-127.496C58.748-6.08-1.402-64.598-1.847-64.157c-.446.441 5.876 11.58 14.048 24.754C33.742-4.679 45.103 20.801 53.465 53.145c6.534 25.27 7.222 32.483 5.997 62.833-2.857 70.79-28.988 131.554-77.496 180.207-62.924 63.113-144.357 89.104-231.447 73.87-70.755-12.376-132.4-42.298-172.316-83.641-8.275-8.571-15.661-14.968-16.414-14.215-2.622 2.622 36.304 46.797 60.796 68.992 124.278 112.624 312.935 136.53 466.336 59.094 48.902-24.686 106.805-72.816 138.47-115.1 4.446-5.935 8.493-10.381 8.994-9.88.501.501-18.162 53.572-41.473 117.935l-42.385 117.023-427.415.724-427.415.724z" fill="none"/><path d="M0 30.66v1.037h17.64V30.66H0zm37.188 2.06a7.7 7.7 0 00-2.848.54A6.875 6.875 0 0032 34.756a6.596 6.596 0 00-1.531 2.32 7.8 7.8 0 00-.532 2.897c0 1.054.173 2.022.518 2.906a6.686 6.686 0 001.525 2.33 6.836 6.836 0 002.344 1.514c.91.36 1.866.539 2.864.539.74 0 1.49-.112 2.246-.336a8.942 8.942 0 002.15-.961v-1.477a7.593 7.593 0 01-2.137 1.203 6.782 6.782 0 01-2.316.407c-.816 0-1.58-.145-2.293-.436a5.659 5.659 0 01-1.897-1.267 5.494 5.494 0 01-1.248-1.952c-.273-.732-.41-1.555-.41-2.47 0-1.824.558-3.304 1.672-4.44 1.114-1.136 2.563-1.705 4.346-1.705.79 0 1.544.142 2.26.426.715.284 1.415.723 2.1 1.316l.017-1.392a6.51 6.51 0 00-2.047-1.092 7.89 7.89 0 00-2.444-.365zm6.476 0v14.542h7.176v-1.24h-5.86v-6.268h5.86v-1.242h-5.86v-4.55h5.86v-1.241h-7.176zm31.846 0a7.71 7.71 0 00-2.85.54 6.875 6.875 0 00-2.34 1.496 6.591 6.591 0 00-1.529 2.32 7.797 7.797 0 00-.531 2.897c0 1.054.172 2.022.517 2.906a6.686 6.686 0 001.526 2.33 6.836 6.836 0 002.343 1.514c.91.36 1.866.539 2.864.539.74 0 1.487-.112 2.244-.336a8.955 8.955 0 002.152-.961v-1.477a7.593 7.593 0 01-2.136 1.203 6.783 6.783 0 01-2.317.407c-.816 0-1.58-.145-2.293-.436a5.659 5.659 0 01-1.896-1.267 5.494 5.494 0 01-1.248-1.952c-.273-.732-.41-1.555-.41-2.47 0-1.824.557-3.304 1.671-4.44 1.114-1.136 2.561-1.705 4.344-1.705.791 0 1.544.142 2.26.426.715.284 1.415.723 2.1 1.316L80 34.178a6.51 6.51 0 00-2.047-1.092 7.89 7.89 0 00-2.443-.365zM0 32.737v1.037h7.264V49.34h1.039V32.736H0zm9.34 0V49.34h1.037V33.773h7.264v-1.037H9.34zm9.336 0v1.24h3.976v13.286h1.313V33.977h3.986v-1.24h-9.275zm43.59.016c-1.05 0-1.906.308-2.565.924-.66.616-.988 1.414-.988 2.394 0 .786.227 1.459.683 2.018.457.56 1.375 1.206 2.756 1.941 1.081.579 1.788 1.088 2.116 1.528.328.44.492.992.492 1.658 0 .911-.245 1.625-.733 2.14-.487.516-1.164.774-2.033.774-.687 0-1.277-.187-1.767-.56-.491-.374-.836-.902-1.036-1.58l-1.068.575c.362.893.863 1.563 1.504 2.012.64.45 1.41.674 2.31.674 1.238 0 2.215-.362 2.934-1.088.719-.726 1.078-1.71 1.078-2.947 0-.918-.196-1.664-.59-2.238-.393-.575-1.175-1.187-2.343-1.834a56.51 56.51 0 00-.657-.348c-1.587-.836-2.38-1.737-2.38-2.705 0-.679.199-1.218.6-1.617.399-.4.937-.598 1.612-.598.5 0 .932.103 1.297.31a2.1 2.1 0 01.85.905l.965-.584c-.319-.585-.733-1.022-1.242-1.315-.51-.292-1.108-.439-1.795-.439zM0 34.811v1.039h5.19v13.49h1.037V34.81H0zm11.414 0V49.34h1.04V35.85h5.187v-1.04h-6.227zM0 36.887v.26h4.41V49.34h.26V36.887H0zm12.97 0V49.34h.26V37.146h4.41v-.26h-4.67zM0 37.924v.52h3.113V49.34h.52V37.924H0zm14.01 0V49.34h.517V38.443h3.114v-.52H14.01zm40.47 1.16a.906.906 0 00-.902.908c0 .501.404.906.902.906a.904.904 0 00.903-.906c0-.5-.404-.908-.903-.908zm-54.478.137V40h1.555v9.34h.78V39.223L.003 39.22zm17.637 0l-2.334.002V49.34h.779V40h1.555v-.78zM0 40.52v8.82h1.037v-8.82H0zm16.604 0v8.82h1.037v-8.82h-1.037z" fill="#fff"/></svg>