<svg width="80" height="80" xmlns="http://www.w3.org/2000/svg"><path d="M-691.25 480.987c6.08-16.898 49.879-137.438 97.333-267.866 47.454-130.429 95.046-261.572 105.76-291.429 10.713-29.857 20.94-58.074 22.727-62.703l3.249-8.418 134.143 134.12c73.779 73.767 134.143 133.212 134.143 132.1 0-1.112-7.085-12.426-15.744-25.144-20.206-29.673-28.034-45.307-38.983-77.849-10.703-31.812-13.987-76.924-8.209-112.788 10.157-63.05 48.603-127.284 99.25-165.822 83.176-63.293 173.086-75.03 276.896-36.148 42.302 15.844 67.459 31.066 95.936 58.05 13.912 13.184 25.981 23.285 26.82 22.447 2.563-2.564-39.763-51.068-60.61-69.456-31.804-28.053-50.177-40.666-84.856-58.255-61.077-30.979-107.72-42.592-180.5-44.942-41.404-1.337-53.819-.671-84.139 4.512-85.649 14.644-155.222 49.928-214.663 108.867-15.056 14.93-32.842 33.572-39.525 41.43-6.682 7.856-11.594 12.356-10.914 10 .68-2.358 31.209-86.894 67.843-187.858l66.607-183.572h426.987c405.495 0 426.889.252 425.03 5-1.076 2.75-15.883 43.572-32.905 90.715-82.206 227.673-252.071 694.434-253.8 697.4-1.207 2.07-52.545-46.484-134.806-127.496C58.748-6.08-1.402-64.598-1.847-64.157c-.446.441 5.876 11.58 14.048 24.754C33.742-4.679 45.103 20.801 53.465 53.145c6.534 25.27 7.222 32.483 5.997 62.833-2.857 70.79-28.988 131.554-77.496 180.207-62.924 63.113-144.357 89.104-231.447 73.87-70.755-12.376-132.4-42.298-172.316-83.641-8.275-8.571-15.661-14.968-16.414-14.215-2.622 2.622 36.304 46.797 60.796 68.992 124.278 112.624 312.935 136.53 466.336 59.094 48.902-24.686 106.805-72.816 138.47-115.1 4.446-5.935 8.493-10.381 8.994-9.88.501.501-18.162 53.572-41.473 117.935l-42.385 117.023-427.415.724-427.415.724z" fill="none"/><path d="M24.456 26.873c-2.034 2.98-4.364 5.835-6.578 8.685-.525.675-1.044 1.357-1.556 2.041-.116.156-.363.65-.592.615-.297-.046-.694-.872-.858-1.11-.754-1.087-1.509-2.179-2.295-3.243l-.65.677-1.336 1.718-4.791 6.19-1.276 1.646-.635.747-1.144.052H0v2.745h3.094c.376 0 .986.117 1.334-.03.48-.204.953-1.112 1.272-1.517.992-1.26 2.006-2.501 3.001-3.758.92-1.162 1.842-2.322 2.768-3.48.179-.222.707-1.137 1.004-1.137.27 0 .713.786.866.988.544.72 1.109 1.425 1.653 2.146.222.295.459.744.83.848.555-.976 1.377-1.847 2.05-2.745 1.478-1.968 2.975-3.923 4.456-5.889.675-.895 1.578-1.79 2.078-2.795h.1l1.446 2.645 2.946 5.34 1.247 2.297.613-.55 1.093-1.247 1.747-2.001.864-1.058.025-1.034v-2.296c-.389.198-.697.694-.985 1.02-.708.8-1.396 1.617-2.109 2.412-.229.255-.702 1.075-1.048 1.129-.19.029-.351-.388-.427-.518-.355-.607-.684-1.232-1.027-1.847-1.42-2.543-2.711-5.269-4.335-7.686h-.1m12.427 5.041l.051 1.318.448.08h1.148v5.44h1.547v-5.44c.35 0 1.29.167 1.567-.052.168-.132.161-1.219-.035-1.316-.332-.163-1.014-.03-1.382-.03h-3.344m5.39 0v6.838h1.548v-2.645c.563.5 1.011 1.244 1.466 1.846.173.23.375.608.634.748.449.241 1.435.05 1.942.05-.477-1.041-1.604-1.927-2.296-2.844 1.544-.367 1.876-2.65.65-3.563-1.01-.75-2.76-.43-3.944-.43m5.94 0v6.838h1.597v-6.838h-1.597m2.595 0v6.838c1.237 0 3.163.365 4.192-.468 1.089-.882.786-2.992-.748-3.126.232-.254.506-.42.653-.748.102-.226.141-.502.144-.749.028-2.187-2.788-1.747-4.241-1.747m5.44 0v3.644c0 .75-.045 1.57.343 2.246.873 1.516 3.934 1.476 4.729-.1.335-.665.268-1.427.268-2.146v-3.644h-1.547v2.246c0 .8.224 2.037-.224 2.743-.447.706-1.643.527-1.899-.247-.321-.972-.073-2.373-.073-3.394 0-.292.134-1.034-.051-1.268-.192-.241-1.248-.08-1.546-.08m6.289 0v6.838h1.547V34.51h.05c.402 1.062 1.29 2.084 1.899 3.044.205.324.466.954.805 1.147.355.201 1.134.05 1.538.05v-6.837h-1.547v4.243c-.653-.967-1.27-1.96-1.894-2.945-.22-.347-.498-1.04-.86-1.246-.355-.202-1.135-.052-1.538-.052m6.138 6.838h1.697c.079-.331.235-1.031.484-1.268.143-.134.436-.08.614-.08h1.348c.169 0 .43-.047.578.052.275.183.446.984.52 1.296h1.697c-.483-1.765-1.397-3.491-2.076-5.19l-.48-1.199c-.063-.156-.112-.38-.296-.433-.247-.07-1.154-.12-1.342.064-.417.409-.61 1.425-.827 1.967-.627 1.568-1.471 3.163-1.917 4.79m7.237-6.837v6.838h3.893v-1.348h-1.647c-.175 0-.482.057-.619-.08-.23-.23-.08-1.105-.08-1.417v-3.993h-1.547m-23.441 1.228c.762-.363 1.529.928.682 1.339-.676.329-.798-.027-.798-.62 0-.178-.082-.625.116-.719m-8.65.02c.373 0 .807-.028 1.143.17.403.24.46.922.183 1.275-.181.23-1.032.579-1.275.272-.09-.114-.052-.335-.052-.47v-1.247m-19.514.1c-.614 1.1-1.564 2.087-2.322 3.094-1.407 1.867-2.802 3.745-4.237 5.59-.511.657-1.004 1.329-1.5 1.996-.114.152-.393.644-.617.61-.277-.042-.683-.836-.842-1.059-.754-1.051-1.681-2.065-2.31-3.194-.287.088-.454.42-.638.644-.496.606-.974 1.231-1.453 1.851-1.265 1.637-2.555 3.253-3.816 4.892-.52.674-1.09 1.77-1.794 2.253-.316.216-.965.092-1.333.092H0v2.146h4.891c.448 0 1.466.188 1.82-.107.491-.407.85-1.092 1.247-1.59.934-1.17 1.842-2.364 2.76-3.548.333-.429.658-.863.994-1.289.092-.116.245-.4.414-.4.29 0 .71.829.865 1.045.57.8 1.137 1.602 1.714 2.396.206.282.417.745.767.848l2.634-3.494 3.683-4.89 1.581-2.095.836-.95c.472 1.296 1.408 2.532 2.072 3.743 1.173 2.138 2.272 4.405 3.618 6.438.432-.205.782-.774 1.096-1.133.787-.9 1.569-1.807 2.364-2.7.331-.372.993-.865 1.116-1.357.108-.435.015-1 .015-1.448v-2.994c-.404.287-.722.752-1.048 1.127-.693.797-1.368 1.615-2.084 2.392-.241.263-.753 1.139-1.11 1.19-.224.033-.37-.416-.45-.567-.326-.604-.673-1.2-1.011-1.796-.97-1.709-1.921-3.428-2.883-5.141-.48-.855-1.04-1.704-1.445-2.595h-.15m47.863.798l.749 1.947H71.37l.799-1.947m-19.814 3.494v-1.597c.398 0 .882-.072 1.248.122.494.263.545 1.03.049 1.32-.372.22-.885.155-1.297.155m.599 8.734c-.413.172-.79.352-1.248.35-1.92-.014-2.677-2.57-.798-3.378.722-.31 1.364-.1 2.046.183l.549-1.198c-1.196-.629-2.562-.696-3.743.024-1.632.993-1.975 3.283-.647 4.668.862.899 2.035 1.196 3.242.986.27-.047 1.025-.177 1.107-.498.073-.286-.365-.893-.508-1.137m3.194-4.52c-3.173.5-3.425 5.278-.35 6.13.418.116.92.132 1.348.065 3.217-.502 3.382-5.434.2-6.146a3.294 3.294 0 00-1.198-.049m19.914 4.27c-.147.277-.649.826-.599 1.144.053.34.866.583 1.148.667 1.108.332 2.829.185 3.233-1.112.34-1.092-.323-1.887-1.287-2.33-.337-.155-1.362-.461-1.26-.964.18-.881 1.467-.234 1.91-.05l.548-1.098c-.632-.416-1.487-.662-2.246-.525-.991.178-1.818 1.142-1.539 2.172.166.613.684 1.026 1.24 1.283.36.167.878.322 1.11.669.303.45-.222.775-.611.82-.612.07-1.153-.394-1.647-.675m-38.58-4.193v6.04c1.132 0 2.318.153 3.344-.416 1.883-1.043 1.906-3.867.2-5.073-1.035-.73-2.347-.55-3.544-.55m5.19 6.038h3.494v-1.198H44.07V45.49h1.996v-1.248H44.07v-1.198h2.096v-1.198h-2.495c-.226 0-.734-.094-.918.052-.237.187-.08 1.206-.08 1.495v4.492m17.418-6.039v6.04h1.397v-3.694h.05l1.626 2.595.729 1.047 1.388.051v-6.039h-1.397v3.743l-1.697-2.645-.718-1.046-1.378-.052m5.49 0v1.198h1.397v4.841h1.398v-4.841h1.447v-1.198h-4.242m3.893 6.04h1.497l.4-1.199h2.345c.049.281.199.97.434 1.147.276.206 1.122.051 1.463.051-.515-1.521-1.2-3-1.797-4.492-.134-.336-.37-1.366-.71-1.517-.229-.101-1.07-.114-1.237.086-.393.471-.57 1.36-.798 1.93-.523 1.308-1.226 2.636-1.597 3.993m-12.827-4.812c1.566.002 2.067 2.285.994 3.249-.329.295-.724.32-1.144.315-1.982-.024-1.842-3.567.15-3.564M38.88 46.638v-3.544c.531 0 .996.065 1.396.454.768.747.662 2.249-.248 2.842-.36.234-.733.248-1.148.248m33.69-2.895l.648 1.747H71.87c.123-.521.362-1.33.698-1.747m3.244 6.837c.326-.073.831.122.899-.3-.336.122-.773-.132-.899.3m-36.384 2.246l-.05.15c.451.194 1.71.18 1.32-.649-.206-.434-.78-.429-1.046-.8-.402-.56.596-.536.874-.448l.05-.2c-.495-.101-1.72.054-1.07.84.258.31.831.316.992.71.252.616-.803.468-1.07.397m10.431-2.022c-1.346.21-1.155 2.545.25 2.305 1.303-.222 1.116-2.519-.25-2.305m6.788 0c-1.349.238-1.107 2.566.3 2.298 1.278-.243 1.044-2.536-.3-2.299m22.21 0c-1.35.239-1.107 2.567.3 2.3 1.277-.244 1.044-2.537-.3-2.3m-41.475.027v2.246h1.248v-.15h-1.048v-.898h.798v-.15h-.798v-.898h.998c-.184-.284-.887-.15-1.198-.15m3.993.05v.1l.798.05v2.046h.2v-2.047h.749v-.2l-1.747.05m2.346 2.197h.2c.124-.458.654-1.02 1.172-.57.221.193.135.514.474.57l-.627-1.697-.32-.517-.31.517-.59 1.697m2.696-2.246v2.246c.416 0 .931.086 1.295-.157.583-.387.615-1.56.001-1.939-.365-.226-.887-.15-1.297-.15m6.788 2.246c.335 0 .724.054 1.048-.04.832-.24.98-1.69.2-2.091-.216-.111-1.02-.259-1.196-.035-.11.139-.052.452-.052.619v1.547m6.838-2.246v2.246h.2v-1.747h.05l.648.998h.05l.649-.998h.05v1.747h.2V50.83l-.999 1.148c-.14-.37-.49-.966-.848-1.148m3.493 0l-.798 2.246c.34-.056.253-.377.474-.569.518-.45 1.048.111 1.173.569h.2c-.059-.58-.405-1.206-.62-1.747-.099-.25-.128-.475-.429-.5m1.897 2.247h.25v-.948c.176 0 .423-.043.568.08.297.252.291.797.73.868l-.5-1.048c1.012-.487-.31-1.668-.968-1.147-.14.112-.08.44-.08.598v1.597m2.146 0c.294-.051.36-.387.4-.649l.937.051.51.598c-.089-.595-.425-1.184-.633-1.747-.047-.128-.142-.525-.347-.462-.17.052-.235.417-.285.562-.19.544-.45 1.086-.582 1.647m2.745-2.246l-.05 2.246h.25v-1.747h.05c.193.459.862 1.604 1.347 1.747V50.83h-.2v1.797c-.329-.526-.84-1.514-1.397-1.797m2.695 0v2.246h.2v-1.048h1.098v1.048h.25v-1.547c0-.16.06-.485-.051-.616-.095-.113-.177.033-.192.12-.045.268-.007.572-.007.845l-1.018-.08-.08-.968h-.2m2.396 2.246h.2c.106-.46.665-1.022 1.165-.569.221.2.133.512.482.569-.158-.576-.42-1.141-.639-1.697-.054-.14-.11-.462-.277-.512-.212-.063-.287.332-.334.462-.205.56-.51 1.156-.597 1.747m-25.553-2.08c1.08-.181 1.247 1.764.25 1.92-1.14.177-1.302-1.743-.25-1.92m6.787 0c1.098-.185 1.279 1.759.25 1.92-1.119.174-1.3-1.743-.25-1.92m22.21 0c1.098-.185 1.278 1.759.25 1.92-1.12.174-1.3-1.743-.25-1.92m-32.241.034c.277 0 .642-.061.898.065.515.254.562 1.114.229 1.53-.165.204-.857.498-1.076.221-.097-.122-.051-.374-.051-.519V51.03m6.837 1.896V51.03c.294 0 .686-.068.944.1.505.329.45 1.278.002 1.625-.26.202-.636.171-.946.171m12.228-.948v-.948c.229 0 .532-.05.738.072.272.162.259.602 0 .769-.21.135-.502.107-.738.107m-1.997-.849l.4 1.098h-.849l.45-1.098m4.84 0l.4 1.098h-.849l.45-1.098m-23.907.05l.399 1.048h-.799l.4-1.048m31.692 0l.4 1.048h-.8z" fill="#fff"/></svg>