<svg width="80" height="80" xmlns="http://www.w3.org/2000/svg"><path d="M-691.25 480.987c6.08-16.898 49.879-137.438 97.333-267.866 47.454-130.429 95.046-261.572 105.76-291.429 10.713-29.857 20.94-58.074 22.727-62.703l3.249-8.418 134.143 134.12c73.779 73.767 134.143 133.212 134.143 132.1 0-1.112-7.085-12.426-15.744-25.144-20.206-29.673-28.034-45.307-38.983-77.849-10.703-31.812-13.987-76.924-8.209-112.788 10.157-63.05 48.603-127.284 99.25-165.822 83.176-63.293 173.086-75.03 276.896-36.148 42.302 15.844 67.459 31.066 95.936 58.05 13.912 13.184 25.981 23.285 26.82 22.447 2.563-2.564-39.763-51.068-60.61-69.456-31.804-28.053-50.177-40.666-84.856-58.255-61.077-30.979-107.72-42.592-180.5-44.942-41.404-1.337-53.819-.671-84.139 4.512-85.649 14.644-155.222 49.928-214.663 108.867-15.056 14.93-32.842 33.572-39.525 41.43-6.682 7.856-11.594 12.356-10.914 10 .68-2.358 31.209-86.894 67.843-187.858l66.607-183.572h426.987c405.495 0 426.889.252 425.03 5-1.076 2.75-15.883 43.572-32.905 90.715-82.206 227.673-252.071 694.434-253.8 697.4-1.207 2.07-52.545-46.484-134.806-127.496C58.748-6.08-1.402-64.598-1.847-64.157c-.446.441 5.876 11.58 14.048 24.754C33.742-4.679 45.103 20.801 53.465 53.145c6.534 25.27 7.222 32.483 5.997 62.833-2.857 70.79-28.988 131.554-77.496 180.207-62.924 63.113-144.357 89.104-231.447 73.87-70.755-12.376-132.4-42.298-172.316-83.641-8.275-8.571-15.661-14.968-16.414-14.215-2.622 2.622 36.304 46.797 60.796 68.992 124.278 112.624 312.935 136.53 466.336 59.094 48.902-24.686 106.805-72.816 138.47-115.1 4.446-5.935 8.493-10.381 8.994-9.88.501.501-18.162 53.572-41.473 117.935l-42.385 117.023-427.415.724-427.415.724z" fill="none"/><path d="M5.194 49.625l-.08-.211H4.72v-.244l.292-.371.292-.372h.37l.07.458.07.458-.13.247-.129.247h-.28zm4.843-.173l-.384-.384v.463l.176.071.176.071-.352.011-.353.01-.004-.633-.004-.633h.526l.28.317.28.317-.065-.306-.065-.306 2.104-.015 2.105-.014-.093.496-.093.497h.283l.09-.359.09-.359-.083-.134-.084-.135h.59l.116.315.117.315.1-.315.1-.315h2.742l.17.17.169.169.169-.17.169-.169h.732l.17.17.169.169v.772l-.162.1-.16.1-2.34-.017-2.34-.017-.987-.006-.987-.007.188-.118.187-.12-.049-.407-.048-.407-.332.626-.332.627-.194-.266-.195-.266-.009-.15-.009-.148-.125.312-.126.313-.36.09-.36.09-.35-.23-.352-.23v.43h-.217l-.385-.385zm14.341.257l-.564-.084-.007-.493-.007-.493.149-.104.148-.103.106-.002.106-.002V49.555h.264l.044-.528.044-.529.81-.012.81-.013v1.082h.564v-.265l-.148-.091-.148-.092.165-.198.165-.2-.263-.01-.264-.01.321-.154.322-.155.118.129.118.13.089.377.089.377-.23.229-.228.229-.37-.077-.37-.077-.423-.02-.423-.02-.211.068-.211.067-.564-.084zM6.2 49.062v-.622h2.607v.41H8.525v.564h.282v.269H6.2zm14.373.004v-.617l1.304-.003 1.303-.003v.406H22.898v.564h.282v.269h-2.607v-.617zM0 39.412v-9.304H32.269v18.6l-.07-.001-.07-.002-.157-.104-.157-.103-.114-.493-.113-.494-.05-7.715-.048-7.715H.775v15.444l-.13.134-.13.134-.046.422-.046.421-.212.04-.211.04v-9.304zm31.776-8.176v-.423H.493v.845h31.283zM52.44 47.652l.082-.211H52.2l-.128-.317-.127-.318-.01.318-.008.317h-.423v-.987h-.422v.987h-.424V46.434l-.246.047-.247.048.045.443.044.444-.298.094-.298.095-.345-.226-.346-.227v.27l-.276.087-.277.088-.287-.153-.287-.154v-1.258h.423V47.159H48.545V46.032h.563v.316l.176-.144.177-.144 1.233-.016 1.233-.016.002.39.002.389.177-.353.178-.352.321-.046.321-.046.204.169.203.169v.28l-.363-.07-.363-.069-.072.187-.072.187.084.137.085.136.42-.21.422-.21.086-.342.086-.343h.506l.225.66.225.659v.091h-.54l-.083-.177-.082-.176-.082.176-.082.177h-.813l.08.211.082.211h-.726zM1.761 47.3v-.282h3.1v.564h-3.1zm3.946 0v-.282h3.1v.564h-3.1zm17.782.035l.047-.247 1.513-.04 1.513-.04v.573h-3.12zm3.984.098l-.097-.158.134-.134.134-.133 1.467.04 1.467.04v.423l-1.503.04-1.504.04zm11.63.046l-.21-.08-.104-.156-.104-.155-.002.176-.002.177H37.554v-1.396l.845.023.846.024V47.159H39.527V46.03h.422v1.259l-.272.146-.273.145-.044-.01-.045-.012-.211-.08zm7.946-.065l-.104-.168.166-.055.166-.056v-1.104h.422v1.38l-.223.085-.222.085h-.101zm9.669.065l-.212-.08-.1-.155-.1-.153-.174.175-.175.175h-.93v-1.41h.825l.194.195.195.194.265-.194.266-.195h.489l.222.222.221.221v.669l-.313.22-.313.218-.074-.01-.075-.012-.211-.08zm2.91.007l-.095-.096-.703.032-.703.032v-1.423h.97l.091.148.091.148.164-.133.164-.134 1.021-.014 1.022-.014v.422h-.423v.987h-.423V46.434l-.246.048-.247.048.048.404.048.404-.19.12-.188.12-.152.001-.153.002-.096-.095zm4.84-.007l-.211-.08-.1-.155-.1-.153-.175.175-.175.175h-1.47l-.082-.177-.082-.176-.083.176-.082.177h-.57l.065-.177.066-.176.19-.528.188-.529h.484l.212.6.212.598.011-.599.011-.599h.825l.195.195.194.194.265-.194.266-.195h.49l.221.222.221.221v.669l-.313.22-.313.218-.074-.01-.075-.012-.21-.08zm3.1 0l-.211-.08-.1-.155-.1-.153-.175.175-.175.175h-.93v-1.41h.826l.194.195.194.194.266-.194.265-.195h.49l.221.222.222.221v.669l-.314.22-.313.218-.074-.01-.074-.012-.212-.08zm11.134-.002l-.492-.06-.101-.163-.101-.164-.175.175-.175.175h-.93v-.422h-.282v.422h-1.114l-.143-.246-.144-.247-.004.247-.004.246h-.93l-.187-.176-.186-.176-.065.176-.064.176h-.949l-.144-.246-.144-.247-.004.247-.004.246h-.963l-.082-.176-.082-.176-.082.176-.082.176h-2.091V46.031h.545l.1.315.1.315.116-.315.117-.315h.572l.01.6.011.598.23-.599.23-.599h.482l.212.6.212.598.012-.607.01-.608.53.044.527.044.023.422.022.423.02.211.022.212.257-.634.257-.634h.502l.178.493.178.493.01-.528.011-.529h.534l.095.247.095.246.138-.246.138-.247h.973v.564H76.729v-.564h.563l.006.529.006.528.2-.461.2-.46-.08-.21-.08-.208h.877v.259l-.12.047-.118.047.183.422.183.423.006-.312.006-.312.272-.146.273-.146h.421l.221.222.222.221v.669l-.313.219-.314.22-.074-.023-.074-.023-.492-.06zm-43.826-.53v-.493h-.423v-.423l1.022.002 1.022.002.17.108.17.108-.024.595-.024.594h-.349l-.143-.247-.144-.246-.004.246-.004.247h-.423v-.986H35.3v.986h-.422zm2.114-.211v-.705h.423V47.44h-.423zm3.1 0v-.705h.388l.222.317.22.317.008-.317.007-.317h.422l.01.6.011.598.23-.599.23-.599h.482l.212.6.212.598.011-.599.012-.599h.422v1.128h.564v.281H42.226l-.082-.176-.082-.176-.082.176-.082.176h-1.002l-.188-.246-.187-.247-.004.247-.004.246h-.423zm4.086.074v-.647l.228-.087.228-.088.371.13.371.131v1.12l-.599.044-.599.044zm1.41-.083v-.713l.496.044.496.044.005.14.005.141-.325.092-.326.092.317.014.317.014v.403l-.317.06-.317.062.388.02.387.018v.282H45.585zm-35.23-1.567l-.002-2.018-.088-.528-.087-.528h1.03l-.039 2.5-.038 2.502-.388.045-.387.044-.002-2.017zm2.679.116v-1.883l-.09-.654-.09-.653H13.918l-.09.653-.089.654v3.766h-.704zm2.63 1.789l-.094-.094v-4.885H16.594l-.087.528-.087.529-.002 2.008-.002 2.008h-.658zm2.677 0l-.094-.094v-4.885h1.024l-.088.528-.087.529-.002 2.008-.002 2.008h-.658zm2.674-.016l-.068-.109-.037-2.392-.037-2.392.539-.045.54-.045-.09.538-.089.539-.002 2.008-.002 2.008h-.688zM1.933 44.87l.04-1.726 1.303-.041 1.304-.04v3.533h-.564v-2.96h-1.55v2.96h-.572zm4.056-.04V43.06l1.303.041 1.304.04.04 1.727.039 1.726h-.572v-2.96H6.412v2.96h-.423zm17.645.04l.04-1.726h2.677l.04 1.726.04 1.726h-.573v-2.96H24.167v2.96h-.573zm4.086 0l.04-1.726h2.537l.04 1.726.039 1.726h-.573v-2.96h-1.55v2.96h-.572zm16.832-.34l-.094-.095v-2.912h1.812l.292-.371.292-.372v-8.416H50.236v9.672l-.208.7-.208.7-.391.375-.39.374-.525.22-.524.218h-3.344zM37.976 39.9v-4.58H34.453v-2.959H44.74v2.96H41.358v9.16H37.976zm14.233-1.48v-6.058h4.932v.108l.78 2.94.78 2.94.153.564.152.564.945-3.523.945-3.523 2.49-.038 2.491-.039v12.125H62.495l-.01-4.122-.01-4.121-.917 3.382-.916 3.382-.21.74-.211.74h-2.455l-1.052-3.911-1.053-3.91-.037 3.91-.038 3.91h-3.377zm14.987 5.743l.081-.317 2.025-5.707 2.025-5.707h3.467l.756 2.114.755 2.113.37 1.033.371 1.033.586-.575.586-.575h.173l.157.451.157.45-.644.655-.645.655.094.374.094.375h.17l.599-.588.598-.587.147.385.146.385v.323l-.582.593-.581.593.096.385.097.385.596-.585.596-.585h.18l.167.508.167.507-.634.655-.635.655.116.282.116.282.01.18.01.181-1.648-.04-1.647-.04-.355-1.095-.356-1.096-1.899.039-1.9.039-.353 1.092-.354 1.092h-3.356l.081-.317zm10.909-.284l.445-.46-.082-.315-.082-.315h-.189l-.765.775-.765.775h.992zm-.332-2.634l-.13-.439-1.107 1.116-1.107 1.115.101.459.1.458 1.136-1.135 1.136-1.136zm-4.128-3.661l-.51-1.683-.092.098-.09.097-.492 1.585-.491 1.585h2.186zM1.902 42.156v-.211h2.819v.422H1.902zm3.946 0v-.211h2.96v.422h-2.96zm17.755 0v-.211h2.96v.422h-2.96zm3.946 0v-.211h2.959v.422h-2.96zm-17.615-.562v-.354h12.42l-.045.317-.045.317-6.165.037-6.165.037zM1.902 39.98v-1.542l.313-.219.312-.218.469-.088.469-.088.628.24.628.24v3.217h-.564v-2.537H2.466v2.537h-.564zm4.087.215v-1.327l-.082-.213-.081-.212.377-.247.377-.247.67-.01.668-.01.374.2.374.2v3.193h-.563v-2.536h-1.55v2.536h-.564zm17.755 0v-1.327l-.082-.213-.081-.212.377-.247.377-.247.67-.01.668-.01.374.2.374.2v3.193h-.563v-2.536h-1.55v2.536h-.564v-1.327zm3.918-.188l-.046-1.515.248-.234.25-.234.53-.09.531-.09.56.184.562.183.04 1.656.039 1.655h-.573v-2.536h-1.55v2.536h-.545zm-17.858.958l-.18-.11.05-.246.05-.246 3.19-1.273 3.192-1.272 3.08 1.231 3.078 1.231.168.138.168.138-.077.201-.077.201H21.9l-2.763-1.127-2.763-1.127h-.46l-2.321.93-2.321.932-.645.255-.645.255zm2.667-.26v-.112l1.837-.743 1.837-.742 1.824.749 1.824.75.003.105.003.105h-7.327v-.112zm-1.994-4.256l-.021-1.409-.014-.176-.014-.176.407-.047.406-.046-.087.328-.088.328-.002 1.304-.002 1.303h-.564zm.867.271v-1.138l.411-.412.412-.412h.889l.412.412.412.412v2.276h-.564V36.167H11.907V37.858h-.563zm2.816-.165l-.002-1.304-.088-.328-.088-.328.391.046.392.047-.029 1.471-.028 1.472-.07.114-.07.113h-.406l-.002-1.303zm.706.165v-1.138l.412-.412.412-.412h.977l.333.27.332.269.05 1.28.049 1.281h-.451V36.167h-1.55V37.858h-.564zm2.817-.165l-.002-1.304-.088-.328-.088-.328.407.046.407.047-.014.176-.014.176-.022 1.41-.02 1.408h-.564l-.002-1.303zm.727.093l.05-1.21.395-.34.395-.34h.984l.346.346.346.346v2.408h-.423V36.167h-1.55V37.858h-.593zm2.796-.093l-.002-1.304-.085-.317-.085-.317h.77l-.085.317-.085.317-.002 1.304-.002 1.303h-.423l-.002-1.303zm-19.445.599v-.282h3.1v.564h-3.1zm3.973.035l.047-.247 1.513-.04 1.513-.04v.573h-3.12zm17.755 0l.047-.247 1.513-.04 1.513-.04v.573h-3.12zm3.982.093l-.095-.153.134-.134.134-.134 1.465.04 1.466.041.047.247.047.246h-3.104zm-25.569-2.45v-1.76l.32-.08.32-.08.984.042.983.043.04 1.808.04 1.807-.252-.048-.25-.047-.042-1.091-.04-1.09h-1.54v2.254h-.563zm4.118-.028l.04-1.807.983-.043.983-.042.324.081.325.082-.04 1.72-.04 1.721-.246.047-.246.048v-2.276H6.564l-.04 1.09-.042 1.091-.25.048-.252.048zm17.677 1.692l-.094-.094V33.073l.32-.08.32-.081.984.042.983.043.04 1.808.039 1.807-.25-.048-.252-.047-.04-1.091-.042-1.09h-1.538v2.254h-.376zm4.024-1.692l.039-1.807.983-.043.984-.042.32.08.32.08v3.518h-.564v-2.255h-1.538l-.041 1.09-.041 1.091-.251.048-.251.048zm-17.364-.54v-.214l5.778.037 5.777.037V34.406l-5.777.037-5.778.036zm-.25-.528l.054-.176 1.115-.585 1.115-.585.921.464.921.464.915-.462.915-.462.917.462.917.462.912-.461.913-.46 1.165.578 1.166.578v.36h-.43l-.98-.494-.98-.493-.918.453-.92.453-.88-.434-.88-.434-.882.434-.88.434-.92-.453-.918-.453-.98.493-.98.494h-.453z" fill="#fff"/></svg>